<svg role="img" width="100%" height="100%" viewBox="0 0 24 24" fill="none" class="text-accent hover:text-white cursor-pointer aspect-square w-[23.4px]  md:w-[23.4px] shrink-0  transition-all ease-out-expo duration-700 sm:w-[23.4px]" xmlns="http://www.w3.org/2000/svg"><title>Facebook</title><path fill-rule="evenodd" clip-rule="evenodd" d="M12 0.0771484C18.6274 0.0771484 24 5.44783 24 12.0729C24 18.0603 19.6118 23.023 13.875 23.9229V15.5404H16.6711L17.2031 12.0729H17.1454L17.151 12.0359H13.875V9.82269C13.875 8.87404 14.3399 7.94936 15.8306 7.94936H17.3438V4.99728C17.3438 4.99728 17.3258 4.99421 17.2919 4.98878V4.93345C17.2919 4.93345 15.916 4.69827 14.6005 4.69827C11.8541 4.69827 10.059 6.36523 10.059 9.38306V12.0359H7.00621V15.5166H7.07812V15.5404H10.059V23.9124C4.35463 22.9849 0 18.0374 0 12.0729C0 5.44783 5.37258 0.0771484 12 0.0771484Z" fill="#5AC1FF"></path></svg>