<svg role="img" width="100%" height="100%" viewBox="0 0 24 24" fill="none" class="text-accent hover:text-white cursor-pointer aspect-square w-[23.4px]  md:w-[23.4px] shrink-0  transition-all ease-out-expo duration-700 sm:w-[23.4px]" xmlns="http://www.w3.org/2000/svg"><title>Instagram</title><path fill-rule="evenodd" clip-rule="evenodd" d="M23.9279 7.21047C23.8694 5.97389 23.6666 5.12942 23.3699 4.39059C23.0687 3.61542 22.5963 2.91329 21.9858 2.33294C21.3865 1.74194 20.6611 1.28443 19.8604 0.99266C19.097 0.705673 18.2249 0.509444 16.9475 0.453252C15.6678 0.396529 15.2589 0.383057 12 0.383057C8.74109 0.383057 8.33221 0.396529 7.05249 0.452898C5.77515 0.509444 4.90302 0.70585 4.13965 0.993014C3.33893 1.28461 2.61365 1.74194 2.01416 2.33294C1.40369 2.91311 0.931091 3.61525 0.6297 4.39041C0.333252 5.12942 0.130554 5.97389 0.0725098 7.21029C0.013916 8.44935 0 8.845 0 11.9999C0 15.155 0.013916 15.5508 0.0725098 16.7897C0.130737 18.0261 0.333618 18.8706 0.630249 19.6096C0.931458 20.3846 1.40387 21.0869 2.01434 21.667C2.61365 22.258 3.33911 22.7154 4.13983 23.007C4.90302 23.2943 5.77533 23.4905 7.05267 23.5471C8.33258 23.6036 8.74127 23.6169 12.0002 23.6169C15.2591 23.6169 15.668 23.6036 16.9477 23.5471C18.225 23.4905 19.0972 23.2943 19.8605 23.007C21.4724 22.4036 22.7466 21.17 23.3699 19.6096C23.6667 18.8706 23.8694 18.0261 23.9279 16.7897C23.9861 15.5506 24 15.155 24 12.0001C24 8.845 23.9861 8.44935 23.9279 7.21047ZM21.7678 16.6945C21.7145 17.8272 21.5189 18.4423 21.3547 18.8516C20.9509 19.8648 20.1238 20.6655 19.0772 21.0564C18.6544 21.2154 18.019 21.4047 16.849 21.4563C15.5839 21.5123 15.2043 21.524 12 21.524C8.79547 21.524 8.41608 21.5123 7.15082 21.4563C5.98096 21.4047 5.34558 21.2154 4.92261 21.0564C4.40149 20.8701 3.92999 20.5732 3.54291 20.1873C3.14429 19.8125 2.83759 19.3563 2.64514 18.8516C2.4809 18.4423 2.28534 17.8272 2.23206 16.6945C2.17438 15.4696 2.16211 15.1022 2.16211 12.0003C2.16211 8.89818 2.17438 8.53089 2.23206 7.30583C2.28552 6.17313 2.4809 5.55803 2.64514 5.14874C2.83759 4.64407 3.14447 4.18762 3.54291 3.81289C3.92999 3.42699 4.40149 3.13008 4.92279 2.94396C5.34558 2.78478 5.98096 2.59564 7.151 2.54388C8.41626 2.48804 8.79584 2.47616 12 2.47616C15.204 2.47616 15.5836 2.48804 16.849 2.54405C18.019 2.59564 18.6542 2.78495 19.0772 2.94396C19.5983 3.13026 20.0698 3.42717 20.4569 3.81289C20.8555 4.18762 21.1622 4.64407 21.3545 5.14874C21.5189 5.55803 21.7145 6.17313 21.7678 7.30583C21.8254 8.53071 21.8377 8.89818 21.8377 12.0001C21.8377 15.1022 21.8256 15.4694 21.7678 16.6945ZM11.9998 6.03451C8.59662 6.03451 5.83777 8.70549 5.83777 12.0001C5.83777 15.2947 8.59662 17.9655 11.9998 17.9655C15.4032 17.9655 18.162 15.2947 18.162 12.0001C18.162 8.70549 15.4032 6.03451 11.9998 6.03451ZM11.9998 15.8724C9.79083 15.8722 7.99988 14.1386 8.00006 11.9999C8.00006 9.86142 9.79083 8.12762 12 8.12762C14.2092 8.1278 15.9999 9.86142 15.9999 11.9999C15.9999 14.1386 14.209 15.8724 11.9998 15.8724ZM18.4056 7.19292C19.2008 7.19292 19.8455 6.56878 19.8455 5.79893C19.8455 5.02891 19.2008 4.40477 18.4056 4.40477C17.6102 4.40477 16.9654 5.02891 16.9654 5.79893C16.9654 6.56878 17.6102 7.19292 18.4056 7.19292Z" fill="#5AC1FF"></path></svg>