<svg role="img" width="100%" height="100%" viewBox="0 0 24 24" fill="none" class="text-accent hover:text-white cursor-pointer aspect-square w-[23.4px]  md:w-[23.4px] shrink-0  transition-all ease-out-expo duration-700 sm:w-[23.4px]" xmlns="http://www.w3.org/2000/svg"><title>LinkedIn</title><path d="M0.373541 7.93774V24H5.32296V7.93774H0.373541ZM2.89494 0C1.30739 0 0 1.30739 0 2.89494C0 4.48249 1.30739 5.78988 2.89494 5.78988C4.48249 5.78988 5.78988 4.48249 5.78988 2.89494C5.78988 1.30739 4.48249 0 2.89494 0ZM8.40467 7.93774H8.49805V23.8132H13.4475V15.8755C13.4475 13.821 13.821 11.7665 16.4358 11.7665C19.0506 11.7665 19.0506 14.1946 19.0506 16.0623V23.9066H24V15.1284C24 10.8327 23.0661 7.47082 18.0233 7.47082C15.5953 7.47082 13.9144 8.77821 13.2607 10.0856H13.1673V7.93774H8.40467Z" fill="#5AC1FF"></path></svg>