<svg width="171" height="147" viewBox="0 0 171 147" fill="none" xmlns="http://www.w3.org/2000/svg">
<path d="M136.171 77.0597C137.432 77.0101 138.715 76.5676 139.94 75.6962C142.13 74.1385 143.386 71.5786 144.579 69.136C145.917 66.4044 147.06 63.5419 147.943 60.5981H170.262C171.118 60.5981 171.714 61.5192 171.423 62.3906C170.64 64.7068 169.698 66.9597 168.632 69.136C167.44 71.5786 166.183 74.1385 163.994 75.6962C162.742 76.5902 161.426 77.0327 160.133 77.0597H136.175H136.171Z" fill="#00001F" stroke="#00001F" stroke-width="0.985981" stroke-linecap="round" stroke-linejoin="round"/>
<path d="M151.466 65.7316H165.268" stroke="#00001F" stroke-width="0.985981" stroke-linecap="round" stroke-linejoin="round"/>
<path d="M152.244 68.8335H164.072" stroke="#00001F" stroke-width="0.985981" stroke-linecap="round" stroke-linejoin="round"/>
<path d="M147.205 17.9946C150.005 17.8411 152.941 19.0737 154.771 21.9227C157.88 26.7537 156.983 33.0701 156.123 38.4159C155.367 43.1115 154.22 47.7303 153.005 52.3265C151.853 56.6609 150.651 60.8508 151.471 65.3793C152.017 68.3863 153.141 71.2714 154.789 73.5198C156.515 75.8721 158.659 77.1183 160.862 77.055H136.339C134.1 77.1589 131.914 75.9127 130.162 73.5243C128.514 71.2759 127.39 68.3953 126.843 65.3838C125.423 57.5503 128.951 49.8704 130.735 42.3936C132.229 36.1403 133.858 27.7018 130.144 21.9272C128.314 19.0828 123.912 18.0488 121.03 18.0579L147.201 18.0037L147.205 17.9946Z" fill="#08527F" stroke="#00001F" stroke-width="0.985981" stroke-linecap="round" stroke-linejoin="round"/>
<path d="M138.82 77.0503C136.58 77.1542 134.395 75.9081 132.643 73.5196C130.995 71.2712 129.87 68.3906 129.324 65.3791C127.904 57.5456 131.432 49.8657 133.216 42.3889C134.709 36.1356 136.339 27.6971 132.624 21.9225C130.794 19.0781 126.392 18.0441 123.511 18.0532" stroke="#00001F" stroke-width="0.985981" stroke-linecap="round" stroke-linejoin="round"/>
<path d="M158.437 77.0463C156.197 77.1502 154.012 75.904 152.259 73.5156C150.611 71.2671 149.487 68.3866 148.941 65.3751C147.521 57.5416 151.372 49.9294 152.833 42.3848C154.199 35.3415 155.956 27.6931 152.241 21.9185C150.411 19.074 146.009 18.0401 143.128 18.0491" stroke="#00001F" stroke-width="0.985981" stroke-linecap="round" stroke-linejoin="round"/>
<path d="M134.159 25.485C136.767 22.2116 141.688 17.972 146.176 18.0352H118.968C114.479 17.972 109.558 22.2116 106.95 25.485C103.595 29.6929 101.469 34.6684 98.7106 39.2511C95.9565 43.8293 93.6895 47.4503 89.9385 51.3242H117.147C120.898 47.4458 123.165 43.8293 125.919 39.2511C128.678 34.6684 130.804 29.6929 134.159 25.485Z" fill="#C4ECFF" stroke="#00001F" stroke-width="0.985981" stroke-linecap="round" stroke-linejoin="round"/>
<path d="M129.206 22.171H132.315" stroke="#00001F" stroke-width="0.985981" stroke-linecap="round" stroke-linejoin="round"/>
<path d="M98.1822 46.7958H115.248" stroke="#00001F" stroke-width="0.985981" stroke-linecap="round" stroke-linejoin="round"/>
<path d="M106.226 34.4834H123.287" stroke="#00001F" stroke-width="0.985981" stroke-linecap="round" stroke-linejoin="round"/>
<path d="M101.551 42.6917H118.617" stroke="#00001F" stroke-width="0.985981" stroke-linecap="round" stroke-linejoin="round"/>
<path d="M104.333 38.6462H121.394" stroke="#00001F" stroke-width="0.985981" stroke-linecap="round" stroke-linejoin="round"/>
<path d="M115.249 22.171H129.206" stroke="#00001F" stroke-width="0.985981" stroke-linecap="round" stroke-linejoin="round"/>
<path d="M125.477 26.2751H128.586" stroke="#00001F" stroke-width="0.985981" stroke-linecap="round" stroke-linejoin="round"/>
<path d="M111.52 26.2751H125.477" stroke="#00001F" stroke-width="0.985981" stroke-linecap="round" stroke-linejoin="round"/>
<path d="M122.555 30.3792H125.669" stroke="#00001F" stroke-width="0.985981" stroke-linecap="round" stroke-linejoin="round"/>
<path d="M108.602 30.3792H122.555" stroke="#00001F" stroke-width="0.985981" stroke-linecap="round" stroke-linejoin="round"/>
<path d="M114.89 133.925H30.2602C29.0038 133.925 27.9841 132.914 27.9841 131.668C27.9841 130.422 29.0038 129.41 30.2602 129.41H114.89C118.76 129.41 121.91 126.286 121.91 122.448C121.91 119.378 119.925 116.705 116.966 115.798L106.683 112.637C105.481 112.267 104.812 111.003 105.185 109.811C105.558 108.619 106.833 107.951 108.035 108.326L118.318 111.486C123.189 112.985 126.466 117.392 126.466 122.448C126.466 128.778 121.272 133.925 114.895 133.925H114.89Z" fill="#5AC1FF" stroke="#00001F" stroke-width="0.985981" stroke-linecap="round" stroke-linejoin="round"/>
<path d="M45.7057 148.315C49.5221 148.315 52.616 145.246 52.616 141.461C52.616 137.676 49.5221 134.607 45.7057 134.607C41.8893 134.607 38.7955 137.676 38.7955 141.461C38.7955 145.246 41.8893 148.315 45.7057 148.315Z" fill="#00001F" stroke="#00001F" stroke-width="0.985981" stroke-linecap="round" stroke-linejoin="round"/>
<path d="M134.851 49.8433L117.612 59.7446C116.396 60.4399 115.964 62.1285 116.751 63.5462C117.557 65.0001 119.241 65.6006 120.48 64.8872L137.719 54.9858C138.934 54.2905 139.367 52.6019 138.579 51.1842C137.773 49.7304 136.089 49.1299 134.851 49.8433Z" fill="#5AC1FF" stroke="#00001F" stroke-width="0.985981" stroke-linecap="round" stroke-linejoin="round"/>
<path d="M45.7052 144.599C47.4525 144.599 48.8689 143.194 48.8689 141.461C48.8689 139.728 47.4525 138.323 45.7052 138.323C43.9579 138.323 42.5414 139.728 42.5414 141.461C42.5414 143.194 43.9579 144.599 45.7052 144.599Z" fill="#5AC1FF" stroke="#00001F" stroke-width="0.985981" stroke-linecap="round" stroke-linejoin="round"/>
<path d="M35.6447 133.925H45.045C49.2376 133.925 52.6426 137.303 52.6426 141.461H35.6447V133.925Z" fill="#C4ECFF" stroke="#00001F" stroke-width="0.985981" stroke-linecap="round" stroke-linejoin="round"/>
<path d="M111.562 148.315C115.379 148.315 118.472 145.246 118.472 141.461C118.472 137.676 115.379 134.607 111.562 134.607C107.746 134.607 104.652 137.676 104.652 141.461C104.652 145.246 107.746 148.315 111.562 148.315Z" fill="#00001F" stroke="#00001F" stroke-width="0.985981" stroke-linecap="round" stroke-linejoin="round"/>
<path d="M111.562 144.599C113.31 144.599 114.726 143.194 114.726 141.461C114.726 139.728 113.31 138.323 111.562 138.323C109.815 138.323 108.398 139.728 108.398 141.461C108.398 143.194 109.815 144.599 111.562 144.599Z" fill="#5AC1FF" stroke="#00001F" stroke-width="0.985981" stroke-linecap="round" stroke-linejoin="round"/>
<path d="M101.507 133.925H110.907C115.1 133.925 118.505 137.303 118.505 141.461H101.507V133.925Z" fill="#C4ECFF" stroke="#00001F" stroke-width="0.985981" stroke-linecap="round" stroke-linejoin="round"/>
<path d="M73.0232 30.6634C72.8456 28.1892 72.7364 25.6924 73.055 23.2318C73.3737 20.7711 74.1294 18.3285 75.5588 16.2877" stroke="#00001F" stroke-width="0.985981" stroke-linecap="round" stroke-linejoin="round"/>
<path d="M68.0204 25.6609C68.3527 29.2864 70.0097 32.7765 72.6136 35.3455" stroke="#00001F" stroke-width="0.985981" stroke-linecap="round" stroke-linejoin="round"/>
<path d="M98.3563 74.8291C100.578 63.1127 102.226 51.2022 108.927 40.9848C98.8115 37.6934 88.692 34.402 78.5816 31.1106C77.9943 32.0226 77.4526 32.9437 76.9382 33.8783C67.0099 51.6808 70.0598 73.8358 58.6065 91.1282C68.635 94.5189 78.6635 97.9142 88.692 101.309C94.1683 93.2412 96.4444 84.0983 98.3563 74.8291Z" fill="#56E1AF" stroke="#00001F" stroke-width="0.985981" stroke-linecap="round" stroke-linejoin="round"/>
<path d="M100.25 41.9331C94.7644 40.2219 89.279 38.5152 83.7936 36.8086C83.7936 36.8086 83.1335 36.4429 82.1593 36.7679C81.1852 37.0885 80.2292 37.5806 80.2292 37.5806C79.9743 37.6619 79.7194 37.7432 79.469 37.8245C79.469 37.8245 79.2232 37.2781 78.6815 38.3753C78.0578 38.8087 74.0109 50.3264 72.1718 62.4311C70.4511 74.5718 66.386 85.769 66.0855 85.6697C66.0855 85.6697 65.5802 86.1979 65.9717 86.979C66.3677 87.7601 67.0142 88.7759 67.0142 88.7759C67.0142 88.7759 66.9049 89.3448 67.9929 89.7241C69.0854 90.1079 83.7481 95.6748 83.7481 95.6748C83.7481 95.6748 84.0713 96.0315 84.7677 95.2956C85.4688 94.5596 87.4627 93.5663 88.3321 93.2503C89.2107 92.9523 89.452 92.713 89.5612 92.2525C89.9345 92.1351 93.7993 80.8612 95.8023 69.0139C97.6596 57.1215 102.007 46.1275 102.307 46.2223C102.307 46.2223 102.917 45.7392 102.257 45.1432C101.593 44.5473 101.215 43.5043 101.133 42.9715C101.033 42.4207 100.245 41.9286 100.245 41.9286H100.254L100.25 41.9331Z" fill="#BCFEE6"/>
<path d="M98.3563 74.8291C100.578 63.1127 102.226 51.2022 108.927 40.9848C98.8115 37.6934 88.692 34.402 78.5816 31.1106C77.9943 32.0226 77.4526 32.9437 76.9382 33.8783C67.0099 51.6808 70.0598 73.8358 58.6065 91.1282C68.635 94.5189 78.6635 97.9142 88.692 101.309C94.1683 93.2412 96.4444 84.0983 98.3563 74.8291Z" stroke="#00001F" stroke-width="0.985981" stroke-linecap="round" stroke-linejoin="round"/>
<path d="M100.806 42.3035C94.7876 40.3305 88.7651 38.3574 82.7425 36.3889" stroke="#00001F" stroke-width="0.985981" stroke-linecap="round" stroke-linejoin="round"/>
<path d="M80.5663 87.4532C82.4965 87.2591 83.9031 85.584 83.6436 83.6877C83.3887 81.7914 81.6315 80.4234 79.7788 80.6446C77.926 80.8659 76.6241 82.577 76.8016 84.4462C76.9792 86.3154 78.6271 87.6519 80.5618 87.4532H80.5663Z" fill="#C4ECFF" stroke="#00001F" stroke-width="0.985981" stroke-linecap="round" stroke-linejoin="round"/>
<path d="M89.475 51.058C91.3368 50.8413 92.6661 49.1347 92.5159 47.2835C92.3656 45.4279 90.7314 44.0914 88.7831 44.2856C86.8347 44.4752 85.3962 46.1412 85.6329 48.024C85.8696 49.9067 87.6131 51.2793 89.475 51.058Z" fill="#C4ECFF" stroke="#00001F" stroke-width="0.985981" stroke-linecap="round" stroke-linejoin="round"/>
<path d="M105.554 46.9087C105.221 46.85 104.912 46.7913 104.598 46.6739C101.452 45.6445 99.9453 42.3531 101.753 39.4861C101.903 39.2423 102.144 39.0707 102.335 38.8405" stroke="#00001F" stroke-width="0.985981" stroke-linecap="round" stroke-linejoin="round"/>
<path d="M102.472 45.712C98.3884 54.4711 96.959 64.1241 95.1563 73.6507C93.6814 80.229 92.029 86.7532 89.1656 92.871" stroke="#00001F" stroke-width="0.985981" stroke-linecap="round" stroke-linejoin="round"/>
<path d="M65.6533 86.4191C72.6773 71.172 71.7623 53.2701 78.7864 38.0276" stroke="#00001F" stroke-width="0.985981" stroke-linecap="round" stroke-linejoin="round"/>
<path d="M62.4402 85.0917C62.7725 85.1504 63.082 85.2091 63.3961 85.3264C66.5417 86.3559 68.0622 89.6518 66.2822 92.5278C66.1366 92.7762 65.9454 93.0245 65.7587 93.2412" stroke="#00001F" stroke-width="0.985981" stroke-linecap="round" stroke-linejoin="round"/>
<path d="M75.3859 37.1066C75.6591 37.2601 75.9732 37.373 76.2827 37.4723C79.4465 38.5062 83.0564 36.8718 84.85 33.9958C85.0002 33.7474 85.0457 33.6571 85.1777 33.4133" stroke="#00001F" stroke-width="0.985981" stroke-linecap="round" stroke-linejoin="round"/>
<path d="M92.9893 93.4172C92.7981 93.354 85.8879 90.8708 82.1505 98.9165" stroke="#00001F" stroke-width="0.985981" stroke-linecap="round" stroke-linejoin="round"/>
<path d="M67.2191 89.3495C72.8729 91.4851 78.5268 93.6252 84.1806 95.7563" stroke="#00001F" stroke-width="0.985981" stroke-linecap="round" stroke-linejoin="round"/>
<path d="M101.439 83.0553C105.645 71.8852 109.314 60.4308 117.676 51.4956C108.276 46.5427 98.8712 41.5853 89.4754 36.6323C88.7425 37.4315 88.046 38.2487 87.3814 39.0794C74.5397 54.9406 73.7294 77.2852 59.4719 92.3877C68.772 97.4265 78.0676 102.465 87.3632 107.508C94.146 100.483 97.9653 91.8595 101.443 83.0508L101.439 83.0553Z" fill="#56E1AF" stroke="#00001F" stroke-width="0.985981" stroke-linecap="round" stroke-linejoin="round"/>
<path d="M108.959 50.9584C103.847 48.3443 98.7349 45.7346 93.6273 43.125C93.6273 43.125 93.0401 42.6554 92.0249 42.8089C91.0052 42.9624 89.981 43.283 89.981 43.283C89.7169 43.3191 89.4529 43.3597 89.1934 43.3959C89.1934 43.3959 89.0478 42.8134 88.324 43.8067C87.6366 44.1273 81.6687 54.7917 77.772 66.4087C73.9891 78.0799 68.0576 88.4237 67.7753 88.2747C67.7753 88.2747 67.1881 88.7127 67.4385 89.5479C67.6934 90.3832 68.1577 91.4939 68.1577 91.4939C68.1577 91.4939 67.9529 92.0357 68.9589 92.5955C69.9695 93.1554 83.4577 101.124 83.4577 101.124C83.4577 101.124 83.7171 101.531 84.5274 100.921C85.3423 100.312 87.4773 99.675 88.3923 99.508C89.3072 99.3635 89.5849 99.1693 89.7761 98.7314C90.1631 98.6817 95.9125 88.225 99.923 76.8879C103.801 65.4831 109.974 55.3876 110.252 55.5321C110.252 55.5321 110.939 55.1574 110.388 54.4621C109.833 53.7622 109.642 52.6696 109.656 52.1323C109.656 51.5725 108.959 50.9539 108.959 50.9539H108.964L108.959 50.9584Z" fill="#BCFEE6"/>
<path d="M101.439 83.0553C105.645 71.8852 109.314 60.4308 117.676 51.4956C108.276 46.5427 98.8712 41.5853 89.4754 36.6323C88.7425 37.4315 88.046 38.2487 87.3814 39.0794C74.5397 54.9406 73.7294 77.2852 59.4719 92.3877C68.772 97.4265 78.0676 102.465 87.3632 107.508C94.146 100.483 97.9653 91.8595 101.443 83.0508L101.439 83.0553Z" stroke="#00001F" stroke-width="0.985981" stroke-linecap="round" stroke-linejoin="round"/>
<path d="M109.441 51.4142C103.851 48.4523 98.252 45.4905 92.6619 42.5287" stroke="#00001F" stroke-width="0.985981" stroke-linecap="round" stroke-linejoin="round"/>
<path d="M81.7358 92.4826C83.6751 92.6181 85.3457 91.2049 85.4186 89.295C85.4914 87.3852 83.9937 85.7372 82.1319 85.6424C80.2655 85.5476 78.6904 87.015 78.5448 88.8842C78.3991 90.7534 79.7921 92.3517 81.7313 92.4871L81.7358 92.4826Z" fill="#C4ECFF" stroke="#00001F" stroke-width="0.985981" stroke-linecap="round" stroke-linejoin="round"/>
<path d="M96.7724 58.1279C98.6434 58.2272 100.246 56.7734 100.419 54.9223C100.592 53.0666 99.2078 51.4774 97.255 51.3374C95.3066 51.1929 93.5995 52.5926 93.5085 54.4889C93.4174 56.3851 94.9015 58.0286 96.7724 58.1279Z" fill="#56E1AF" stroke="#00001F" stroke-width="0.985981" stroke-linecap="round" stroke-linejoin="round"/>
<path d="M113.329 56.7599C113.015 56.647 112.719 56.5341 112.428 56.3671C109.505 54.823 108.585 51.3238 110.862 48.8045C111.048 48.5878 111.317 48.4614 111.549 48.2672" stroke="#00001F" stroke-width="0.985981" stroke-linecap="round" stroke-linejoin="round"/>
<path d="M110.498 55.058C104.967 62.9998 101.899 72.2691 98.4844 81.3487C95.9033 87.5839 93.1493 93.7333 89.2753 99.2731" stroke="#00001F" stroke-width="0.985981" stroke-linecap="round" stroke-linejoin="round"/>
<path d="M67.2195 88.9383C76.7609 75.1044 78.9414 57.3064 88.4874 43.4771" stroke="#00001F" stroke-width="0.985981" stroke-linecap="round" stroke-linejoin="round"/>
<path d="M64.279 87.087C64.5931 87.1998 64.889 87.3127 65.1803 87.4798C68.1028 89.0239 69.036 92.532 66.7873 95.0649C66.6006 95.2862 66.373 95.4984 66.1499 95.679" stroke="#00001F" stroke-width="0.985981" stroke-linecap="round" stroke-linejoin="round"/>
<path d="M85.2879 41.996C85.5292 42.1946 85.8205 42.3572 86.1073 42.5062C89.048 44.0638 92.8855 43.057 95.1434 40.5286C95.3301 40.3074 95.3938 40.2306 95.5668 40.0094" stroke="#00001F" stroke-width="0.985981" stroke-linecap="round" stroke-linejoin="round"/>
<path d="M92.9483 100.46C92.7707 100.366 86.3886 96.7492 81.322 104.045" stroke="#00001F" stroke-width="0.985981" stroke-linecap="round" stroke-linejoin="round"/>
<path d="M68.2576 92.0941C73.4607 95.1553 78.6639 98.2209 83.8671 101.278" stroke="#00001F" stroke-width="0.985981" stroke-linecap="round" stroke-linejoin="round"/>
<path d="M26.7636 67.3388L117.457 58.8597C119.87 58.634 121.823 60.7831 121.34 63.1399L111.867 109.613C111.412 111.852 109.304 113.378 107.01 113.121L38.4719 105.459C32.9637 104.845 28.6255 100.515 28.0382 95.0472L25.2614 69.1629C25.1612 68.2463 25.8395 67.4246 26.7636 67.3388Z" fill="#5AC1FF" stroke="#00001F" stroke-width="0.985981" stroke-linecap="round" stroke-linejoin="round"/>
<path d="M117.275 83.1006L26.5814 81.421" stroke="#00001F" stroke-width="0.985981" stroke-linecap="round" stroke-linejoin="round"/>
<path d="M120.908 64.4312L25.8123 73.2444" stroke="#00001F" stroke-width="0.985981" stroke-linecap="round" stroke-linejoin="round"/>
<path d="M91.1729 111.351L96.8995 60.7834" stroke="#00001F" stroke-width="0.985981" stroke-linecap="round" stroke-linejoin="round"/>
<path d="M68.8303 108.854L70.8879 63.2122" stroke="#00001F" stroke-width="0.985981" stroke-linecap="round" stroke-linejoin="round"/>
<path d="M47.9369 106.516L46.3163 65.5105" stroke="#00001F" stroke-width="0.985981" stroke-linecap="round" stroke-linejoin="round"/>
<path d="M25.7166 73.3889L121.072 64.4718L121.345 63.1399C121.827 60.7831 119.874 58.634 117.462 58.8597L26.7636 67.3388C25.8395 67.4246 25.1612 68.2463 25.2614 69.1629L25.7166 73.3889Z" fill="#C4ECFF" stroke="#00001F" stroke-width="0.985981" stroke-linecap="round" stroke-linejoin="round"/>
<path d="M37.5707 66.3318L70.0188 63.3339C58.3925 73.2804 56.6308 87.9856 56.6308 87.9856H22.9126C22.9126 87.9856 25.8442 75.6597 37.5707 66.3318Z" fill="#56E1AF" stroke="#00001F" stroke-width="0.985981" stroke-linecap="round" stroke-linejoin="round"/>
<path d="M54.136 81.281C56.057 74.6259 59.4894 68.5668 63.8185 63.9525L42.2457 65.9436C37.2929 70.1109 31.6345 76.5403 29.322 81.6286C29.8546 81.886 30.3462 82.2336 30.765 82.6942C31.0973 83.0599 31.3568 83.4798 31.5525 83.9268H50.3896C51.3364 82.6671 52.6429 81.7596 54.136 81.2765V81.281Z" fill="#BCFEE6" stroke="#00001F" stroke-width="0.985981" stroke-linecap="round" stroke-linejoin="round"/>
<path d="M47.0581 69.7814C45.1416 69.8356 43.2661 71.3978 42.8063 73.2353C42.3466 75.0775 43.5347 76.5358 45.5285 76.5132C47.5224 76.4952 49.4935 74.9826 49.8759 73.1044C50.2583 71.2262 48.9746 69.7272 47.0535 69.7814H47.0581Z" fill="#56E1AF" stroke="#00001F" stroke-width="0.985981" stroke-linecap="round" stroke-linejoin="round"/>
<path d="M25.8124 81.1275C26.1447 81.0778 26.4589 81.0372 26.7912 81.0462C28.2888 81.0869 29.741 81.5655 30.7652 82.6987C31.7895 83.832 32.1446 85.3129 31.8396 86.7441C31.7622 87.1008 31.6256 87.4485 31.439 87.7645" stroke="#00001F" stroke-width="0.985981" stroke-linecap="round" stroke-linejoin="round"/>
<path d="M58.3646 81.0461C54.0901 80.2108 50.0341 82.5812 49.019 86.8614C48.9598 87.1458 48.9416 87.2452 48.8961 87.5161" stroke="#00001F" stroke-width="0.985981" stroke-linecap="round" stroke-linejoin="round"/>
<path d="M43.753 45.6081L38.213 53.6673L38.8367 66.2099L73.5335 62.9637L70.2787 49.5045L60.5416 39.7612L60.0954 35.9506L43.3889 41.6755L43.753 45.6081Z" fill="#56E1AF" stroke="#00001F" stroke-width="0.985981" stroke-linecap="round" stroke-linejoin="round"/>
<path d="M38.213 53.6673L49.8621 57.5728L70.2787 49.5045" fill="#56E1AF"/>
<path d="M38.213 53.6673L49.8621 57.5728L70.2787 49.5045" stroke="#00001F" stroke-width="0.985981" stroke-linecap="round" stroke-linejoin="round"/>
<path d="M60.5419 39.7612L43.7534 45.6081L49.8625 57.5728L50.9823 65.0767" stroke="#00001F" stroke-width="0.985981" stroke-linecap="round" stroke-linejoin="round"/>
<path d="M38.213 53.6674L46.1065 50.2179L43.753 45.6082L38.213 53.6674Z" fill="#00001F" stroke="#00001F" stroke-width="0.985981" stroke-linecap="round" stroke-linejoin="round"/>
<path d="M114.508 96.6588C112.314 103.553 108.349 106.104 103.437 108.217C94.9334 111.874 83.4208 109.671 74.2937 109.454C74.2573 109.454 74.2208 109.454 74.1799 109.454L107.006 113.125C109.296 113.382 111.403 111.856 111.863 109.617L114.503 96.6633L114.508 96.6588Z" fill="#00001F" stroke="#00001F" stroke-width="0.985981" stroke-linecap="round" stroke-linejoin="round"/>
<path d="M110.903 133.925H101.502V135.447H115.464C114.194 134.494 112.614 133.925 110.898 133.925H110.903Z" fill="#00001F" stroke="#00001F" stroke-width="0.985981" stroke-linecap="round" stroke-linejoin="round"/>
<path d="M45.045 133.925H35.6447V135.447H49.6063C48.3363 134.494 46.7566 133.925 45.0405 133.925H45.045Z" fill="#00001F" stroke="#00001F" stroke-width="0.985981" stroke-linecap="round" stroke-linejoin="round"/>
<path d="M29.9205 38.0368L30.9161 32.8064C30.9525 32.617 31.098 32.4682 31.2843 32.4276L37.8581 30.9667C38.3627 30.854 38.3627 30.1416 37.8581 30.0289L31.7526 28.6581C31.5708 28.6176 31.4298 28.4733 31.3889 28.2929L29.916 21.773C29.8023 21.2725 29.084 21.2725 28.9704 21.773L27.4974 28.2929C27.4565 28.4733 27.3156 28.6176 27.1337 28.6581L21.0282 30.0289C20.5236 30.1416 20.5236 30.854 21.0282 30.9667L27.602 32.4276C27.7929 32.4682 27.9384 32.617 27.9702 32.8064L28.9658 38.0368C29.0658 38.5598 29.8205 38.5598 29.9205 38.0368Z" fill="#FFCB47" stroke="#00001F" stroke-width="0.985981" stroke-linecap="round" stroke-linejoin="round"/>
<path d="M39.8869 23.6599L40.5727 20.0516L44.6059 19.1596L40.7907 18.2992L39.8869 14.3035L38.983 18.2992L35.1678 19.1596L39.201 20.0516L39.8869 23.6599Z" fill="#00001F" stroke="#00001F" stroke-width="0.985981" stroke-linecap="round" stroke-linejoin="round"/>
<path d="M142.601 99.4716L143.287 95.8632L147.32 94.9713L143.505 94.1109L142.601 90.1151L141.697 94.1109L137.882 94.9713L141.915 95.8632L142.601 99.4716Z" fill="#FFCB47" stroke="#00001F" stroke-width="0.985981" stroke-linecap="round" stroke-linejoin="round"/>
<path d="M2.95811 59.9051C3.89877 59.9051 4.66133 59.1488 4.66133 58.2158C4.66133 57.2828 3.89877 56.5265 2.95811 56.5265C2.01744 56.5265 1.25488 57.2828 1.25488 58.2158C1.25488 59.1488 2.01744 59.9051 2.95811 59.9051Z" fill="#C4ECFF" stroke="#00001F" stroke-width="0.985981" stroke-linecap="round" stroke-linejoin="round"/>
<path d="M161.765 8.26935C162.956 8.26935 163.92 7.3125 163.92 6.13217C163.92 4.95184 162.956 3.995 161.765 3.995C160.575 3.995 159.611 4.95184 159.611 6.13217C159.611 7.3125 160.575 8.26935 161.765 8.26935Z" fill="#C4ECFF" stroke="#00001F" stroke-width="0.985981" stroke-linecap="round" stroke-linejoin="round"/>
<path d="M133.966 102.022C134.676 102.022 135.252 101.451 135.252 100.747C135.252 100.042 134.676 99.4716 133.966 99.4716C133.256 99.4716 132.68 100.042 132.68 100.747C132.68 101.451 133.256 102.022 133.966 102.022Z" fill="#00001F" stroke="#00001F" stroke-width="0.985981" stroke-linecap="round" stroke-linejoin="round"/>
<path d="M165.207 41.0327C165.917 41.0327 166.492 40.4618 166.492 39.7576C166.492 39.0534 165.917 38.4825 165.207 38.4825C164.497 38.4825 163.921 39.0534 163.921 39.7576C163.921 40.4618 164.497 41.0327 165.207 41.0327Z" fill="#00001F" stroke="#00001F" stroke-width="0.985981" stroke-linecap="round" stroke-linejoin="round"/>
<path d="M90.3613 14.5543L90.4568 14.4732L98.7808 3.38113L98.8444 3.25488C98.4944 3.10157 98.1307 2.97983 97.7579 2.89416C95.2166 2.29898 92.3162 3.28644 90.4613 5.6266C88.2474 8.41765 88.2746 12.1917 90.3613 14.5543ZM102.845 3.54796C105.386 6.46075 105.605 10.9201 103.286 14.4056C103.136 14.6355 102.972 14.861 102.795 15.0774C99.9673 18.644 95.1893 19.7261 91.5115 17.8459C91.0523 17.6114 90.6114 17.3319 90.1886 17.0072C86.4062 14.0584 85.9197 8.41765 89.102 4.40016C92.2843 0.387176 97.9261 -0.478545 101.708 2.47032C102.127 2.79496 102.509 3.15568 102.845 3.54345V3.54796Z" fill="#FFCB47"/>
<path d="M104.168 4.39079C104.073 4.31865 103.982 4.2465 103.882 4.17887C103.55 3.9399 103.2 3.73248 102.846 3.55212C105.387 6.46492 105.605 10.9243 103.287 14.4097L103.305 14.4187C103.305 14.4187 103.305 14.4187 103.309 14.4142L103.305 14.4232L103.287 14.4142C103.137 14.6442 102.973 14.8696 102.796 15.0861C99.9678 18.6527 95.1899 19.7303 91.512 17.8546C91.7712 18.1567 92.0621 18.4407 92.3712 18.7023C92.4622 18.7789 92.5531 18.851 92.6486 18.9277C96.4309 21.8766 102.073 21.0108 105.255 16.9979C105.546 16.6281 105.81 16.2449 106.041 15.8481C106.06 15.821 106.078 15.785 106.096 15.7534C106.096 15.7489 106.105 15.7399 106.105 15.7308C108.301 11.8667 107.564 7.04206 104.164 4.39079H104.168ZM106.173 15.6001C106.173 15.6001 106.173 15.6001 106.173 15.6046C106.173 15.6046 106.173 15.6046 106.173 15.6001ZM106.237 15.4423C106.237 15.4423 106.219 15.4828 106.214 15.5009C106.223 15.4828 106.232 15.4603 106.237 15.4423Z" fill="#FFCB47"/>
<path d="M98.8442 3.25464L98.7806 3.38089L90.4566 14.4729L90.3611 14.5541C88.2745 12.1914 88.2472 8.41741 90.4611 5.62635C92.316 3.2862 95.2119 2.29874 97.7577 2.89392C98.1305 2.97959 98.4896 3.10133 98.8442 3.25464Z" fill="#00001F"/>
<path d="M91.512 17.8501C91.7757 18.1522 92.0621 18.4363 92.3712 18.7023C92.4622 18.7789 92.5531 18.8511 92.6486 18.9277C96.431 21.8766 102.073 21.0109 105.255 16.9979C105.546 16.6282 105.81 16.2449 106.041 15.8481C106.06 15.8165 106.078 15.785 106.096 15.7534" stroke="#00001F" stroke-width="0.985981" stroke-linecap="round" stroke-linejoin="round"/>
<path d="M106.096 15.7489C108.305 11.8802 107.573 7.04206 104.168 4.39079C104.073 4.31865 103.982 4.2465 103.882 4.17887C103.55 3.9399 103.204 3.73248 102.845 3.55212" stroke="#00001F" stroke-width="0.985981" stroke-linecap="round" stroke-linejoin="round"/>
<path d="M102.848 3.5476C102.512 3.15983 102.13 2.79911 101.712 2.47447C97.9295 -0.474395 92.2878 0.391327 89.1055 4.40431C85.9232 8.41729 86.4096 14.0625 90.192 17.0114C90.6102 17.336 91.0512 17.6156 91.5149 17.85" stroke="#00001F" stroke-width="0.985981" stroke-linecap="round" stroke-linejoin="round"/>
<path d="M91.512 17.8501C95.1944 19.7258 99.9678 18.6481 102.796 15.0816C102.968 14.8606 103.132 14.6352 103.287 14.4097C105.605 10.9243 105.387 6.46492 102.846 3.55212" stroke="#00001F" stroke-width="0.985981" stroke-linecap="round" stroke-linejoin="round"/>
<path d="M97.7585 2.8938C98.1313 2.97947 98.4904 3.10121 98.845 3.25452C99.2951 3.45291 99.727 3.70992 100.132 4.02555C100.327 4.17885 100.513 4.34118 100.686 4.51252" stroke="#00001F" stroke-width="0.985981" stroke-linecap="round" stroke-linejoin="round"/>
<path d="M96.1623 16.529C94.4121 16.8176 92.6118 16.4389 91.1798 15.3206C90.8797 15.0862 90.607 14.8292 90.366 14.5541C88.2793 12.1914 88.2521 8.4174 90.466 5.62635C92.3209 3.2862 95.2167 2.29874 97.7626 2.89392" stroke="#00001F" stroke-width="0.985981" stroke-linecap="round" stroke-linejoin="round"/>
<path d="M90.1934 17.0115L92.371 18.7068" stroke="#00001F" stroke-width="0.985981" stroke-linecap="round" stroke-linejoin="round"/>
<path d="M101.713 2.47449L103.891 4.16986" stroke="#00001F" stroke-width="0.985981" stroke-linecap="round" stroke-linejoin="round"/>
<path d="M104.609 12.0199L106.946 13.5349" stroke="#00001F" stroke-width="0.985981" stroke-linecap="round" stroke-linejoin="round"/>
<path d="M105.018 10.1399L107.237 11.6684" stroke="#00001F" stroke-width="0.985981" stroke-linecap="round" stroke-linejoin="round"/>
<path d="M90.4573 14.4729L98.7813 3.38086" stroke="#00001F" stroke-width="0.985981" stroke-linecap="round" stroke-linejoin="round"/>
</svg>
