<svg role="img" class="h-[40px] w-auto text-black hover:text-white transition-colors duration-700 ease-out-expo" width="109" height="36" viewBox="0 0 109 36" fill="none" xmlns="http://www.w3.org/2000/svg"><title>ONE logo</title><path fill-rule="evenodd" clip-rule="evenodd" fill="currentColor" d="M32.1258 15.4888L32.1039 15.3439C31.9871 14.5462 31.2457 13.9945 30.448 14.1113C29.6503 14.2281 29.0987 14.9695 29.2155 15.7672L29.2364 15.908C29.3375 16.615 29.3886 17.3334 29.3886 18.0445C29.3928 24.3364 25.8913 29.9944 20.6744 32.1226C17.5775 33.3864 14.5275 33.402 11.6109 32.1674C9.80802 31.4041 7.60158 29.7785 6.87479 28.1497C6.52235 27.3594 6.50253 26.4282 6.82474 25.7212C7.10107 25.1133 7.60888 24.692 8.3315 24.4699C9.68498 24.0549 10.49 24.4605 11.7986 25.4053L10.5901 28.5741C10.2992 29.3385 10.6818 30.1935 11.4462 30.4844C11.6193 30.5501 11.7976 30.5825 11.9728 30.5825C12.5692 30.5825 13.1312 30.2196 13.3565 29.6294L14.321 27.0997C14.3544 27.1174 14.3867 27.1362 14.4211 27.1529C15.76 27.8401 17.1427 28.0569 18.4211 27.7806C19.6067 27.5241 20.6557 26.8453 21.3751 25.8703C22.8663 23.8495 22.6421 21.1436 20.8308 19.2896C19.9518 18.3897 19.0415 17.8454 18.0405 17.3459L19.5243 13.4544C20.8871 14.3313 22.5618 15.0112 24.8329 14.3147C26.3469 13.8506 27.5211 12.8444 28.1415 11.4805C28.8088 10.0134 28.7932 8.20942 28.0998 6.65365C26.9361 4.0468 23.9987 2.05203 21.835 1.13651C18.2271 -0.389022 14.3189 -0.378595 10.5296 1.16675C7.35758 2.46183 4.68191 4.78089 2.79038 7.87366C0.962453 10.8642 -0.00208211 14.3491 3.37469e-06 17.9517C3.37469e-06 18.7995 0.0615251 19.6577 0.182483 20.5096L0.203338 20.6504C0.308655 21.3771 0.933256 21.8996 1.64545 21.8996C1.71531 21.8996 1.78622 21.8943 1.85817 21.8839C2.65586 21.7682 3.20852 21.0268 3.09173 20.2291L3.07087 20.0873C2.96973 19.3803 2.91863 18.6619 2.91863 17.9507C2.91446 11.6588 6.41599 6.00089 11.6328 3.87162C14.7298 2.60781 17.7798 2.59217 20.6963 3.82678C22.4992 4.59007 24.7057 6.2157 25.4324 7.84446C25.7849 8.63486 25.8047 9.56602 25.4825 10.273C25.2062 10.8809 24.6984 11.3022 23.9757 11.5243C22.6515 11.9299 21.8527 11.5514 20.5931 10.6505L21.7265 7.67658C22.0175 6.91225 21.6348 6.0572 20.8705 5.76628C20.1061 5.47431 19.2511 5.85804 18.9602 6.62237L18.0749 8.94351C18.0123 8.9091 17.9497 8.87469 17.8861 8.84236C16.5483 8.1552 15.1646 7.93831 13.8862 8.21463C12.7006 8.47115 11.6516 9.14997 10.9321 10.1249C9.44098 12.1458 9.66517 14.8517 11.4764 16.7057C12.2272 17.4742 13.0343 18.0539 13.8622 18.5378C13.9102 18.5701 13.9592 18.6014 14.0113 18.6295C14.0509 18.6504 14.0906 18.6702 14.1302 18.691C14.1938 18.7265 14.2564 18.7599 14.32 18.7943L12.8706 22.5961C11.492 21.6921 9.79447 20.9684 7.47541 21.6795C5.96135 22.1436 4.78723 23.1498 4.1668 24.5137C3.49944 25.9809 3.51508 27.7848 4.20851 29.3406C5.3722 31.9474 8.31065 33.9422 10.4733 34.8577C12.2647 35.6158 14.1312 35.9943 16.0196 35.9943C17.9331 35.9943 19.8715 35.6053 21.7776 34.8264C24.9497 33.5324 27.6253 31.2133 29.5169 28.1206C31.3448 25.131 32.3104 21.6472 32.3072 18.0445C32.3072 17.1958 32.2457 16.3386 32.1248 15.4888H32.1258ZM19.0269 24.1373C18.199 25.2603 16.7944 25.0893 15.7548 24.5565C15.6255 24.4897 15.4983 24.4178 15.3721 24.3437L16.9935 20.0894C17.6661 20.4408 18.2271 20.8026 18.7422 21.3302C19.4096 22.0132 19.7568 23.1467 19.0248 24.1373H19.0269ZM13.2814 11.8569C14.1093 10.7349 15.5149 10.9049 16.5535 11.4377C16.7131 11.5201 16.8695 11.6088 17.0238 11.7026L15.3721 16.0352C14.7172 15.6546 14.1072 15.2187 13.565 14.664C12.8977 13.981 12.5504 12.8475 13.2814 11.8569Z"></path><path d="M38.5242 18.1177C38.5242 11.6091 43.3165 6.77222 50.3081 6.77222C57.2996 6.77222 62.092 11.6091 62.092 18.1177C62.092 24.6264 57.2996 29.5004 50.3081 29.5004C43.3165 29.5078 38.5242 24.6709 38.5242 18.1177ZM55.5239 18.1177C55.5239 14.9452 53.3098 12.8128 50.3081 12.8128C47.3064 12.8128 45.0922 14.9377 45.0922 18.1177C45.0922 21.2978 47.3064 23.4599 50.3081 23.4599C53.3098 23.4673 55.5239 21.3423 55.5239 18.1177Z" fill-rule="evenodd" clip-rule="evenodd" fill="currentColor"></path><path d="M63.6746 28.5716V7.41109C63.6746 7.24763 63.7563 7.17333 63.9123 7.17333H68.8235C68.9424 7.17333 69.0241 7.21048 69.0613 7.37394L69.7374 9.77381C69.7745 9.93727 69.8563 9.97442 69.938 9.97442C70.0197 9.97442 70.1015 9.93727 70.2203 9.77381C71.7806 7.65627 73.9353 6.77954 76.4912 6.77954C81.8036 6.77954 84.9985 10.5317 84.9985 16.6094V28.579C84.9985 28.7425 84.9168 28.8168 84.7607 28.8168H78.6905C78.5716 28.8168 78.4527 28.735 78.4527 28.579V17.6421C78.4527 14.6479 77.093 12.9241 74.4183 12.9241C71.7435 12.9241 70.2203 14.7593 70.2203 17.761V28.5716C70.2203 28.6904 70.1386 28.8093 69.9826 28.8093H63.9123C63.7934 28.8093 63.6746 28.7276 63.6746 28.5716Z" fill-rule="evenodd" clip-rule="evenodd" fill="currentColor"></path><path d="M86.4844 18.0433C86.4844 11.4901 91.2395 6.77954 97.9488 6.77954C104.301 6.77954 108.574 11.0518 108.574 16.7654C108.574 17.8873 108.41 18.8458 108.135 19.7597C108.098 19.8785 107.972 19.9603 107.853 19.9603H93.4239C93.2605 19.9603 93.1045 20.0791 93.2233 20.3615C94.0258 22.5607 96.121 24.0467 100.029 24.0467C102.741 24.0467 104.881 23.2443 106.441 22.5607C106.56 22.5236 106.679 22.5607 106.724 22.6796L107.021 27.5462C107.058 27.7097 107.021 27.784 106.902 27.8286C104.547 29.0248 102.184 29.5077 99.5908 29.5077C91.2321 29.5077 86.4844 24.5965 86.4844 18.0433ZM93.3496 15.688H102.228C102.407 15.688 102.54 15.5097 102.496 15.2943C102.139 13.1247 100.274 11.7873 97.7853 11.7873C95.2963 11.7873 93.4314 13.1173 93.0747 15.2943C93.0376 15.5023 93.1713 15.688 93.3496 15.688Z" fill-rule="evenodd" clip-rule="evenodd" fill="currentColor"></path></svg>