<svg width="40" height="40" viewBox="0 0 40 40" fill="none" xmlns="http://www.w3.org/2000/svg">
<path fill-rule="evenodd" clip-rule="evenodd" d="M20 40C31.0457 40 40 31.0457 40 20C40 8.95431 31.0457 0 20 0C8.95431 0 0 8.95431 0 20C0 31.0457 8.95431 40 20 40ZM8.5 20C8.5 19.1716 9.17157 18.5 10 18.5H26.3785L20.4491 12.5707C19.8633 11.9849 19.8633 11.0351 20.4491 10.4493C21.0349 9.86355 21.9846 9.86355 22.5704 10.4493L31.0449 18.9238C31.3256 19.1964 31.5 19.5778 31.5 20C31.5 20.4224 31.3254 20.804 31.0445 21.0766L22.5704 29.5507C21.9846 30.1364 21.0349 30.1364 20.4491 29.5507C19.8633 28.9649 19.8633 28.0151 20.4491 27.4293L26.3784 21.5H10C9.17157 21.5 8.5 20.8284 8.5 20Z" fill="#00001F"/>
</svg>
