<svg width="93" height="82" viewBox="0 0 93 82" fill="none" xmlns="http://www.w3.org/2000/svg">
<path d="M90.803 14.3362C95.0307 19.5059 80.6621 38.2668 58.6951 56.2388C36.7336 74.2108 15.4987 84.59 11.271 79.4203C10.9929 79.0798 10.7943 78.6826 10.6751 78.2229C9.77282 74.8124 13.2344 68.3204 19.732 60.4722C25.5203 53.4865 33.7147 45.4227 43.3788 37.5177C64.3869 20.3288 84.7254 10.0801 90.1561 13.746C90.4002 13.9163 90.6214 14.1092 90.803 14.3362ZM82.6427 26.6789C84.3622 24.0969 85.0034 22.2412 84.3111 21.3957C83.6812 20.6296 82.0298 20.7714 79.5953 21.6737C73.0239 24.1139 60.7664 32.104 47.6974 42.7952C46.0687 44.1288 44.4911 45.4567 42.9589 46.7676L37.0742 51.9827C25.0891 62.9691 17.6494 72.2247 19.471 74.4492C19.8172 74.8691 20.464 75.0167 21.389 74.9145C21.389 74.9145 35.2355 69.7505 62.656 47.4883C72.0648 39.2542 79.3343 31.6386 82.6371 26.6789H82.6427Z" fill="#FDD532"/>
<path d="M81.8198 3.27006L90.3433 13.5868L90.1505 13.7457C84.7197 10.0798 64.3812 20.3285 43.3731 37.5174C33.709 45.428 25.5146 53.4862 19.7264 60.4719L19.6299 60.3924C24.3627 54.4963 25.8495 47.539 20.43 44.1569C14.9936 40.7633 7.7582 49.5422 7.7582 49.5422L7.59375 49.423C13.1323 41.6656 21.8374 32.6881 32.4096 24.0341C54.371 6.06205 76.0939 -3.72127 81.8141 3.27006H81.8198Z" fill="#AF8400"/>
<path d="M84.3109 21.3949C85.0032 22.2405 84.362 24.0961 82.6425 26.6781C79.3398 31.6322 72.0703 39.2535 62.6615 47.4876C35.241 69.7497 21.3945 74.9138 21.3945 74.9138C20.4695 75.0159 19.8227 74.8684 19.4765 74.4485C17.6549 72.2183 25.0946 62.9627 37.0797 51.982L42.9644 46.7669C44.4966 45.4503 46.0742 44.1224 47.7029 42.7945C60.7662 32.1032 73.0294 24.1131 79.6008 21.673C82.0353 20.7707 83.6924 20.6288 84.3166 21.3949H84.3109Z" fill="#00001F"/>
<path d="M20.4357 44.1569C25.8551 47.5391 24.3684 54.4964 19.6356 60.3925L19.7321 60.4719C13.2401 68.3201 9.77284 74.8121 10.6751 78.2226L10.4537 78.2794L2.28778 68.3542C-0.674454 64.7337 1.62957 57.7821 7.59944 49.4231L7.76389 49.5423C7.76389 49.5423 14.9993 40.7634 20.4357 44.1569Z" fill="#00001F"/>
<path d="M90.4285 13.6833L90.349 13.5868L81.8254 3.27006C76.1053 -3.72127 54.3823 6.06205 32.4209 24.0341C21.8488 32.6881 13.1435 41.6599 7.60494 49.423C1.63507 57.782 -0.66881 64.728 2.29343 68.3541L10.4594 78.2793" stroke="#00001F" stroke-width="1.95419" stroke-linecap="round" stroke-linejoin="round"/>
<path d="M90.1559 13.746C90.3999 13.9163 90.6212 14.1092 90.8028 14.3362C95.0305 19.5059 80.6619 38.2668 58.6948 56.2388C36.7334 74.2108 15.4985 84.59 11.2708 79.4203C10.9927 79.0798 10.794 78.6826 10.6749 78.2229C9.77258 74.8124 13.2342 68.3204 19.7318 60.4722C25.5201 53.4865 33.7144 45.4227 43.3786 37.5177C64.3866 20.3288 84.7251 10.0801 90.1559 13.746Z" stroke="#00001F" stroke-width="1.95419" stroke-linecap="round" stroke-linejoin="round"/>
<path d="M62.6621 47.4876C72.0709 39.2535 79.3404 31.6379 82.6431 26.6781C84.3625 24.0961 85.0038 22.2405 84.3114 21.3949C83.6815 20.6288 82.0301 20.7707 79.5957 21.673C73.0243 24.1131 60.7668 32.1032 47.6977 42.7945C46.0691 44.1281 44.4914 45.456 42.9592 46.7669L37.0746 51.982C25.0894 62.9684 17.6498 72.2239 19.4714 74.4485C19.8175 74.8684 20.4644 75.0159 21.3894 74.9138C21.3894 74.9138 35.2358 69.7497 62.6564 47.4876H62.6621Z" stroke="#00001F" stroke-width="1.95419" stroke-linecap="round" stroke-linejoin="round"/>
<path d="M7.76965 49.5423C7.76965 49.5423 15.005 40.7634 20.4415 44.1569C25.8609 47.5391 24.3742 54.4964 19.6414 60.3925" stroke="#00001F" stroke-width="1.95419" stroke-linecap="round" stroke-linejoin="round"/>
<path d="M29.9015 45.0305L22.4449 37.2334" stroke="#00001F" stroke-width="1.95419" stroke-linecap="round" stroke-linejoin="round"/>
<path d="M34.8558 40.077L27.28 32.5068" stroke="#00001F" stroke-width="1.95419" stroke-linecap="round" stroke-linejoin="round"/>
</svg>
