<svg width="104" height="89" viewBox="0 0 104 89" fill="none" xmlns="http://www.w3.org/2000/svg">
<path d="M10.4167 38.1563L10.8423 38.1449L80.3074 64.7937L80.7783 64.6632C78.2984 55.8956 69.2301 45.3122 56.2576 37.1859C37.4911 25.4334 17.6577 23.294 11.9602 32.3964C10.9103 34.0761 10.411 36.0226 10.4167 38.1563ZM81.6693 46.1577C91.6342 57.8931 95.5782 70.3266 90.8171 78.782C90.7036 78.9806 90.5843 79.1793 90.4652 79.3779C82.458 92.1745 56.4618 90.3416 32.4121 75.2807C8.35671 60.2255 -4.64418 37.6455 3.36294 24.8432C3.62965 24.4176 3.91908 24.0034 4.22552 23.6118C13.1065 12.1885 38.1664 14.3846 61.4217 28.9404C69.565 34.0421 76.4485 40.0062 81.6693 46.1577Z" fill="#FDD532"/>
<path d="M92.1847 31.9315C87.9003 27.6243 82.7589 27.5279 79.4505 32.9586C76.1592 38.3497 81.4083 45.5453 81.7942 46.0617L81.675 46.1582C76.4485 40.0067 69.5707 34.0425 61.4274 28.9409C38.1778 14.3851 13.1123 12.1833 4.23128 23.6123L4.20288 23.5952L12.9647 9.5161C20.9718 -3.28054 46.968 -1.44756 71.0178 13.6133C79.6548 19.0157 86.8618 25.3885 92.179 31.9315H92.1847Z" fill="#AF8400"/>
<path d="M81.7939 46.0559C81.4081 45.5452 76.1589 38.3496 79.4503 32.9529C82.7587 27.5278 87.9057 27.6186 92.1845 31.9257C92.1902 31.9314 92.1959 31.9371 92.2015 31.9427C101.707 43.6214 105.202 55.8393 100.067 64.0393L90.9077 78.8221L90.8226 78.7767C95.5837 70.3213 91.6397 57.8878 81.6748 46.1524L81.7939 46.0559Z" fill="#00001F"/>
<path d="M80.778 64.6694L80.3071 64.8L10.842 38.1512L10.4164 38.1626C10.4108 36.0288 10.9044 34.0824 11.96 32.4026C17.6574 23.3003 37.4908 25.4454 56.2573 37.1922C69.2299 45.3184 78.2982 55.9019 80.778 64.6694Z" fill="#00001F"/>
<path d="M92.1837 31.9315C86.8607 25.3885 79.6537 19.0157 71.0224 13.6133C46.967 -1.44756 20.9765 -3.28054 12.9694 9.5161L4.20752 23.5952" stroke="#00001F" stroke-width="1.95419" stroke-linecap="round" stroke-linejoin="round"/>
<path d="M90.9072 78.8276L100.066 64.0448C105.202 55.8447 101.706 43.6269 92.2011 31.9482" stroke="#00001F" stroke-width="1.95419" stroke-linecap="round" stroke-linejoin="round"/>
<path d="M90.822 78.782C90.7085 78.9806 90.5892 79.1793 90.47 79.3779C82.4629 92.1745 56.4667 90.3416 32.417 75.2807C8.3616 60.2255 -4.6393 37.6455 3.36782 24.8432C3.63454 24.4176 3.92396 24.0034 4.2304 23.6118C13.1114 12.1885 38.1713 14.3846 61.4266 28.9404C69.5699 34.0421 76.4533 40.0062 81.6741 46.1577C91.6391 57.8931 95.5831 70.3266 90.822 78.782Z" stroke="#00001F" stroke-width="1.95419" stroke-linecap="round" stroke-linejoin="round"/>
<path d="M10.6147 40.4833C10.4842 39.6832 10.4217 38.9114 10.4161 38.1567C10.4104 36.023 10.9041 34.0765 11.9596 32.3968C17.6571 23.2944 37.4905 25.4395 56.257 37.1863C69.2295 45.3126 78.2978 55.8961 80.7777 64.6636C81.8843 68.5792 81.68 72.1316 79.9208 74.9406C76.7996 79.9174 69.4508 81.5347 60.3541 80.0479" stroke="#00001F" stroke-width="1.95419" stroke-linecap="round" stroke-linejoin="round"/>
<path d="M81.8162 46.0843C81.8162 46.0843 81.8105 46.073 81.7934 46.0559C81.4076 45.5452 76.1585 38.3496 79.4498 32.9529C82.7582 27.5278 87.9052 27.6186 92.184 31.9257C92.1897 31.9314 92.1954 31.9371 92.2011 31.9427C92.3316 32.0733 92.4621 32.2095 92.5869 32.3513" stroke="#00001F" stroke-width="1.95419" stroke-linecap="round" stroke-linejoin="round"/>
<path d="M72.1064 33.0716L78.451 21.8525" stroke="#00001F" stroke-width="1.95419" stroke-linecap="round" stroke-linejoin="round"/>
<path d="M66.835 29.0823L73.1736 17.8633" stroke="#00001F" stroke-width="1.95419" stroke-linecap="round" stroke-linejoin="round"/>
<path d="M10.8417 38.1455L80.3068 64.7943" stroke="#00001F" stroke-width="1.95419" stroke-linecap="round" stroke-linejoin="round"/>
</svg>
