<svg width="106" height="89" viewBox="0 0 106 89" fill="none" xmlns="http://www.w3.org/2000/svg">
<path d="M102.866 27.9005C110.06 41.1767 95.6704 62.9097 70.7127 76.435C61.7405 81.2997 52.629 84.4449 44.2989 85.854C50.1872 84.2549 52.8251 79.8167 49.7224 74.2448C46.5282 68.5167 37.1273 69.8355 37.1273 69.8355L37.098 69.6869C45.0339 68.1746 53.6315 65.1156 62.0896 60.5244C86.21 47.4443 100.472 26.7011 94.8928 13.3448L94.9216 13.3344L102.866 27.8948L102.866 27.9005Z" fill="#AF8400"/>
<path d="M85.2974 15.5999C80.8076 6.8042 60.7665 8.03992 40.5206 18.3618C34.3683 21.4974 29.0064 25.3279 24.6428 29.3827L25.4749 29.8347L85.2974 15.5999ZM94.8976 13.3503C100.477 26.7065 86.2205 47.4499 62.0945 60.5299C53.6307 65.1208 45.0389 68.1744 37.1028 69.6924C21.9907 72.5817 9.23383 69.8938 4.22334 61.5872C4.10455 61.3904 3.9915 61.1938 3.87857 60.9914C-3.3163 47.7153 11.0735 25.9822 36.0314 12.4512C60.9894 -1.07969 87.0525 -1.28649 94.2472 11.9953C94.489 12.4345 94.7019 12.8898 94.8976 13.3503Z" fill="#FFD447"/>
<path d="M85.3008 15.6004L25.4783 29.8351L24.6462 29.3831C29.0098 25.3283 34.3717 21.4979 40.524 18.3623C60.7699 8.04039 80.8112 6.79899 85.3008 15.6004Z" fill="#00001F"/>
<path d="M49.7222 74.2507C52.825 79.817 50.1869 84.2608 44.2986 85.8599C29.4593 88.3772 17.1089 85.4067 12.4965 76.9025L4.13707 61.6419L4.21804 61.5933C9.22853 69.8999 21.9854 72.5878 37.0975 69.6985L37.1269 69.8471C37.1269 69.8471 46.5277 68.5283 49.722 74.2564L49.7222 74.2507Z" fill="#00001F"/>
<path d="M4.1379 61.6362L12.4973 76.8969C17.1097 85.4011 29.4545 88.3714 44.2994 85.8542C52.6296 84.4451 61.7467 81.3002 70.7132 76.4353C95.6712 62.9043 110.061 41.1769 102.866 27.9008L94.9219 13.3403" stroke="#00001F" stroke-width="2.27061" stroke-linecap="round" stroke-linejoin="round"/>
<path d="M4.21944 61.5872C4.10065 61.3904 3.9876 61.1938 3.87466 60.9914C-3.32021 47.7153 11.0696 25.9822 36.0275 12.4512C60.9855 -1.07969 87.0486 -1.28649 94.2433 11.9953C94.4851 12.4345 94.698 12.8898 94.8937 13.3503C100.473 26.7065 86.2166 47.4499 62.0906 60.5299C53.6268 65.1208 45.035 68.1744 37.0989 69.6924C21.9868 72.5817 9.22992 69.8938 4.21944 61.5872Z" stroke="#00001F" stroke-width="2.27061" stroke-linecap="round" stroke-linejoin="round"/>
<path d="M19.0654 60.0234C16.2387 59.066 14.1468 57.4899 13.023 55.2909C9.90354 49.1676 14.6447 38.6729 24.647 29.3822C29.0107 25.3274 34.3726 21.4969 40.5248 18.3613C60.7708 8.03941 80.8121 6.79801 85.3016 15.5994C87.7578 20.4128 85.0455 27.234 78.7589 34.1194" stroke="#00001F" stroke-width="2.27061" stroke-linecap="round" stroke-linejoin="round"/>
<path d="M37.132 69.8409C37.132 69.8409 46.5328 68.522 49.7271 74.2502C52.8299 79.8164 50.1919 84.2603 44.3035 85.8593C44.1317 85.9051 43.96 85.9508 43.7826 85.9907" stroke="#00001F" stroke-width="2.27061" stroke-linecap="round" stroke-linejoin="round"/>
<path d="M53.2402 67.8018L59.8803 78.8456" stroke="#00001F" stroke-width="2.27061" stroke-linecap="round" stroke-linejoin="round"/>
<path d="M59.3027 65.167L65.9484 76.2111" stroke="#00001F" stroke-width="2.27061" stroke-linecap="round" stroke-linejoin="round"/>
<path d="M25.4712 29.8339L85.2993 15.5994" stroke="#00001F" stroke-width="2.27061" stroke-linecap="round" stroke-linejoin="round"/>
</svg>
