<svg width="108" height="93" viewBox="0 0 108 93" fill="none" xmlns="http://www.w3.org/2000/svg">
<path d="M96.556 37.1724C96.2925 36.1828 95.8945 35.2576 95.3558 34.3968C89.4768 25.0046 69.0118 27.218 49.6476 39.3389C30.2834 51.4657 19.3512 68.9034 25.2301 78.2956C27.4201 81.7797 31.6126 83.671 37.023 84.0399L37.0348 83.8291L95.8651 37.1724H96.556ZM104.227 26.5973C112.489 39.8015 99.074 63.1006 74.2583 78.6411C49.4368 94.1816 22.6185 96.073 14.3505 82.8688C14.2275 82.6639 14.1047 82.4589 13.9875 82.254C9.07477 73.5351 13.1384 60.7174 23.4031 48.614C28.796 42.2549 35.9046 36.0949 44.319 30.825C68.309 15.8056 94.1729 13.5336 103.337 25.3266C103.653 25.7365 103.952 26.1581 104.227 26.5973Z" fill="#FFD447"/>
<path d="M94.3231 10.7873L103.364 25.3149L103.335 25.3324C94.1708 13.5453 68.3128 15.8114 44.3169 30.8308C35.8967 36.0949 28.794 42.2607 23.4011 48.6198L23.284 48.5203C23.284 48.5203 29.2448 40.75 25.7198 34.9765C22.3002 29.3727 16.9776 29.4723 12.5625 33.9342C18.055 27.1769 25.5032 20.5895 34.4153 15.015C59.2368 -0.525535 86.0551 -2.41685 94.3231 10.7873Z" fill="#AF8400"/>
<path d="M96.5609 37.1726H95.8699L37.0396 83.8352L37.0279 84.046C31.6174 83.6771 27.4249 81.7858 25.2349 78.3017C19.356 68.9095 30.2824 51.4659 49.6524 39.345C69.0166 27.2182 89.4758 25.0048 95.3606 34.4029C95.8993 35.2637 96.2974 36.1888 96.5609 37.1784V37.1726Z" fill="#00001F"/>
<path d="M25.7183 34.977C29.2433 40.7506 23.2824 48.5209 23.2824 48.5209L23.3995 48.6204C13.1348 60.7237 9.07115 73.5415 13.9839 82.2603L13.9019 82.3071L4.44527 67.0535C-0.853969 58.5923 2.75295 45.9854 12.5609 33.9347C16.9818 29.4728 22.2986 29.3675 25.7183 34.977Z" fill="#00001F"/>
<path d="M13.898 82.3066L4.44137 67.053C-0.857875 58.5917 2.74904 45.9848 12.557 33.9342C18.0495 27.1769 25.4978 20.5895 34.4099 15.015C59.2314 -0.525535 86.0497 -2.41685 94.3177 10.7873L103.359 25.3149" stroke="#00001F" stroke-width="2.34221" stroke-linecap="round" stroke-linejoin="round"/>
<path d="M13.9836 82.2593C14.1007 82.4643 14.2236 82.6692 14.3466 82.8741C22.6087 96.0783 49.4329 94.187 74.2544 78.6464C99.0759 63.1118 112.491 39.8068 104.223 26.6026C103.948 26.1635 103.649 25.736 103.333 25.332C94.169 13.5448 68.311 15.8109 44.3151 30.8303C35.8949 36.0944 28.7921 42.2603 23.3992 48.6194C13.1345 60.7227 9.07086 73.5405 13.9836 82.2593Z" stroke="#00001F" stroke-width="2.34221" stroke-linecap="round" stroke-linejoin="round"/>
<path d="M96.7478 42.7408C97.064 40.7499 97.0112 38.8762 96.5604 37.1722C96.2969 36.1826 95.8988 35.2574 95.3601 34.3967C89.4812 25.0044 69.0161 27.2178 49.6519 39.3387C30.2877 51.4655 19.3555 68.9032 25.2345 78.2955C27.4244 81.7795 31.6169 83.6709 37.0274 84.0398C39.5804 84.2213 42.4087 84.0515 45.4243 83.5596" stroke="#00001F" stroke-width="2.34221" stroke-linecap="round" stroke-linejoin="round"/>
<path d="M23.2798 48.5197C23.2798 48.5197 29.2406 40.7495 25.7156 34.9759C22.296 29.3722 16.9733 29.4717 12.5583 33.9336C12.4236 34.0683 12.2948 34.2089 12.1602 34.3494" stroke="#00001F" stroke-width="2.34221" stroke-linecap="round" stroke-linejoin="round"/>
<path d="M33.3005 35.0939L26.7539 23.5176" stroke="#00001F" stroke-width="2.34221" stroke-linecap="round" stroke-linejoin="round"/>
<path d="M38.7398 30.9826L32.1992 19.4062" stroke="#00001F" stroke-width="2.34221" stroke-linecap="round" stroke-linejoin="round"/>
<path d="M37.0391 83.8355L95.8694 37.1787" stroke="#00001F" stroke-width="2.34221" stroke-linecap="round" stroke-linejoin="round"/>
</svg>
