<svg width="105" height="75" viewBox="0 0 105 75" fill="none" xmlns="http://www.w3.org/2000/svg">
<path d="M103.999 45.7489C104.129 55.4074 94.8227 64.0217 80.6698 69.0779C80.6698 69.0779 80.6641 69.0779 80.6584 69.0779C74.7283 70.5817 70.2452 67.9941 70.2339 61.6099C70.2225 55.0556 79.0694 51.6166 79.0694 51.6166L79.0184 51.4747C93.6083 46.6171 103.42 38.0539 103.743 28.3613H103.84L103.993 45.7546L103.999 45.7489Z" fill="#00001F"/>
<path d="M13.1453 28.8039L13.4632 28.7472L84.5625 15.3149L84.6305 15.2015C77.3555 10.6333 65.9265 7.60858 53.0391 7.43266C30.9018 7.13757 12.8389 15.3774 12.7027 25.836C12.6913 26.8404 12.8389 27.8335 13.151 28.8039H13.1453ZM103.76 27.6633C103.76 27.8959 103.76 28.1286 103.749 28.3556C103.425 38.0481 93.6138 46.6113 79.0239 51.469C71.3573 54.0226 62.3684 55.5491 52.744 55.6797C25.3178 56.0485 2.76049 44.9146 1.09778 30.5347C1.04103 30.041 1.00696 29.536 1.00129 29.0309C0.802669 13.936 23.638 1.39472 52.0176 1.00884C80.3915 0.628628 103.562 12.5627 103.76 27.6576V27.6633Z" fill="#FDD532"/>
<path d="M84.6309 15.2013L84.5629 15.3148L13.4635 28.747L13.1457 28.8037C12.8393 27.8334 12.686 26.8403 12.6974 25.8358C12.8392 15.3772 30.8964 7.1374 53.0338 7.43249C65.9212 7.60841 77.3502 10.6331 84.6252 15.2013H84.6309Z" fill="#00001F"/>
<path d="M79.0241 51.4752L79.0751 51.6171C79.0751 51.6171 70.2224 55.0561 70.2394 61.6104C70.2507 67.9946 74.7339 70.5822 80.664 69.0784C72.7023 71.9158 63.2027 73.6296 52.9938 73.7715C24.6199 74.1517 1.44976 62.2176 1.25115 47.1227L1.0752 30.541H1.1036C2.76631 44.9152 25.3292 56.0491 52.7498 55.6803C62.3742 55.5497 71.3631 54.0232 79.0297 51.4695L79.0241 51.4752Z" fill="#AF8400"/>
<path d="M80.6582 69.0774C72.6964 71.9148 63.1968 73.6286 52.9879 73.7705C24.614 74.1507 1.4439 62.2167 1.24529 47.1217L1.06934 30.54" stroke="#00001F" stroke-width="1.95419" stroke-linecap="round" stroke-linejoin="round"/>
<path d="M103.845 28.3613L103.999 45.7545C104.129 55.413 94.8225 64.0273 80.6696 69.0836" stroke="#00001F" stroke-width="1.95419" stroke-linecap="round" stroke-linejoin="round"/>
<path d="M103.749 28.3555C103.76 28.1228 103.76 27.8959 103.76 27.6632C103.562 12.5683 80.3915 0.639908 52.0176 1.01444C23.6437 1.39465 0.802668 13.9359 1.00129 29.0365C1.00696 29.5416 1.04103 30.041 1.09778 30.5404C2.76049 44.9146 25.3234 56.0541 52.744 55.6853C62.3684 55.5548 71.3573 54.0282 79.0239 51.4746C93.6138 46.617 103.425 38.0537 103.749 28.3612V28.3555Z" stroke="#00001F" stroke-width="1.95419" stroke-linecap="round" stroke-linejoin="round"/>
<path d="M15.7444 33.2527C14.5186 31.8454 13.6333 30.353 13.1396 28.8037C12.8332 27.8333 12.6799 26.8403 12.6913 25.8358C12.8331 15.3772 30.8903 7.1374 53.0277 7.43249C65.9151 7.60841 77.3441 10.6331 84.6191 15.2013C89.8399 18.47 92.9157 22.5388 92.8589 26.9084C92.7851 32.6342 87.343 37.6961 78.7968 41.0556" stroke="#00001F" stroke-width="1.95419" stroke-linecap="round" stroke-linejoin="round"/>
<path d="M79.075 51.6162C79.075 51.6162 70.2223 55.0552 70.2393 61.6096C70.2506 67.9937 74.7338 70.5813 80.6639 69.0775C80.6696 69.0775 80.6753 69.0775 80.6753 69.0775C80.8342 69.0378 80.9931 68.9981 81.152 68.947" stroke="#00001F" stroke-width="1.95419" stroke-linecap="round" stroke-linejoin="round"/>
<path d="M64.0199 57.7002L63.6113 70.5819" stroke="#00001F" stroke-width="1.95419" stroke-linecap="round" stroke-linejoin="round"/>
<path d="M57.4427 58.3691L57.0342 71.2509" stroke="#00001F" stroke-width="1.95419" stroke-linecap="round" stroke-linejoin="round"/>
<path d="M13.4575 28.7475L84.5569 15.3096" stroke="#00001F" stroke-width="1.95419" stroke-linecap="round" stroke-linejoin="round"/>
</svg>
