<svg width="108" height="91" viewBox="0 0 108 91" fill="none" xmlns="http://www.w3.org/2000/svg">
<path d="M57.0937 68.089H57.0821C53.0105 66.4336 48.8924 64.4181 44.815 62.0366C20.5651 47.8875 6.6484 26.2166 12.782 12.7354C12.9911 12.2708 13.2292 11.8119 13.4906 11.3705C21.2738 -1.97708 47.9283 -0.931574 73.0145 13.6996C98.1065 28.3367 112.128 51.024 104.345 64.3658C104.228 64.5691 104.101 64.7724 103.973 64.9699C97.1017 75.5817 77.6959 76.4762 57.0937 68.089ZM30.5147 36.8111L30.8575 36.509L91.5605 39.5293L92.0484 39.1983C87.396 32.356 79.5314 25.2059 69.6107 19.415C49.9669 7.95517 29.6784 6.14881 24.294 15.3841C21.1401 20.7974 23.8061 28.8072 30.5206 36.8169L30.5147 36.8111Z" fill="#FFD447"/>
<path d="M104.049 65.0221L95.0111 80.3561C88.3083 91.845 67.6365 92.6698 46.0062 83.3474C41.7952 80.7046 40.3023 75.448 43.5957 70.9756C47.5744 65.5739 54.9221 67.4035 57.0711 68.0831C57.0711 68.0831 57.0768 68.0831 57.0826 68.0831C77.679 76.4645 97.0906 75.57 103.962 64.964L104.043 65.0162L104.049 65.0221Z" fill="#00001F"/>
<path d="M92.0436 39.1924L91.5556 39.5234L30.8526 36.5031L30.5099 36.8051C23.8012 28.7954 21.1294 20.7857 24.2833 15.3723C29.6677 6.14288 49.9562 7.94924 69.6 19.4033C79.5265 25.1942 87.3853 32.3443 92.0377 39.1865L92.0436 39.1924Z" fill="#00001F"/>
<path d="M57.0769 68.0829C54.9278 67.3975 47.5744 65.5736 43.6015 70.9754C40.3024 75.4478 41.801 80.6986 46.0121 83.3472C42.5096 81.8428 38.9839 80.0655 35.4873 78.0267C10.3953 63.3897 -3.63186 40.7023 4.15712 27.3606L12.7477 12.7235L12.7768 12.7351C6.64315 26.2163 20.5599 47.8872 44.8097 62.0364C48.8872 64.412 53.0052 66.4333 57.0769 68.0887V68.0829Z" fill="#AF8400"/>
<path d="M104.049 65.0217L95.0111 80.3558C88.3083 91.8447 67.6365 92.6695 46.0062 83.3471C42.5038 81.8427 38.9781 80.0653 35.4814 78.0266C10.3894 63.3896 -3.63772 40.7022 4.15127 27.3605L12.7418 12.7234" stroke="#00001F" stroke-width="2.32334" stroke-linecap="round" stroke-linejoin="round"/>
<path d="M57.0937 68.0884C77.6901 76.4699 97.1017 75.5754 103.973 64.9693C104.107 64.7719 104.228 64.5744 104.345 64.3653C112.128 51.0177 98.1065 28.3361 73.0145 13.6991C47.9224 -0.937925 21.2738 -1.98343 13.4906 11.3699C13.2292 11.8114 12.9969 12.2702 12.782 12.7349C6.6484 26.2161 20.5651 47.887 44.815 62.0361C48.8924 64.4117 53.0105 66.433 57.0821 68.0884" stroke="#00001F" stroke-width="2.32334" stroke-linecap="round" stroke-linejoin="round"/>
<path d="M95.9691 46.9924C95.1966 44.5064 93.8723 41.8694 92.0485 39.1918C87.396 32.3496 79.5315 25.1995 69.6108 19.4085C49.967 7.94868 29.6784 6.14232 24.2941 15.3776C21.1402 20.791 23.8062 28.8007 30.5206 36.8104C31.4093 37.8733 32.3736 38.9362 33.4017 39.9933" stroke="#00001F" stroke-width="2.32334" stroke-linecap="round" stroke-linejoin="round"/>
<path d="M57.6855 68.2915C57.6855 68.2915 57.4705 68.2102 57.093 68.0882C57.0872 68.0882 57.0814 68.0882 57.0814 68.0882C54.9323 67.4028 47.5789 65.579 43.606 70.9807C40.3069 75.4531 41.8055 80.7039 46.0166 83.3525C46.8936 83.9043 47.8926 84.3399 48.9846 84.6361" stroke="#00001F" stroke-width="2.32334" stroke-linecap="round" stroke-linejoin="round"/>
<path d="M41.2321 63.3721L34.082 74.4602" stroke="#00001F" stroke-width="2.32334" stroke-linecap="round" stroke-linejoin="round"/>
<path d="M35.7771 59.1494L28.6328 70.2317" stroke="#00001F" stroke-width="2.32334" stroke-linecap="round" stroke-linejoin="round"/>
<path d="M30.8516 36.5078L91.5546 39.5281" stroke="#00001F" stroke-width="2.32334" stroke-linecap="round" stroke-linejoin="round"/>
</svg>
