<svg width="579" height="509" viewBox="0 0 579 509" fill="none" xmlns="http://www.w3.org/2000/svg">
<path d="M18.2305 29.0481H99.1708L252.937 142.946V220.68H19.6329L18.2305 29.0481Z" fill="#5AC1FF"/>
<path d="M110.49 37.4617C110.49 37.4617 95.6645 46.5775 96.9668 59.8004C97.7682 67.614 102.977 69.8178 111.292 73.5242C126.618 80.4362 125.416 83.9423 123.613 90.0529C121.81 96.1635 127.319 98.6678 127.319 98.6678C127.319 98.6678 146.753 106.381 149.758 105.78C149.758 105.78 165.486 111.69 182.715 105.48C190.028 102.875 206.256 108.084 206.256 108.084L110.49 37.4617Z" fill="#AADDFC" stroke="#00001F" stroke-width="2" stroke-miterlimit="10" stroke-linecap="round" stroke-linejoin="round"/>
<path d="M18.7314 58.9001C25.2427 60.5029 33.9578 62.2059 38.7662 62.6066C51.5884 63.8087 65.5126 69.3182 75.4297 77.6326C83.7442 84.5446 88.9532 92.9592 95.9653 100.873C101.575 107.184 107.385 107.284 114.898 108.987C109.489 112.193 105.983 114.196 105.883 121.509C105.883 126.918 108.187 132.428 106.584 137.837C104.981 143.146 99.6718 146.853 94.5629 148.455C90.6561 149.658 87.6509 148.255 83.9445 148.556C83.3435 157.371 87.8513 162.079 80.9393 171.896C75.029 180.311 69.219 185.82 50.0858 187.423C44.9769 187.824 19.4327 188.725 20.0337 184.017C20.0337 184.017 19.7332 179.609 19.7332 171.195L18.7314 58.9001Z" fill="#AADDFC" stroke="#00001F" stroke-width="2" stroke-miterlimit="10" stroke-linecap="round" stroke-linejoin="round"/>
<path d="M18.2305 29.0481H99.1708L252.937 142.946V220.68H19.6329L18.2305 29.0481Z" stroke="#00001F" stroke-width="2" stroke-miterlimit="10" stroke-linecap="round" stroke-linejoin="round"/>
<path d="M138.038 220.379C142.946 216.072 148.857 209.059 146.052 202.248C142.646 194.234 137.036 187.121 135.534 178.306C134.832 173.999 135.133 166.486 137.938 162.879C142.846 156.769 155.268 156.468 157.672 152.561C160.777 147.853 153.164 145.249 153.465 139.94C153.765 134.53 160.076 130.123 164.584 128.219C172.598 125.014 181.313 125.715 189.227 128.319C198.142 131.225 206.857 133.428 215.873 135.933C223.486 138.036 228.094 139.539 235.307 142.744C240.516 145.048 248.63 149.055 252.937 143.947V220.68L138.038 220.379Z" fill="#AADDFC" stroke="#00001F" stroke-width="2" stroke-miterlimit="10" stroke-linecap="round" stroke-linejoin="round"/>
<path d="M105.682 65.3109C107.585 63.0069 111.892 59.3005 116.801 60.202C120.307 60.8031 123.713 64.3091 125.716 67.114" stroke="#00001F" stroke-width="2" stroke-miterlimit="10" stroke-linecap="round" stroke-linejoin="round"/>
<path d="M121.609 61.5036C125.015 59.2998 129.824 57.9975 133.53 60.001C136.736 61.7039 139.14 65.3102 140.642 68.4156" stroke="#00001F" stroke-width="2" stroke-miterlimit="10" stroke-linecap="round" stroke-linejoin="round"/>
<path d="M27.8457 158.874C27.8457 158.874 36.9615 149.157 50.5851 149.959C64.2087 150.76 69.7183 158.574 69.7183 158.574" stroke="#00001F" stroke-width="2" stroke-miterlimit="10" stroke-linecap="round" stroke-linejoin="round"/>
<path d="M263.555 437.057L264.356 436.255L239.313 487.244H229.896V436.255C229.896 436.255 263.555 436.255 263.555 437.057Z" fill="#002F49"/>
<path d="M200.846 328.767L185.92 436.554H576.197L476.924 330.871H202.348" fill="#5AC1FF"/>
<path d="M200.846 328.767L185.92 436.554H576.197L476.924 330.871H202.348" stroke="#00001F" stroke-width="2" stroke-miterlimit="10" stroke-linecap="round" stroke-linejoin="round"/>
<path d="M417.723 154.666C417.723 154.666 458.293 153.664 482.134 156.77C505.976 159.875 519.8 164.884 519.8 164.884L518.197 154.165C518.197 154.165 462.2 147.353 446.472 149.157C430.845 151.06 417.723 154.666 417.723 154.666Z" fill="#F9F9F9"/>
<path d="M484.238 393.08C484.238 393.08 509.381 393.581 509.381 403.298C509.381 409.91 480.03 408.908 465.405 406.403C449.477 403.699 445.37 401.295 445.37 401.295L445.771 399.291L484.238 393.08Z" fill="#002F49"/>
<path d="M513.988 148.356H456.689L428.841 152.062H343.393V11.8191H513.988V148.356Z" fill="#F9F9F9"/>
<path d="M343.094 180.913C343.094 180.913 348.604 180.712 348.403 178.208C348.203 175.704 341.892 171.496 347.401 167.389C352.911 163.282 402.697 157.172 402.697 157.172C402.697 157.172 383.865 161.679 374.649 164.084C365.433 166.488 356.818 167.389 354.213 170.595C351.609 173.8 352.21 173.5 354.614 174.301C357.018 175.103 364.231 173.7 364.03 178.208C363.83 182.716 358.12 184.719 358.12 184.719C358.12 184.719 349.305 187.624 346.7 189.828C344.096 192.032 342.393 194.937 342.593 189.828C342.894 184.719 343.094 180.913 343.094 180.913Z" fill="#F9F9F9"/>
<path d="M488.344 12.1185H342.592V248.629H520.801V12.6194C520.801 12.6194 488.344 11.6176 488.344 12.1185Z" stroke="#00001F" stroke-width="2" stroke-miterlimit="10" stroke-linecap="round" stroke-linejoin="round"/>
<path d="M522.303 95.163C519.799 99.3703 511.184 99.4705 511.184 99.4705C511.184 99.4705 474.22 99.4705 464.904 99.4705C455.588 99.4705 451.28 97.9679 451.28 92.4583C451.28 87.9505 457.391 85.8468 460.596 86.7484C466.907 88.5515 470.514 88.6517 472.918 86.9488C475.021 85.5463 476.925 83.9436 478.928 81.9401C481.933 78.9349 484.738 78.7345 484.738 78.7345C484.738 78.7345 489.246 77.5324 494.756 80.5376C498.462 82.5411 501.868 87.7502 506.376 87.3495C508.58 87.1491 511.184 85.7467 512.486 85.346C522.404 82.4409 525.509 89.7536 522.303 95.163Z" fill="#AADDFC" stroke="#00001F" stroke-width="2" stroke-miterlimit="10" stroke-linecap="round" stroke-linejoin="round"/>
<path d="M479.632 121.709V115.197H503.974V137.135H480.533L479.632 121.709Z" fill="#2B698F" stroke="#00001F" stroke-width="2" stroke-miterlimit="10" stroke-linecap="round" stroke-linejoin="round"/>
<path d="M493.857 114.997H479.632L491.853 106.582H507.18L503.974 115.197L493.857 114.997Z" fill="#002F49" stroke="#00001F" stroke-width="2" stroke-miterlimit="10" stroke-linecap="round" stroke-linejoin="round"/>
<path d="M504.975 155.065C504.975 155.065 478.83 147.052 458.294 148.354C425.938 150.558 371.143 164.882 371.143 164.882C371.143 164.882 361.025 166.786 356.017 169.591C345.799 175.301 362.728 174.299 364.031 178.206C366.134 184.316 346.6 186.62 342.994 193.332" stroke="#00001F" stroke-width="2" stroke-miterlimit="10" stroke-linecap="round" stroke-linejoin="round"/>
<path d="M451.081 149.156C447.575 134.03 437.458 116.5 432.85 110.89C432.75 110.69 434.953 111.19 435.955 111.491C443.168 113.595 445.772 110.69 440.964 107.484C435.655 103.978 432.85 106.683 432.85 106.683C432.85 106.683 436.857 97.8674 431.347 100.171C425.838 102.475 427.841 107.684 427.841 107.684C426.138 105.18 419.026 104.88 418.425 107.785C417.523 112.192 424.836 110.69 424.836 110.69C419.426 112.693 414.718 116.7 417.022 119.505C419.927 123.211 427.741 110.99 424.936 115.097C422.131 119.305 425.637 128.42 428.342 124.814C430.245 122.21 429.444 113.595 429.444 113.595C429.444 113.595 429.644 111.591 435.254 123.412C440.864 135.332 443.368 148.355 444.37 149.858L451.081 149.156Z" fill="#2B698F" stroke="#00001F" stroke-width="2" stroke-miterlimit="10" stroke-linecap="round" stroke-linejoin="round"/>
<path d="M457.694 128.521C456.692 126.818 455.59 123.111 453.987 121.308C452.785 122.711 451.683 125.015 451.583 126.818" stroke="#00001F" stroke-width="2" stroke-miterlimit="10" stroke-linecap="round" stroke-linejoin="round"/>
<path d="M454.387 120.908C452.884 118.904 448.677 120.307 448.276 122.31" stroke="#00001F" stroke-width="2" stroke-miterlimit="10" stroke-linecap="round" stroke-linejoin="round"/>
<path d="M454.588 120.708C453.386 119.305 455.29 115.298 457.293 115.899" stroke="#00001F" stroke-width="2" stroke-miterlimit="10" stroke-linecap="round" stroke-linejoin="round"/>
<path d="M454.788 120.907C455.79 119.705 458.595 120.106 459.697 121.308" stroke="#00001F" stroke-width="2" stroke-miterlimit="10" stroke-linecap="round" stroke-linejoin="round"/>
<path d="M483.037 125.415C481.735 122.711 478.329 120.306 476.426 123.211C475.725 121.308 475.825 117.802 473.12 119.004C470.616 120.106 469.815 124.213 469.614 126.517C468.412 124.213 468.713 120.507 467.31 118.203C465.006 114.496 464.004 121.609 464.906 123.512C460.799 124.914 462.201 131.526 464.105 134.13C463.504 131.927 461.099 128.721 458.695 128.421C454.187 127.819 453.887 133.129 454.288 136.134C453.286 135.433 452.084 134.13 450.681 134.331C448.478 134.731 447.776 141.643 449.98 149.056C449.98 149.056 475.324 146.251 502.471 154.265C502.471 154.265 503.974 145.55 504.274 141.343C504.675 136.134 504.975 132.027 502.972 129.222C500.367 125.415 496.861 128.42 493.856 133.028C493.856 133.028 493.856 126.117 490.05 125.916C486.243 125.816 485.642 130.324 485.642 130.324L483.037 125.415Z" fill="#AADDFC" stroke="#00001F" stroke-width="2" stroke-miterlimit="10" stroke-linecap="round" stroke-linejoin="round"/>
<path d="M441.765 149.958C440.964 149.658 439.561 147.554 438.86 146.653C438.96 146.753 439.06 146.953 439.16 147.053C438.059 145.451 436.155 143.948 434.953 142.946" stroke="#00001F" stroke-width="2" stroke-miterlimit="10" stroke-linecap="round" stroke-linejoin="round"/>
<path d="M431.549 145.85C433.352 146.25 435.556 147.452 437.259 148.955C438.16 149.756 439.162 150.758 439.963 150.357" stroke="#00001F" stroke-width="2" stroke-miterlimit="10" stroke-linecap="round" stroke-linejoin="round"/>
<path d="M440.063 122.109C440.865 124.513 443.169 146.151 443.069 148.254C442.969 150.358 448.578 149.256 448.578 149.256L449.981 146.852C449.981 146.852 448.578 139.239 446.475 134.731C444.371 130.223 440.063 122.109 440.063 122.109Z" fill="#002F49"/>
<path d="M208.661 163.882L179.109 163.382V169.091V193.434" stroke="#00001F" stroke-width="2" stroke-miterlimit="10" stroke-linecap="round" stroke-linejoin="round"/>
<path d="M438.357 213.367L446.271 235.806H452.782L444.168 213.868L438.357 213.367Z" fill="#F9F9F9" stroke="#00001F" stroke-width="2" stroke-miterlimit="10" stroke-linecap="round" stroke-linejoin="round"/>
<path d="M481.033 226.691L488.345 248.129H331.373L340.288 232.201L429.643 209.361L481.033 226.691Z" fill="#5AC1FF" stroke="#00001F" stroke-width="2" stroke-miterlimit="10" stroke-linecap="round" stroke-linejoin="round"/>
<path d="M388.773 234.506C388.773 234.506 427.44 209.563 429.543 209.362C431.747 209.162 476.625 230.599 480.331 226.792C484.038 223.086 501.568 174.602 501.568 174.602L512.387 143.748L508.48 140.643L477.827 150.66C477.827 150.66 445.671 205.455 443.668 206.958C441.664 208.561 406.203 194.637 397.187 195.338C388.172 196.139 341.491 226.692 341.491 226.692L339.688 232.001L388.773 234.506Z" fill="#5AC1FF" stroke="#00001F" stroke-width="2" stroke-miterlimit="10" stroke-linecap="round" stroke-linejoin="round"/>
<path d="M432.95 204.654L470.616 140.643H484.54H508.481C508.481 140.643 481.034 220.882 477.427 222.485L432.95 204.654Z" fill="#5AC1FF" stroke="#00001F" stroke-width="2" stroke-miterlimit="10" stroke-linecap="round" stroke-linejoin="round"/>
<path d="M432.949 204.654C432.949 204.654 429.442 202.65 425.736 203.852C422.03 205.054 389.273 227.894 389.273 227.894L341.189 227.593C341.189 227.593 376.15 196.039 398.689 194.636C413.815 193.635 477.626 222.485 477.626 222.485L432.949 204.654Z" fill="#5AC1FF" stroke="#00001F" stroke-width="2" stroke-miterlimit="10" stroke-linecap="round" stroke-linejoin="round"/>
<path d="M483.938 190.53C483.938 190.53 482.636 210.664 481.835 212.768C481.033 214.872 477.527 222.485 477.527 222.485L457.793 213.569L466.708 201.048L472.418 188.226L475.524 182.215L483.938 190.53Z" fill="#002F49"/>
<path d="M473.019 227.294L476.525 247.629" stroke="#00001F" stroke-width="2" stroke-miterlimit="10" stroke-linecap="round" stroke-linejoin="round"/>
<path d="M461.8 223.687L464.805 247.227" stroke="#00001F" stroke-width="2" stroke-miterlimit="10" stroke-linecap="round" stroke-linejoin="round"/>
<path d="M450.279 218.078L454.386 247.829" stroke="#00001F" stroke-width="2" stroke-miterlimit="10" stroke-linecap="round" stroke-linejoin="round"/>
<path d="M439.06 213.37L443.167 247.829" stroke="#00001F" stroke-width="2" stroke-miterlimit="10" stroke-linecap="round" stroke-linejoin="round"/>
<path d="M428.241 210.565L432.348 248.23" stroke="#00001F" stroke-width="2" stroke-miterlimit="10" stroke-linecap="round" stroke-linejoin="round"/>
<path d="M418.023 215.874L420.227 247.829" stroke="#00001F" stroke-width="2" stroke-miterlimit="10" stroke-linecap="round" stroke-linejoin="round"/>
<path d="M407.104 223.187L408.006 247.829" stroke="#00001F" stroke-width="2" stroke-miterlimit="10" stroke-linecap="round" stroke-linejoin="round"/>
<path d="M394.482 231L395.083 247.829" stroke="#00001F" stroke-width="2" stroke-miterlimit="10" stroke-linecap="round" stroke-linejoin="round"/>
<path d="M467.909 146.052L506.176 147.755" stroke="#00001F" stroke-width="2" stroke-miterlimit="10" stroke-linecap="round" stroke-linejoin="round"/>
<path d="M502.27 157.573L463.002 154.668" stroke="#00001F" stroke-width="2" stroke-miterlimit="10" stroke-linecap="round" stroke-linejoin="round"/>
<path d="M498.564 167.189L458.294 162.882" stroke="#00001F" stroke-width="2" stroke-miterlimit="10" stroke-linecap="round" stroke-linejoin="round"/>
<path d="M495.158 178.008L452.784 172.098" stroke="#00001F" stroke-width="2" stroke-miterlimit="10" stroke-linecap="round" stroke-linejoin="round"/>
<path d="M490.849 189.027L447.674 181.314" stroke="#00001F" stroke-width="2" stroke-miterlimit="10" stroke-linecap="round" stroke-linejoin="round"/>
<path d="M486.342 201.348L441.965 191.732" stroke="#00001F" stroke-width="2" stroke-miterlimit="10" stroke-linecap="round" stroke-linejoin="round"/>
<path d="M350.006 220.582H399.792" stroke="#00001F" stroke-width="2" stroke-miterlimit="10" stroke-linecap="round" stroke-linejoin="round"/>
<path d="M360.323 212.769H410.21" stroke="#00001F" stroke-width="2" stroke-miterlimit="10" stroke-linecap="round" stroke-linejoin="round"/>
<path d="M375.851 203.353H425.737" stroke="#00001F" stroke-width="2" stroke-miterlimit="10" stroke-linecap="round" stroke-linejoin="round"/>
<path d="M447.676 179.911C447.676 179.911 456.992 155.268 460.598 151.762C464.204 148.356 470.415 149.258 470.415 149.258C470.415 149.258 483.538 149.658 484.339 149.759C485.141 149.959 489.348 149.859 490.049 151.562C490.75 153.265 489.749 158.073 489.749 158.073L487.645 180.712L473.721 181.113L453.887 178.108L447.676 179.911Z" fill="#2B698F" stroke="#00001F" stroke-width="2" stroke-miterlimit="10" stroke-linecap="round" stroke-linejoin="round"/>
<path d="M424.035 140.439L389.976 139.237L396.086 162.878L429.845 164.882L424.035 140.439Z" fill="#FFD447" stroke="#00001F" stroke-width="2" stroke-miterlimit="10" stroke-linecap="round" stroke-linejoin="round"/>
<path d="M430.446 165.382L448.177 177.904L447.075 181.11L428.242 168.688L395.485 166.384L395.686 162.978L430.446 165.382Z" fill="#FFD447" stroke="#00001F" stroke-width="2" stroke-miterlimit="10" stroke-linecap="round" stroke-linejoin="round"/>
<path d="M395.485 166.384L417.924 176.401L446.975 180.708L428.242 168.688L395.485 166.384Z" fill="#002F49" stroke="#00001F" stroke-width="2" stroke-miterlimit="10" stroke-linecap="round" stroke-linejoin="round"/>
<path d="M460.598 197.039C460.598 197.039 463.302 203.55 450.881 204.752C438.459 205.954 416.622 183.816 409.609 183.616C402.597 183.415 373.447 201.747 373.447 201.747C373.447 201.747 373.447 201.747 369.74 206.255C366.034 210.763 362.828 209.961 354.614 209.561C346.5 209.06 335.781 208.96 334.379 207.557C332.976 206.155 332.576 204.151 337.785 204.853C342.994 205.554 355.415 201.948 364.531 195.236L397.188 172.296C397.188 172.296 408.608 163.882 423.033 174.8L443.368 186.421" fill="#2B698F"/>
<path d="M460.598 197.039C460.598 197.039 463.302 203.55 450.881 204.752C438.459 205.954 416.622 183.816 409.609 183.616C402.597 183.415 373.447 201.747 373.447 201.747C373.447 201.747 373.447 201.747 369.74 206.255C366.034 210.763 362.828 209.961 354.614 209.561C346.5 209.06 335.781 208.96 334.379 207.557C332.976 206.155 332.576 204.151 337.785 204.853C342.994 205.554 355.415 201.948 364.531 195.236L397.188 172.296C397.188 172.296 408.608 163.882 423.033 174.8L443.368 186.421" stroke="#00001F" stroke-width="2" stroke-miterlimit="10" stroke-linecap="round" stroke-linejoin="round"/>
<path d="M483.638 173.199C483.638 173.199 480.031 171.296 480.532 163.583C481.033 155.869 486.342 149.859 486.342 149.859L481.835 149.759L470.114 150.059C469.814 150.76 467.41 155.869 460.998 162.08C454.587 168.19 452.884 171.296 452.985 174.401L453.285 178.909C453.285 178.909 468.612 181.914 471.717 183.818C474.822 185.721 481.734 188.726 481.734 188.726L483.638 173.199Z" fill="#F9F9F9" stroke="#00001F" stroke-width="2" stroke-miterlimit="10" stroke-linecap="round" stroke-linejoin="round"/>
<path d="M460.897 176.403C461.298 176.403 472.016 178.406 476.124 175.702C480.131 173.097 477.426 179.508 476.925 179.709C476.424 180.009 460.597 176.803 460.597 176.803L460.897 176.403Z" fill="#AADDFC"/>
<path d="M460.999 189.526L432.65 174.2C422.132 167.488 411.113 175.402 411.113 175.402L378.456 198.341C369.34 205.053 356.919 208.659 351.71 207.958C346.501 207.257 346.901 209.26 348.304 210.663C349.706 212.065 360.425 212.165 368.539 212.666C376.653 213.167 379.959 213.868 383.665 209.361C387.371 204.853 387.371 204.853 387.371 204.853C387.371 204.853 416.522 186.521 423.534 186.721C430.546 186.922 449.88 212.366 462.301 211.164C474.723 209.962 476.426 190.227 476.426 190.227" fill="#2B698F"/>
<path d="M460.999 189.526L432.65 174.2C422.132 167.488 411.113 175.402 411.113 175.402L378.456 198.341C369.34 205.053 356.919 208.659 351.71 207.958C346.501 207.257 346.901 209.26 348.304 210.663C349.706 212.065 360.425 212.165 368.539 212.666C376.653 213.167 379.959 213.868 383.665 209.361C387.371 204.853 387.371 204.853 387.371 204.853C387.371 204.853 416.522 186.521 423.534 186.721C430.546 186.922 449.88 212.366 462.301 211.164C474.723 209.962 476.426 190.227 476.426 190.227" stroke="#00001F" stroke-width="2" stroke-miterlimit="10" stroke-linecap="round" stroke-linejoin="round"/>
<path d="M463.502 213.569C472.718 212.266 478.328 202.85 478.829 193.935C478.929 191.931 478.829 189.727 477.727 188.024C476.224 185.62 473.419 184.418 470.715 183.516C463.001 180.912 454.887 179.61 446.673 179.509C445.371 179.509 444.068 179.51 442.866 179.309C441.263 179.009 439.861 178.207 438.459 177.406C432.649 174.1 426.738 169.592 420.027 170.294C418.925 170.394 417.823 170.594 416.821 170.494C415.519 170.394 414.317 169.793 413.215 169.292C408.006 167.188 402.096 167.288 396.686 168.791C391.277 170.294 386.268 173.098 381.66 176.304C386.969 174.401 393.581 176.604 396.586 181.413C397.688 180.211 398.69 179.009 400.092 178.207C401.495 177.406 403.298 177.306 404.7 178.207C406.002 179.109 406.503 180.812 406.804 182.415C408.607 191.23 408.707 200.346 407.204 209.161C407.004 210.062 406.904 210.964 407.405 211.665C407.906 212.467 409.008 212.667 409.909 212.767C418.624 213.268 425.636 204.553 434.351 204.353C439.36 204.252 443.868 206.957 448.276 209.361C448.075 209.361 455.488 214.67 463.502 213.569Z" fill="#F9F9F9"/>
<path d="M466.91 186.02C466.91 186.02 460.498 185.419 456.992 187.122C453.486 188.825 450.782 187.222 450.782 187.222L442.367 182.815C442.367 182.815 441.065 180.01 447.576 180.01C454.087 180.01 468.112 182.614 468.112 182.614L466.91 186.02Z" fill="#AADDFC"/>
<path d="M398.991 168.59C398.991 168.59 409.309 169.391 411.112 172.397C411.112 172.397 422.231 170.293 427.34 177.205C432.449 184.117 455.589 195.036 465.005 192.031C465.005 192.031 458.194 187.623 452.183 184.217C446.173 180.811 440.663 179.208 440.663 179.208C440.663 179.208 429.844 170.293 422.732 170.093C420.829 169.992 417.824 170.694 415.319 170.193C408.608 168.891 408.908 165.485 398.69 168.79" fill="#AADDFC"/>
<path d="M463.502 213.569C472.718 212.266 478.328 202.85 478.829 193.935C478.929 191.931 478.829 189.727 477.727 188.024C476.224 185.62 473.419 184.418 470.715 183.516C463.001 180.912 454.887 179.61 446.673 179.509C445.371 179.509 444.068 179.51 442.866 179.309C441.263 179.009 439.861 178.207 438.459 177.406C432.649 174.1 426.738 169.592 420.027 170.294C418.925 170.394 417.823 170.594 416.821 170.494C415.519 170.394 414.317 169.793 413.215 169.292C408.006 167.188 402.096 167.288 396.686 168.791C391.277 170.294 386.268 173.098 381.66 176.304C386.969 174.401 393.581 176.604 396.586 181.413C397.688 180.211 398.69 179.009 400.092 178.207C401.495 177.406 403.298 177.306 404.7 178.207C406.002 179.109 406.503 180.812 406.804 182.415C408.607 191.23 408.707 200.346 407.204 209.161C407.004 210.062 406.904 210.964 407.405 211.665C407.906 212.467 409.008 212.667 409.909 212.767C418.624 213.268 425.636 204.553 434.351 204.353C439.36 204.252 443.868 206.957 448.276 209.361C448.075 209.361 455.488 214.67 463.502 213.569Z" stroke="#00001F" stroke-width="2" stroke-miterlimit="10" stroke-linecap="round" stroke-linejoin="round"/>
<path d="M441.063 178.407C441.063 178.407 454.286 184.618 457.091 187.122" stroke="#00001F" stroke-width="2" stroke-miterlimit="10" stroke-linecap="round" stroke-linejoin="round"/>
<path d="M382.362 175.602C381.761 175.702 378.856 177.605 379.257 183.415L390.476 176.704C390.376 176.804 385.267 175.301 382.362 175.602Z" fill="#002F49" stroke="#00001F" stroke-width="2" stroke-miterlimit="10" stroke-linecap="round" stroke-linejoin="round"/>
<path d="M396.387 181.013C396.387 181.013 398.09 183.117 400.594 182.115C403.098 181.113 405.503 179.21 405.503 179.21C405.503 179.21 405.703 177.407 403.299 177.407C400.895 177.407 397.689 178.709 396.387 181.013Z" fill="#002F49" stroke="#00001F" stroke-width="2" stroke-miterlimit="10" stroke-linecap="round" stroke-linejoin="round"/>
<path d="M409.811 173.298C409.811 173.298 414.318 170.794 418.225 170.193" stroke="#00001F" stroke-width="2" stroke-miterlimit="10" stroke-linecap="round" stroke-linejoin="round"/>
<path d="M474.622 140.541C475.123 133.329 470.214 150.458 467.309 156.168C465.106 160.476 469.513 163.481 474.321 159.274C477.828 156.268 479.13 153.263 480.733 150.859C481.634 149.457 480.733 138.438 480.733 138.438C480.733 138.438 476.325 143.446 474.622 140.541Z" fill="#2B698F" stroke="#00001F" stroke-width="2" stroke-miterlimit="10" stroke-linecap="round" stroke-linejoin="round"/>
<path d="M471.617 129.121C471.116 129.822 467.91 134.731 469.012 140.841C470.114 146.952 477.627 147.152 480.332 142.945C483.037 138.738 486.042 135.833 484.138 131.124C482.235 126.316 475.123 123.511 471.617 129.121Z" fill="#2B698F" stroke="#00001F" stroke-width="2" stroke-miterlimit="10" stroke-linecap="round" stroke-linejoin="round"/>
<path d="M464.705 133.329C465.105 135.132 466.307 136.835 468.211 136.635C470.715 136.334 471.917 132.628 470.915 130.824C470.114 129.422 468.111 128.821 466.608 129.222C464.805 129.622 464.304 131.526 464.705 133.329Z" fill="#002F49"/>
<path d="M478.529 139.54C480.533 139.64 483.638 138.037 484.039 136.033C484.54 132.928 481.134 132.227 477.928 131.826C477.928 131.826 475.324 131.626 474.823 134.831C474.222 138.037 476.225 139.439 478.529 139.54Z" fill="#002F49"/>
<path d="M470.415 130.023L464.204 133.529C464.204 133.529 463.503 130.223 466.107 129.221C468.612 128.219 470.415 130.023 470.415 130.023Z" fill="#F9F9F9"/>
<path d="M480.834 133.227L474.623 136.733C474.623 136.733 473.922 133.427 476.526 132.426C479.031 131.524 480.834 133.227 480.834 133.227Z" fill="#F9F9F9"/>
<path d="M464.705 133.329C465.105 135.132 466.307 136.835 468.211 136.635C470.715 136.334 471.917 132.628 470.915 130.824C470.114 129.422 468.111 128.821 466.608 129.222C464.805 129.622 464.304 131.526 464.705 133.329Z" stroke="#00001F" stroke-width="2" stroke-miterlimit="10" stroke-linecap="round" stroke-linejoin="round"/>
<path d="M486.743 125.816C486.743 125.816 488.146 118.403 495.959 120.707C503.773 123.011 497.462 137.536 489.748 132.527C482.135 127.518 486.743 125.816 486.743 125.816Z" fill="#5AC1FF" stroke="#00001F" stroke-width="2" stroke-miterlimit="10" stroke-linecap="round" stroke-linejoin="round"/>
<path d="M471.316 129.221C471.316 129.221 472.518 124.613 476.926 123.21C482.736 121.407 489.147 124.713 489.047 130.323C488.847 135.932 483.738 139.839 482.636 139.739C481.534 139.639 486.142 129.822 478.829 127.518C473.52 125.815 471.316 129.221 471.316 129.221Z" fill="#5AC1FF" stroke="#00001F" stroke-width="2" stroke-miterlimit="10" stroke-linecap="round" stroke-linejoin="round"/>
<path d="M478.529 139.54C480.533 139.64 483.638 138.037 484.039 136.033C484.54 132.928 481.134 132.227 477.928 131.826C477.928 131.826 475.324 131.626 474.823 134.831C474.222 138.037 476.225 139.439 478.529 139.54Z" stroke="#00001F" stroke-width="2" stroke-miterlimit="10" stroke-linecap="round" stroke-linejoin="round"/>
<path d="M471.316 133.429C472.218 132.627 474.622 133.228 474.622 134.43L471.316 133.429Z" fill="#F9F9F9"/>
<path d="M471.316 133.429C472.218 132.627 474.622 133.228 474.622 134.43" stroke="#00001F" stroke-width="2" stroke-miterlimit="10" stroke-linecap="round" stroke-linejoin="round"/>
<path d="M471.517 134.33C471.517 135.231 469.513 136.433 468.812 138.036C468.011 139.639 471.416 139.539 471.917 139.839" fill="#2B698F"/>
<path d="M471.517 134.33C471.517 135.231 469.513 136.433 468.812 138.036C468.011 139.639 471.416 139.539 471.917 139.839" stroke="#00001F" stroke-width="2" stroke-miterlimit="10" stroke-linecap="round" stroke-linejoin="round"/>
<path d="M483.637 131.726C483.637 131.726 487.343 132.026 488.445 130.324C489.647 128.621 488.946 130.424 488.946 130.424C488.946 130.424 488.946 132.928 487.644 135.232C486.342 137.536 483.938 140.241 483.336 139.239C482.735 138.237 483.637 131.726 483.637 131.726Z" fill="#002F49"/>
<path d="M488.747 128.42C488.747 128.42 497.162 130.223 498.664 129.222C500.267 128.22 498.965 133.83 495.258 133.529C491.552 133.228 489.548 134.23 489.248 132.227C489.048 130.223 488.747 128.42 488.747 128.42Z" fill="#002F49"/>
<path d="M486.944 149.959C490.55 149.959 494.257 151.361 494.457 156.871C494.858 165.786 494.357 185.22 488.046 188.926C479.03 194.236 463.403 182.315 457.493 180.211C450.982 177.807 447.876 174.401 447.876 174.401C447.876 174.401 439.762 171.997 437.759 170.595C436.557 169.693 437.058 168.491 437.058 168.491C438.56 167.589 438.861 167.689 443.268 167.79C453.686 167.99 459.096 175.503 459.096 175.503C459.096 175.503 478.529 182.315 481.334 180.712C484.139 179.109 483.739 168.691 484.34 161.479" fill="#2B698F"/>
<path d="M486.944 149.959C490.55 149.959 494.257 151.361 494.457 156.871C494.858 165.786 494.357 185.22 488.046 188.926C479.03 194.235 463.403 182.315 457.493 180.211C450.982 177.807 447.876 174.401 447.876 174.401C447.876 174.401 439.762 171.997 437.759 170.595C436.557 169.693 437.058 168.491 437.058 168.491C438.56 167.589 438.861 167.689 443.268 167.79C453.686 167.99 459.096 175.503 459.096 175.503C459.096 175.503 478.529 182.315 481.334 180.712C484.139 179.109 483.739 168.691 484.34 161.479" stroke="#00001F" stroke-width="2" stroke-miterlimit="10" stroke-linecap="round" stroke-linejoin="round"/>
<path d="M438.26 169.994C438.26 169.994 442.567 169.393 444.771 169.593L438.26 169.994Z" fill="#F9F9F9"/>
<path d="M438.26 169.994C438.26 169.994 442.567 169.393 444.771 169.593" stroke="#00001F" stroke-width="2" stroke-miterlimit="10" stroke-linecap="round" stroke-linejoin="round"/>
<path d="M440.463 171.196C440.763 170.996 444.27 171.096 446.173 171.296L440.463 171.196Z" fill="#F9F9F9"/>
<path d="M440.463 171.196C440.763 170.996 444.27 171.096 446.173 171.296" stroke="#00001F" stroke-width="2" stroke-miterlimit="10" stroke-linecap="round" stroke-linejoin="round"/>
<path d="M407.105 211.264C406.804 212.366 396.787 209.962 393.882 201.247L408.207 193.233C408.207 193.333 408.207 206.656 407.105 211.264Z" fill="#002F49"/>
<path d="M432.949 198.642C433.25 199.444 442.366 204.553 448.176 208.96" stroke="#00001F" stroke-width="2" stroke-miterlimit="10" stroke-linecap="round" stroke-linejoin="round"/>
<path d="M230.598 118.004C233.904 111.893 235.707 104.981 235.707 97.5684C235.707 73.9274 216.473 54.6941 192.832 54.6941C169.191 54.6941 149.958 73.9274 149.958 97.5684C149.958 104.981 151.861 111.893 155.067 118.004C156.67 121.009 158.673 123.814 160.877 126.318C173.799 142.446 192.131 156.871 192.131 182.516L193.333 183.017C193.333 157.372 211.665 142.546 224.587 126.318C226.992 123.814 228.895 121.009 230.598 118.004Z" fill="#2B698F" stroke="#00001F" stroke-width="2" stroke-miterlimit="10" stroke-linecap="round" stroke-linejoin="round"/>
<path d="M192.231 117.704C202.964 117.704 211.664 109.003 211.664 98.2699C211.664 87.5369 202.964 78.8362 192.231 78.8362C181.498 78.8362 172.797 87.5369 172.797 98.2699C172.797 109.003 181.498 117.704 192.231 117.704Z" fill="#F9F9F9" stroke="#00001F" stroke-width="2" stroke-miterlimit="10" stroke-linecap="round" stroke-linejoin="round"/>
<path d="M90.3563 43.5739C92.3598 39.8674 93.4617 35.56 93.4617 31.0521C93.4617 16.527 81.7414 4.80664 67.2162 4.80664C52.691 4.80664 40.9707 16.527 40.9707 31.0521C40.9707 35.56 42.0726 39.8674 44.0761 43.5739C45.0778 45.377 46.2799 47.0799 47.6823 48.6827C55.5961 58.5999 66.8155 67.315 66.8155 83.0423C66.8155 67.315 78.7362 58.4997 86.6499 48.5825C88.2527 47.0799 89.4548 45.377 90.3563 43.5739Z" fill="#F9F9F9" stroke="#00001F" stroke-width="2" stroke-miterlimit="10" stroke-linecap="round" stroke-linejoin="round"/>
<path d="M66.9158 43.3743C73.4994 43.3743 78.8365 38.0372 78.8365 31.4536C78.8365 24.87 73.4994 19.533 66.9158 19.533C60.3322 19.533 54.9951 24.87 54.9951 31.4536C54.9951 38.0372 60.3322 43.3743 66.9158 43.3743Z" fill="#AADDFC" stroke="#00001F" stroke-width="2" stroke-miterlimit="10" stroke-linecap="round" stroke-linejoin="round"/>
<path d="M232.199 168.491H240.714V181.413" stroke="#00001F" stroke-width="2" stroke-miterlimit="10" stroke-linecap="round" stroke-linejoin="round"/>
<path d="M244.221 180.712L241.115 181.013V169.493L244.12 171.296L244.221 180.712Z" fill="#002F49"/>
<path d="M240.714 168.491L244.621 170.695V181.914V182.816L240.714 183.116V168.491Z" stroke="#00001F" stroke-width="2" stroke-miterlimit="10" stroke-linecap="round" stroke-linejoin="round"/>
<path d="M227.09 156.167H208.458V200.144H227.09V156.167Z" fill="#F9F9F9"/>
<path d="M207.457 184.316H185.519V200.744H238.911" stroke="#00001F" stroke-width="2" stroke-miterlimit="10" stroke-linecap="round" stroke-linejoin="round"/>
<path d="M213.267 173.297H212.064V184.316H213.267V173.297Z" fill="#002F49"/>
<path d="M216.873 173.297H215.671V184.316H216.873V173.297Z" fill="#002F49"/>
<path d="M220.378 173.297H219.176V184.316H220.378V173.297Z" fill="#002F49"/>
<path d="M223.985 173.297H222.783V184.316H223.985V173.297Z" fill="#002F49"/>
<path d="M237.709 200.145H220.078V180.511H237.609L237.709 200.145Z" fill="#5AC1FF"/>
<path d="M226.99 178.808V155.768H208.357V167.989V200.145" stroke="#00001F" stroke-width="2" stroke-miterlimit="10" stroke-linecap="round" stroke-linejoin="round"/>
<path d="M220.078 199.544V180.41H237.408V200.245" stroke="#00001F" stroke-width="2" stroke-miterlimit="10" stroke-linecap="round" stroke-linejoin="round"/>
<path d="M223.185 149.657H213.468V155.167H223.185V149.657Z" fill="#F9F9F9"/>
<path d="M237.409 180.41L246.325 182.314V200.245" stroke="#00001F" stroke-width="2" stroke-miterlimit="10" stroke-linecap="round" stroke-linejoin="round"/>
<path d="M234.003 180.111V160.877L226.991 155.768" stroke="#00001F" stroke-width="2" stroke-miterlimit="10" stroke-linecap="round" stroke-linejoin="round"/>
<path d="M213.867 155.367V149.958H223.484V155.167" stroke="#00001F" stroke-width="2" stroke-miterlimit="10" stroke-linecap="round" stroke-linejoin="round"/>
<path d="M229.896 157.07V153.865L223.485 149.958" stroke="#00001F" stroke-width="2" stroke-miterlimit="10" stroke-linecap="round" stroke-linejoin="round"/>
<path d="M227.392 159.073C227.392 159.073 228.293 155.968 229.094 157.37C229.896 158.772 234.103 159.073 234.303 163.681C234.604 168.289 234.704 176.603 234.704 176.603C234.704 176.603 234.203 180.41 232.3 180.31C230.497 180.21 227.291 180.41 227.091 177.405C226.79 174.299 227.392 159.073 227.392 159.073Z" fill="#002F49"/>
<path d="M225.789 151.261L228.294 152.463C228.294 152.463 229.896 154.266 229.696 155.167C229.596 156.069 229.696 158.974 228.093 157.772C226.491 156.57 225.589 155.668 224.788 155.668C223.986 155.668 223.485 155.969 223.485 153.665C223.485 151.361 223.586 149.758 225.789 151.261Z" fill="#002F49"/>
<path d="M213.267 159.674H212.064V170.693H213.267V159.674Z" fill="#002F49"/>
<path d="M216.873 159.674H215.671V170.693H216.873V159.674Z" fill="#002F49"/>
<path d="M220.378 159.674H219.176V170.693H220.378V159.674Z" fill="#002F49"/>
<path d="M223.985 159.674H222.783V170.693H223.985V159.674Z" fill="#002F49"/>
<path d="M227.391 184.116H223.184V189.125H227.391V184.116Z" fill="#F9F9F9"/>
<path d="M227.391 191.83H223.184V196.839H227.391V191.83Z" fill="#F9F9F9"/>
<path d="M234.203 184.116H229.996V189.125H234.203V184.116Z" fill="#F9F9F9"/>
<path d="M234.203 191.729H229.996V196.738H234.203V191.729Z" fill="#F9F9F9"/>
<path d="M246.824 200.847H237.809L237.608 180.913L246.624 183.217L246.824 200.847Z" fill="#002F49"/>
<path d="M245.122 189.826L239.111 189.125V184.116L245.122 185.519V189.826Z" fill="#AADDFC"/>
<path d="M245.122 196.538L239.111 196.738V191.729L245.122 192.03V196.538Z" fill="#AADDFC"/>
<path d="M229.896 171.294L228.794 171.094V160.075L229.896 160.876V171.294Z" fill="#AADDFC"/>
<path d="M232.701 171.796L231.499 171.596V161.178L232.701 161.879V171.796Z" fill="#AADDFC"/>
<path d="M190.427 187.524H188.824V192.132H190.427V187.524Z" fill="#002F49"/>
<path d="M194.734 187.524H193.131V192.132H194.734V187.524Z" fill="#002F49"/>
<path d="M190.427 193.332H188.824V197.94H190.427V193.332Z" fill="#002F49"/>
<path d="M194.734 193.332H193.131V197.94H194.734V193.332Z" fill="#002F49"/>
<path d="M215.872 200.747H252.335" stroke="#00001F" stroke-width="2" stroke-miterlimit="10" stroke-linecap="round" stroke-linejoin="round"/>
<path d="M208.761 86.449C319.252 -3.30661 428.842 51.9893 428.842 51.9893" stroke="#00001F" stroke-width="2" stroke-miterlimit="10" stroke-linecap="round" stroke-linejoin="round"/>
<path d="M161.177 108.486C161.177 108.486 122.109 142.545 93.6602 175.602" stroke="#00001F" stroke-width="2" stroke-miterlimit="10" stroke-linecap="round" stroke-linejoin="round"/>
<path d="M82.2402 208.66C82.2402 208.66 114.697 172.397 139.139 147.153" stroke="#00001F" stroke-width="2" stroke-miterlimit="10" stroke-linecap="round" stroke-linejoin="round"/>
<path d="M195.537 209.962C195.537 209.962 200.746 207.558 201.848 202.85C202.85 198.142 193.934 187.022 196.138 177.506C197.741 170.393 203.751 171.996 204.753 174.601C205.354 176.203 206.857 182.715 212.867 192.131C218.878 201.547 209.962 235.005 208.66 245.724C207.358 256.443 211.064 269.565 211.064 269.565L172.898 271.97C172.898 271.97 147.754 236.909 147.554 224.387C147.253 211.865 160.376 202.148 160.376 202.148C159.074 198.242 150.459 184.919 161.678 175.502C167.288 170.894 170.794 172.197 180.311 170.594C189.427 169.091 190.929 170.193 191.33 172.998C191.53 174.801 191.53 177.906 186.622 180.11C179.008 183.416 170.594 182.314 169.893 184.017C168.791 186.922 173.699 196.439 173.699 196.439C173.699 196.439 184.819 212.166 195.537 209.962Z" fill="#5AC1FF"/>
<path d="M197.14 176.204C197.14 176.204 200.546 175.903 202.649 180.912C204.753 185.921 211.264 193.233 213.668 197.441C216.072 201.648 212.867 192.232 212.867 192.232C212.867 192.232 208.159 185.42 206.856 181.012C205.554 176.605 206.857 174.2 203.751 173.399C200.546 172.497 198.141 170.694 197.14 176.204Z" fill="#F9F9F9"/>
<path d="M160.277 178.507C160.177 179.309 162.38 175.101 168.691 175.903C175.002 176.704 187.824 174.601 190.128 172.797C192.533 170.994 192.733 170.994 189.628 170.393C186.522 169.892 184.519 169.892 180.311 170.493C176.104 171.095 170.595 171.696 170.595 171.696C170.595 171.696 161.278 171.696 160.277 178.507Z" fill="#F9F9F9"/>
<path d="M195.537 209.962C195.537 209.962 200.746 207.558 201.848 202.85C202.85 198.142 193.934 187.022 196.138 177.506C197.741 170.393 203.751 171.996 204.753 174.601C205.354 176.203 206.857 182.715 212.867 192.131C218.878 201.547 209.962 235.005 208.66 245.724C207.358 256.443 211.064 269.565 211.064 269.565L172.898 271.97C172.898 271.97 147.754 236.909 147.554 224.387C147.253 211.865 160.376 202.148 160.376 202.148C159.074 198.242 150.459 184.919 161.678 175.502C167.288 170.894 170.794 172.197 180.311 170.594C189.427 169.091 190.929 170.193 191.33 172.998C191.53 174.801 191.53 177.906 186.622 180.11C179.008 183.416 170.594 182.314 169.893 184.017C168.791 186.922 173.699 196.439 173.699 196.439C173.699 196.439 184.819 212.166 195.537 209.962Z" stroke="#00001F" stroke-width="2" stroke-miterlimit="10" stroke-linecap="round" stroke-linejoin="round"/>
<path d="M158.974 203.351C158.974 203.351 176.504 194.435 183.817 196.539C191.129 198.643 195.637 211.265 196.839 216.173C199.544 227.693 190.929 223.285 190.929 223.285" fill="#5AC1FF"/>
<path d="M160.476 203.35C160.476 203.35 176.704 199.443 183.015 202.849C189.326 206.255 195.036 211.965 196.137 214.87C197.139 217.775 192.932 203.55 188.324 198.942C185.218 195.837 183.115 195.035 179.909 195.837C176.704 196.538 165.484 199.443 160.476 203.35Z" fill="#F9F9F9"/>
<path d="M153.664 209.162C153.664 209.162 174.901 204.153 179.008 206.457C186.621 210.765 190.227 221.483 191.329 226.392C192.431 231.3 188.124 233.103 185.219 230.198C182.214 227.394 182.113 222.585 178.106 217.577" stroke="#00001F" stroke-width="2" stroke-miterlimit="10" stroke-linecap="round" stroke-linejoin="round"/>
<path d="M158.974 203.351C158.974 203.351 176.504 194.435 183.817 196.539C191.129 198.643 195.637 211.265 196.839 216.173C199.544 227.693 190.929 223.285 190.929 223.285" stroke="#00001F" stroke-width="2" stroke-miterlimit="10" stroke-linecap="round" stroke-linejoin="round"/>
<path d="M148.756 217.677C149.758 217.176 170.694 212.568 175.402 215.172C180.11 217.777 185.319 230.399 184.318 235.307C183.416 239.815 179.108 239.514 176.504 236.109C173.899 232.703 170.494 225.39 170.494 225.39L160.576 229.297" stroke="#00001F" stroke-width="2" stroke-miterlimit="10" stroke-linecap="round" stroke-linejoin="round"/>
<path d="M172.797 271.971C172.797 271.971 162.379 272.272 162.379 275.778C162.379 279.284 163.581 282.489 163.581 282.489C163.581 282.489 182.414 361.026 197.34 377.454C212.265 393.983 260.549 343.295 281.686 309.937C302.822 276.579 289.9 246.727 289.9 246.727L260.449 244.023L215.271 307.633L213.668 268.165L172.797 271.971Z" fill="#2B698F" stroke="#00001F" stroke-width="2" stroke-miterlimit="10" stroke-linecap="round" stroke-linejoin="round"/>
<path d="M377.652 364.131L198.441 343.696L228.293 287.097C228.293 287.097 256.642 235.007 278.981 220.181C300.518 205.857 318.65 204.755 318.65 204.755C318.65 204.755 354.512 198.644 379.355 205.356C404.198 212.067 435.052 252.237 455.487 284.192C475.922 316.148 460.496 362.528 431.746 365.233C402.996 368.038 377.652 364.131 377.652 364.131Z" fill="#2B698F"/>
<path d="M330.169 210.564C330.169 210.564 357.416 208.961 370.94 211.967C384.463 214.872 407.403 232.602 413.714 239.414C420.025 246.326 450.578 280.385 455.386 284.192C460.195 287.898 416.619 230.499 401.593 217.877C395.282 212.568 388.37 207.559 379.455 205.155C361.323 200.146 339.385 201.348 329.568 203.151C315.043 205.856 330.169 210.564 330.169 210.564Z" fill="#AADDFC"/>
<path d="M377.652 364.131L198.441 343.696L228.293 287.097C228.293 287.097 256.642 235.007 278.981 220.181C300.518 205.857 318.65 204.755 318.65 204.755C318.65 204.755 354.512 198.644 379.355 205.356C404.198 212.067 435.052 252.237 455.487 284.192C475.922 316.148 460.496 362.528 431.746 365.233C402.996 368.038 377.652 364.131 377.652 364.131Z" stroke="#00001F" stroke-width="2" stroke-miterlimit="10" stroke-linecap="round" stroke-linejoin="round"/>
<path d="M246.326 256.142C245.624 257.144 285.594 234.504 291.103 230.197C296.613 225.889 295.811 212.166 295.811 212.166C295.811 212.166 293.808 210.563 289.901 212.967C285.994 215.271 270.267 221.983 246.326 256.142Z" fill="#002F49"/>
<path d="M289.5 218.777C289.5 218.777 279.583 229.495 283.189 238.11C286.895 246.725 313.542 230.797 326.865 220.58C340.188 210.362 339.186 203.049 339.186 203.049C339.186 203.049 309.434 199.243 289.5 218.777Z" fill="#AADDFC" stroke="#00001F" stroke-width="2" stroke-miterlimit="10" stroke-linecap="round" stroke-linejoin="round"/>
<path d="M286.194 238.611C286.595 238.01 289.5 232.1 289.5 232.1" stroke="#00001F" stroke-width="2" stroke-miterlimit="10" stroke-linecap="round" stroke-linejoin="round"/>
<path d="M296.01 229.195L293.807 239.412" stroke="#00001F" stroke-width="2" stroke-miterlimit="10" stroke-linecap="round" stroke-linejoin="round"/>
<path d="M302.623 225.287L301.32 236.707" stroke="#00001F" stroke-width="2" stroke-miterlimit="10" stroke-linecap="round" stroke-linejoin="round"/>
<path d="M308.733 222.182L308.332 232.2" stroke="#00001F" stroke-width="2" stroke-miterlimit="10" stroke-linecap="round" stroke-linejoin="round"/>
<path d="M313.643 219.378L314.845 228.193" stroke="#00001F" stroke-width="2" stroke-miterlimit="10" stroke-linecap="round" stroke-linejoin="round"/>
<path d="M318.35 216.472L320.954 224.887" stroke="#00001F" stroke-width="2" stroke-miterlimit="10" stroke-linecap="round" stroke-linejoin="round"/>
<path d="M323.259 213.569L326.965 220.681" stroke="#00001F" stroke-width="2" stroke-miterlimit="10" stroke-linecap="round" stroke-linejoin="round"/>
<path d="M327.767 210.162L331.473 216.272" stroke="#00001F" stroke-width="2" stroke-miterlimit="10" stroke-linecap="round" stroke-linejoin="round"/>
<path d="M331.271 206.656L335.579 211.364" stroke="#00001F" stroke-width="2" stroke-miterlimit="10" stroke-linecap="round" stroke-linejoin="round"/>
<path d="M283.39 231.8L288.899 227.693" stroke="#00001F" stroke-width="2" stroke-miterlimit="10" stroke-linecap="round" stroke-linejoin="round"/>
<path d="M397.787 385.768H216.172L197.941 268.465C197.34 264.858 200.145 261.653 203.751 261.753L407.504 262.655C410.71 262.655 413.114 265.459 412.713 268.565L397.787 385.768Z" fill="#FFD447"/>
<path d="M201.247 278.882C201.247 278.882 199.644 268.664 206.756 268.664C213.869 268.664 404.599 268.664 404.599 268.664C404.599 268.664 414.016 266.66 412.012 279.282C412.012 279.282 414.416 269.465 413.214 266.761C411.411 262.654 412.313 263.655 408.306 263.054C404.199 262.453 203.451 263.054 203.451 263.054C203.451 263.054 198.141 263.655 198.943 269.566C199.644 275.376 201.247 278.882 201.247 278.882Z" fill="#F9F9F9"/>
<path d="M398.588 386.168H216.873L198.541 267.663C198.04 264.658 200.344 262.053 203.35 262.053L408.205 262.955C411.41 262.955 413.815 265.76 413.414 268.965L398.588 386.168Z" stroke="#00001F" stroke-width="2" stroke-miterlimit="10" stroke-linecap="round" stroke-linejoin="round"/>
<path d="M307.23 336.182C315.252 336.182 321.755 329.679 321.755 321.657C321.755 313.635 315.252 307.132 307.23 307.132C299.208 307.132 292.705 313.635 292.705 321.657C292.705 329.679 299.208 336.182 307.23 336.182Z" fill="#F9F9F9" stroke="#00001F" stroke-width="2" stroke-miterlimit="10" stroke-linecap="round" stroke-linejoin="round"/>
<path d="M398.589 386.169C398.589 386.169 401.795 386.47 400.593 391.979C399.39 397.489 392.779 396.287 392.779 396.287H232.201H216.974C216.974 396.287 214.269 396.487 213.067 391.579C211.465 385.268 216.874 386.169 216.874 386.169C216.874 386.169 398.589 386.47 398.589 386.169Z" fill="#FFD447" stroke="#00001F" stroke-width="2" stroke-miterlimit="10" stroke-linecap="round" stroke-linejoin="round"/>
<path d="M167.688 457.191H154.565V474.221H167.688V457.191Z" fill="#FFD447" stroke="#00001F" stroke-width="2" stroke-miterlimit="10" stroke-linecap="round" stroke-linejoin="round"/>
<path d="M167.688 484.537H154.565V498.161H167.688V484.537Z" fill="#FFD447" stroke="#00001F" stroke-width="2" stroke-miterlimit="10" stroke-linecap="round" stroke-linejoin="round"/>
<path d="M188.024 457.191H174.901V474.221H188.024V457.191Z" fill="#FFD447" stroke="#00001F" stroke-width="2" stroke-miterlimit="10" stroke-linecap="round" stroke-linejoin="round"/>
<path d="M188.024 484.537H174.901V498.161H188.024V484.537Z" fill="#FFD447" stroke="#00001F" stroke-width="2" stroke-miterlimit="10" stroke-linecap="round" stroke-linejoin="round"/>
<path d="M209.26 457.191H196.138V474.221H209.26V457.191Z" fill="#FFD447" stroke="#00001F" stroke-width="2" stroke-miterlimit="10" stroke-linecap="round" stroke-linejoin="round"/>
<path d="M209.26 484.537H196.138V498.161H209.26V484.537Z" fill="#FFD447" stroke="#00001F" stroke-width="2" stroke-miterlimit="10" stroke-linecap="round" stroke-linejoin="round"/>
<path d="M1.19978 430.344L20.6335 442.565V497.861H15.5246L1.19978 498.061V497.861H1.09961L1.19978 430.344Z" fill="#FFD447" stroke="#00001F" stroke-width="2" stroke-miterlimit="10" stroke-linecap="round" stroke-linejoin="round"/>
<path d="M239.314 305.427H1.10059V319.652H239.314V305.427Z" fill="#FFD447" stroke="#00001F" stroke-width="2" stroke-miterlimit="10" stroke-linecap="round" stroke-linejoin="round"/>
<path d="M167.688 457.191H154.565V474.221H167.688V457.191Z" fill="#AADDFC" stroke="#00001F" stroke-width="2" stroke-miterlimit="10" stroke-linecap="round" stroke-linejoin="round"/>
<path d="M167.688 484.537H154.565V498.161H167.688V484.537Z" fill="#AADDFC" stroke="#00001F" stroke-width="2" stroke-miterlimit="10" stroke-linecap="round" stroke-linejoin="round"/>
<path d="M188.024 457.191H174.901V474.221H188.024V457.191Z" fill="#AADDFC" stroke="#00001F" stroke-width="2" stroke-miterlimit="10" stroke-linecap="round" stroke-linejoin="round"/>
<path d="M188.024 484.537H174.901V498.161H188.024V484.537Z" fill="#AADDFC" stroke="#00001F" stroke-width="2" stroke-miterlimit="10" stroke-linecap="round" stroke-linejoin="round"/>
<path d="M209.26 457.191H196.138V474.221H209.26V457.191Z" fill="#AADDFC" stroke="#00001F" stroke-width="2" stroke-miterlimit="10" stroke-linecap="round" stroke-linejoin="round"/>
<path d="M209.26 484.537H196.138V498.161H209.26V484.537Z" fill="#AADDFC" stroke="#00001F" stroke-width="2" stroke-miterlimit="10" stroke-linecap="round" stroke-linejoin="round"/>
<path d="M239.212 396.586V476.625H231.9V452.583L216.172 444.77H147.754V498.363H1.09961V498.062H1.29996V498.263L15.6248 498.062H20.7337V442.766L1.29996 430.545L1.09961 498.062V392.88C3.30343 392.98 6.00812 393.381 8.91316 394.483C16.326 397.187 25.7423 403.899 28.1465 403.899C28.1465 403.899 33.9566 406.403 38.9653 402.296L65.4111 419.025L77.6323 410.01C88.2507 398.991 113.394 380.559 113.394 380.559C113.394 380.559 118.603 377.052 125.916 372.244C128.521 374.047 133.129 374.849 139.94 371.443C149.357 366.735 155.167 362.527 160.376 359.923C165.585 357.318 158.973 367.636 165.585 364.931C172.296 362.227 176.203 353.111 180.11 354.714C183.816 356.216 195.937 371.343 209.16 366.334C221.682 377.954 233.803 390.676 239.212 396.586Z" fill="#AADDFC"/>
<path d="M1.09961 498.062V498.363H147.754V444.77H216.172L231.9 452.583V476.625H239.212V396.586C233.803 390.676 221.682 377.954 209.16 366.334C195.937 371.343 183.816 356.216 180.11 354.714C176.203 353.111 172.296 362.227 165.585 364.931C158.973 367.636 165.585 357.318 160.376 359.923C155.167 362.527 149.357 366.735 139.94 371.443C133.129 374.849 128.521 374.047 125.916 372.244C118.603 377.052 113.394 380.559 113.394 380.559C113.394 380.559 88.2507 398.991 77.6323 410.01L65.4111 419.025L38.9653 402.296C33.9566 406.403 28.1465 403.899 28.1465 403.899C25.7423 403.899 16.326 397.187 8.91316 394.483C6.00812 393.381 3.30343 392.98 1.09961 392.88V498.062ZM1.09961 498.062H1.29996V498.263L15.6248 498.062H20.7337V442.766L1.29996 430.545L1.09961 498.062Z" stroke="#00001F" stroke-width="2" stroke-miterlimit="10" stroke-linecap="round" stroke-linejoin="round"/>
<path d="M1.19978 430.344L20.6335 442.565V497.861H15.5246L1.19978 498.061V497.861H1.09961L1.19978 430.344Z" fill="#AADDFC" stroke="#00001F" stroke-width="2" stroke-miterlimit="10" stroke-linecap="round" stroke-linejoin="round"/>
<path d="M38.8657 402.095C33.9571 406.202 28.0469 403.698 28.0469 403.698C25.6427 403.698 16.2264 396.986 8.81355 394.281C5.90851 393.179 3.20382 392.779 1 392.679V374.547L28.4476 395.483L38.8657 402.095Z" fill="#F9F9F9" stroke="#00001F" stroke-width="2" stroke-miterlimit="10" stroke-linecap="round" stroke-linejoin="round"/>
<path d="M239.212 319.551V336.28C236.007 338.083 231.199 339.786 225.489 338.984C212.967 337.181 200.746 328.767 200.746 328.767C200.746 328.767 196.438 334.677 187.022 335.779C177.906 336.881 166.787 330.67 166.787 330.67C166.787 330.67 163.481 337.382 154.065 334.978C147.153 333.275 141.944 328.667 141.944 328.667C141.944 328.667 135.633 340.086 123.913 341.188C110.79 342.491 105.08 332.173 105.08 332.173C105.08 332.173 104.679 336.48 93.2594 338.484C81.8396 340.487 74.026 331.772 74.026 331.772C74.026 331.772 67.0139 340.788 56.3955 339.586C49.4835 338.784 43.0724 330.57 43.0724 330.57C43.0724 330.57 34.2571 335.178 23.4383 337.282C12.6196 339.385 5.00638 335.278 1.09961 332.173V319.551H239.212Z" fill="#F9F9F9" stroke="#00001F" stroke-width="2" stroke-miterlimit="10" stroke-linecap="round" stroke-linejoin="round"/>
<path d="M239.213 336.282V396.587C233.804 390.777 221.582 378.054 208.961 366.334C193.734 352.21 177.907 339.688 172.197 342.693C164.183 346.901 140.542 362.427 125.716 372.244C118.404 377.153 113.195 380.559 113.195 380.559C113.195 380.559 88.0509 398.991 77.4325 410.01L65.2113 419.026L38.8657 402.096L28.4476 395.485L1 374.548V332.275C5.00695 335.381 12.52 339.488 23.3387 337.384C34.1575 335.381 42.9728 330.672 42.9728 330.672C42.9728 330.672 49.3839 338.887 56.2959 339.688C66.9143 340.89 73.9264 331.874 73.9264 331.874C73.9264 331.874 81.74 340.489 93.1598 338.586C104.58 336.683 104.98 332.275 104.98 332.275C104.98 332.275 110.69 342.593 123.813 341.291C135.633 340.089 141.844 328.769 141.844 328.769C141.844 328.769 147.153 333.277 153.965 335.08C163.382 337.484 166.687 330.773 166.687 330.773C166.687 330.773 177.807 336.983 186.922 335.881C196.339 334.679 200.646 328.869 200.646 328.869C200.646 328.869 212.867 337.284 225.389 339.087C231.199 339.788 236.007 338.085 239.213 336.282Z" fill="#5AC1FF" stroke="#00001F" stroke-width="2" stroke-miterlimit="10" stroke-linecap="round" stroke-linejoin="round"/>
<path d="M231.901 452.482V476.524H216.273V444.669L231.901 452.482Z" fill="#002F49" stroke="#00001F" stroke-width="2" stroke-miterlimit="10" stroke-linecap="round" stroke-linejoin="round"/>
<path d="M216.273 476.523V444.568H147.854V498.161H154.566V484.537H167.689V498.161H174.901V484.537H188.024V498.161H196.138V484.537H209.261V498.161H239.313V476.523H216.273ZM167.689 474.219H154.566V457.19H167.689V474.219ZM187.924 474.219H174.801V457.19H187.924V474.219ZM209.161 474.219H196.038V457.19H209.161V474.219Z" fill="#5AC1FF" stroke="#00001F" stroke-width="2" stroke-miterlimit="10" stroke-linecap="round" stroke-linejoin="round"/>
<path d="M209.26 457.191H196.138V474.221H209.26V457.191Z" stroke="#00001F" stroke-width="2" stroke-miterlimit="10" stroke-linecap="round" stroke-linejoin="round"/>
<path d="M188.024 457.191H174.901V474.221H188.024V457.191Z" stroke="#00001F" stroke-width="2" stroke-miterlimit="10" stroke-linecap="round" stroke-linejoin="round"/>
<path d="M167.688 457.191H154.565V474.221H167.688V457.191Z" stroke="#00001F" stroke-width="2" stroke-miterlimit="10" stroke-linecap="round" stroke-linejoin="round"/>
<path d="M147.655 450.379H214.972" stroke="#00001F" stroke-width="2" stroke-miterlimit="10" stroke-linecap="round" stroke-linejoin="round"/>
<path d="M217.275 314.744C218.603 314.744 219.679 313.667 219.679 312.34C219.679 311.012 218.603 309.936 217.275 309.936C215.947 309.936 214.871 311.012 214.871 312.34C214.871 313.667 215.947 314.744 217.275 314.744Z" fill="#F9F9F9" stroke="#00001F" stroke-width="2" stroke-miterlimit="10" stroke-linecap="round" stroke-linejoin="round"/>
<path d="M227.092 314.744C228.419 314.744 229.496 313.667 229.496 312.34C229.496 311.012 228.419 309.936 227.092 309.936C225.764 309.936 224.688 311.012 224.688 312.34C224.688 313.667 225.764 314.744 227.092 314.744Z" fill="#F9F9F9" stroke="#00001F" stroke-width="2" stroke-miterlimit="10" stroke-linecap="round" stroke-linejoin="round"/>
<path d="M209.061 366.233C195.938 371.241 183.717 356.015 180.01 354.612C176.104 353.01 172.197 362.125 165.485 364.83C158.774 367.535 165.485 357.217 160.276 359.821C155.067 362.426 149.257 366.633 139.841 371.341C133.029 374.747 128.421 373.946 125.816 372.143C140.642 362.326 164.283 346.799 172.297 342.592C177.907 339.586 193.834 352.208 209.061 366.233Z" fill="#F9F9F9" stroke="#00001F" stroke-width="2" stroke-miterlimit="10" stroke-linecap="round" stroke-linejoin="round"/>
<path d="M20.6335 442.565V497.861H1.09961L1.19978 430.344L20.6335 442.565Z" stroke="#00001F" stroke-width="2" stroke-miterlimit="10" stroke-linecap="round" stroke-linejoin="round"/>
<path d="M1.20117 454.086L15.526 459.996V447.875L1.20117 440.362V454.086Z" fill="#F9F9F9" stroke="#00001F" stroke-width="2" stroke-miterlimit="10" stroke-linecap="round" stroke-linejoin="round"/>
<path d="M1.20117 474.922L15.526 478.227V466.908L1.20117 461.198V474.922Z" fill="#F9F9F9" stroke="#00001F" stroke-width="2" stroke-miterlimit="10" stroke-linecap="round" stroke-linejoin="round"/>
<path d="M15.526 486.142V497.862L1.20117 498.062V484.138L15.526 486.142Z" fill="#F9F9F9" stroke="#00001F" stroke-width="2" stroke-miterlimit="10" stroke-linecap="round" stroke-linejoin="round"/>
<path d="M196.138 474.221C196.939 472.918 208.96 460.597 208.96 460.597L209.26 474.221H196.138Z" fill="#002F49"/>
<path d="M196.138 499.864C196.639 498.862 209.26 484.537 209.26 484.537V498.161L196.138 499.864Z" fill="#002F49"/>
<path d="M174.901 474.221L187.924 457.191V474.221H174.901Z" fill="#002F49"/>
<path d="M447.574 80.5376C458.695 80.5376 467.709 71.5229 467.709 60.4027C467.709 49.2825 458.695 40.2678 447.574 40.2678C436.454 40.2678 427.439 49.2825 427.439 60.4027C427.439 71.5229 436.454 80.5376 447.574 80.5376Z" fill="#5AC1FF" stroke="#00001F" stroke-width="2" stroke-miterlimit="10" stroke-linecap="round" stroke-linejoin="round"/>
<path d="M407.605 156.77C405.501 161.078 316.146 309.034 316.146 309.034L407.605 156.77Z" fill="#F9F9F9"/>
<path d="M407.605 156.77C405.501 161.078 316.146 309.034 316.146 309.034" stroke="#00001F" stroke-width="2" stroke-miterlimit="10" stroke-linecap="round" stroke-linejoin="round"/>
<path d="M443.267 350.304L445.972 399.89H487.944L493.254 350.304C493.254 350.304 442.966 350.304 443.267 350.304Z" fill="#AADDFC" stroke="#00001F" stroke-width="2" stroke-miterlimit="10" stroke-linecap="round" stroke-linejoin="round"/>
<path d="M468.21 359.721C481.986 359.721 493.153 355.505 493.153 350.305C493.153 345.104 481.986 340.889 468.21 340.889C454.434 340.889 443.267 345.104 443.267 350.305C443.267 355.505 454.434 359.721 468.21 359.721Z" fill="#5AC1FF" stroke="#00001F" stroke-width="2" stroke-miterlimit="10" stroke-linecap="round" stroke-linejoin="round"/>
<path d="M492.452 359.32C492.452 359.32 503.972 348.702 510.984 350.705C517.996 352.709 514.29 371.541 512.687 381.058C510.984 390.574 489.547 389.172 489.547 389.172L490.649 378.453C490.649 378.453 504.673 386.768 505.675 378.954C506.677 371.141 507.678 354.913 504.373 357.217C501.067 359.521 491.15 371.842 491.15 371.842L492.452 359.32Z" fill="#2B698F" stroke="#00001F" stroke-width="2" stroke-miterlimit="10" stroke-linecap="round" stroke-linejoin="round"/>
<path d="M443.368 352.308C444.17 352.007 466.408 343.693 492.053 352.308C492.053 352.308 484.74 360.622 468.211 359.721C451.482 358.819 443.368 352.308 443.368 352.308Z" fill="#002F49"/>
<path d="M491.251 379.755L500.968 389.171C500.968 389.171 494.657 389.472 492.854 389.171C491.05 388.871 488.947 389.973 489.147 388.17C489.448 386.266 491.251 379.755 491.251 379.755Z" fill="#002F49"/>
<path d="M471.916 352.609C473.631 352.609 475.021 351.981 475.021 351.207C475.021 350.432 473.631 349.804 471.916 349.804C470.201 349.804 468.811 350.432 468.811 351.207C468.811 351.981 470.201 352.609 471.916 352.609Z" fill="#F9F9F9"/>
<path d="M478.929 353.01C480.201 353.01 481.233 352.561 481.233 352.008C481.233 351.455 480.201 351.006 478.929 351.006C477.657 351.006 476.625 351.455 476.625 352.008C476.625 352.561 477.657 353.01 478.929 353.01Z" fill="#F9F9F9"/>
<path d="M289.2 171.496C289.2 171.496 292.907 171.496 294.71 169.692" stroke="#00001F" stroke-width="2" stroke-miterlimit="10" stroke-linecap="round" stroke-linejoin="round"/>
<path d="M294.608 329.87C270.667 341.791 181.813 385.767 175.902 388.372" stroke="#00001F" stroke-width="2" stroke-miterlimit="10" stroke-linecap="round" stroke-linejoin="round"/>
<path d="M174.501 108.085L164.283 117.601" stroke="#00001F" stroke-width="2" stroke-miterlimit="10" stroke-linecap="round" stroke-linejoin="round"/>
<path d="M187.023 117.202C187.023 117.202 167.389 137.137 163.883 140.643L187.023 117.202Z" fill="#F9F9F9"/>
<path d="M187.023 117.202C187.023 117.202 167.389 137.137 163.883 140.643" stroke="#00001F" stroke-width="2" stroke-miterlimit="10" stroke-linecap="round" stroke-linejoin="round"/>
<path d="M226.691 402.497C228.13 402.497 229.296 401.331 229.296 399.893C229.296 398.454 228.13 397.288 226.691 397.288C225.253 397.288 224.087 398.454 224.087 399.893C224.087 401.331 225.253 402.497 226.691 402.497Z" fill="#F9F9F9" stroke="#00001F" stroke-width="2" stroke-miterlimit="10" stroke-linecap="round" stroke-linejoin="round"/>
<path d="M209.46 348.305C211.728 348.305 213.567 346.466 213.567 344.197C213.567 341.929 211.728 340.09 209.46 340.09C207.191 340.09 205.353 341.929 205.353 344.197C205.353 346.466 207.191 348.305 209.46 348.305Z" fill="#F9F9F9" stroke="#00001F" stroke-width="2" stroke-miterlimit="10" stroke-linecap="round" stroke-linejoin="round"/>
<path d="M143.344 410.712C145.613 410.712 147.452 408.873 147.452 406.605C147.452 404.337 145.613 402.498 143.344 402.498C141.076 402.498 139.237 404.337 139.237 406.605C139.237 408.873 141.076 410.712 143.344 410.712Z" fill="#F9F9F9" stroke="#00001F" stroke-width="2" stroke-miterlimit="10" stroke-linecap="round" stroke-linejoin="round"/>
<path d="M145.648 363.228C147.916 363.228 149.755 361.39 149.755 359.121C149.755 356.853 147.916 355.014 145.648 355.014C143.38 355.014 141.541 356.853 141.541 359.121C141.541 361.39 143.38 363.228 145.648 363.228Z" fill="#F9F9F9" stroke="#00001F" stroke-width="2" stroke-miterlimit="10" stroke-linecap="round" stroke-linejoin="round"/>
<path d="M25.5436 380.159C27.8119 380.159 29.6508 378.32 29.6508 376.051C29.6508 373.783 27.8119 371.944 25.5436 371.944C23.2753 371.944 21.4365 373.783 21.4365 376.051C21.4365 378.32 23.2753 380.159 25.5436 380.159Z" fill="#F9F9F9" stroke="#00001F" stroke-width="2" stroke-miterlimit="10" stroke-linecap="round" stroke-linejoin="round"/>
<path d="M149.455 386.67C151.502 386.67 153.162 384.876 153.162 382.663C153.162 380.45 151.502 378.656 149.455 378.656C147.408 378.656 145.749 380.45 145.749 382.663C145.749 384.876 147.408 386.67 149.455 386.67Z" fill="#F9F9F9" stroke="#00001F" stroke-width="2" stroke-miterlimit="10" stroke-linecap="round" stroke-linejoin="round"/>
<path d="M201.847 414.519C204.116 414.519 205.954 412.68 205.954 410.412C205.954 408.143 204.116 406.305 201.847 406.305C199.579 406.305 197.74 408.143 197.74 410.412C197.74 412.68 199.579 414.519 201.847 414.519Z" fill="#F9F9F9" stroke="#00001F" stroke-width="2" stroke-miterlimit="10" stroke-linecap="round" stroke-linejoin="round"/>
<path d="M188.624 353.813C190.892 353.813 192.731 351.974 192.731 349.706C192.731 347.437 190.892 345.599 188.624 345.599C186.355 345.599 184.517 347.437 184.517 349.706C184.517 351.974 186.355 353.813 188.624 353.813Z" fill="#F9F9F9" stroke="#00001F" stroke-width="2" stroke-miterlimit="10" stroke-linecap="round" stroke-linejoin="round"/>
<path d="M14.0231 398.79C16.2914 398.79 18.1303 396.952 18.1303 394.683C18.1303 392.415 16.2914 390.576 14.0231 390.576C11.7548 390.576 9.91602 392.415 9.91602 394.683C9.91602 396.952 11.7548 398.79 14.0231 398.79Z" fill="#F9F9F9" stroke="#00001F" stroke-width="2" stroke-miterlimit="10" stroke-linecap="round" stroke-linejoin="round"/>
<path d="M224.785 358.12C226.224 358.12 227.39 356.954 227.39 355.516C227.39 354.077 226.224 352.911 224.785 352.911C223.347 352.911 222.181 354.077 222.181 355.516C222.181 356.954 223.347 358.12 224.785 358.12Z" fill="#F9F9F9" stroke="#00001F" stroke-width="2" stroke-miterlimit="10" stroke-linecap="round" stroke-linejoin="round"/>
<path d="M143.245 345.098C144.684 345.098 145.85 343.932 145.85 342.493C145.85 341.055 144.684 339.889 143.245 339.889C141.807 339.889 140.641 341.055 140.641 342.493C140.641 343.932 141.807 345.098 143.245 345.098Z" fill="#F9F9F9" stroke="#00001F" stroke-width="2" stroke-miterlimit="10" stroke-linecap="round" stroke-linejoin="round"/>
<path d="M129.921 393.382C131.359 393.382 132.525 392.216 132.525 390.777C132.525 389.339 131.359 388.173 129.921 388.173C128.482 388.173 127.316 389.339 127.316 390.777C127.316 392.216 128.482 393.382 129.921 393.382Z" fill="#F9F9F9" stroke="#00001F" stroke-width="2" stroke-miterlimit="10" stroke-linecap="round" stroke-linejoin="round"/>
<path d="M19.6319 423.133C21.0703 423.133 22.2364 421.967 22.2364 420.529C22.2364 419.09 21.0703 417.924 19.6319 417.924C18.1934 417.924 17.0273 419.09 17.0273 420.529C17.0273 421.967 18.1934 423.133 19.6319 423.133Z" fill="#F9F9F9" stroke="#00001F" stroke-width="2" stroke-miterlimit="10" stroke-linecap="round" stroke-linejoin="round"/>
<path d="M205.252 389.775C206.69 389.775 207.856 388.609 207.856 387.17C207.856 385.732 206.69 384.566 205.252 384.566C203.814 384.566 202.647 385.732 202.647 387.17C202.647 388.609 203.814 389.775 205.252 389.775Z" fill="#F9F9F9" stroke="#00001F" stroke-width="2" stroke-miterlimit="10" stroke-linecap="round" stroke-linejoin="round"/>
<path d="M195.836 431.549C197.274 431.549 198.44 430.383 198.44 428.944C198.44 427.506 197.274 426.34 195.836 426.34C194.398 426.34 193.231 427.506 193.231 428.944C193.231 430.383 194.398 431.549 195.836 431.549Z" fill="#F9F9F9" stroke="#00001F" stroke-width="2" stroke-miterlimit="10" stroke-linecap="round" stroke-linejoin="round"/>
<path d="M224.084 434.152C225.522 434.152 226.689 432.986 226.689 431.547C226.689 430.109 225.522 428.943 224.084 428.943C222.646 428.943 221.479 430.109 221.479 431.547C221.479 432.986 222.646 434.152 224.084 434.152Z" fill="#F9F9F9" stroke="#00001F" stroke-width="2" stroke-miterlimit="10" stroke-linecap="round" stroke-linejoin="round"/>
<path d="M167.788 356.217C169.227 356.217 170.393 355.051 170.393 353.613C170.393 352.174 169.227 351.008 167.788 351.008C166.35 351.008 165.184 352.174 165.184 353.613C165.184 355.051 166.35 356.217 167.788 356.217Z" fill="#F9F9F9" stroke="#00001F" stroke-width="2" stroke-miterlimit="10" stroke-linecap="round" stroke-linejoin="round"/>
<path d="M131.424 377.153C132.862 377.153 134.028 375.987 134.028 374.549C134.028 373.11 132.862 371.944 131.424 371.944C129.985 371.944 128.819 373.11 128.819 374.549C128.819 375.987 129.985 377.153 131.424 377.153Z" fill="#F9F9F9" stroke="#00001F" stroke-width="2" stroke-miterlimit="10" stroke-linecap="round" stroke-linejoin="round"/>
<path d="M11.6182 361.127C13.0566 361.127 14.2227 359.96 14.2227 358.522C14.2227 357.084 13.0566 355.917 11.6182 355.917C10.1798 355.917 9.01367 357.084 9.01367 358.522C9.01367 359.96 10.1798 361.127 11.6182 361.127Z" fill="#F9F9F9" stroke="#00001F" stroke-width="2" stroke-miterlimit="10" stroke-linecap="round" stroke-linejoin="round"/>
<path d="M119.504 357.72C121.772 357.72 123.611 355.882 123.611 353.613C123.611 351.345 121.772 349.506 119.504 349.506C117.235 349.506 115.396 351.345 115.396 353.613C115.396 355.882 117.235 357.72 119.504 357.72Z" fill="#F9F9F9" stroke="#00001F" stroke-width="2" stroke-miterlimit="10" stroke-linecap="round" stroke-linejoin="round"/>
<path d="M306.93 98.4703C307.33 93.662 313.14 92.0592 315.845 94.5636C316.747 95.4651 318.65 97.5688 318.55 98.871C315.444 99.0714 310.035 98.6707 306.93 98.4703Z" fill="#2B698F"/>
<path d="M290.301 196.239L289.6 232.202C289.6 232.202 334.578 209.963 333.275 202.65C332.173 196.54 328.066 166.488 328.066 166.488C328.066 166.488 329.769 155.469 317.047 157.071C304.325 158.774 293.907 161.78 292.004 172.498C290 183.217 290.301 196.239 290.301 196.239Z" fill="#5AC1FF" stroke="#00001F" stroke-width="2" stroke-miterlimit="10" stroke-linecap="round" stroke-linejoin="round"/>
<path d="M271.969 110.29C271.969 110.29 266.36 114.197 268.664 128.121C272.57 151.862 259.949 151.561 258.747 154.166C256.743 158.373 264.557 161.178 264.557 161.178C264.557 161.178 260.85 169.192 262.854 182.715C265.759 201.648 291.403 201.648 303.424 192.132C315.445 182.615 323.158 164.484 323.158 164.484C323.158 164.183 328.668 117.102 328.668 117.102L308.833 107.685L280.985 106.283L271.969 110.29Z" fill="#5AC1FF"/>
<path d="M277.379 109.088C277.379 109.088 275.776 113.095 274.875 120.307C274.474 123.412 275.075 130.725 277.579 135.033C278.281 136.135 277.179 139.34 275.276 143.247C273.973 145.952 272.17 149.057 270.267 152.162C268.664 154.667 267.562 156.67 269.866 163.382C272.771 171.696 266.961 178.508 270.066 187.123C273.172 195.738 276.177 199.645 276.177 199.645C276.177 199.645 258.747 193.734 260.249 178.408C261.852 163.081 264.357 162.48 263.355 161.378C262.353 160.276 260.049 160.377 259.047 157.472C258.046 154.566 257.845 153.965 260.45 152.563C262.954 151.161 268.864 147.254 269.265 142.145C269.666 137.036 270.066 137.036 269.065 130.525C268.163 124.014 266.56 109.288 277.379 109.088Z" fill="#F9F9F9"/>
<path d="M271.969 110.29C271.969 110.29 266.36 114.197 268.664 128.121C272.57 151.862 259.949 151.561 258.747 154.166C256.743 158.373 264.557 161.178 264.557 161.178C264.557 161.178 260.85 169.192 262.854 182.715C265.759 201.648 291.403 201.648 303.424 192.132C315.445 182.615 323.158 164.484 323.158 164.484C323.158 164.183 328.668 117.102 328.668 117.102L308.833 107.685L280.985 106.283L271.969 110.29Z" stroke="#00001F" stroke-width="2" stroke-miterlimit="10" stroke-linecap="round" stroke-linejoin="round"/>
<path d="M336.582 160.878C336.582 160.878 365.832 131.828 351.508 109.289C344.796 98.6704 322.457 99.0711 299.217 99.0711C276.077 99.0711 271.97 110.19 271.97 110.19C271.97 110.19 294.409 112.695 302.723 112.494C315.445 112.194 300.92 122.111 303.825 129.223C306.73 136.336 311.839 147.555 311.839 147.555L315.746 148.357L327.867 140.843L336.582 160.878Z" fill="#002F49" stroke="#00001F" stroke-width="2" stroke-miterlimit="10" stroke-linecap="round" stroke-linejoin="round"/>
<path d="M264.458 161.179C264.458 161.179 269.566 161.78 273.573 167.99C277.48 174.301 280.385 185.521 280.385 185.521C280.385 185.521 306.33 188.626 312.841 156.771L324.462 157.973C324.462 157.973 318.952 191.832 295.612 197.842C277.981 202.35 262.855 197.041 260.851 182.516C258.848 167.99 264.458 161.179 264.458 161.179Z" fill="#2B698F"/>
<path d="M314.643 93.6616C316.446 94.463 321.955 96.3663 328.867 93.862C335.479 91.558 339.586 108.988 334.677 139.04L320.052 141.845V134.432C320.052 134.432 323.859 102.577 317.147 95.2644C315.544 93.6616 314.643 93.6616 314.643 93.6616C314.242 93.4613 313.941 93.3611 313.941 93.3611L314.643 93.6616Z" fill="#F9F9F9"/>
<path d="M314.643 93.6616C316.446 94.463 321.955 96.3663 328.867 93.862C335.479 91.558 339.586 108.988 334.677 139.04L320.052 141.845V134.432C320.052 134.432 323.859 102.577 317.147 95.2644C315.544 93.6616 314.643 93.6616 314.643 93.6616ZM314.643 93.6616C314.242 93.4613 313.941 93.3611 313.941 93.3611L314.643 93.6616Z" stroke="#00001F" stroke-width="2" stroke-miterlimit="10" stroke-linecap="round" stroke-linejoin="round"/>
<path d="M269.065 164.083C269.065 164.083 265.359 173.7 266.561 181.714C268.664 196.139 278.381 199.745 278.381 199.745C278.381 199.745 262.253 195.237 260.751 183.016C258.948 169.092 264.557 161.078 264.557 161.078C264.557 161.078 267.563 160.878 269.065 164.083Z" fill="#5AC1FF"/>
<path d="M264.458 161.179C264.458 161.179 269.566 161.78 273.573 167.99C277.48 174.301 280.385 185.521 280.385 185.521C280.385 185.521 306.33 188.626 312.841 156.771L324.462 157.973C324.462 157.973 318.952 191.832 295.612 197.842C277.981 202.35 262.855 197.041 260.851 182.516C258.848 167.99 264.458 161.179 264.458 161.179Z" stroke="#00001F" stroke-width="2" stroke-miterlimit="10" stroke-linecap="round" stroke-linejoin="round"/>
<path d="M270.167 134.533C270.167 134.533 285.093 132.93 291.604 143.448" stroke="#00001F" stroke-width="2" stroke-miterlimit="10" stroke-linecap="round" stroke-linejoin="round"/>
<path d="M276.979 145.05C276.979 145.05 280.084 142.446 284.291 146.353" stroke="#00001F" stroke-width="2" stroke-miterlimit="10" stroke-linecap="round" stroke-linejoin="round"/>
<path d="M326.064 173.601C337.682 173.601 347.1 164.183 347.1 152.565C347.1 140.946 337.682 131.528 326.064 131.528C314.446 131.528 305.027 140.946 305.027 152.565C305.027 164.183 314.446 173.601 326.064 173.601Z" fill="#F9F9F9" stroke="#00001F" stroke-width="2" stroke-miterlimit="10" stroke-linecap="round" stroke-linejoin="round"/>
<path d="M290.301 215.271C290.301 215.271 302.823 198.442 303.624 195.236C304.426 192.031 289.9 199.944 289.9 199.944L290.301 215.271Z" fill="#002F49"/>
<path d="M313.942 93.3608C313.942 93.3608 307.631 91.758 306.729 99.0707" stroke="#00001F" stroke-width="2" stroke-miterlimit="10" stroke-linecap="round" stroke-linejoin="round"/>
<path d="M122.01 477.827C122.01 477.827 122.911 490.85 121.91 497.461L31.1523 497.762C33.1558 472.418 36.8622 460.898 36.8622 460.898C36.8622 460.898 36.8622 457.191 48.9833 456.39C61.1043 455.588 112.193 456.39 112.193 456.39C112.193 456.39 120.908 468.11 122.01 477.827Z" fill="#002F49" stroke="#00001F" stroke-width="2" stroke-miterlimit="10" stroke-linecap="round" stroke-linejoin="round"/>
<path d="M75.8302 209.862C75.8302 209.862 77.1325 207.057 73.3259 207.858C69.5193 208.66 67.2153 211.565 67.2153 211.565C67.2153 211.565 67.0149 210.263 63.008 211.965C58.9009 213.769 53.6918 220.18 50.3861 225.89C47.0804 231.7 42.5726 253.938 42.5726 253.938C42.5726 253.938 37.664 253.738 43.975 259.748C50.2859 265.759 63.1082 259.949 63.1082 259.949C64.7109 256.242 78.8354 244.021 83.3433 236.408C85.2465 233.102 85.3467 230.498 80.9391 230.998C77.0323 231.299 71.4226 240.715 67.8163 241.517C67.9165 236.708 73.1255 228.995 77.0323 221.582C79.136 217.776 85.2466 217.175 85.2466 212.767C85.2466 208.259 79.2361 211.965 77.2327 213.168L80.6386 211.364C80.7387 211.264 82.1412 206.656 75.8302 209.862C75.8302 209.862 67.4156 214.67 62.3068 223.385L75.8302 209.862Z" fill="#F9F9F9"/>
<path d="M75.8302 209.862C75.8302 209.862 77.1325 207.057 73.3259 207.858C69.5193 208.66 67.2153 211.565 67.2153 211.565C67.2153 211.565 67.0149 210.263 63.008 211.965C58.9009 213.769 53.6918 220.18 50.3861 225.89C47.0804 231.7 42.5726 253.938 42.5726 253.938C42.5726 253.938 37.664 253.738 43.975 259.748C50.2859 265.759 63.1082 259.949 63.1082 259.949C64.7109 256.242 78.8354 244.021 83.3432 236.408C85.2465 233.102 85.3467 230.498 80.9391 230.998C77.0323 231.299 71.4226 240.715 67.8163 241.517C67.9165 236.708 73.1255 228.995 77.0323 221.582C79.136 217.776 85.2465 217.175 85.2465 212.767C85.2465 208.259 79.2361 211.965 77.2327 213.168L80.6386 211.364C80.7387 211.264 82.1412 206.656 75.8302 209.862ZM75.8302 209.862C75.8302 209.862 67.4156 214.67 62.3068 223.385" stroke="#00001F" stroke-width="2" stroke-miterlimit="10" stroke-linecap="round" stroke-linejoin="round"/>
<path d="M77.3331 213.067C77.3331 213.067 71.8235 216.573 67.6162 224.487L77.3331 213.067Z" fill="#F9F9F9"/>
<path d="M77.3331 213.067C77.3331 213.067 71.8235 216.573 67.6162 224.487" stroke="#00001F" stroke-width="2" stroke-miterlimit="10" stroke-linecap="round" stroke-linejoin="round"/>
<path d="M66.6142 212.065C66.6142 212.065 59.8024 217.976 56.3965 224.287L66.6142 212.065Z" fill="#F9F9F9"/>
<path d="M66.6142 212.065C66.6142 212.065 59.8024 217.976 56.3965 224.287" stroke="#00001F" stroke-width="2" stroke-miterlimit="10" stroke-linecap="round" stroke-linejoin="round"/>
<path d="M118.003 467.81C96.5654 481.634 48.1815 482.235 29.6494 453.586C24.5405 445.772 30.0501 429.844 29.2487 414.318C28.4473 398.991 30.2504 403.699 27.6459 384.866C26.7443 378.355 26.8445 371.143 24.5405 361.326C21.7357 349.505 19.632 332.576 19.031 320.555C17.8289 295.011 38.064 255.743 39.8671 252.237C41.6702 248.73 64.3095 244.323 66.914 262.054C65.0107 276.479 54.3923 290.102 53.5909 304.427C52.7895 317.75 55.5944 332.375 59.5011 346.8" fill="#2B698F"/>
<path d="M61.9057 253.138C61.9057 253.138 63.5085 256.544 61.4048 262.054C55.5948 277.28 51.1871 277.28 45.6776 290.002C40.168 302.724 39.9677 318.251 49.384 328.469C58.8003 338.687 50.3857 320.054 54.3927 302.825C58.3996 285.595 59.6017 286.096 62.8073 276.679C65.9126 267.263 67.5154 265.159 67.1147 262.054C66.6139 258.848 61.9057 253.138 61.9057 253.138Z" fill="#5AC1FF"/>
<path d="M118.003 467.81C96.5654 481.634 48.1815 482.235 29.6494 453.586C24.5405 445.772 30.0501 429.845 29.2487 414.318C28.4473 398.991 30.2504 403.699 27.6459 384.866C26.7443 378.355 26.8445 371.143 24.5405 361.326C21.7357 349.505 19.632 332.576 19.031 320.555C17.8289 295.011 38.064 255.743 39.8671 252.237C41.6702 248.73 64.3095 244.323 66.914 262.054C65.0107 276.479 54.3923 290.102 53.5909 304.427C52.7895 317.75 55.5944 332.375 59.5011 346.8" stroke="#00001F" stroke-width="2" stroke-miterlimit="10" stroke-linecap="round" stroke-linejoin="round"/>
<path d="M159.876 417.823C159.776 410.911 166.287 400.493 172.899 398.289C181.514 395.384 180.211 404.4 178.709 409.909C177.507 414.417 175.603 421.93 170.294 423.333C167.489 424.034 159.876 420.728 159.876 417.823Z" fill="#F9F9F9" stroke="#00001F" stroke-width="2" stroke-miterlimit="10" stroke-linecap="round" stroke-linejoin="round"/>
<path d="M173.4 419.026L156.47 412.615C155.068 412.114 154.367 410.511 154.867 409.109L168.491 373.247C168.892 372.145 170.094 371.443 171.296 371.544L189.828 373.146C190.629 373.247 191.431 373.647 191.832 374.349L192.433 375.25C192.933 375.951 192.933 376.853 192.633 377.654L176.906 417.423C176.405 418.926 174.802 419.527 173.4 419.026Z" fill="#F9F9F9" stroke="#00001F" stroke-width="2" stroke-miterlimit="10" stroke-linecap="round" stroke-linejoin="round"/>
<path d="M190.429 373.849L172.799 416.923" stroke="#00001F" stroke-width="2" stroke-miterlimit="10" stroke-linecap="round" stroke-linejoin="round"/>
<path d="M163.784 419.827C165.387 413.917 169.594 407.806 171.998 402.096C172.8 400.293 176.406 391.378 179.311 394.683C182.116 397.789 175.805 405.702 179.712 408.708C182.016 407.105 184.019 402.697 184.921 400.193C186.924 394.884 188.627 391.378 189.629 387.571C190.03 395.184 192.634 401.495 189.729 409.409C186.624 417.723 180.112 425.036 176.606 432.85C171.698 429.243 168.092 423.734 163.784 419.827Z" fill="#F9F9F9" stroke="#00001F" stroke-width="2" stroke-miterlimit="10" stroke-linecap="round" stroke-linejoin="round"/>
<path d="M160.778 403.298L185.621 376.352L171.497 375.55L160.778 403.298Z" fill="#002F49"/>
<path d="M39.4674 346.099C39.9683 345.097 45.4779 341.09 58.6006 342.693C71.7234 344.296 87.651 358.421 88.1518 361.826C88.6527 365.232 71.1223 366.535 71.1223 366.535C71.1223 366.535 47.5815 372.846 43.3742 365.733C39.1669 358.621 37.9648 349.004 39.4674 346.099Z" fill="#002F49" stroke="#00001F" stroke-width="2" stroke-miterlimit="10" stroke-linecap="round" stroke-linejoin="round"/>
<path d="M69.3177 409.609L80.3368 429.243C85.8463 438.259 90.3541 444.971 95.8637 452.484C103.477 462.902 111.09 473.119 122.61 479.43C135.633 486.543 148.956 478.529 157.971 468.912C167.688 458.494 174.5 446.473 177.405 432.048C177.906 429.444 168.99 416.121 159.374 418.224C148.856 420.528 144.849 436.556 140.842 436.556C140.341 436.556 148.054 447.575 148.054 447.575C140.241 438.159 132.627 418.625 123.712 398.891C119.104 388.673 111.591 375.751 101.674 369.84C101.674 369.84 86.5475 357.92 62.5059 360.524" fill="#2B698F"/>
<path d="M89.0518 367.937C89.0518 367.937 97.4663 369.74 107.884 383.665C118.302 397.489 114.195 409.309 116.499 425.036C118.904 440.764 141.843 446.474 144.748 444.67C147.653 442.867 139.038 432.65 133.228 419.827C127.518 407.005 120.106 386.069 111.491 377.955C102.876 369.841 94.0604 367.436 89.0518 367.937Z" fill="#5AC1FF"/>
<path d="M69.3177 409.609L80.3368 429.243C85.8463 438.259 90.3541 444.971 95.8637 452.484C103.477 462.902 111.09 473.119 122.61 479.43C135.633 486.543 148.956 478.529 157.971 468.912C167.688 458.494 174.5 446.473 177.405 432.048C177.906 429.444 168.99 416.121 159.374 418.224C148.856 420.528 144.849 436.556 140.842 436.556C140.341 436.556 148.054 447.575 148.054 447.575C140.241 438.159 132.627 418.625 123.712 398.891C119.104 388.673 111.591 375.751 101.674 369.84C101.674 369.84 86.5475 357.92 62.5059 360.524" stroke="#00001F" stroke-width="2" stroke-miterlimit="10" stroke-linecap="round" stroke-linejoin="round"/>
<path d="M60.7031 345.901C65.9122 354.917 87.5497 363.832 95.3632 358.723C109.688 349.307 106.983 335.783 101.273 323.562C99.6707 320.156 98.0679 317.352 96.4651 314.847" fill="#F9F9F9"/>
<path d="M60.7031 345.901C65.9122 354.917 87.5497 363.832 95.3632 358.723C109.688 349.307 106.983 335.783 101.273 323.562C99.6707 320.156 98.0679 317.352 96.4651 314.847" stroke="#00001F" stroke-width="2" stroke-miterlimit="10" stroke-linecap="round" stroke-linejoin="round"/>
<path d="M81.4388 361.927C84.7445 361.326 87.7497 360.725 89.052 358.822C92.7584 353.513 91.8569 348.203 91.8569 348.203C91.8569 348.203 82.5407 345.799 83.843 341.291C85.2454 336.784 92.6583 340.49 94.3612 339.989C101.273 337.986 95.964 332.075 96.7654 329.371C96.7654 329.371 90.9553 326.666 76.6305 329.671C62.3056 332.576 55.9947 334.379 56.7961 337.284C57.5975 340.189 55.9947 343.696 58.9999 350.207C62.9067 358.822 65.2107 359.022 69.6183 360.224C76.931 362.127 81.4388 361.927 81.4388 361.927Z" fill="#2B698F" stroke="#00001F" stroke-width="2" stroke-miterlimit="10" stroke-linecap="round" stroke-linejoin="round"/>
<path d="M58.0981 343.997C50.1844 337.886 46.0773 333.278 45.6766 324.663C44.6749 305.931 62.3054 298.718 74.4265 300.221C81.1381 301.022 87.6494 303.226 94.0605 311.44C94.0605 311.44 99.3697 318.252 89.9534 330.072C80.5371 341.893 61.0032 345.9 58.0981 343.997Z" fill="#F9F9F9"/>
<path d="M52.1879 308.034C52.1879 308.034 38.5643 321.658 51.8874 337.385C59.6008 346.401 74.9274 336.384 74.9274 336.384C74.9274 336.384 79.5354 333.679 79.9361 331.675C80.2366 330.073 70.0189 334.28 60.302 328.57C51.3866 323.261 52.9893 310.439 52.1879 308.034Z" fill="#AADDFC"/>
<path d="M101.274 320.055C100.071 321.858 104.379 322.159 105.882 322.66C109.187 323.862 106.082 328.47 104.179 330.473" stroke="#00001F" stroke-width="2" stroke-miterlimit="10" stroke-linecap="round" stroke-linejoin="round"/>
<path d="M58.0981 343.997C50.1844 337.886 46.0773 333.278 45.6766 324.663C44.6749 305.931 62.3054 298.718 74.4265 300.221C81.1381 301.022 87.6494 303.226 94.0605 311.44C94.0605 311.44 99.3697 318.252 89.9534 330.072C80.5371 341.893 61.0032 345.9 58.0981 343.997Z" stroke="#00001F" stroke-width="2" stroke-miterlimit="10" stroke-linecap="round" stroke-linejoin="round"/>
<path d="M61.7044 349.607C65.6112 351.811 75.8289 353.013 86.247 344.198C96.7652 335.282 100.371 327.769 101.273 320.056C101.974 314.446 98.4681 310.539 98.4681 310.539C98.4681 310.539 91.9569 299.12 84.6442 303.127C84.6442 303.127 89.9534 304.128 90.4543 312.142C91.1555 324.163 77.3315 340.992 55.694 340.792C53.7907 340.792 52.2881 339.089 52.2881 339.089C52.2881 339.089 53.6905 345.099 61.7044 349.607Z" fill="#F9F9F9"/>
<path d="M53.4912 340.791C53.4912 340.791 56.8971 348.104 62.1061 350.508C64.6105 351.61 73.2254 351.21 77.8334 349.507C83.8438 347.102 88.7523 341.693 88.0511 341.693C81.2393 340.892 77.8334 335.983 76.2306 335.983C74.6279 335.983 60.0025 342.194 53.4912 340.791Z" fill="#AADDFC"/>
<path d="M61.7044 349.607C65.6112 351.811 75.8289 353.013 86.247 344.198C96.7652 335.282 100.371 327.769 101.273 320.056C101.974 314.446 98.4681 310.539 98.4681 310.539C98.4681 310.539 91.9569 299.12 84.6442 303.127C84.6442 303.127 89.9534 304.128 90.4543 312.142C91.1555 324.163 77.3315 340.992 55.694 340.792C53.7907 340.792 52.2881 339.089 52.2881 339.089C52.2881 339.089 53.6905 345.099 61.7044 349.607Z" stroke="#00001F" stroke-width="2" stroke-miterlimit="10" stroke-linecap="round" stroke-linejoin="round"/>
<path d="M105.68 372.244C105.179 371.542 105.48 358.82 104.879 358.92C100.972 359.421 93.8599 358.62 89.1517 357.117C84.7441 355.715 60.502 352.71 50.1841 349.805C41.469 347.3 44.7748 343.494 48.0805 342.692C44.9751 342.692 38.9647 343.995 34.4569 352.409C30.4499 359.922 29.2478 364.43 32.6538 372.043C36.0597 379.656 38.6642 387.771 51.4864 380.658C64.3086 373.546 76.2293 368.938 86.8477 367.535C97.0654 366.233 105.68 372.244 105.68 372.244Z" fill="#2B698F" stroke="#00001F" stroke-width="2" stroke-miterlimit="10" stroke-linecap="round" stroke-linejoin="round"/>
<path d="M96.2656 358.72C97.2674 358.219 105.181 358.72 105.181 358.72L104.881 371.542" stroke="#00001F" stroke-width="2" stroke-miterlimit="10" stroke-linecap="round" stroke-linejoin="round"/>
<path d="M61.2041 367.035C62.0055 366.735 76.13 361.526 91.2562 365.433C100.773 367.937 104.88 370.942 104.88 370.942" stroke="#00001F" stroke-width="2" stroke-miterlimit="10" stroke-linecap="round" stroke-linejoin="round"/>
<path d="M32.8562 369.538C32.8562 369.538 24.2412 376.65 27.7473 384.865C31.2534 393.079 45.9789 385.766 54.093 380.056C62.2071 374.346 51.1879 384.464 43.0739 382.961C34.9598 381.359 33.0565 373.745 32.8562 369.538Z" fill="#002F49"/>
<path d="M71.3219 413.215C71.3219 413.215 71.8227 430.746 67.1146 439.661C62.4064 448.577 91.9577 448.076 97.1667 453.485C100.072 456.49 90.6554 444.67 82.7417 432.849C76.3306 423.133 71.3219 413.215 71.3219 413.215Z" fill="#002F49"/>
<path d="M342.792 50.5852C342.792 50.5852 347.1 46.7786 353.31 47.0792C359.521 47.3797 361.324 54.3918 366.633 54.492C372.043 54.6924 375.849 51.587 381.66 52.3884C387.47 53.1898 387.87 60.0016 392.779 60.5024C397.587 61.0033 401.394 59.2002 407.805 61.2036C414.717 63.4075 416.119 72.8238 397.587 72.8238C379.055 72.8238 342.592 72.3229 342.592 72.3229C342.592 72.3229 342.592 50.6854 342.792 50.5852Z" fill="#AADDFC" stroke="#00001F" stroke-width="2" stroke-miterlimit="10" stroke-linecap="round" stroke-linejoin="round"/>
<path d="M333.978 145.85L433.951 75.7288" stroke="#00001F" stroke-width="2" stroke-miterlimit="10" stroke-linecap="round" stroke-linejoin="round"/>
<path d="M404.099 152.062L334.479 152.864" stroke="#00001F" stroke-width="2" stroke-miterlimit="10" stroke-linecap="round" stroke-linejoin="round"/>
<path d="M408.807 155.569C410.743 155.569 412.313 153.999 412.313 152.062C412.313 150.126 410.743 148.556 408.807 148.556C406.871 148.556 405.301 150.126 405.301 152.062C405.301 153.999 406.871 155.569 408.807 155.569Z" fill="#F9F9F9" stroke="#00001F" stroke-width="2" stroke-miterlimit="10" stroke-linecap="round" stroke-linejoin="round"/>
<path d="M563.676 448.677V507.68" stroke="#00001F" stroke-width="2" stroke-miterlimit="10" stroke-linecap="round" stroke-linejoin="round"/>
<path d="M350.006 160.376C350.006 160.376 355.315 161.778 358.621 161.578C361.927 161.277 364.431 159.774 358.22 159.173C352.009 158.572 350.006 160.376 350.006 160.376Z" fill="#F9F9F9"/>
<path d="M364.631 159.175C364.631 159.175 365.332 157.873 369.74 157.372C374.147 156.871 380.859 157.071 380.458 157.372C380.058 157.672 379.757 159.375 377.052 158.975C374.348 158.574 371.142 158.574 371.142 158.574C371.142 158.574 371.944 159.976 369.539 160.277C367.235 160.477 364.631 159.175 364.631 159.175Z" fill="#F9F9F9"/>
<path d="M578 263.856C564.677 260.149 543.34 281.887 533.723 274.975C524.107 268.063 553.458 249.13 537.33 249.13C521.202 249.13 497.06 267.161 497.06 267.161C497.06 266.761 507.478 199.945 504.272 166.888C501.367 137.036 488.545 95.1633 485.34 62.0058C482.134 28.8483 482.635 10.7168 482.635 10.7168V1H547.547" fill="#AADDFC"/>
<path d="M518.297 104.579C518.297 104.579 516.794 115.498 521.002 147.754C526.511 189.726 526.912 198.341 524.508 219.979C523.606 228.394 515.492 254.94 515.492 254.94C515.492 254.94 528.815 247.827 535.527 248.629C542.239 249.43 542.239 252.535 540.636 242.318C539.033 232.1 531.62 172.096 527.713 150.458C523.807 128.921 518.297 104.579 518.297 104.579Z" fill="#F9F9F9"/>
<path d="M492.853 1.40112C492.853 1.40112 497.961 28.8487 501.067 36.3617C504.172 43.7746 501.067 21.0352 500.666 18.3305C500.265 15.6258 500.666 8.51345 500.265 6.50998C499.865 4.50651 501.868 1.40112 497.861 1.40112C493.954 1.40112 492.853 1.40112 492.853 1.40112Z" fill="#F9F9F9"/>
<path d="M578 263.856C564.677 260.149 543.34 281.887 533.723 274.975C524.107 268.063 553.458 249.13 537.33 249.13C521.202 249.13 497.06 267.161 497.06 267.161C497.06 266.761 507.478 199.945 504.272 166.888C501.367 137.036 488.545 95.1633 485.34 62.0058C482.134 28.8483 482.635 10.7168 482.635 10.7168V1H547.547" stroke="#00001F" stroke-width="2" stroke-miterlimit="10" stroke-linecap="round" stroke-linejoin="round"/>
<path d="M542.238 251.235C541.036 249.432 536.227 211.566 532.12 179.711C528.013 147.856 522.003 116.401 517.194 99.7722" stroke="#00001F" stroke-width="2" stroke-miterlimit="10" stroke-linecap="round" stroke-linejoin="round"/>
<path d="M499.865 2.40332C499.364 7.61235 500.867 20.2342 504.072 44.2759" stroke="#00001F" stroke-width="2" stroke-miterlimit="10" stroke-linecap="round" stroke-linejoin="round"/>
<path d="M522.704 41.3706C522.704 41.3706 519.999 48.7835 523.105 76.7319C526.21 104.58 550.552 166.988 559.568 185.821C568.583 204.654 538.331 105.382 534.825 93.9618C531.319 82.542 522.704 41.3706 522.704 41.3706Z" fill="#F9F9F9"/>
<path d="M521.502 33.0557C521.502 33.0557 523.105 45.0765 530.918 75.2288C541.837 117.101 559.969 180.411 566.981 207.158" stroke="#00001F" stroke-width="2" stroke-miterlimit="10" stroke-linecap="round" stroke-linejoin="round"/>
<path d="M530.517 272.171L527.812 250.533C527.812 250.533 533.422 249.832 537.329 249.031C541.236 248.229 543.54 250.233 541.136 255.642C538.731 261.252 531.719 264.357 530.517 272.171Z" fill="#002F49"/>
<path d="M326.064 162.179C331.375 162.179 335.681 157.873 335.681 152.562C335.681 147.251 331.375 142.945 326.064 142.945C320.753 142.945 316.447 147.251 316.447 152.562C316.447 157.873 320.753 162.179 326.064 162.179Z" fill="#AADDFC" stroke="#00001F" stroke-width="2" stroke-miterlimit="10" stroke-linecap="round" stroke-linejoin="round"/>
<path d="M344.195 137.937L353.311 132.227" stroke="#AADDFC" stroke-width="2" stroke-miterlimit="10" stroke-linecap="round"/>
<path d="M261.652 171.895C261.652 171.895 264.057 171.895 266.761 170.493L261.652 171.895Z" fill="#2B698F"/>
<path d="M261.652 171.895C261.652 171.895 264.057 171.895 266.761 170.493" stroke="#00001F" stroke-width="2" stroke-miterlimit="10" stroke-linecap="round" stroke-linejoin="round"/>
<path d="M576.198 436.556L576.298 447.675H239.614" stroke="#00001F" stroke-width="2" stroke-miterlimit="10" stroke-linecap="round" stroke-linejoin="round"/>
<path d="M38.1657 92.96L27.6475 99.0706L52.9914 98.9704V93.7614L38.1657 92.96Z" fill="#002F49"/>
<path d="M90.1562 120.909C90.1562 120.909 98.7712 106.484 98.2703 106.284C97.7695 105.984 97.9698 84.5464 97.9698 84.5464L90.1562 89.7554V120.909Z" fill="#5AC1FF"/>
<path d="M90.0553 90.0547H50.5869V121.71H90.0553V90.0547Z" fill="#2B698F"/>
<path d="M50.5871 122.313H43.2744L31.7544 120.409L27.8477 119.608V99.2727H50.5871V122.313Z" fill="#2B698F"/>
<path d="M97.7689 108.788V83.8445H62.3074L49.7857 90.5561L49.2848 92.9603H38.1655L27.8477 98.6702" stroke="#00001F" stroke-width="2" stroke-miterlimit="10" stroke-linecap="round" stroke-linejoin="round"/>
<path d="M89.554 122.412V90.5566H49.9854V122.212" stroke="#00001F" stroke-width="2" stroke-miterlimit="10" stroke-linecap="round" stroke-linejoin="round"/>
<path d="M49.4853 99.071H27.6475V119.106" stroke="#00001F" stroke-width="2" stroke-miterlimit="10" stroke-linecap="round" stroke-linejoin="round"/>
<path d="M97.7689 83.8447L89.5547 90.5564" stroke="#00001F" stroke-width="2" stroke-miterlimit="10" stroke-linecap="round" stroke-linejoin="round"/>
<path d="M97.6692 88.5535C97.6692 88.5535 102.077 84.1459 94.7642 84.1459C87.4515 84.1459 62.2077 83.9456 62.2077 83.9456L51.5893 89.8558C51.5893 89.8558 51.0885 91.1581 57.0989 90.6572C63.1093 90.1563 87.151 90.3567 87.151 90.3567C87.151 90.3567 91.0578 90.6572 92.6605 88.7539C94.2633 86.9508 97.9697 81.9421 97.6692 88.5535Z" fill="#002F49"/>
<path d="M69.0199 96.1658H54.3945V102.877H69.0199V96.1658Z" fill="#F9F9F9"/>
<path d="M85.5482 96.1658H70.9229V102.877H85.5482V96.1658Z" fill="#F9F9F9"/>
<path d="M69.0199 106.182H54.3945V112.894H69.0199V106.182Z" fill="#F9F9F9"/>
<path d="M85.5482 106.182H70.9229V112.894H85.5482V106.182Z" fill="#F9F9F9"/>
<path d="M36.1615 106.384H32.4551V112.895H36.1615V106.384Z" fill="#F9F9F9"/>
<path d="M25.7432 127.72C25.7432 127.72 32.3546 123.212 42.6725 122.411C52.9904 121.609 65.2116 129.523 72.8248 131.927" stroke="#00001F" stroke-width="2" stroke-miterlimit="10" stroke-linecap="round" stroke-linejoin="round"/>
<path d="M18.9316 120.407C18.9316 120.407 32.2547 117.301 41.4707 122.01" stroke="#00001F" stroke-width="2" stroke-miterlimit="10" stroke-linecap="round" stroke-linejoin="round"/>
</svg>
