<svg width="137" height="150" viewBox="0 0 137 150" fill="none" xmlns="http://www.w3.org/2000/svg">
<g clip-path="url(#clip0_4084_5906)">
<path d="M114.379 107.477C112.565 98.219 111.991 88.8932 111.692 78.555C111.646 77.7688 111.6 76.9826 111.55 76.1792C111.178 69.5931 111.016 54.5446 111.035 45.7484C111.043 42.1395 108.076 39.2354 104.468 39.3224C83.0906 39.8527 27.2859 33.2802 8.60568 33.7386C5.13145 33.8239 1.40242 27.2793 1.3928 30.7541C1.36535 39.4713 1.93897 72.3159 2.32037 79.0257C3.40364 98.0549 5.69536 112.918 10.1228 130.731C9.91495 130.295 103.192 128.162 119.305 127.718C117.507 120.453 115.358 114.432 114.373 107.482L114.379 107.477Z" fill="#00001F" stroke="#00001F" stroke-width="2" stroke-linecap="round" stroke-linejoin="round"/>
<path d="M127.703 131.03C120.005 113.38 114.122 95.6548 113.628 76.6022C113.568 74.2467 113.771 44.8169 113.771 44.8169L1.83876 33.6855C1.83876 33.6855 3.34854 72.0728 4.39036 80.5582C6.70811 99.4745 7.96244 114.534 15.6609 132.183C15.4696 131.749 127.977 131.027 127.702 131.035L127.703 131.03Z" fill="#08527F" stroke="#00001F" stroke-width="2" stroke-linecap="round" stroke-linejoin="round"/>
<path d="M119.17 82.4614C116.327 70.2582 114.746 53.5114 113.577 44.8219C113.142 41.5764 110.336 39.1867 107.063 39.2667L9.08523 41.6713C5.26995 41.763 2.60744 42.6929 3.11556 46.4767C4.30282 55.3076 6.14308 72.736 7.66732 81.2978C8.87343 88.0665 10.4604 94.7718 12.6311 101.297C13.6871 104.473 14.8767 107.602 16.1948 110.678C16.3226 110.983 16.4558 111.288 16.5896 111.587C17.8583 114.508 20.9831 117.836 23.4282 119.767C25.9498 121.762 26.2726 122.164 29.6773 123.906C33.082 125.647 39.0346 126.988 43.0115 126.898C45.9763 126.828 48.9466 126.759 51.9107 126.694C58.7184 126.536 65.5315 126.378 72.3385 126.225C86.0431 125.907 99.7471 125.595 113.457 125.277C120.829 125.11 128.207 124.942 135.58 124.769C135.316 124.237 135.067 123.719 134.808 123.193C127.028 109.587 122.014 94.6646 119.17 82.4614Z" fill="#F9F9F9" stroke="#00001F" stroke-width="2" stroke-linecap="round" stroke-linejoin="round"/>
<path d="M13.3926 103.483C18.9215 111.76 31.8361 114.512 39.2157 114.049C39.2157 114.049 37.2382 124.354 47.3479 127.124" fill="#F9F9F9"/>
<path d="M13.3926 103.483C18.9215 111.76 31.8361 114.512 39.2157 114.049C39.2157 114.049 37.2382 124.354 47.3479 127.124" stroke="#00001F" stroke-width="2" stroke-linecap="round" stroke-linejoin="round"/>
<path d="M39.0356 64.3434C39.631 67.7966 40.2374 71.2511 40.8498 74.7007C43.0811 87.2135 45.7918 99.6294 50.6356 111.531" stroke="#00001F" stroke-width="2" stroke-linecap="round" stroke-linejoin="round"/>
<path d="M63.0244 63.6648C63.6661 67.4022 64.2176 70.5492 64.8874 74.2842C67.1064 86.7064 69.794 99.0304 74.5631 110.851" stroke="#00001F" stroke-width="2" stroke-linecap="round" stroke-linejoin="round"/>
<path d="M86.8257 63.0044C87.4314 66.5146 88.0426 70.0254 88.671 73.5325C90.8918 85.9884 93.5873 98.3412 98.387 110.188" stroke="#00001F" stroke-width="2" stroke-linecap="round" stroke-linejoin="round"/>
<path d="M24.1751 80.31L106.082 78.3268" stroke="#00001F" stroke-width="2" stroke-linecap="round" stroke-linejoin="round"/>
<path d="M28.2517 98.4691L110.159 96.4859" stroke="#00001F" stroke-width="2" stroke-linecap="round" stroke-linejoin="round"/>
<mask id="mask0_4084_5906" style="mask-type:luminance" maskUnits="userSpaceOnUse" x="58" y="55" width="37" height="24">
<path d="M66.1298 78.8586L89.0417 78.2769L94.9156 55.262L58.5238 58.9876L66.1298 78.8586Z" fill="white"/>
</mask>
<g mask="url(#mask0_4084_5906)">
<path d="M78.8704 64.9753C84.3389 64.7674 88.9488 69.3396 89.1692 75.1945C89.3903 81.0439 85.1357 85.9571 79.6726 86.1657C76.7035 86.274 73.9866 84.9768 72.0848 82.8279C70.49 81.0258 69.4762 78.6193 69.3738 75.9465C69.1527 70.0971 73.4073 65.1839 78.8704 64.9753Z" fill="#5AC1FF" stroke="#00001F" stroke-width="2" stroke-linecap="round" stroke-linejoin="round"/>
<path d="M65.8172 76.0784C65.937 79.2942 67.3882 82.1291 69.5793 83.9868C71.3623 85.5031 73.6356 86.3769 76.0769 86.2987L76.0781 86.2877L79.6687 86.1597C76.6996 86.268 73.9827 84.9708 72.0809 82.8219C72.0215 82.7539 71.9677 82.6865 71.9139 82.6191C71.8411 82.5217 71.7377 82.3985 71.6246 82.2631C70.2955 80.5298 69.4572 78.3493 69.3637 75.9454C69.1426 70.096 73.3972 65.1828 78.8652 64.9804L75.3126 65.1182C69.844 65.3262 65.59 70.2338 65.816 76.0894L65.8172 76.0784ZM69.564 83.974C69.4325 83.8532 69.3181 83.6786 69.2295 83.4734C69.3438 83.6982 69.4575 83.8784 69.564 83.974Z" fill="#5AC1FF" stroke="#00001F" stroke-width="2" stroke-linecap="round" stroke-linejoin="round"/>
<path d="M76.1214 86.2981L76.0774 86.2932C73.6293 86.3818 71.356 85.508 69.5737 83.9862C67.3887 82.1236 65.9368 79.2942 65.8115 76.0777C65.5905 70.2283 69.8451 65.3151 75.3081 65.1065L78.8608 64.9687" stroke="#00001F" stroke-width="2" stroke-linecap="round" stroke-linejoin="round"/>
<path d="M79.6673 86.1652C85.1359 85.9573 89.3899 81.0496 89.1639 75.1941C88.9428 69.3446 84.3281 64.7664 78.865 64.9749C73.3965 65.1828 69.1424 70.0905 69.3684 75.9461C69.4709 78.6188 70.4847 81.0254 72.0795 82.8274C73.9758 84.9757 76.6921 86.2785 79.6673 86.1652Z" stroke="#00001F" stroke-width="2" stroke-linecap="round" stroke-linejoin="round"/>
<path d="M81.0488 69.0914C81.0488 69.0914 81.0378 69.0902 81.0267 69.089C79.9978 68.7115 78.8761 68.6139 77.7548 68.8621C74.3737 69.6106 72.295 73.2275 73.1179 76.9406C73.8042 80.0302 76.2761 82.2206 79.0361 82.4347C79.5951 82.475 80.1621 82.4436 80.7286 82.3173C81.4892 82.1514 82.1771 81.8379 82.7885 81.4098" stroke="#00001F" stroke-width="2" stroke-linecap="round" stroke-linejoin="round"/>
<path d="M77.5711 82.0082L76.7409 69.2896C76.6589 69.325 76.5719 69.3543 76.4953 69.3904C73.3482 70.8402 72.089 74.8111 73.6769 78.2694C74.502 80.069 75.9404 81.3738 77.5717 82.0027L77.5711 82.0082Z" fill="#00001F"/>
</g>
<path d="M105.923 25.6688L7.91153 25.0037C4.10622 24.9773 1.10852 28.2544 1.48204 32.0444C1.97512 37.0671 2.63934 43.5093 3.11744 47.0007L114.027 47.7566C113.506 43.9453 112.761 36.6178 112.259 31.4648C111.939 28.1979 109.201 25.6978 105.916 25.6735L105.923 25.6688Z" fill="#5AC1FF" stroke="#00001F" stroke-width="2" stroke-linecap="round" stroke-linejoin="round"/>
<path d="M39.2693 25.8969C38.8964 23.1153 37.5861 20.619 35.5915 18.8701C33.5474 17.0748 31.0241 16.2749 28.4879 16.6159C24.6374 17.1376 21.5756 20.1982 20.6949 24.4128C20.661 24.5703 20.6672 24.7225 20.6851 24.8707L23.3714 24.8874C24.0377 21.8519 26.1789 19.6616 28.8523 19.3011C30.6003 19.0652 32.3554 19.6369 33.8033 20.9039C35.3052 22.2235 36.2929 24.1188 36.5794 26.2551C36.8667 28.3858 36.4201 30.4782 35.3231 32.1465C34.263 33.7529 32.7165 34.7684 30.9739 35.0051C30.5967 35.0573 30.2141 35.0695 29.8369 35.0432C29.0874 34.997 28.4462 35.5602 28.4 36.3098C28.3594 36.9817 28.812 37.5734 29.447 37.7151C29.5176 37.7309 29.5944 37.742 29.6665 37.7467C30.2217 37.7818 30.7847 37.7619 31.3391 37.6848C33.8753 37.3438 36.0934 35.904 37.5917 33.6267C39.053 31.4114 39.6446 28.6621 39.2716 25.8805L39.2693 25.8969Z" fill="#00001F" stroke="#00001F" stroke-width="2" stroke-linecap="round" stroke-linejoin="round"/>
<path d="M97.5095 26.4475C97.1366 23.6659 95.8264 21.1695 93.8317 19.4206C91.7876 17.6253 89.2643 16.8255 86.7282 17.1665C82.8776 17.6881 79.8158 20.7487 78.9352 24.9633C78.9013 25.1209 78.9074 25.273 78.9253 25.4212L81.6117 25.4379C82.278 22.4025 84.4191 20.2121 87.0926 19.8516C88.8406 19.6157 90.5957 20.1875 92.0435 21.4544C93.5454 22.774 94.5331 24.6694 94.8196 26.8056C95.1069 28.9363 94.6603 31.0287 93.5633 32.697C92.5032 34.3035 90.9567 35.319 89.2142 35.5557C88.837 35.6078 88.4543 35.62 88.0772 35.5938C87.3276 35.5476 86.6864 36.1107 86.6402 36.8603C86.5996 37.5323 87.0522 38.1239 87.6872 38.2657C87.7578 38.2814 87.8346 38.2925 87.9068 38.2973C88.4619 38.3323 89.0249 38.3125 89.5794 38.2354C92.1155 37.8944 94.3336 36.4545 95.8319 34.1773C97.2933 31.962 97.8848 29.2126 97.5119 26.431L97.5095 26.4475Z" fill="#00001F" stroke="#00001F" stroke-width="2" stroke-linecap="round" stroke-linejoin="round"/>
</g>
<defs>
<clipPath id="clip0_4084_5906">
<rect width="137" height="150" fill="white"/>
</clipPath>
</defs>
</svg>
