<svg width="428" height="341" viewBox="0 0 428 341" fill="none" xmlns="http://www.w3.org/2000/svg">
<path d="M308.668 194.851C311.226 194.75 313.83 193.853 316.314 192.085C320.755 188.925 323.304 183.733 325.723 178.778C328.438 173.237 330.755 167.431 332.547 161.459H377.82C379.556 161.459 380.766 163.328 380.175 165.095C378.587 169.794 376.675 174.364 374.515 178.778C372.095 183.733 369.547 188.925 365.105 192.085C362.566 193.898 359.897 194.796 357.275 194.851H308.677H308.668Z" fill="#00001F" stroke="#00001F" stroke-width="2" stroke-linecap="round" stroke-linejoin="round"/>
<path d="M339.694 171.872H367.69" stroke="#00001F" stroke-width="2" stroke-linecap="round" stroke-linejoin="round"/>
<path d="M341.271 178.165H365.263" stroke="#00001F" stroke-width="2" stroke-linecap="round" stroke-linejoin="round"/>
<path d="M331.051 75.0409C336.73 74.7295 342.686 77.2298 346.398 83.0087C352.705 92.8081 350.885 105.621 349.14 116.464C347.607 125.989 345.281 135.358 342.815 144.681C340.479 153.473 338.041 161.972 339.703 171.158C340.811 177.257 343.092 183.109 346.435 187.67C349.934 192.442 354.284 194.969 358.753 194.841H309.01C304.467 195.052 300.035 192.524 296.48 187.679C293.137 183.118 290.856 177.275 289.748 171.167C286.867 155.277 294.023 139.699 297.643 124.533C300.672 111.848 303.978 94.7314 296.443 83.0178C292.731 77.2481 283.802 75.1508 277.957 75.1691L331.042 75.0592L331.051 75.0409Z" fill="#08527F" stroke="#00001F" stroke-width="2" stroke-linecap="round" stroke-linejoin="round"/>
<path d="M314.042 194.831C309.499 195.042 305.066 192.514 301.511 187.67C298.169 183.109 295.888 177.266 294.78 171.157C291.899 155.267 299.055 139.689 302.675 124.523C305.704 111.839 309.009 94.7216 301.474 83.0081C297.762 77.2384 288.833 75.1411 282.988 75.1594" stroke="#00001F" stroke-width="2" stroke-linecap="round" stroke-linejoin="round"/>
<path d="M353.833 194.823C349.29 195.034 344.857 192.506 341.302 187.662C337.96 183.101 335.679 177.258 334.571 171.149C331.69 155.259 339.502 139.819 342.466 124.515C345.236 110.228 348.8 94.7137 341.265 83.0002C337.553 77.2304 328.624 75.1332 322.779 75.1515" stroke="#00001F" stroke-width="2" stroke-linecap="round" stroke-linejoin="round"/>
<path d="M304.586 90.2344C309.877 83.5946 319.859 74.9949 328.964 75.1231H273.773C264.668 74.9949 254.687 83.5946 249.396 90.2344C242.59 98.77 238.278 108.862 232.682 118.158C227.096 127.445 222.497 134.79 214.889 142.648H270.079C277.688 134.781 282.287 127.445 287.873 118.158C293.469 108.862 297.781 98.77 304.586 90.2344Z" fill="#C4ECFF" stroke="#00001F" stroke-width="2" stroke-linecap="round" stroke-linejoin="round"/>
<path d="M294.54 83.5126H300.846" stroke="#00001F" stroke-width="2" stroke-linecap="round" stroke-linejoin="round"/>
<path d="M231.61 133.462H266.228" stroke="#00001F" stroke-width="2" stroke-linecap="round" stroke-linejoin="round"/>
<path d="M247.926 108.488H282.535" stroke="#00001F" stroke-width="2" stroke-linecap="round" stroke-linejoin="round"/>
<path d="M238.445 125.137H273.063" stroke="#00001F" stroke-width="2" stroke-linecap="round" stroke-linejoin="round"/>
<path d="M244.086 116.931H278.694" stroke="#00001F" stroke-width="2" stroke-linecap="round" stroke-linejoin="round"/>
<path d="M266.229 83.5126H294.54" stroke="#00001F" stroke-width="2" stroke-linecap="round" stroke-linejoin="round"/>
<path d="M286.976 91.8375H293.283" stroke="#00001F" stroke-width="2" stroke-linecap="round" stroke-linejoin="round"/>
<path d="M258.666 91.8374H286.977" stroke="#00001F" stroke-width="2" stroke-linecap="round" stroke-linejoin="round"/>
<path d="M281.05 100.162H287.366" stroke="#00001F" stroke-width="2" stroke-linecap="round" stroke-linejoin="round"/>
<path d="M252.747 100.162H281.048" stroke="#00001F" stroke-width="2" stroke-linecap="round" stroke-linejoin="round"/>
<path d="M265.502 310.199H93.8357C91.2871 310.199 89.2188 308.148 89.2188 305.62C89.2188 303.093 91.2871 301.041 93.8357 301.041H265.502C273.351 301.041 279.741 294.704 279.741 286.919C279.741 280.691 275.715 275.27 269.713 273.429L248.854 267.018C246.416 266.267 245.058 263.703 245.816 261.285C246.573 258.867 249.158 257.512 251.596 258.272L272.455 264.683C282.335 267.723 288.984 276.662 288.984 286.919C288.984 299.759 278.448 310.199 265.511 310.199H265.502Z" fill="#5AC1FF" stroke="#00001F" stroke-width="2" stroke-linecap="round" stroke-linejoin="round"/>
<path d="M125.165 339.387C132.907 339.387 139.182 333.163 139.182 325.485C139.182 317.807 132.907 311.583 125.165 311.583C117.424 311.583 111.148 317.807 111.148 325.485C111.148 333.163 117.424 339.387 125.165 339.387Z" fill="#00001F" stroke="#00001F" stroke-width="2" stroke-linecap="round" stroke-linejoin="round"/>
<path d="M305.991 139.644L271.022 159.728C268.557 161.139 267.679 164.564 269.277 167.44C270.911 170.389 274.328 171.607 276.839 170.16L311.808 150.076C314.273 148.665 315.151 145.24 313.553 142.364C311.919 139.415 308.502 138.197 305.991 139.644Z" fill="#5AC1FF" stroke="#00001F" stroke-width="2" stroke-linecap="round" stroke-linejoin="round"/>
<path d="M125.165 331.85C128.709 331.85 131.583 329 131.583 325.485C131.583 321.97 128.709 319.12 125.165 319.12C121.621 319.12 118.748 321.97 118.748 325.485C118.748 329 121.621 331.85 125.165 331.85Z" fill="#5AC1FF" stroke="#00001F" stroke-width="2" stroke-linecap="round" stroke-linejoin="round"/>
<path d="M104.757 310.199H123.825C132.33 310.199 139.237 317.05 139.237 325.485H104.757V310.199Z" fill="#C4ECFF" stroke="#00001F" stroke-width="2" stroke-linecap="round" stroke-linejoin="round"/>
<path d="M258.751 339.387C266.493 339.387 272.768 333.163 272.768 325.485C272.768 317.807 266.493 311.583 258.751 311.583C251.01 311.583 244.734 317.807 244.734 325.485C244.734 333.163 251.01 339.387 258.751 339.387Z" fill="#00001F" stroke="#00001F" stroke-width="2" stroke-linecap="round" stroke-linejoin="round"/>
<path d="M258.752 331.85C262.296 331.85 265.169 329 265.169 325.485C265.169 321.97 262.296 319.12 258.752 319.12C255.207 319.12 252.334 321.97 252.334 325.485C252.334 329 255.207 331.85 258.752 331.85Z" fill="#5AC1FF" stroke="#00001F" stroke-width="2" stroke-linecap="round" stroke-linejoin="round"/>
<path d="M238.355 310.199H257.423C265.927 310.199 272.834 317.05 272.834 325.485H238.355V310.199Z" fill="#C4ECFF" stroke="#00001F" stroke-width="2" stroke-linecap="round" stroke-linejoin="round"/>
<path d="M180.577 100.739C180.217 95.7206 179.996 90.656 180.642 85.6647C181.288 80.6735 182.821 75.7188 185.721 71.5792" stroke="#00001F" stroke-width="2" stroke-linecap="round" stroke-linejoin="round"/>
<path d="M170.43 90.5917C171.104 97.9458 174.465 105.025 179.747 110.236" stroke="#00001F" stroke-width="2" stroke-linecap="round" stroke-linejoin="round"/>
<path d="M231.964 190.326C236.47 166.561 239.813 142.401 253.405 121.676C232.887 114.999 212.36 108.323 191.852 101.646C190.661 103.496 189.562 105.365 188.519 107.26C168.38 143.372 174.566 188.312 151.334 223.388C171.676 230.266 192.018 237.153 212.36 244.04C223.469 227.674 228.086 209.128 231.964 190.326Z" fill="#56E1AF" stroke="#00001F" stroke-width="2" stroke-linecap="round" stroke-linejoin="round"/>
<path d="M235.805 123.599C224.678 120.128 213.552 116.666 202.425 113.204C202.425 113.204 201.086 112.462 199.11 113.122C197.134 113.772 195.195 114.77 195.195 114.77C194.678 114.935 194.161 115.1 193.653 115.265C193.653 115.265 193.154 114.157 192.055 116.382C190.79 117.261 182.581 140.624 178.851 165.178C175.36 189.805 167.115 212.517 166.505 212.316C166.505 212.316 165.48 213.387 166.274 214.972C167.078 216.556 168.389 218.617 168.389 218.617C168.389 218.617 168.167 219.771 170.374 220.54C172.59 221.318 202.332 232.611 202.332 232.611C202.332 232.611 202.988 233.334 204.401 231.841C205.823 230.349 209.867 228.334 211.631 227.693C213.413 227.088 213.903 226.603 214.124 225.669C214.881 225.431 222.721 202.562 226.784 178.531C230.551 154.408 239.369 132.107 239.979 132.299C239.979 132.299 241.216 131.32 239.877 130.111C238.529 128.902 237.763 126.786 237.597 125.705C237.393 124.588 235.796 123.59 235.796 123.59H235.814L235.805 123.599Z" fill="#BCFEE6"/>
<path d="M231.964 190.326C236.47 166.561 239.813 142.401 253.405 121.676C232.887 114.999 212.36 108.323 191.852 101.646C190.661 103.496 189.562 105.365 188.519 107.26C168.38 143.372 174.566 188.312 151.334 223.388C171.676 230.266 192.018 237.153 212.36 244.04C223.469 227.674 228.086 209.128 231.964 190.326Z" stroke="#00001F" stroke-width="2" stroke-linecap="round" stroke-linejoin="round"/>
<path d="M236.932 124.35C224.725 120.348 212.509 116.346 200.292 112.353" stroke="#00001F" stroke-width="2" stroke-linecap="round" stroke-linejoin="round"/>
<path d="M195.878 215.933C199.793 215.54 202.647 212.142 202.12 208.295C201.603 204.449 198.039 201.674 194.281 202.123C190.523 202.571 187.882 206.042 188.242 209.834C188.602 213.626 191.945 216.336 195.869 215.933H195.878Z" fill="#C4ECFF" stroke="#00001F" stroke-width="2" stroke-linecap="round" stroke-linejoin="round"/>
<path d="M213.949 142.108C217.725 141.668 220.422 138.207 220.117 134.452C219.812 130.688 216.497 127.977 212.545 128.371C208.593 128.755 205.675 132.135 206.155 135.954C206.635 139.773 210.172 142.557 213.949 142.108Z" fill="#C4ECFF" stroke="#00001F" stroke-width="2" stroke-linecap="round" stroke-linejoin="round"/>
<path d="M246.563 133.692C245.889 133.572 245.261 133.453 244.624 133.215C238.243 131.127 235.187 124.451 238.853 118.635C239.158 118.141 239.647 117.793 240.035 117.326" stroke="#00001F" stroke-width="2" stroke-linecap="round" stroke-linejoin="round"/>
<path d="M240.312 131.264C232.029 149.032 229.13 168.612 225.473 187.936C222.481 201.28 219.129 214.514 213.321 226.923" stroke="#00001F" stroke-width="2" stroke-linecap="round" stroke-linejoin="round"/>
<path d="M165.628 213.836C179.876 182.908 178.02 146.595 192.268 115.677" stroke="#00001F" stroke-width="2" stroke-linecap="round" stroke-linejoin="round"/>
<path d="M159.11 211.144C159.784 211.263 160.412 211.382 161.049 211.62C167.43 213.708 170.514 220.393 166.904 226.227C166.608 226.731 166.22 227.235 165.842 227.674" stroke="#00001F" stroke-width="2" stroke-linecap="round" stroke-linejoin="round"/>
<path d="M185.37 113.809C185.924 114.12 186.561 114.349 187.189 114.55C193.607 116.648 200.929 113.332 204.567 107.499C204.872 106.995 204.964 106.812 205.232 106.317" stroke="#00001F" stroke-width="2" stroke-linecap="round" stroke-linejoin="round"/>
<path d="M221.078 228.031C220.69 227.903 206.673 222.866 199.092 239.186" stroke="#00001F" stroke-width="2" stroke-linecap="round" stroke-linejoin="round"/>
<path d="M168.804 219.78C180.273 224.112 191.741 228.453 203.21 232.776" stroke="#00001F" stroke-width="2" stroke-linecap="round" stroke-linejoin="round"/>
<path d="M238.217 207.013C246.749 184.355 254.191 161.12 271.154 142.996C252.086 132.949 233.009 122.893 213.95 112.847C212.464 114.468 211.051 116.125 209.703 117.811C183.654 149.984 182.01 195.308 153.09 225.943C171.955 236.164 190.81 246.384 209.666 256.614C223.424 242.364 231.171 224.871 238.226 207.004L238.217 207.013Z" fill="#56E1AF" stroke="#00001F" stroke-width="2" stroke-linecap="round" stroke-linejoin="round"/>
<path d="M253.471 141.906C243.101 136.603 232.732 131.31 222.371 126.016C222.371 126.016 221.18 125.064 219.121 125.375C217.053 125.687 214.975 126.337 214.975 126.337C214.44 126.41 213.904 126.493 213.378 126.566C213.378 126.566 213.082 125.384 211.614 127.399C210.22 128.05 198.114 149.682 190.21 173.246C182.537 196.92 170.505 217.902 169.932 217.6C169.932 217.6 168.741 218.488 169.249 220.182C169.766 221.877 170.708 224.13 170.708 224.13C170.708 224.13 170.292 225.229 172.333 226.364C174.383 227.5 201.743 243.664 201.743 243.664C201.743 243.664 202.269 244.489 203.913 243.252C205.566 242.016 209.896 240.725 211.752 240.386C213.608 240.093 214.172 239.699 214.56 238.81C215.344 238.71 227.007 217.499 235.142 194.502C243.009 171.368 255.53 150.89 256.093 151.183C256.093 151.183 257.488 150.423 256.37 149.013C255.244 147.593 254.856 145.377 254.884 144.287C254.884 143.152 253.471 141.897 253.471 141.897H253.48L253.471 141.906Z" fill="#BCFEE6"/>
<path d="M238.217 207.013C246.749 184.355 254.191 161.12 271.154 142.996C252.086 132.949 233.009 122.893 213.95 112.847C212.464 114.468 211.051 116.125 209.703 117.811C183.654 149.984 182.01 195.308 153.09 225.943C171.955 236.164 190.81 246.384 209.666 256.614C223.424 242.364 231.171 224.871 238.226 207.004L238.217 207.013Z" stroke="#00001F" stroke-width="2" stroke-linecap="round" stroke-linejoin="round"/>
<path d="M254.45 142.831C243.11 136.823 231.753 130.815 220.414 124.807" stroke="#00001F" stroke-width="2" stroke-linecap="round" stroke-linejoin="round"/>
<path d="M198.251 226.135C202.185 226.41 205.573 223.543 205.721 219.67C205.869 215.796 202.831 212.453 199.054 212.26C195.268 212.068 192.074 215.045 191.778 218.836C191.483 222.628 194.308 225.87 198.242 226.144L198.251 226.135Z" fill="#C4ECFF" stroke="#00001F" stroke-width="2" stroke-linecap="round" stroke-linejoin="round"/>
<path d="M228.751 156.449C232.546 156.651 235.797 153.702 236.148 149.947C236.498 146.183 233.691 142.959 229.73 142.675C225.778 142.382 222.315 145.221 222.131 149.068C221.946 152.914 224.956 156.248 228.751 156.449Z" fill="#56E1AF" stroke="#00001F" stroke-width="2" stroke-linecap="round" stroke-linejoin="round"/>
<path d="M262.335 153.674C261.698 153.445 261.098 153.216 260.507 152.878C254.579 149.745 252.713 142.648 257.33 137.537C257.709 137.098 258.254 136.841 258.725 136.448" stroke="#00001F" stroke-width="2" stroke-linecap="round" stroke-linejoin="round"/>
<path d="M256.592 150.222C245.373 166.331 239.149 185.134 232.224 203.551C226.988 216.199 221.402 228.672 213.544 239.91" stroke="#00001F" stroke-width="2" stroke-linecap="round" stroke-linejoin="round"/>
<path d="M168.805 218.946C188.159 190.885 192.582 154.783 211.946 126.731" stroke="#00001F" stroke-width="2" stroke-linecap="round" stroke-linejoin="round"/>
<path d="M162.84 215.191C163.477 215.42 164.078 215.649 164.669 215.988C170.597 219.12 172.49 226.236 167.928 231.374C167.55 231.823 167.088 232.253 166.635 232.619" stroke="#00001F" stroke-width="2" stroke-linecap="round" stroke-linejoin="round"/>
<path d="M205.456 123.727C205.945 124.13 206.536 124.459 207.118 124.762C213.083 127.921 220.867 125.879 225.447 120.75C225.825 120.301 225.955 120.146 226.306 119.697" stroke="#00001F" stroke-width="2" stroke-linecap="round" stroke-linejoin="round"/>
<path d="M220.994 242.318C220.634 242.126 207.688 234.79 197.411 249.59" stroke="#00001F" stroke-width="2" stroke-linecap="round" stroke-linejoin="round"/>
<path d="M170.911 225.348C181.465 231.557 192.019 237.775 202.574 243.976" stroke="#00001F" stroke-width="2" stroke-linecap="round" stroke-linejoin="round"/>
<path d="M86.7433 175.133L270.709 157.933C275.603 157.475 279.565 161.835 278.586 166.615L259.37 260.882C258.447 265.425 254.172 268.52 249.518 267.998L110.493 252.456C99.3198 251.211 90.52 242.428 89.3288 231.337L83.6962 178.832C83.493 176.973 84.8689 175.307 86.7433 175.133Z" fill="#5AC1FF" stroke="#00001F" stroke-width="2" stroke-linecap="round" stroke-linejoin="round"/>
<path d="M270.339 207.105L86.3735 203.698" stroke="#00001F" stroke-width="2" stroke-linecap="round" stroke-linejoin="round"/>
<path d="M277.709 169.234L84.8135 187.112" stroke="#00001F" stroke-width="2" stroke-linecap="round" stroke-linejoin="round"/>
<path d="M217.393 264.408L229.009 161.835" stroke="#00001F" stroke-width="2" stroke-linecap="round" stroke-linejoin="round"/>
<path d="M172.072 259.344L176.246 166.762" stroke="#00001F" stroke-width="2" stroke-linecap="round" stroke-linejoin="round"/>
<path d="M129.691 254.599L126.404 171.423" stroke="#00001F" stroke-width="2" stroke-linecap="round" stroke-linejoin="round"/>
<path d="M84.6196 187.405L278.041 169.317L278.595 166.615C279.574 161.835 275.612 157.475 270.719 157.933L86.7433 175.133C84.8689 175.307 83.493 176.973 83.6962 178.832L84.6196 187.405Z" fill="#C4ECFF" stroke="#00001F" stroke-width="2" stroke-linecap="round" stroke-linejoin="round"/>
<path d="M108.664 173.09L174.483 167.009C150.9 187.185 147.326 217.014 147.326 217.014H78.9312C78.9312 217.014 84.8778 192.012 108.664 173.09Z" fill="#56E1AF" stroke="#00001F" stroke-width="2" stroke-linecap="round" stroke-linejoin="round"/>
<path d="M142.266 203.414C146.163 189.915 153.125 177.624 161.906 168.265L118.147 172.303C108.101 180.757 96.6229 193.798 91.9321 204.119C93.0125 204.641 94.0097 205.347 94.8593 206.281C95.5333 207.023 96.0597 207.874 96.4567 208.781H134.666C136.587 206.226 139.237 204.385 142.266 203.405V203.414Z" fill="#BCFEE6" stroke="#00001F" stroke-width="2" stroke-linecap="round" stroke-linejoin="round"/>
<path d="M127.909 180.088C124.021 180.198 120.217 183.367 119.285 187.094C118.352 190.831 120.762 193.789 124.806 193.743C128.851 193.706 132.849 190.638 133.625 186.828C134.4 183.019 131.796 179.978 127.9 180.088H127.909Z" fill="#56E1AF" stroke="#00001F" stroke-width="2" stroke-linecap="round" stroke-linejoin="round"/>
<path d="M84.8135 203.102C85.4875 203.002 86.1247 202.919 86.7988 202.938C89.8367 203.02 92.7823 203.991 94.8599 206.29C96.9375 208.588 97.6578 211.592 97.0391 214.495C96.8821 215.219 96.6051 215.924 96.2265 216.565" stroke="#00001F" stroke-width="2" stroke-linecap="round" stroke-linejoin="round"/>
<path d="M150.843 202.938C142.173 201.243 133.945 206.052 131.886 214.734C131.766 215.311 131.729 215.512 131.637 216.062" stroke="#00001F" stroke-width="2" stroke-linecap="round" stroke-linejoin="round"/>
<path d="M121.205 131.053L109.967 147.401L111.232 172.843L181.613 166.258L175.011 138.957L155.259 119.193L154.354 111.464L120.466 123.076L121.205 131.053Z" fill="#56E1AF" stroke="#00001F" stroke-width="2" stroke-linecap="round" stroke-linejoin="round"/>
<path d="M109.967 147.401L133.597 155.323L175.011 138.957" fill="#56E1AF"/>
<path d="M109.967 147.401L133.597 155.323L175.011 138.957" stroke="#00001F" stroke-width="2" stroke-linecap="round" stroke-linejoin="round"/>
<path d="M155.26 119.193L121.206 131.054L133.597 155.323L135.869 170.544" stroke="#00001F" stroke-width="2" stroke-linecap="round" stroke-linejoin="round"/>
<path d="M109.967 147.401L125.979 140.404L121.205 131.054L109.967 147.401Z" fill="#00001F" stroke="#00001F" stroke-width="2" stroke-linecap="round" stroke-linejoin="round"/>
<path d="M264.727 234.606C260.276 248.591 252.233 253.766 242.27 258.052C225.021 265.47 201.669 261.001 183.155 260.561C183.081 260.561 183.007 260.561 182.924 260.561L249.509 268.007C254.154 268.529 258.429 265.433 259.362 260.891L264.717 234.616L264.727 234.606Z" fill="#00001F" stroke="#00001F" stroke-width="2" stroke-linecap="round" stroke-linejoin="round"/>
<path d="M257.414 310.199H238.346V313.286H266.666C264.09 311.353 260.886 310.199 257.405 310.199H257.414Z" fill="#00001F" stroke="#00001F" stroke-width="2" stroke-linecap="round" stroke-linejoin="round"/>
<path d="M123.825 310.199H104.757V313.286H133.078C130.501 311.353 127.297 310.199 123.816 310.199H123.825Z" fill="#00001F" stroke="#00001F" stroke-width="2" stroke-linecap="round" stroke-linejoin="round"/>
<path d="M93.1464 115.695L95.1659 105.085C95.2397 104.701 95.5348 104.399 95.9128 104.317L109.247 101.354C110.271 101.125 110.271 99.68 109.247 99.4514L96.8627 96.6709C96.4938 96.5886 96.2079 96.296 96.1249 95.9301L93.1372 82.7048C92.9066 81.6896 91.4496 81.6896 91.2191 82.7048L88.2313 95.9301C88.1483 96.296 87.8624 96.5886 87.4936 96.6709L75.109 99.4514C74.0854 99.68 74.0854 101.125 75.109 101.354L88.4434 104.317C88.8307 104.399 89.1258 104.701 89.1903 105.085L91.2098 115.695C91.4127 116.756 92.9435 116.756 93.1464 115.695Z" fill="#FFCB47" stroke="#00001F" stroke-width="2" stroke-linecap="round" stroke-linejoin="round"/>
<path d="M113.363 86.5325L114.754 79.2133L122.935 77.404L115.196 75.6587L113.363 67.5536L111.529 75.6587L103.791 77.404L111.972 79.2133L113.363 86.5325Z" fill="#00001F" stroke="#00001F" stroke-width="2" stroke-linecap="round" stroke-linejoin="round"/>
<path d="M321.711 240.312L323.102 232.993L331.283 231.183L323.544 229.438L321.711 221.333L319.878 229.438L312.139 231.183L320.32 232.993L321.711 240.312Z" fill="#FFCB47" stroke="#00001F" stroke-width="2" stroke-linecap="round" stroke-linejoin="round"/>
<path d="M38.4549 160.054C40.363 160.054 41.9098 158.52 41.9098 156.627C41.9098 154.735 40.363 153.201 38.4549 153.201C36.5468 153.201 35 154.735 35 156.627C35 158.52 36.5468 160.054 38.4549 160.054Z" fill="#C4ECFF" stroke="#00001F" stroke-width="2" stroke-linecap="round" stroke-linejoin="round"/>
<path d="M360.586 55.3142C363 55.3142 364.957 53.3733 364.957 50.9791C364.957 48.5848 363 46.6439 360.586 46.6439C358.172 46.6439 356.215 48.5848 356.215 50.9791C356.215 53.3733 358.172 55.3142 360.586 55.3142Z" fill="#C4ECFF" stroke="#00001F" stroke-width="2" stroke-linecap="round" stroke-linejoin="round"/>
<path d="M304.196 245.485C305.636 245.485 306.804 244.327 306.804 242.898C306.804 241.47 305.636 240.312 304.196 240.312C302.756 240.312 301.588 241.47 301.588 242.898C301.588 244.327 302.756 245.485 304.196 245.485Z" fill="#00001F" stroke="#00001F" stroke-width="2" stroke-linecap="round" stroke-linejoin="round"/>
<path d="M367.566 121.773C369.006 121.773 370.174 120.615 370.174 119.186C370.174 117.758 369.006 116.6 367.566 116.6C366.126 116.6 364.958 117.758 364.958 119.186C364.958 120.615 366.126 121.773 367.566 121.773Z" fill="#00001F" stroke="#00001F" stroke-width="2" stroke-linecap="round" stroke-linejoin="round"/>
<path d="M215.748 68.0621L215.941 67.8975L232.826 45.398L232.955 45.1419C232.245 44.8309 231.507 44.584 230.751 44.4102C225.596 43.2029 219.713 45.2059 215.951 49.9528C211.46 55.6142 211.515 63.2696 215.748 68.0621ZM241.07 45.7364C246.225 51.6448 246.668 60.6904 241.965 67.7603C241.66 68.2268 241.328 68.6841 240.969 69.1231C235.233 76.3577 225.541 78.5528 218.081 74.7388C217.149 74.2632 216.255 73.6962 215.397 73.0377C207.725 67.0561 206.738 55.6142 213.193 47.465C219.648 39.3249 231.092 37.5689 238.765 43.5505C239.613 44.209 240.388 44.9407 241.07 45.7273V45.7364Z" fill="#FFCB47"/>
<path d="M243.754 47.4468C243.561 47.3005 243.376 47.1541 243.173 47.0169C242.5 46.5322 241.79 46.1115 241.071 45.7456C246.226 51.654 246.668 60.6996 241.965 67.7695L242.002 67.7878C242.002 67.7878 242.002 67.7878 242.011 67.7787L242.002 67.797L241.965 67.7787C241.661 68.2451 241.329 68.7024 240.969 69.1415C235.234 76.3761 225.542 78.562 218.082 74.7572C218.607 75.37 219.197 75.9462 219.824 76.4767C220.009 76.6322 220.193 76.7785 220.387 76.934C228.059 82.9156 239.503 81.1595 245.958 73.0194C246.548 72.2694 247.083 71.492 247.554 70.6872C247.591 70.6323 247.627 70.5591 247.664 70.4951C247.664 70.4859 247.683 70.4676 247.683 70.4494C252.137 62.6111 250.643 52.8247 243.745 47.4468H243.754ZM247.821 70.1841C247.821 70.1841 247.821 70.1841 247.821 70.1933C247.821 70.1933 247.821 70.1933 247.821 70.1841ZM247.95 69.864C247.95 69.864 247.913 69.9463 247.904 69.9829C247.923 69.9463 247.941 69.9006 247.95 69.864Z" fill="#FFCB47"/>
<path d="M232.954 45.1419L232.825 45.398L215.94 67.8975L215.746 68.0622C211.514 63.2696 211.458 55.6142 215.949 49.9528C219.712 45.2059 225.586 43.2029 230.75 44.4102C231.506 44.584 232.234 44.8309 232.954 45.1419Z" fill="#00001F"/>
<path d="M218.082 74.7481C218.616 75.3609 219.197 75.9371 219.824 76.4767C220.009 76.6322 220.193 76.7785 220.387 76.934C228.059 82.9156 239.503 81.1595 245.958 73.0195C246.548 72.2695 247.083 71.492 247.554 70.6872C247.591 70.6232 247.627 70.5591 247.664 70.4951" stroke="#00001F" stroke-width="2" stroke-linecap="round" stroke-linejoin="round"/>
<path d="M247.664 70.4859C252.145 62.6385 250.661 52.8247 243.754 47.4468C243.56 47.3005 243.376 47.1541 243.173 47.0169C242.5 46.5322 241.799 46.1115 241.07 45.7456" stroke="#00001F" stroke-width="2" stroke-linecap="round" stroke-linejoin="round"/>
<path d="M241.078 45.7363C240.395 44.9497 239.621 44.218 238.772 43.5595C231.1 37.5779 219.656 39.334 213.201 47.4741C206.746 55.6141 207.732 67.0651 215.405 73.0467C216.253 73.7052 217.148 74.2723 218.088 74.7479" stroke="#00001F" stroke-width="2" stroke-linecap="round" stroke-linejoin="round"/>
<path d="M218.082 74.748C225.551 78.5528 235.234 76.3669 240.969 69.1323C241.32 68.6841 241.652 68.2268 241.965 67.7695C246.668 60.6996 246.226 51.654 241.071 45.7456" stroke="#00001F" stroke-width="2" stroke-linecap="round" stroke-linejoin="round"/>
<path d="M230.752 44.4102C231.508 44.5839 232.237 44.8309 232.956 45.1418C233.869 45.5443 234.745 46.0656 235.566 46.7058C235.962 47.0168 236.34 47.3461 236.691 47.6936" stroke="#00001F" stroke-width="2" stroke-linecap="round" stroke-linejoin="round"/>
<path d="M227.515 72.0683C223.964 72.6536 220.313 71.8854 217.408 69.6171C216.799 69.1415 216.246 68.6202 215.757 68.0623C211.524 63.2697 211.469 55.6144 215.96 49.9529C219.722 45.206 225.596 43.203 230.761 44.4103" stroke="#00001F" stroke-width="2" stroke-linecap="round" stroke-linejoin="round"/>
<path d="M215.406 73.0469L219.823 76.4858" stroke="#00001F" stroke-width="2" stroke-linecap="round" stroke-linejoin="round"/>
<path d="M238.774 43.5596L243.191 46.9985" stroke="#00001F" stroke-width="2" stroke-linecap="round" stroke-linejoin="round"/>
<path d="M244.648 62.922L249.388 65.9951" stroke="#00001F" stroke-width="2" stroke-linecap="round" stroke-linejoin="round"/>
<path d="M245.478 59.1082L249.978 62.2087" stroke="#00001F" stroke-width="2" stroke-linecap="round" stroke-linejoin="round"/>
<path d="M215.942 67.8975L232.827 45.3979" stroke="#00001F" stroke-width="2" stroke-linecap="round" stroke-linejoin="round"/>
<line x1="1" y1="339" x2="419" y2="339" stroke="#00001F" stroke-width="2" stroke-linecap="round" stroke-linejoin="round"/>
</svg>
