<svg width="173" height="150" viewBox="0 0 173 150" fill="none" xmlns="http://www.w3.org/2000/svg">
<g clip-path="url(#clip0_4084_5713)">
<path d="M151.588 93.3132C147.326 90.0993 138.974 93.9674 132.93 101.97C126.878 109.979 125.427 119.067 129.689 122.295C129.753 122.345 129.825 122.389 129.89 122.439C132.714 124.38 137.214 123.381 141.655 120.246C143.984 118.6 146.305 116.356 148.361 113.639C154.211 105.902 155.764 97.1453 152.012 93.6654C151.882 93.5432 151.746 93.4354 151.602 93.3203H151.595L151.588 93.3132Z" fill="#59BAFF"/>
<path d="M153.45 117.5C159.495 109.49 160.954 100.395 156.692 97.1741L151.999 93.6512C155.75 97.1454 154.198 105.895 148.347 113.639C146.299 116.356 143.978 118.6 141.642 120.246C137.2 123.381 132.701 124.387 129.877 122.439L129.855 122.461L134.778 126.149C137.509 128.212 141.915 127.364 146.328 124.38C148.8 122.712 151.273 120.368 153.436 117.492H153.443L153.45 117.5ZM141.663 120.289C141.663 120.289 141.685 120.275 141.692 120.275C141.692 120.282 141.671 120.289 141.671 120.289H141.663Z" fill="#59BAFF"/>
<path d="M129.855 122.475L134.778 126.163C137.509 128.226 141.915 127.378 146.328 124.394C148.8 122.719 151.273 120.375 153.436 117.506C159.488 109.497 160.939 100.409 156.677 97.181L151.999 93.658" stroke="#121212" stroke-width="1.5304" stroke-linecap="round" stroke-linejoin="round"/>
<path d="M129.876 122.439C129.812 122.396 129.74 122.345 129.675 122.295C125.413 119.081 126.872 109.979 132.916 101.97C138.961 93.9603 147.327 90.085 151.574 93.3132C151.718 93.4211 151.847 93.5361 151.984 93.6583C155.735 97.1382 154.183 105.895 148.333 113.639C146.284 116.356 143.963 118.6 141.627 120.246C137.193 123.381 132.694 124.387 129.862 122.439H129.869H129.876Z" stroke="#121212" stroke-width="1.5304" stroke-linecap="round" stroke-linejoin="round"/>
<path d="M145.853 95.3841C146.543 95.3338 147.176 95.4129 147.751 95.6214C148.081 95.7436 148.383 95.909 148.656 96.1175C151.682 98.4038 150.317 105.328 145.595 111.568C140.873 117.809 134.598 121.016 131.565 118.729C130.444 117.874 129.927 116.385 129.963 114.53C129.977 113.653 130.128 112.697 130.38 111.676" stroke="#121212" stroke-width="1.5304" stroke-linecap="round" stroke-linejoin="round"/>
<path d="M145.904 117.178L150.561 120.384" stroke="#121212" stroke-width="1.5304" stroke-linecap="round" stroke-linejoin="round"/>
<path d="M147.858 115.019L152.515 118.225" stroke="#121212" stroke-width="1.5304" stroke-linecap="round" stroke-linejoin="round"/>
<path d="M149.928 97.9281C151.028 101.056 149.404 106.527 145.595 111.567C140.873 117.815 134.598 121.014 131.565 118.728C131.314 118.534 131.091 118.304 130.897 118.045L149.921 97.9353H149.928V97.9281Z" fill="#121212"/>
<path d="M15.6922 15.0004C19.2786 11.046 28.205 13.2964 35.6365 20.0332C43.0752 26.77 46.1872 35.4337 42.608 39.3952C42.5577 39.4599 42.493 39.5175 42.4427 39.575C40.0278 42.0123 35.4209 41.8613 30.4761 39.6109C27.8744 38.4246 25.1792 36.6559 22.6637 34.3696C15.4766 27.8557 12.3214 19.5443 15.3616 15.4246C15.4694 15.2808 15.5772 15.1442 15.6994 15.0076H15.7066L15.6922 15.0004Z" fill="#59BAFF"/>
<path d="M18.3723 39.1079C21.0387 41.5308 23.8992 43.3714 26.6375 44.5505C31.5248 46.6643 36.0095 46.6787 38.3166 44.1407L42.4636 39.5968L42.442 39.5752C40.0271 42.0125 35.4202 41.8615 30.4754 39.6111C27.8737 38.4248 25.1785 36.6562 22.663 34.3698C15.4759 27.8559 12.3207 19.5445 15.3609 15.4248L11.408 19.753C7.82161 23.7074 10.948 32.3783 18.3795 39.1151H18.3867L18.3723 39.1079ZM30.4611 39.6543C30.4611 39.6543 30.4395 39.6543 30.4395 39.6399C30.4467 39.6399 30.4682 39.6471 30.4682 39.6471H30.4611V39.6543Z" fill="#59BAFF"/>
<path d="M42.4703 39.6043L38.3233 44.1482C36.0235 46.6862 31.5315 46.6718 26.6443 44.5581C23.8988 43.3717 21.0383 41.5312 18.3791 39.1154C10.9404 32.3786 7.82835 23.7149 11.4075 19.7534L15.3533 15.418" stroke="#121212" stroke-width="1.5304" stroke-linecap="round" stroke-linejoin="round"/>
<path d="M42.4492 39.5764C42.5067 39.5188 42.5642 39.4541 42.6145 39.3966C46.2009 35.4423 43.0745 26.7714 35.643 20.0346C28.2115 13.2906 19.2779 11.0402 15.6987 15.0018C15.5765 15.1312 15.4687 15.275 15.3609 15.4188C12.3279 19.5385 15.4831 27.8499 22.663 34.3638C25.1857 36.6501 27.8809 38.4188 30.4754 39.6051C35.4202 41.8627 40.0199 42.0065 42.442 39.5692H42.4348L42.4492 39.5764Z" stroke="#121212" stroke-width="1.5304" stroke-linecap="round" stroke-linejoin="round"/>
<path d="M21.7149 15.9714C21.0249 16.0505 20.4212 16.2446 19.8965 16.5609C19.5947 16.7407 19.3287 16.9636 19.0988 17.2152C16.5545 20.0264 19.185 26.5763 24.985 31.8248C30.785 37.0733 37.5481 39.0577 40.0995 36.2465C41.0482 35.1968 41.271 33.6438 40.8973 31.8176C40.7176 30.962 40.3942 30.0417 39.9558 29.0927" stroke="#121212" stroke-width="1.5304" stroke-linecap="round" stroke-linejoin="round"/>
<path d="M25.7175 37.3834L21.7358 41.4025" stroke="#121212" stroke-width="1.5304" stroke-linecap="round" stroke-linejoin="round"/>
<path d="M23.3962 35.6275L19.4146 39.6466" stroke="#121212" stroke-width="1.5304" stroke-linecap="round" stroke-linejoin="round"/>
<path d="M18.1848 19.2235C17.6889 22.502 20.305 27.5708 24.9838 31.8127C30.791 37.0756 37.5469 39.0456 40.0984 36.2344C40.3068 35.9972 40.4865 35.7312 40.6302 35.4364L18.192 19.2235H18.1848Z" fill="#121212"/>
<path d="M172.019 89.9847C171.027 89.5965 169.884 89.3592 168.971 88.8416C167.922 88.2448 166.858 87.5618 166.283 86.4977C165.715 85.4408 165.73 84.1754 165.759 82.9675" stroke="#121212" stroke-width="1.5304" stroke-linecap="round" stroke-linejoin="round"/>
<path d="M170.79 112.516L165.177 111.02" stroke="#121212" stroke-width="1.5304" stroke-linecap="round" stroke-linejoin="round"/>
<path d="M127.723 35.4015C129.319 31.4759 130.433 27.349 131.029 23.1502C131.504 19.8501 131.346 15.8454 128.535 14.0551C127.285 13.2571 125.725 13.0845 124.238 13.1492C122.52 13.2211 120.716 13.6381 119.487 14.8388C118.258 16.0395 117.855 18.2036 118.998 19.4906C120.119 20.7488 122.168 20.6697 123.663 19.9076C126.501 18.4624 128.004 15.0617 127.817 11.8838C127.63 8.69875 125.998 5.75095 123.921 3.33519" stroke="#121212" stroke-width="1.5304" stroke-linecap="round" stroke-linejoin="round"/>
<path d="M131.655 40.2787C134.616 37.1943 136.916 33.4772 138.361 29.4509" stroke="#121212" stroke-width="1.5304" stroke-linecap="round" stroke-linejoin="round"/>
<path d="M152.521 50.8341C153.657 50.8341 154.577 49.9134 154.577 48.7778C154.577 47.6422 153.657 46.7215 152.521 46.7215C151.386 46.7215 150.466 47.6422 150.466 48.7778C150.466 49.9134 151.386 50.8341 152.521 50.8341Z" stroke="#121212" stroke-width="1.5304" stroke-linecap="round" stroke-linejoin="round"/>
<path d="M135.946 52.8522C136.748 52.8522 137.398 52.2019 137.398 51.3998C137.398 50.5977 136.748 49.9475 135.946 49.9475C135.144 49.9475 134.494 50.5977 134.494 51.3998C134.494 52.2019 135.144 52.8522 135.946 52.8522Z" fill="#121212"/>
<path d="M24.4411 121.058C25.2429 121.058 25.8929 120.407 25.8929 119.605C25.8929 118.803 25.2429 118.153 24.4411 118.153C23.6392 118.153 22.9893 118.803 22.9893 119.605C22.9893 120.407 23.6392 121.058 24.4411 121.058Z" fill="#121212"/>
<path d="M1.11328 102.295L12.972 110.427" stroke="#121212" stroke-width="1.5304" stroke-linecap="round" stroke-linejoin="round"/>
<path d="M11.5639 100.772L2.52246 111.959" stroke="#121212" stroke-width="1.5304" stroke-linecap="round" stroke-linejoin="round"/>
<path d="M4.35498 99.6922L9.73095 113.036" stroke="#121212" stroke-width="1.5304" stroke-linecap="round" stroke-linejoin="round"/>
<mask id="path-27-inside-1_4084_5713" fill="white">
<path fill-rule="evenodd" clip-rule="evenodd" d="M88.9451 16.7766C86.3446 16.9645 83.7415 18.5369 78.5354 21.6816L70.0125 26.8298L63.4259 25.2038C57.5209 23.7462 54.5684 23.0174 52.0293 23.6098C49.7959 24.1309 47.7847 25.3457 46.2841 27.0801C44.5782 29.0518 43.8494 32.0044 42.3917 37.9094L40.7658 44.496L32.2431 49.644C27.037 52.7888 24.4339 54.3611 23.0574 56.5755C21.8466 58.5232 21.2835 60.8043 21.4488 63.0918C21.6368 65.6923 23.2091 68.2954 26.3539 73.5016L31.5019 82.0242L29.8762 88.6102C28.4185 94.5152 27.6897 97.4677 28.2821 100.007C28.8032 102.24 30.018 104.251 31.7524 105.752C33.7242 107.458 36.6767 108.187 42.5817 109.644L49.1677 111.27L54.3163 119.794C57.461 125 59.0334 127.603 61.2477 128.98C63.1955 130.19 65.4766 130.753 67.764 130.588C70.3645 130.4 72.9676 128.828 78.1738 125.683L86.6974 120.534L93.2825 122.16C99.1875 123.618 102.14 124.346 104.679 123.754C106.913 123.233 108.924 122.018 110.424 120.284C112.13 118.312 112.859 115.359 114.317 109.454L115.942 102.869L124.466 97.7207L124.466 97.7206C129.672 94.5759 132.275 93.0035 133.652 90.7892C134.863 88.8414 135.426 86.5603 135.26 84.2729C135.072 81.6724 133.5 79.0693 130.355 73.8631L125.207 65.3393L126.832 58.7536C128.29 52.8486 129.019 49.8961 128.426 47.357C127.905 45.1235 126.69 43.1124 124.956 41.6118C122.984 39.9059 120.032 39.1771 114.127 37.7194L107.541 36.0937L102.393 27.5709C99.2482 22.3647 97.6758 19.7616 95.4615 18.3851C93.5137 17.1743 91.2326 16.6113 88.9451 16.7766Z"/>
</mask>
<path fill-rule="evenodd" clip-rule="evenodd" d="M88.9451 16.7766C86.3446 16.9645 83.7415 18.5369 78.5354 21.6816L70.0125 26.8298L63.4259 25.2038C57.5209 23.7462 54.5684 23.0174 52.0293 23.6098C49.7959 24.1309 47.7847 25.3457 46.2841 27.0801C44.5782 29.0518 43.8494 32.0044 42.3917 37.9094L40.7658 44.496L32.2431 49.644C27.037 52.7888 24.4339 54.3611 23.0574 56.5755C21.8466 58.5232 21.2835 60.8043 21.4488 63.0918C21.6368 65.6923 23.2091 68.2954 26.3539 73.5016L31.5019 82.0242L29.8762 88.6102C28.4185 94.5152 27.6897 97.4677 28.2821 100.007C28.8032 102.24 30.018 104.251 31.7524 105.752C33.7242 107.458 36.6767 108.187 42.5817 109.644L49.1677 111.27L54.3163 119.794C57.461 125 59.0334 127.603 61.2477 128.98C63.1955 130.19 65.4766 130.753 67.764 130.588C70.3645 130.4 72.9676 128.828 78.1738 125.683L86.6974 120.534L93.2825 122.16C99.1875 123.618 102.14 124.346 104.679 123.754C106.913 123.233 108.924 122.018 110.424 120.284C112.13 118.312 112.859 115.359 114.317 109.454L115.942 102.869L124.466 97.7207L124.466 97.7206C129.672 94.5759 132.275 93.0035 133.652 90.7892C134.863 88.8414 135.426 86.5603 135.26 84.2729C135.072 81.6724 133.5 79.0693 130.355 73.8631L125.207 65.3393L126.832 58.7536C128.29 52.8486 129.019 49.8961 128.426 47.357C127.905 45.1235 126.69 43.1124 124.956 41.6118C122.984 39.9059 120.032 39.1771 114.127 37.7194L107.541 36.0937L102.393 27.5709C99.2482 22.3647 97.6758 19.7616 95.4615 18.3851C93.5137 17.1743 91.2326 16.6113 88.9451 16.7766Z" fill="#0E80C6"/>
<path d="M78.5354 21.6816L79.4402 23.1796L78.5354 21.6816ZM88.9451 16.7766L88.819 15.0311L88.9451 16.7766ZM70.0125 26.8298L69.5931 28.5288L70.2969 28.7025L70.9174 28.3277L70.0125 26.8298ZM63.4259 25.2038L63.8453 23.5048L63.4259 25.2038ZM52.0293 23.6098L52.4269 25.314L52.0293 23.6098ZM46.2841 27.0801L47.6076 28.2251L46.2841 27.0801ZM40.7658 44.496L41.6706 45.9939L42.2911 45.6191L42.4648 44.9154L40.7658 44.496ZM32.2431 49.644L33.148 51.1419L32.2431 49.644ZM23.0574 56.5755L24.5436 57.4993L23.0574 56.5755ZM21.4488 63.0918L23.1943 62.9656L21.4488 63.0918ZM26.3539 73.5016L27.8518 72.5967L26.3539 73.5016ZM31.5019 82.0242L33.2009 82.4436L33.3746 81.7399L32.9998 81.1194L31.5019 82.0242ZM29.8762 88.6102L31.5752 89.0296L29.8762 88.6102ZM28.2821 100.007L26.5779 100.404L28.2821 100.007ZM31.7524 105.752L32.8974 104.429L31.7524 105.752ZM42.5817 109.644L43.0011 107.945L42.5817 109.644ZM49.1677 111.27L50.6656 110.365L50.2908 109.745L49.5871 109.571L49.1677 111.27ZM61.2477 128.98L60.3238 130.466L61.2477 128.98ZM67.764 130.588L67.8902 132.334L67.764 130.588ZM78.1738 125.683L79.0786 127.181L78.1738 125.683ZM86.6974 120.534L87.1168 118.835L86.4131 118.662L85.7926 119.036L86.6974 120.534ZM93.2825 122.16L92.8631 123.859L93.2825 122.16ZM104.679 123.754L105.077 125.458L104.679 123.754ZM110.424 120.284L111.748 121.429L110.424 120.284ZM114.317 109.454L116.016 109.874L114.317 109.454ZM115.942 102.869L115.037 101.371L114.417 101.746L114.243 102.45L115.942 102.869ZM124.466 97.7207L125.371 99.2186L124.466 97.7207ZM124.466 97.7206L123.561 96.2227L124.466 97.7206ZM133.652 90.7892L135.138 91.7131L133.652 90.7892ZM135.26 84.2729L133.515 84.399L135.26 84.2729ZM130.355 73.8631L131.853 72.9583L130.355 73.8631ZM125.207 65.3393L123.508 64.9199L123.334 65.6237L123.709 66.2441L125.207 65.3393ZM126.832 58.7536L128.531 59.173L126.832 58.7536ZM128.426 47.357L130.131 46.9594L128.426 47.357ZM124.956 41.6118L126.101 40.2884L124.956 41.6118ZM114.127 37.7194L114.546 36.0204L114.127 37.7194ZM107.541 36.0937L106.043 36.9985L106.418 37.619L107.122 37.7927L107.541 36.0937ZM102.393 27.5709L100.895 28.4757L102.393 27.5709ZM95.4615 18.3851L96.3854 16.8989L95.4615 18.3851ZM79.4402 23.1796C82.068 21.5923 83.9494 20.4574 85.4972 19.6869C87.0266 18.9257 88.0932 18.5927 89.0713 18.522L88.819 15.0311C87.1965 15.1484 85.6614 15.6956 83.9375 16.5537C82.2321 17.4026 80.2089 18.6263 77.6305 20.1837L79.4402 23.1796ZM70.9174 28.3277L79.4402 23.1796L77.6305 20.1837L69.1077 25.3318L70.9174 28.3277ZM63.0065 26.9028L69.5931 28.5288L70.4319 25.1308L63.8453 23.5048L63.0065 26.9028ZM52.4269 25.314C53.3819 25.0912 54.4993 25.0925 56.1857 25.3655C57.8924 25.6418 60.026 26.1671 63.0065 26.9028L63.8453 23.5048C60.9208 22.7829 58.6256 22.215 56.745 21.9105C54.8442 21.6028 53.2158 21.536 51.6317 21.9056L52.4269 25.314ZM47.6076 28.2251C48.8663 26.7702 50.5534 25.7512 52.4269 25.314L51.6317 21.9056C49.0383 22.5107 46.7031 23.9212 44.9607 25.9351L47.6076 28.2251ZM44.0907 38.3288C44.8265 35.3482 45.3544 33.2153 45.904 31.5761C46.4472 29.9563 46.9659 28.9667 47.6076 28.2251L44.9607 25.9351C43.8964 27.1652 43.1978 28.6377 42.5856 30.4634C41.9799 32.2696 41.4146 34.5655 40.6927 37.49L44.0907 38.3288ZM42.4648 44.9154L44.0907 38.3288L40.6927 37.49L39.0668 44.0766L42.4648 44.9154ZM33.148 51.1419L41.6706 45.9939L39.861 42.9981L31.3383 48.1461L33.148 51.1419ZM24.5436 57.4993C25.0613 56.6665 25.8524 55.8774 27.2379 54.8779C28.6401 53.8665 30.5202 52.7293 33.148 51.1419L31.3383 48.1461C28.76 49.7035 26.7354 50.9248 25.1903 52.0394C23.6287 53.1659 22.4299 54.2701 21.5711 55.6516L24.5436 57.4993ZM23.1943 62.9656C23.0556 61.0468 23.5279 59.1333 24.5436 57.4993L21.5711 55.6516C20.1652 57.9132 19.5114 60.5619 19.7034 63.2179L23.1943 62.9656ZM27.8518 72.5967C26.2645 69.9689 25.1296 68.0875 24.3592 66.5397C23.5979 65.0103 23.265 63.9437 23.1943 62.9656L19.7034 63.2179C19.8206 64.8404 20.3679 66.3756 21.2259 68.0994C22.0748 69.8048 23.2985 71.828 24.856 74.4064L27.8518 72.5967ZM32.9998 81.1194L27.8518 72.5967L24.856 74.4064L30.004 82.929L32.9998 81.1194ZM31.5752 89.0296L33.2009 82.4436L29.8029 81.6048L28.1772 88.1908L31.5752 89.0296ZM29.9863 99.6092C29.7635 98.6542 29.7649 97.5368 30.0379 95.8504C30.3141 94.1437 30.8394 92.0102 31.5752 89.0296L28.1772 88.1908C27.4553 91.1153 26.8873 93.4105 26.5828 95.2911C26.2751 97.1919 26.2083 98.8203 26.5779 100.404L29.9863 99.6092ZM32.8974 104.429C31.4425 103.17 30.4235 101.483 29.9863 99.6092L26.5779 100.404C27.183 102.998 28.5935 105.333 30.6074 107.075L32.8974 104.429ZM43.0011 107.945C40.0205 107.21 37.8876 106.682 36.2484 106.132C34.6287 105.589 33.639 105.07 32.8974 104.429L30.6074 107.075C31.8376 108.14 33.31 108.838 35.1357 109.45C36.9419 110.056 39.2378 110.621 42.1623 111.343L43.0011 107.945ZM49.5871 109.571L43.0011 107.945L42.1623 111.343L48.7483 112.969L49.5871 109.571ZM55.8142 118.889L50.6656 110.365L47.6697 112.175L52.8183 120.699L55.8142 118.889ZM62.1716 127.493C61.3388 126.976 60.5496 126.185 59.5502 124.799C58.5387 123.397 57.4015 121.517 55.8142 118.889L52.8183 120.699C54.3758 123.277 55.5971 125.302 56.7116 126.847C57.8381 128.408 58.9423 129.607 60.3238 130.466L62.1716 127.493ZM67.6379 128.843C65.719 128.981 63.8055 128.509 62.1716 127.493L60.3238 130.466C62.5855 131.872 65.2341 132.525 67.8902 132.334L67.6379 128.843ZM77.269 124.185C74.6412 125.772 72.7597 126.907 71.212 127.678C69.6826 128.439 68.616 128.772 67.6379 128.843L67.8902 132.334C69.5126 132.216 71.0478 131.669 72.7716 130.811C74.4771 129.962 76.5003 128.738 79.0786 127.181L77.269 124.185ZM85.7926 119.036L77.269 124.185L79.0786 127.181L87.6022 122.032L85.7926 119.036ZM93.7019 120.461L87.1168 118.835L86.278 122.233L92.8631 123.859L93.7019 120.461ZM104.281 122.05C103.326 122.273 102.209 122.271 100.523 121.998C98.816 121.722 96.6825 121.197 93.7019 120.461L92.8631 123.859C95.7876 124.581 98.0828 125.149 99.9634 125.453C101.864 125.761 103.493 125.828 105.077 125.458L104.281 122.05ZM109.101 119.139C107.842 120.594 106.155 121.613 104.281 122.05L105.077 125.458C107.67 124.853 110.005 123.443 111.748 121.429L109.101 119.139ZM112.618 109.035C111.882 112.016 111.354 114.148 110.804 115.788C110.261 117.407 109.742 118.397 109.101 119.139L111.748 121.429C112.812 120.199 113.511 118.726 114.123 116.9C114.728 115.094 115.294 112.798 116.016 109.874L112.618 109.035ZM114.243 102.45L112.618 109.035L116.016 109.874L117.641 103.289L114.243 102.45ZM123.561 96.2227L115.037 101.371L116.847 104.367L125.371 99.2186L123.561 96.2227ZM123.561 96.2227L123.561 96.2227L125.371 99.2186L125.371 99.2185L123.561 96.2227ZM132.166 89.8653C131.648 90.6981 130.857 91.4873 129.471 92.4867C128.069 93.4982 126.189 94.6354 123.561 96.2227L125.371 99.2185C127.949 97.6611 129.974 96.4398 131.519 95.3253C133.08 94.1988 134.279 93.0946 135.138 91.7131L132.166 89.8653ZM133.515 84.399C133.654 86.3179 133.181 88.2314 132.166 89.8653L135.138 91.7131C136.544 89.4515 137.198 86.8028 137.006 84.1467L133.515 84.399ZM128.857 74.7679C130.445 77.3957 131.58 79.2772 132.35 80.8249C133.111 82.3544 133.444 83.421 133.515 84.399L137.006 84.1467C136.889 82.5243 136.341 80.9891 135.483 79.2653C134.634 77.5598 133.411 75.5367 131.853 72.9583L128.857 74.7679ZM123.709 66.2441L128.857 74.7679L131.853 72.9583L126.705 64.4345L123.709 66.2441ZM125.133 58.3342L123.508 64.9199L126.906 65.7587L128.531 59.173L125.133 58.3342ZM126.722 47.7546C126.945 48.7096 126.944 49.827 126.671 51.5134C126.394 53.2201 125.869 55.3536 125.133 58.3342L128.531 59.173C129.253 56.2485 129.821 53.9533 130.126 52.0727C130.433 50.1719 130.5 48.5435 130.131 46.9594L126.722 47.7546ZM123.811 42.9352C125.266 44.194 126.285 45.8811 126.722 47.7546L130.131 46.9594C129.525 44.366 128.115 42.0308 126.101 40.2884L123.811 42.9352ZM113.707 39.4184C116.688 40.1542 118.821 40.6821 120.46 41.2317C122.08 41.7749 123.069 42.2936 123.811 42.9352L126.101 40.2884C124.871 39.2241 123.398 38.5255 121.573 37.9133C119.766 37.3076 117.471 36.7423 114.546 36.0204L113.707 39.4184ZM107.122 37.7927L113.707 39.4184L114.546 36.0204L107.96 34.3947L107.122 37.7927ZM100.895 28.4757L106.043 36.9985L109.039 35.1889L103.891 26.6661L100.895 28.4757ZM94.5376 19.8714C95.3704 20.3891 96.1595 21.1801 97.159 22.5657C98.1704 23.9678 99.3077 25.8479 100.895 28.4757L103.891 26.6661C102.333 24.0877 101.112 22.0631 99.9975 20.5181C98.8711 18.9564 97.7669 17.7577 96.3854 16.8989L94.5376 19.8714ZM89.0713 18.522C90.9901 18.3833 92.9037 18.8557 94.5376 19.8714L96.3854 16.8989C94.1237 15.493 91.4751 14.8392 88.819 15.0311L89.0713 18.522Z" fill="#121212" mask="url(#path-27-inside-1_4084_5713)"/>
<mask id="path-29-inside-2_4084_5713" fill="white">
<path fill-rule="evenodd" clip-rule="evenodd" d="M85.1678 9.23983C82.5673 9.42777 79.9642 11.0001 74.758 14.1449L66.2352 19.293L59.6486 17.6671C53.7436 16.2095 50.791 15.4806 48.252 16.0731C46.0185 16.5942 44.0074 17.809 42.5068 19.5434C40.8009 21.5151 40.072 24.4676 38.6144 30.3726L36.9885 36.9593L28.4658 42.1073C23.2596 45.252 20.6565 46.8244 19.28 49.0387C18.0693 50.9865 17.5062 53.2676 17.6715 55.555C17.8594 58.1555 19.4318 60.7586 22.5765 65.9648L27.7246 74.4875L26.0988 81.0735C24.6412 86.9785 23.9123 89.931 24.5048 92.4701C25.0259 94.7035 26.2407 96.7146 27.9751 98.2152C29.9468 99.9212 32.8993 100.65 38.8043 102.108L45.3903 103.733L50.5389 112.257C53.6837 117.463 55.2561 120.066 57.4704 121.443C59.4181 122.654 61.6992 123.217 63.9867 123.051C66.5872 122.863 69.1903 121.291 74.3965 118.146L82.9201 112.998L89.5052 114.623C95.4102 116.081 98.3627 116.81 100.902 116.217C103.135 115.696 105.146 114.481 106.647 112.747C108.353 110.775 109.082 107.823 110.539 101.918L112.165 95.3326L120.689 90.1839L120.689 90.1839C125.895 87.0392 128.498 85.4668 129.874 83.2525C131.085 81.3047 131.648 79.0236 131.483 76.7361C131.295 74.1356 129.723 71.5325 126.578 66.3264L121.429 57.8026L123.055 51.2168C124.513 45.3118 125.241 42.3593 124.649 39.8203C124.128 37.5868 122.913 35.5757 121.179 34.0751C119.207 32.3692 116.254 31.6403 110.349 30.1827L103.764 28.557L98.6156 20.0341C95.4708 14.828 93.8984 12.2249 91.6841 10.8484C89.7363 9.6376 87.4553 9.07451 85.1678 9.23983Z"/>
</mask>
<path fill-rule="evenodd" clip-rule="evenodd" d="M85.1678 9.23983C82.5673 9.42777 79.9642 11.0001 74.758 14.1449L66.2352 19.293L59.6486 17.6671C53.7436 16.2095 50.791 15.4806 48.252 16.0731C46.0185 16.5942 44.0074 17.809 42.5068 19.5434C40.8009 21.5151 40.072 24.4676 38.6144 30.3726L36.9885 36.9593L28.4658 42.1073C23.2596 45.252 20.6565 46.8244 19.28 49.0387C18.0693 50.9865 17.5062 53.2676 17.6715 55.555C17.8594 58.1555 19.4318 60.7586 22.5765 65.9648L27.7246 74.4875L26.0988 81.0735C24.6412 86.9785 23.9123 89.931 24.5048 92.4701C25.0259 94.7035 26.2407 96.7146 27.9751 98.2152C29.9468 99.9212 32.8993 100.65 38.8043 102.108L45.3903 103.733L50.5389 112.257C53.6837 117.463 55.2561 120.066 57.4704 121.443C59.4181 122.654 61.6992 123.217 63.9867 123.051C66.5872 122.863 69.1903 121.291 74.3965 118.146L82.9201 112.998L89.5052 114.623C95.4102 116.081 98.3627 116.81 100.902 116.217C103.135 115.696 105.146 114.481 106.647 112.747C108.353 110.775 109.082 107.823 110.539 101.918L112.165 95.3326L120.689 90.1839L120.689 90.1839C125.895 87.0392 128.498 85.4668 129.874 83.2525C131.085 81.3047 131.648 79.0236 131.483 76.7361C131.295 74.1356 129.723 71.5325 126.578 66.3264L121.429 57.8026L123.055 51.2168C124.513 45.3118 125.241 42.3593 124.649 39.8203C124.128 37.5868 122.913 35.5757 121.179 34.0751C119.207 32.3692 116.254 31.6403 110.349 30.1827L103.764 28.557L98.6156 20.0341C95.4708 14.828 93.8984 12.2249 91.6841 10.8484C89.7363 9.6376 87.4553 9.07451 85.1678 9.23983Z" fill="#C1E9FF"/>
<path d="M74.758 14.1449L75.6628 15.6428L74.758 14.1449ZM85.1678 9.23983L85.0416 7.49439L85.1678 9.23983ZM66.2352 19.293L65.8158 20.992L66.5195 21.1657L67.14 20.791L66.2352 19.293ZM59.6486 17.6671L59.2292 19.3661L59.6486 17.6671ZM48.252 16.0731L48.6496 17.7773L48.252 16.0731ZM42.5068 19.5434L43.8302 20.6884L42.5068 19.5434ZM38.6144 30.3726L36.9154 29.9532L38.6144 30.3726ZM36.9885 36.9593L37.8933 38.4572L38.5137 38.0824L38.6875 37.3787L36.9885 36.9593ZM28.4658 42.1073L29.3706 43.6052L28.4658 42.1073ZM19.28 49.0387L20.7663 49.9626L19.28 49.0387ZM17.6715 55.555L19.4169 55.4289L17.6715 55.555ZM22.5765 65.9648L24.0745 65.06L22.5765 65.9648ZM27.7246 74.4875L29.4236 74.9069L29.5973 74.2031L29.2225 73.5826L27.7246 74.4875ZM26.0988 81.0735L27.7978 81.4929L26.0988 81.0735ZM24.5048 92.4701L22.8005 92.8677L24.5048 92.4701ZM27.9751 98.2152L29.1201 96.8918L27.9751 98.2152ZM45.3903 103.733L46.8882 102.829L46.5135 102.208L45.8097 102.034L45.3903 103.733ZM57.4704 121.443L56.5465 122.929L57.4704 121.443ZM63.9867 123.051L64.1129 124.797L63.9867 123.051ZM74.3965 118.146L73.4917 116.648L74.3965 118.146ZM82.9201 112.998L83.3395 111.299L82.6357 111.125L82.0153 111.5L82.9201 112.998ZM89.5052 114.623L89.9246 112.924L89.5052 114.623ZM100.902 116.217L101.299 117.921L100.902 116.217ZM106.647 112.747L107.97 113.892L106.647 112.747ZM110.539 101.918L112.238 102.337L110.539 101.918ZM112.165 95.3326L111.26 93.8347L110.64 94.2095L110.466 94.9132L112.165 95.3326ZM120.689 90.1839L121.593 91.6818L120.689 90.1839ZM120.689 90.1839L119.784 88.6859L120.689 90.1839ZM129.874 83.2525L131.361 84.1764L129.874 83.2525ZM131.483 76.7361L129.738 76.8623L131.483 76.7361ZM126.578 66.3264L128.076 65.4215L126.578 66.3264ZM121.429 57.8026L119.73 57.3832L119.556 58.0869L119.931 58.7074L121.429 57.8026ZM123.055 51.2168L124.754 51.6362L123.055 51.2168ZM124.649 39.8203L126.353 39.4226L124.649 39.8203ZM121.179 34.0751L122.324 32.7517L121.179 34.0751ZM103.764 28.557L102.266 29.4618L102.641 30.0823L103.344 30.256L103.764 28.557ZM98.6156 20.0341L97.1176 20.939L98.6156 20.0341ZM91.6841 10.8484L92.608 9.36215L91.6841 10.8484ZM75.6628 15.6428C78.2906 14.0555 80.1721 12.9206 81.7199 12.1502C83.2493 11.3889 84.3159 11.056 85.2939 10.9853L85.0416 7.49439C83.4192 7.61164 81.884 8.15886 80.1602 9.01692C78.4547 9.86585 76.4316 11.0895 73.8532 12.647L75.6628 15.6428ZM67.14 20.791L75.6628 15.6428L73.8532 12.647L65.3304 17.7951L67.14 20.791ZM59.2292 19.3661L65.8158 20.992L66.6546 17.594L60.068 15.9681L59.2292 19.3661ZM48.6496 17.7773C49.6046 17.5545 50.7219 17.5558 52.4084 17.8288C54.1151 18.1051 56.2486 18.6304 59.2292 19.3661L60.068 15.9681C57.1435 15.2462 54.8483 14.6782 52.9677 14.3738C51.0669 14.0661 49.4384 13.9992 47.8543 14.3688L48.6496 17.7773ZM43.8302 20.6884C45.089 19.2335 46.7761 18.2144 48.6496 17.7773L47.8543 14.3688C45.261 14.9739 42.9258 16.3845 41.1834 18.3984L43.8302 20.6884ZM40.3134 30.792C41.0491 27.8115 41.577 25.6786 42.1267 24.0394C42.6698 22.4196 43.1886 21.43 43.8302 20.6884L41.1834 18.3984C40.1191 19.6285 39.4205 21.101 38.8083 22.9267C38.2026 24.7329 37.6373 27.0288 36.9154 29.9532L40.3134 30.792ZM38.6875 37.3787L40.3134 30.792L36.9154 29.9532L35.2895 36.5399L38.6875 37.3787ZM29.3706 43.6052L37.8933 38.4572L36.0836 35.4613L27.561 40.6093L29.3706 43.6052ZM20.7663 49.9626C21.284 49.1298 22.075 48.3406 23.4606 47.3412C24.8628 46.3297 26.7428 45.1925 29.3706 43.6052L27.561 40.6093C24.9826 42.1668 22.958 43.3881 21.413 44.5026C19.8513 45.6291 18.6526 46.7333 17.7938 48.1148L20.7663 49.9626ZM19.4169 55.4289C19.2783 53.51 19.7506 51.5965 20.7663 49.9626L17.7938 48.1148C16.3879 50.3765 15.7341 53.0251 15.926 55.6812L19.4169 55.4289ZM24.0745 65.06C22.4872 62.4322 21.3523 60.5507 20.5819 59.003C19.8206 57.4736 19.4876 56.407 19.4169 55.4289L15.926 55.6812C16.0433 57.3036 16.5905 58.8388 17.4486 60.5626C18.2975 62.2681 19.5212 64.2913 21.0786 66.8696L24.0745 65.06ZM29.2225 73.5826L24.0745 65.06L21.0786 66.8696L26.2266 75.3923L29.2225 73.5826ZM27.7978 81.4929L29.4236 74.9069L26.0256 74.0681L24.3998 80.6541L27.7978 81.4929ZM26.209 92.0724C25.9862 91.1175 25.9875 90.0001 26.2605 88.3136C26.5368 86.607 27.0621 84.4734 27.7978 81.4929L24.3998 80.6541C23.6779 83.5785 23.1099 85.8737 22.8055 87.7543C22.4978 89.6551 22.4309 91.2836 22.8005 92.8677L26.209 92.0724ZM29.1201 96.8918C27.6652 95.633 26.6461 93.946 26.209 92.0724L22.8005 92.8677C23.4056 95.461 24.8162 97.7962 26.8301 99.5386L29.1201 96.8918ZM39.2237 100.409C36.2432 99.6729 34.1103 99.145 32.4711 98.5953C30.8513 98.0522 29.8617 97.5334 29.1201 96.8918L26.8301 99.5386C28.0602 100.603 29.5327 101.302 31.3584 101.914C33.1646 102.519 35.4605 103.085 38.3849 103.807L39.2237 100.409ZM45.8097 102.034L39.2237 100.409L38.3849 103.807L44.9709 105.432L45.8097 102.034ZM52.0369 111.352L46.8882 102.829L43.8924 104.638L49.041 113.162L52.0369 111.352ZM58.3943 119.957C57.5614 119.439 56.7723 118.648 55.7728 117.262C54.7614 115.86 53.6242 113.98 52.0369 111.352L49.041 113.162C50.5984 115.74 51.8198 117.765 52.9343 119.31C54.0608 120.872 55.165 122.07 56.5465 122.929L58.3943 119.957ZM63.8605 121.306C61.9417 121.445 60.0282 120.972 58.3943 119.957L56.5465 122.929C58.8081 124.335 61.4568 124.989 64.1129 124.797L63.8605 121.306ZM73.4917 116.648C70.8638 118.236 68.9824 119.371 67.4346 120.141C65.9052 120.902 64.8386 121.235 63.8605 121.306L64.1129 124.797C65.7353 124.68 67.2705 124.132 68.9943 123.274C70.6998 122.425 72.7229 121.202 75.3013 119.644L73.4917 116.648ZM82.0153 111.5L73.4917 116.648L75.3013 119.644L83.8249 114.496L82.0153 111.5ZM89.9246 112.924L83.3395 111.299L82.5007 114.697L89.0858 116.322L89.9246 112.924ZM100.504 114.513C99.5492 114.736 98.4318 114.735 96.7453 114.461C95.0387 114.185 92.9051 113.66 89.9246 112.924L89.0858 116.322C92.0102 117.044 94.3054 117.612 96.186 117.917C98.0869 118.224 99.7153 118.291 101.299 117.921L100.504 114.513ZM105.324 111.602C104.065 113.057 102.378 114.076 100.504 114.513L101.299 117.921C103.893 117.316 106.228 115.906 107.97 113.892L105.324 111.602ZM108.84 101.498C108.105 104.479 107.577 106.612 107.027 108.251C106.484 109.871 105.965 110.86 105.324 111.602L107.97 113.892C109.035 112.662 109.733 111.189 110.345 109.364C110.951 107.557 111.516 105.262 112.238 102.337L108.84 101.498ZM110.466 94.9132L108.84 101.498L112.238 102.337L113.864 95.752L110.466 94.9132ZM119.784 88.686L111.26 93.8347L113.07 96.8306L121.593 91.6818L119.784 88.686ZM119.784 88.6859L119.784 88.686L121.593 91.6818L121.594 91.6818L119.784 88.6859ZM128.388 82.3286C127.87 83.1614 127.079 83.9505 125.694 84.95C124.292 85.9614 122.412 87.0986 119.784 88.6859L121.594 91.6818C124.172 90.1244 126.196 88.903 127.742 87.7885C129.303 86.662 130.502 85.5579 131.361 84.1764L128.388 82.3286ZM129.738 76.8623C129.876 78.7811 129.404 80.6947 128.388 82.3286L131.361 84.1764C132.767 81.9147 133.42 79.2661 133.228 76.61L129.738 76.8623ZM125.08 67.2312C126.667 69.859 127.802 71.7405 128.573 73.2882C129.334 74.8176 129.667 75.8842 129.738 76.8623L133.228 76.61C133.111 74.9875 132.564 73.4524 131.706 71.7285C130.857 70.0231 129.633 67.9999 128.076 65.4215L125.08 67.2312ZM119.931 58.7074L125.08 67.2312L128.076 65.4215L122.927 56.8978L119.931 58.7074ZM121.356 50.7974L119.73 57.3832L123.128 58.222L124.754 51.6362L121.356 50.7974ZM122.945 40.2179C123.168 41.1729 123.166 42.2902 122.893 43.9767C122.617 45.6834 122.092 47.8169 121.356 50.7974L124.754 51.6362C125.476 48.7118 126.044 46.4166 126.348 44.536C126.656 42.6352 126.723 41.0067 126.353 39.4226L122.945 40.2179ZM120.034 35.3985C121.489 36.6573 122.508 38.3444 122.945 40.2179L126.353 39.4226C125.748 36.8293 124.338 34.4941 122.324 32.7517L120.034 35.3985ZM109.93 31.8817C112.911 32.6174 115.043 33.1453 116.683 33.695C118.302 34.2381 119.292 34.7569 120.034 35.3985L122.324 32.7517C121.094 31.6873 119.621 30.9887 117.795 30.3766C115.989 29.7709 113.693 29.2056 110.769 28.4837L109.93 31.8817ZM103.344 30.256L109.93 31.8817L110.769 28.4837L104.183 26.858L103.344 30.256ZM97.1176 20.939L102.266 29.4618L105.262 27.6522L100.113 19.1293L97.1176 20.939ZM90.7602 12.3346C91.593 12.8523 92.3822 13.6434 93.3816 15.0289C94.3931 16.4311 95.5303 18.3112 97.1176 20.939L100.113 19.1293C98.5561 16.551 97.3347 14.5264 96.2202 12.9813C95.0937 11.4197 93.9895 10.2209 92.608 9.36215L90.7602 12.3346ZM85.2939 10.9853C87.2128 10.8466 89.1263 11.319 90.7602 12.3346L92.608 9.36215C90.3464 7.95625 87.6977 7.30243 85.0416 7.49439L85.2939 10.9853Z" fill="#121212" mask="url(#path-29-inside-2_4084_5713)"/>
<mask id="path-31-inside-3_4084_5713" fill="white">
<path fill-rule="evenodd" clip-rule="evenodd" d="M84.5763 17.9032C83.1396 18.007 81.7014 18.8757 78.8251 20.6132L67.6698 27.3515L57.5679 24.8578C54.3056 24.0525 52.6744 23.6498 51.2716 23.9771C50.0376 24.2651 48.9265 24.9362 48.0975 25.8944C47.155 26.9838 46.7523 28.615 45.947 31.8773L43.4534 41.9791L32.2985 48.7172C29.4222 50.4546 27.984 51.3233 27.2235 52.5466C26.5546 53.6227 26.2435 54.883 26.3348 56.1468C26.4387 57.5835 27.3074 59.0216 29.0448 61.8979L35.7828 73.0528L33.2892 83.1546C32.4838 86.417 32.0812 88.0482 32.4085 89.4509C32.6964 90.6849 33.3676 91.796 34.3258 92.625C35.4151 93.5675 37.0463 93.9702 40.3087 94.7755L50.4104 97.2691L57.1488 108.425C58.8862 111.301 59.7549 112.739 60.9783 113.5C62.0544 114.168 63.3146 114.48 64.5784 114.388C66.0151 114.284 67.4533 113.416 70.3296 111.678L81.485 104.94L91.5859 107.433C94.8483 108.239 96.4795 108.641 97.8823 108.314C99.1162 108.026 100.227 107.355 101.056 106.397C101.999 105.307 102.402 103.676 103.207 100.414L105.7 90.313L116.856 83.5743C119.733 81.8369 121.171 80.9682 121.931 79.7448C122.6 78.6687 122.911 77.4085 122.82 76.1447C122.716 74.708 121.847 73.2698 120.11 70.3935L113.371 59.2375L115.865 49.1366C116.67 45.8742 117.073 44.243 116.745 42.8402C116.457 41.6063 115.786 40.4952 114.828 39.6661C113.739 38.7236 112.108 38.321 108.845 37.5157L98.7442 35.0222L92.0059 23.8669C90.2685 20.9905 89.3998 19.5524 88.1765 18.7919C87.1003 18.123 85.8401 17.8119 84.5763 17.9032Z"/>
</mask>
<path fill-rule="evenodd" clip-rule="evenodd" d="M84.5763 17.9032C83.1396 18.007 81.7014 18.8757 78.8251 20.6132L67.6698 27.3515L57.5679 24.8578C54.3056 24.0525 52.6744 23.6498 51.2716 23.9771C50.0376 24.2651 48.9265 24.9362 48.0975 25.8944C47.155 26.9838 46.7523 28.615 45.947 31.8773L43.4534 41.9791L32.2985 48.7172C29.4222 50.4546 27.984 51.3233 27.2235 52.5466C26.5546 53.6227 26.2435 54.883 26.3348 56.1468C26.4387 57.5835 27.3074 59.0216 29.0448 61.8979L35.7828 73.0528L33.2892 83.1546C32.4838 86.417 32.0812 88.0482 32.4085 89.4509C32.6964 90.6849 33.3676 91.796 34.3258 92.625C35.4151 93.5675 37.0463 93.9702 40.3087 94.7755L50.4104 97.2691L57.1488 108.425C58.8862 111.301 59.7549 112.739 60.9783 113.5C62.0544 114.168 63.3146 114.48 64.5784 114.388C66.0151 114.284 67.4533 113.416 70.3296 111.678L81.485 104.94L91.5859 107.433C94.8483 108.239 96.4795 108.641 97.8823 108.314C99.1162 108.026 100.227 107.355 101.056 106.397C101.999 105.307 102.402 103.676 103.207 100.414L105.7 90.313L116.856 83.5743C119.733 81.8369 121.171 80.9682 121.931 79.7448C122.6 78.6687 122.911 77.4085 122.82 76.1447C122.716 74.708 121.847 73.2698 120.11 70.3935L113.371 59.2375L115.865 49.1366C116.67 45.8742 117.073 44.243 116.745 42.8402C116.457 41.6063 115.786 40.4952 114.828 39.6661C113.739 38.7236 112.108 38.321 108.845 37.5157L98.7442 35.0222L92.0059 23.8669C90.2685 20.9905 89.3998 19.5524 88.1765 18.7919C87.1003 18.123 85.8401 17.8119 84.5763 17.9032Z" fill="#F9F9F9"/>
<path d="M78.8251 20.6132L77.9203 19.1152L78.8251 20.6132ZM84.5763 17.9032L84.4502 16.1578L84.4502 16.1578L84.5763 17.9032ZM67.6698 27.3515L67.2504 29.0505L67.9541 29.2242L68.5746 28.8494L67.6698 27.3515ZM57.5679 24.8578L57.1485 26.5568L57.5679 24.8578ZM51.2716 23.9771L51.6692 25.6814L51.2716 23.9771ZM48.0975 25.8944L49.4209 27.0394L48.0975 25.8944ZM43.4534 41.9791L44.3582 43.4771L44.9786 43.1023L45.1524 42.3985L43.4534 41.9791ZM32.2985 48.7172L33.2033 50.2151L32.2985 48.7172ZM27.2235 52.5466L25.7373 51.6227L27.2235 52.5466ZM26.3348 56.1468L24.5894 56.2729L26.3348 56.1468ZM29.0448 61.8979L27.5469 62.8028L29.0448 61.8979ZM35.7828 73.0528L37.4818 73.4722L37.6555 72.7685L37.2807 72.148L35.7828 73.0528ZM33.2892 83.1546L34.9882 83.574L33.2892 83.1546ZM32.4085 89.4509L34.1127 89.0533L34.1127 89.0533L32.4085 89.4509ZM34.3258 92.625L33.1807 93.9485L34.3258 92.625ZM50.4104 97.2691L51.9084 96.3643L51.5336 95.7439L50.8298 95.5701L50.4104 97.2691ZM57.1488 108.425L58.6467 107.52L57.1488 108.425ZM60.9783 113.5L60.0544 114.986L60.9783 113.5ZM64.5784 114.388L64.7046 116.134L64.5784 114.388ZM70.3296 111.678L71.2344 113.176L70.3296 111.678ZM81.485 104.94L81.9044 103.241L81.2007 103.067L80.5802 103.442L81.485 104.94ZM91.5859 107.433L91.1665 109.132L91.5859 107.433ZM97.8823 108.314L97.4846 106.61L97.8823 108.314ZM101.056 106.397L99.733 105.252L101.056 106.397ZM103.207 100.414L101.508 99.9944L103.207 100.414ZM105.7 90.313L104.795 88.815L104.175 89.1898L104.001 89.8936L105.7 90.313ZM116.856 83.5743L115.951 82.0764L116.856 83.5743ZM121.931 79.7448L123.417 80.6687L121.931 79.7448ZM122.82 76.1447L124.565 76.0185L122.82 76.1447ZM120.11 70.3935L121.608 69.4887L120.11 70.3935ZM113.371 59.2375L111.672 58.8181L111.499 59.5219L111.873 60.1423L113.371 59.2375ZM116.745 42.8402L118.45 42.4426L116.745 42.8402ZM114.828 39.6661L113.683 40.9896L113.683 40.9896L114.828 39.6661ZM108.845 37.5157L109.265 35.8167L108.845 37.5157ZM98.7442 35.0222L97.2463 35.927L97.6211 36.5475L98.3248 36.7212L98.7442 35.0222ZM92.0059 23.8669L90.508 24.7717L92.0059 23.8669ZM88.1765 18.7919L89.1004 17.3057L88.1765 18.7919ZM79.7299 22.1111C81.1928 21.2275 82.2006 20.6203 83.0204 20.2122C83.8219 19.8133 84.3063 19.6773 84.7025 19.6487L84.4502 16.1578C83.4096 16.233 82.4566 16.5832 81.4607 17.079C80.4832 17.5655 79.3338 18.2614 77.9203 19.1152L79.7299 22.1111ZM68.5746 28.8494L79.7299 22.1111L77.9203 19.1152L66.7649 25.8535L68.5746 28.8494ZM57.1485 26.5568L67.2504 29.0505L68.0892 25.6525L57.9873 23.1588L57.1485 26.5568ZM51.6692 25.6814C52.056 25.5911 52.559 25.5772 53.4428 25.7203C54.3467 25.8666 55.4893 26.1472 57.1485 26.5568L57.9873 23.1588C56.3842 22.7631 55.08 22.4397 54.0021 22.2652C52.9039 22.0875 51.8899 22.0359 50.8739 22.2729L51.6692 25.6814ZM49.4209 27.0394C50.0081 26.3607 50.7952 25.8853 51.6692 25.6814L50.8739 22.2729C49.2801 22.6448 47.8449 23.5117 46.7741 24.7494L49.4209 27.0394ZM47.646 32.2967C48.0556 30.6375 48.3389 29.4956 48.63 28.6274C48.9146 27.7785 49.161 27.3398 49.4209 27.0394L46.7741 24.7494C46.0915 25.5384 45.6653 26.4599 45.3116 27.5146C44.9645 28.5499 44.6437 29.8548 44.248 31.4579L47.646 32.2967ZM45.1524 42.3985L47.646 32.2967L44.248 31.4579L41.7544 41.5597L45.1524 42.3985ZM33.2033 50.2151L44.3582 43.4771L42.5485 40.4812L31.3937 47.2192L33.2033 50.2151ZM28.7098 53.4705C28.9195 53.1332 29.2653 52.7677 29.9914 52.2439C30.7341 51.7082 31.7404 51.0987 33.2033 50.2151L31.3937 47.2192C29.9802 48.073 28.8294 48.7666 27.9438 49.4054C27.0416 50.0562 26.2881 50.7367 25.7373 51.6227L28.7098 53.4705ZM28.0803 56.0206C28.0156 55.1254 28.236 54.2328 28.7098 53.4705L25.7373 51.6227C24.8733 53.0127 24.4714 54.6405 24.5894 56.2729L28.0803 56.0206ZM30.5427 60.9931C29.6591 59.5303 29.052 58.5225 28.6439 57.7027C28.2449 56.9012 28.1089 56.4168 28.0803 56.0206L24.5894 56.2729C24.6646 57.3135 25.0149 58.2665 25.5106 59.2623C25.9972 60.2399 26.6931 61.3893 27.5469 62.8028L30.5427 60.9931ZM37.2807 72.148L30.5427 60.9931L27.5469 62.8028L34.2849 73.9576L37.2807 72.148ZM34.9882 83.574L37.4818 73.4722L34.0838 72.6334L31.5902 82.7352L34.9882 83.574ZM34.1127 89.0533C34.0225 88.6665 34.0085 88.1635 34.1516 87.2798C34.2979 86.3758 34.5786 85.2332 34.9882 83.574L31.5902 82.7352C31.1944 84.3383 30.8711 85.6426 30.6966 86.7204C30.5188 87.8186 30.4672 88.8326 30.7043 89.8486L34.1127 89.0533ZM35.4708 91.3016C34.792 90.7144 34.3166 89.9273 34.1127 89.0533L30.7043 89.8486C31.0761 91.4424 31.9431 92.8776 33.1807 93.9485L35.4708 91.3016ZM40.7281 93.0765C39.0689 92.6669 37.9269 92.3836 37.0587 92.0925C36.2099 91.8079 35.7712 91.5615 35.4708 91.3016L33.1807 93.9485C33.9697 94.6311 34.8913 95.0573 35.946 95.4109C36.9813 95.7581 38.2861 96.0788 39.8893 96.4745L40.7281 93.0765ZM50.8298 95.5701L40.7281 93.0765L39.8893 96.4745L49.991 98.9681L50.8298 95.5701ZM58.6467 107.52L51.9084 96.3643L48.9125 98.174L55.6509 109.329L58.6467 107.52ZM61.9022 112.013C61.5648 111.804 61.1993 111.458 60.6756 110.732C60.1398 109.989 59.5303 108.983 58.6467 107.52L55.6509 109.329C56.5046 110.743 57.1982 111.894 57.837 112.779C58.4878 113.681 59.1683 114.435 60.0544 114.986L61.9022 112.013ZM64.4523 112.643C63.5571 112.707 62.6644 112.487 61.9022 112.013L60.0544 114.986C61.4443 115.85 63.0722 116.252 64.7046 116.134L64.4523 112.643ZM69.4248 110.18C67.9619 111.064 66.9541 111.671 66.1343 112.079C65.3329 112.478 64.8484 112.614 64.4523 112.643L64.7046 116.134C65.7451 116.058 66.6981 115.708 67.694 115.212C68.6715 114.726 69.821 114.03 71.2344 113.176L69.4248 110.18ZM80.5802 103.442L69.4248 110.18L71.2344 113.176L82.3898 106.438L80.5802 103.442ZM92.0053 105.734L81.9044 103.241L81.0656 106.639L91.1665 109.132L92.0053 105.734ZM97.4846 106.61C97.0978 106.7 96.5949 106.714 95.7111 106.571C94.8071 106.425 93.6645 106.144 92.0053 105.734L91.1665 109.132C92.7697 109.528 94.0739 109.851 95.1518 110.026C96.2499 110.204 97.264 110.255 98.2799 110.018L97.4846 106.61ZM99.733 105.252C99.1457 105.93 98.3587 106.406 97.4846 106.61L98.2799 110.018C99.8738 109.646 101.309 108.779 102.38 107.542L99.733 105.252ZM101.508 99.9944C101.098 101.654 100.815 102.796 100.524 103.664C100.239 104.513 99.9929 104.951 99.733 105.252L102.38 107.542C103.062 106.753 103.489 105.831 103.842 104.777C104.189 103.741 104.51 102.436 104.906 100.833L101.508 99.9944ZM104.001 89.8936L101.508 99.9944L104.906 100.833L107.399 90.7324L104.001 89.8936ZM115.951 82.0764L104.795 88.815L106.605 91.8109L117.761 85.0722L115.951 82.0764ZM120.445 78.8209C120.235 79.1583 119.889 79.5238 119.163 80.0475C118.421 80.5832 117.414 81.1927 115.951 82.0764L117.761 85.0722C119.174 84.2184 120.325 83.5249 121.211 82.8861C122.113 82.2353 122.867 81.5547 123.417 80.6687L120.445 78.8209ZM121.074 76.2708C121.139 77.166 120.919 78.0587 120.445 78.8209L123.417 80.6687C124.281 79.2787 124.683 77.6509 124.565 76.0185L121.074 76.2708ZM118.612 71.2983C119.496 72.7612 120.103 73.7689 120.511 74.5888C120.91 75.3902 121.046 75.8746 121.074 76.2708L124.565 76.0185C124.49 74.978 124.14 74.025 123.644 73.0291C123.158 72.0516 122.462 70.9021 121.608 69.4887L118.612 71.2983ZM111.873 60.1423L118.612 71.2983L121.608 69.4887L114.869 58.3327L111.873 60.1423ZM114.166 48.7172L111.672 58.8181L115.07 59.6569L117.564 49.556L114.166 48.7172ZM115.041 43.2379C115.131 43.6247 115.145 44.1276 115.002 45.0114C114.856 45.9154 114.575 47.058 114.166 48.7172L117.564 49.556C117.959 47.9528 118.283 46.6486 118.457 45.5707C118.635 44.4726 118.687 43.4586 118.45 42.4426L115.041 43.2379ZM113.683 40.9896C114.362 41.5768 114.837 42.3638 115.041 43.2379L118.45 42.4426C118.078 40.8488 117.211 39.4136 115.973 38.3427L113.683 40.9896ZM108.426 39.2147C110.085 39.6242 111.227 39.9075 112.095 40.1987C112.944 40.4833 113.383 40.7297 113.683 40.9896L115.973 38.3427C115.184 37.6601 114.263 37.2339 113.208 36.8803C112.173 36.5331 110.868 36.2124 109.265 35.8167L108.426 39.2147ZM98.3248 36.7212L108.426 39.2147L109.265 35.8167L99.1636 33.3232L98.3248 36.7212ZM90.508 24.7717L97.2463 35.927L100.242 34.1174L93.5039 22.962L90.508 24.7717ZM87.2526 20.2781C87.5899 20.4879 87.9554 20.8337 88.4791 21.5597C89.0149 22.3024 89.6244 23.3088 90.508 24.7717L93.5039 22.962C92.6501 21.5486 91.9565 20.3977 91.3177 19.5122C90.6669 18.61 89.9864 17.8564 89.1004 17.3057L87.2526 20.2781ZM84.7025 19.6487C85.5976 19.584 86.4903 19.8043 87.2526 20.2782L89.1004 17.3057C87.7104 16.4416 86.0826 16.0398 84.4502 16.1578L84.7025 19.6487Z" fill="#121212" mask="url(#path-31-inside-3_4084_5713)"/>
<path d="M81.6201 87.847L81.6143 87.8277C86.1254 85.9616 88.9881 82.1554 89.7719 77.0846C90.387 73.1216 88.9972 69.5929 85.6892 66.5394L85.6733 66.5247L85.6566 66.511C83.3922 64.6465 80.9511 62.9547 78.2821 61.6618L77.1602 61.053C76.0331 60.4414 75.2152 59.9639 74.5056 59.5153L74.4898 59.5053L74.4736 59.4961C72.0199 58.1074 70.5335 57.0401 69.7202 56.1031C69.3231 55.6456 69.1089 55.2437 69.0101 54.8747C68.9134 54.5133 68.9147 54.1363 69.0202 53.7036C69.258 52.8475 69.7788 51.794 70.8567 51.0526C71.925 50.3178 73.6527 49.8125 76.4612 50.2612L76.8005 50.3449L76.8024 50.3454L76.8042 50.3458L76.8061 50.3463L76.808 50.3468L76.8098 50.3472L76.8117 50.3477L76.8135 50.3481L76.8154 50.3486L76.8173 50.3491L76.8191 50.3495L76.821 50.35L76.8228 50.3504L76.8247 50.3509L76.8265 50.3514L76.8284 50.3518L76.8303 50.3523L76.8321 50.3527L76.834 50.3532L76.8358 50.3536L76.8377 50.3541L76.8396 50.3546L76.8414 50.355L76.8433 50.3555L76.8451 50.3559L76.847 50.3564L76.8488 50.3569L76.8507 50.3573L76.8526 50.3578L76.8544 50.3582L76.8563 50.3587L76.8581 50.3591L76.86 50.3596L76.8618 50.3601L76.8637 50.3605L76.8656 50.361L76.8674 50.3614L76.8693 50.3619L76.8711 50.3624L76.873 50.3628L76.8748 50.3633L76.8767 50.3637L76.8786 50.3642L76.8804 50.3646L76.8823 50.3651L76.8841 50.3656L76.886 50.366L76.8878 50.3665L76.8897 50.3669L76.8915 50.3674L76.8934 50.3679L76.8953 50.3683L76.8971 50.3688L76.899 50.3692L76.9008 50.3697L76.9027 50.3701L76.9045 50.3706L76.9064 50.3711L76.9082 50.3715L76.9101 50.372L76.9119 50.3724L76.9138 50.3729L76.9157 50.3733L76.9175 50.3738L76.9194 50.3743L76.9212 50.3747L76.9231 50.3752L76.9249 50.3756L76.9268 50.3761L76.9286 50.3765L76.9305 50.377L76.9323 50.3775L76.9342 50.3779L76.936 50.3784L76.9379 50.3788L76.9397 50.3793L76.9416 50.3797L76.9434 50.3802L76.9453 50.3807L76.9471 50.3811L76.949 50.3816L76.9508 50.382L76.9527 50.3825L76.9545 50.3829L76.9564 50.3834L76.9582 50.3839L76.9601 50.3843L76.9619 50.3848L76.9638 50.3852L76.9656 50.3857L76.9675 50.3861L76.9693 50.3866L76.9712 50.3871L76.973 50.3875L76.9749 50.388L76.9767 50.3884L76.9786 50.3889L76.9804 50.3893L76.9823 50.3898L76.9841 50.3902L76.986 50.3907L76.9878 50.3912L76.9897 50.3916L76.9915 50.3921L76.9934 50.3925L76.9952 50.393L76.997 50.3934L76.9989 50.3939L77.0007 50.3943L77.0026 50.3948L77.0044 50.3953L77.0063 50.3957L77.0081 50.3962L77.01 50.3966L77.0118 50.3971L77.0136 50.3975L77.0155 50.398L77.0173 50.3984L77.0192 50.3989L77.021 50.3994L77.0229 50.3998L77.0247 50.4003L77.0265 50.4007L77.0284 50.4012L77.0302 50.4016L77.0321 50.4021L77.0339 50.4025L77.0357 50.403L77.0376 50.4034L77.0394 50.4039L77.0413 50.4044L77.0431 50.4048L77.0449 50.4053L77.0468 50.4057L77.0486 50.4062L77.0504 50.4066L77.0523 50.4071L77.0541 50.4075L77.0559 50.408L77.0578 50.4084L77.0596 50.4089L77.0615 50.4093L77.0633 50.4098L77.0651 50.4102L77.067 50.4107L77.0688 50.4111L77.0706 50.4116L77.0725 50.4121L77.0743 50.4125L77.0761 50.413L77.078 50.4134L77.0798 50.4139L77.0816 50.4143L77.0834 50.4148L77.0853 50.4152L77.0871 50.4157L77.0889 50.4161L77.0908 50.4166L77.0926 50.417L77.0944 50.4175L77.0963 50.4179L77.0981 50.4184L77.0999 50.4188L77.1017 50.4193L77.1036 50.4197L77.1054 50.4202L77.1072 50.4206L77.109 50.4211L77.1109 50.4215L77.1127 50.422L77.1145 50.4224L77.1163 50.4229L77.1182 50.4233L77.12 50.4238L77.1218 50.4242L77.1236 50.4247L77.1255 50.4251L77.1273 50.4256L77.1291 50.426L77.1309 50.4265L77.1327 50.4269L77.1346 50.4274L77.1364 50.4278L77.1382 50.4283L77.14 50.4287L77.1418 50.4292L77.1437 50.4296L77.1455 50.4301L77.1473 50.4305L77.1491 50.431L77.1509 50.4314L77.1527 50.4319L77.1545 50.4323L77.1564 50.4328L77.1582 50.4332L77.16 50.4337L77.1618 50.4341L77.1636 50.4346L77.1654 50.435L77.1672 50.4355L77.1691 50.4359L77.1709 50.4363L77.1727 50.4368L77.1745 50.4372L77.1763 50.4377L77.1781 50.4381L77.1799 50.4386L77.1817 50.439L77.1835 50.4395L77.1853 50.4399L77.1871 50.4404L77.1889 50.4408L77.1908 50.4413L77.1926 50.4417L77.1944 50.4421L77.1962 50.4426L77.198 50.443L77.1998 50.4435L77.2016 50.4439L77.2034 50.4444L77.2052 50.4448L77.207 50.4453L77.2088 50.4457L77.2106 50.4461L77.2124 50.4466L77.2142 50.447L77.216 50.4475L77.2178 50.4479L77.2196 50.4484L77.2214 50.4488L77.2232 50.4493L77.225 50.4497L77.2268 50.4501L77.2285 50.4506L77.2303 50.451L77.2321 50.4515L77.2339 50.4519L77.2357 50.4524L77.2375 50.4528L77.2393 50.4532L77.2411 50.4537L77.2429 50.4541L77.2447 50.4546L77.2465 50.455L77.2482 50.4554L77.25 50.4559L77.2518 50.4563L77.2536 50.4568L77.2554 50.4572L77.2572 50.4577L77.259 50.4581L77.2608 50.4585L77.2625 50.459L77.2643 50.4594L77.2661 50.4599L77.2679 50.4603L77.2697 50.4607L77.2714 50.4612L77.2732 50.4616L77.275 50.4621L77.2768 50.4625L77.2786 50.4629L77.2803 50.4634L77.2821 50.4638L77.2839 50.4642L77.2857 50.4647L77.2874 50.4651L77.2892 50.4656L77.291 50.466L77.2928 50.4664L77.2945 50.4669L77.2963 50.4673L77.2981 50.4677L77.2999 50.4682L77.3016 50.4686L77.3034 50.4691L77.3052 50.4695L77.3069 50.4699L77.3087 50.4704L77.3105 50.4708L77.3122 50.4712L77.314 50.4717L77.3158 50.4721L77.3175 50.4725L77.3193 50.473L77.321 50.4734L77.3228 50.4739L77.3246 50.4743L77.3263 50.4747L77.3281 50.4752L77.3299 50.4756L77.3316 50.476L77.3334 50.4765L77.3351 50.4769L77.3369 50.4773L77.3386 50.4778L77.3404 50.4782L77.3421 50.4786L77.3439 50.4791L77.3457 50.4795L77.3474 50.4799L77.3492 50.4804L77.3509 50.4808L77.3527 50.4812L77.3544 50.4817L77.3562 50.4821L77.3579 50.4825L77.3597 50.4829L77.3614 50.4834L77.3631 50.4838L77.3649 50.4842L77.3666 50.4847L77.3684 50.4851L77.3701 50.4855L77.3719 50.486L77.3736 50.4864L77.3753 50.4868L77.3771 50.4873L77.3788 50.4877L77.3806 50.4881L77.3823 50.4885L77.384 50.489L77.3858 50.4894L77.3875 50.4898L77.3892 50.4903L77.391 50.4907L77.3927 50.4911L77.3944 50.4915L77.3962 50.492L77.3979 50.4924L77.3996 50.4928L77.4014 50.4932L77.4031 50.4937L77.4048 50.4941L77.4066 50.4945L77.4083 50.495L77.41 50.4954L77.4117 50.4958L77.4134 50.4962L77.4152 50.4967L77.4169 50.4971L77.4186 50.4975L77.4203 50.4979L77.4221 50.4984L77.4238 50.4988L77.4255 50.4992L77.4272 50.4996L77.4289 50.5L77.4306 50.5005L77.4324 50.5009L77.4341 50.5013L77.4358 50.5017L77.4375 50.5022L77.4392 50.5026L77.4409 50.503L77.4426 50.5034L77.4443 50.5039L77.446 50.5043L77.4478 50.5047L77.4495 50.5051L77.4512 50.5055L77.4529 50.506L77.4546 50.5064L77.4563 50.5068L77.458 50.5072L77.4597 50.5076L77.4614 50.5081L77.4631 50.5085L77.4648 50.5089L77.4665 50.5093L77.4682 50.5097L77.4699 50.5102L77.4716 50.5106L77.4733 50.511L77.475 50.5114L77.4766 50.5118L77.4783 50.5122L77.48 50.5127L77.4817 50.5131L77.4834 50.5135L77.4851 50.5139L77.4868 50.5143L77.4885 50.5147L77.4902 50.5152L77.4918 50.5156L77.4935 50.516L77.4952 50.5164L77.4969 50.5168L77.4986 50.5172L77.5003 50.5177L77.5019 50.5181L77.5036 50.5185L77.5053 50.5189L77.507 50.5193L77.5086 50.5197L77.5103 50.5201L77.512 50.5206L77.5137 50.521L77.5153 50.5214L77.517 50.5218L77.5187 50.5222L77.5203 50.5226L77.522 50.523L77.5237 50.5234L77.5253 50.5238L77.527 50.5243L77.5287 50.5247L77.5303 50.5251L77.532 50.5255L77.5337 50.5259L77.5353 50.5263L77.537 50.5267L77.5386 50.5271L77.5403 50.5275L77.5419 50.5279L77.5436 50.5284L77.5453 50.5288L77.5469 50.5292L77.5486 50.5296L77.5502 50.53L77.5519 50.5304L77.5535 50.5308L77.5552 50.5312L77.5568 50.5316L77.5585 50.532L77.5601 50.5324L77.5617 50.5328L77.5634 50.5332L77.565 50.5336L77.5667 50.5341L77.5683 50.5345L77.57 50.5349L77.5716 50.5353L77.5732 50.5357L77.5749 50.5361L77.5765 50.5365L77.5781 50.5369L77.5798 50.5373L77.5814 50.5377L77.583 50.5381L77.5847 50.5385L77.5863 50.5389L77.5879 50.5393L77.5895 50.5397L77.5912 50.5401L77.5928 50.5405L77.5944 50.5409L77.596 50.5413L77.5977 50.5417L77.5993 50.5421L77.6009 50.5425L77.6025 50.5429L77.6041 50.5433L77.6058 50.5437L77.6074 50.5441L77.609 50.5445L77.6106 50.5449L77.6122 50.5453L77.6138 50.5457L77.6154 50.5461L77.617 50.5465L77.6187 50.5469L77.6203 50.5473L77.6219 50.5477L77.6235 50.5481L77.6251 50.5485L77.6267 50.5489L77.6283 50.5493L77.6299 50.5497L77.6315 50.55L77.6331 50.5504L77.6347 50.5508L77.6363 50.5512L77.6379 50.5516L77.6395 50.552L77.641 50.5524L77.6426 50.5528L77.6442 50.5532L77.6458 50.5536L77.6474 50.554L77.649 50.5544L77.6506 50.5548L77.6522 50.5552L77.6537 50.5555L77.6553 50.5559L77.6569 50.5563L77.6585 50.5567L77.6601 50.5571L77.6616 50.5575L77.6632 50.5579L77.6648 50.5583L77.6664 50.5587L77.6679 50.5591L77.6695 50.5594L77.6711 50.5598L77.6727 50.5602L77.6742 50.5606L77.6758 50.561L77.6774 50.5614L77.6789 50.5618L77.6805 50.5621L77.682 50.5625L77.6836 50.5629L77.6852 50.5633L77.6867 50.5637L77.6883 50.5641L77.6898 50.5645L77.6914 50.5648L77.6929 50.5652L77.6945 50.5656L77.6961 50.566L77.6976 50.5664L77.6992 50.5668C78.6257 50.7955 79.5035 51.0672 80.3316 51.4782L80.3409 51.4828L80.3503 51.4872C81.9573 52.2313 83.2382 53.1833 84.0844 54.1696C84.9356 55.1618 85.2915 56.118 85.2243 56.9062C85.1611 57.4574 85.2314 58.0177 85.3724 58.5132L85.383 58.5505L85.3973 58.5864C85.5827 59.053 85.8059 59.5256 86.1911 59.975C86.5656 60.4121 86.9754 60.7196 87.4464 60.969C87.9512 61.2363 88.4727 61.3599 88.9702 61.4187C89.5253 61.4843 90.0903 61.414 90.5895 61.272C91.0933 61.1287 91.5715 60.9005 92.0172 60.524C92.4843 60.1722 92.8058 59.6784 93.0322 59.2508L93.0538 59.21L93.0703 59.1669C93.2236 58.7674 93.4305 58.219 93.4949 57.6742L93.4961 57.6643L93.497 57.6544C93.8559 53.7488 92.1396 49.9331 88.7579 46.9849L88.7515 46.9794L88.745 46.9739C87.1485 45.6433 85.3953 44.5004 83.4946 43.6855L84.5494 39.4123C84.7468 38.6128 84.6709 37.7653 84.2317 37.0382L83.5769 37.4337L84.2317 37.0382C83.8206 36.3576 83.1444 35.8099 82.344 35.6123C81.5437 35.4148 80.6903 35.5849 80.0097 35.996L79.969 36.0206L79.9316 36.0501C79.3599 36.5009 78.8209 37.1508 78.6237 37.9495L77.6311 41.9709C73.7643 41.4164 70.2329 41.9814 67.3809 43.5464C64.3479 45.2107 62.1341 47.9796 61.1203 51.6069L61.1171 51.6181L61.1143 51.6294C60.0903 55.7778 61.2898 59.5684 64.5168 62.7901L64.5337 62.807L64.5516 62.8228C66.8113 64.8135 69.2708 66.4516 71.9139 67.7912L73.2407 68.5086L73.2562 68.517L73.2721 68.5247C73.8982 68.8267 74.4561 69.1323 75.0053 69.4331C75.2749 69.5808 75.5424 69.7273 75.8148 69.8717C77.7929 71.0014 79.3528 72.0355 80.3697 73.054C81.3828 74.0687 81.7494 74.955 81.6145 75.8274C81.4401 76.9559 81.105 77.8188 80.6159 78.4837C80.1344 79.1385 79.4713 79.6454 78.5641 80.0183C76.9822 80.5553 75.2916 80.7071 73.648 80.4619L73.4709 80.4182L73.4281 80.4077L73.3845 80.4021C72.0475 80.2312 70.7538 79.8594 69.5417 79.346L69.5248 79.3389L69.5076 79.3325C68.213 78.856 67.0663 78.1535 65.9892 77.297C65.4645 76.8798 64.8018 76.2531 64.3108 75.5067C63.8218 74.7633 63.5445 73.967 63.6527 73.165C63.853 72.0567 63.592 70.9133 62.9983 70.0205L62.9899 70.0079L62.981 69.9956C62.316 69.0768 61.359 68.5016 60.2648 68.2988L60.2621 68.2983C59.178 68.1014 58.0721 68.3929 57.1697 69.0461L57.1443 69.0645L57.1204 69.085C56.7262 69.4228 56.3746 69.7892 56.0658 70.2397L56.0412 70.2757L56.0208 70.3142C55.7828 70.7637 55.5742 71.313 55.5067 71.8648C54.8413 76.2925 56.7696 80.5066 60.7335 83.8174L60.7398 83.8227L60.7462 83.8278C62.4584 85.1967 64.3727 86.3299 66.4184 87.1663L65.4048 91.2725C65.2603 91.8579 65.3227 92.5124 65.4686 93.0252L65.4791 93.0624L65.4934 93.0984C65.7287 93.6904 66.1312 94.1425 66.5567 94.5049L66.5809 94.5255L66.6067 94.5441C66.9325 94.7779 67.3281 94.9468 67.6761 95.0327C67.8186 95.0679 67.957 95.0783 68.0321 95.084L68.0451 95.085C68.089 95.0884 68.1147 95.0905 68.1374 95.0932C68.1575 95.0955 68.1649 95.0973 68.1649 95.0973L68.2111 95.1087L68.2584 95.1143C68.9225 95.1927 69.5831 94.9521 70.0633 94.6621C70.4133 94.4506 70.6982 94.1666 70.9134 93.8776C71.2376 93.5301 71.4071 93.1064 71.4891 92.7744L72.4665 88.8147C75.5361 89.284 78.6797 88.9692 81.6201 87.847Z" fill="#59BAFF" stroke="black" stroke-width="1.53"/>
<path d="M77.931 103.324C81.9127 97.7308 93.6637 99.255 104.171 106.732C114.693 114.217 119.99 124.815 116.008 130.415C115.951 130.502 115.879 130.588 115.822 130.674C113.105 134.154 107.197 134.657 100.535 132.529C97.0344 131.408 93.3187 129.553 89.7539 127.015C79.5841 119.782 74.2944 109.637 77.5501 103.914C77.6651 103.713 77.7873 103.526 77.9167 103.332H77.9238L77.931 103.324Z" fill="#59BAFF"/>
<path d="M85.0022 133.718C88.7682 136.407 92.7068 138.326 96.3866 139.419C102.948 141.375 108.684 140.713 111.242 137.126L115.856 130.691L115.821 130.669C113.104 134.149 107.196 134.653 100.534 132.524C97.0334 131.403 93.3177 129.548 89.7528 127.01C79.5831 119.777 74.2933 109.632 77.5491 103.909L73.1578 110.035C69.1761 115.628 74.4802 126.233 84.995 133.718H85.0022ZM100.526 132.589C100.526 132.589 100.505 132.589 100.498 132.575C100.505 132.575 100.534 132.575 100.534 132.575H100.526V132.589Z" fill="#59BAFF"/>
<path d="M115.871 130.705L111.257 137.14C108.698 140.727 102.963 141.389 96.4007 139.433C92.7137 138.333 88.7752 136.414 85.0163 133.732C74.4944 126.247 69.1974 115.65 73.1791 110.049L77.5633 103.916" stroke="#121212" stroke-width="1.5304" stroke-linecap="round" stroke-linejoin="round"/>
<path d="M115.835 130.668C115.899 130.589 115.964 130.495 116.021 130.409C120.003 124.815 114.699 114.211 104.184 106.726C93.6695 99.2343 81.9113 97.7173 77.944 103.318C77.8075 103.505 77.6925 103.699 77.5775 103.9C74.3217 109.623 79.6114 119.768 89.7812 127.001C93.346 129.539 97.0618 131.394 100.562 132.516C107.217 134.651 113.125 134.141 115.849 130.661H115.842L115.835 130.668Z" stroke="#121212" stroke-width="1.5304" stroke-linecap="round" stroke-linejoin="round"/>
<path d="M85.7709 103.649C84.9013 103.851 84.161 104.196 83.5357 104.678C83.1764 104.951 82.8745 105.274 82.6158 105.641C79.7912 109.617 84.1395 117.59 92.3472 123.421C100.555 129.252 109.496 130.762 112.335 126.779C113.384 125.298 113.441 123.27 112.68 121.006C112.32 119.941 111.774 118.813 111.062 117.67" stroke="#121212" stroke-width="1.5304" stroke-linecap="round" stroke-linejoin="round"/>
<path d="M94.1299 130.401L89.6523 136.138" stroke="#121212" stroke-width="1.5304" stroke-linecap="round" stroke-linejoin="round"/>
<path d="M90.8946 128.519L86.417 134.256" stroke="#121212" stroke-width="1.5304" stroke-linecap="round" stroke-linejoin="round"/>
<path d="M81.7543 108.344C81.6177 112.607 85.7288 118.69 92.3481 123.399C100.563 129.245 109.497 130.74 112.336 126.757C112.573 126.419 112.752 126.052 112.889 125.657L81.7687 108.33H81.7615L81.7543 108.344Z" fill="#121212"/>
</g>
<defs>
<clipPath id="clip0_4084_5713">
<rect width="173" height="150" fill="white"/>
</clipPath>
</defs>
</svg>
