<svg width="228" height="150" viewBox="0 0 228 150" fill="none" xmlns="http://www.w3.org/2000/svg">
<g clip-path="url(#clip0_4084_5853)">
<path d="M112.946 66.9886C99.3759 48.1317 84.7621 29.8227 79.2816 6.71444C61.1566 16.4524 43.0265 26.1856 24.9011 35.9139C25.4036 37.9585 25.9819 39.9611 26.6171 41.9323C38.5071 79.7505 73.8306 105.257 82.964 144.524C101.119 135.047 119.27 125.574 137.43 116.102C133.34 97.595 123.475 82.1179 112.946 66.9886Z" fill="#5AC1FF"/>
<path d="M69.044 20.1326C59.3192 25.5141 49.5945 30.8956 39.8794 36.2768C39.8794 36.2768 38.4865 36.7084 37.6405 38.5087C36.7945 40.3091 36.2137 42.3068 36.2137 42.3068C35.9907 42.7719 35.7677 43.237 35.5494 43.6971C35.5494 43.6971 34.4516 43.3018 35.2774 45.5413C35.057 46.9955 45.9199 68.1379 60.5463 86.9798C75.3859 105.701 85.7664 126.437 85.2209 126.727C85.2209 126.727 85.2947 128.144 86.9205 128.644C88.551 129.138 90.8444 129.6 90.8444 129.6C90.8444 129.6 91.4986 130.518 93.4881 129.508C95.4822 128.494 122.881 115.454 122.881 115.454C122.881 115.454 123.817 115.478 123.702 113.519C123.595 111.55 124.853 107.429 125.57 105.78C126.321 104.153 126.303 103.495 125.8 102.716C126.136 102.037 115.374 81.4724 101.325 62.7518C87.0199 44.1681 77.2987 23.3125 77.8346 23.0234C77.8346 23.0234 77.9654 21.5148 76.2447 21.6449C74.5143 21.7755 72.5431 20.9027 71.6839 20.2986C70.7762 19.6965 69.0297 20.138 69.0297 20.138L69.044 20.1326Z" fill="#C4ECFF"/>
<path d="M112.946 66.9886C99.3759 48.1317 84.7621 29.8227 79.2816 6.71444C61.1566 16.4524 43.0265 26.1856 24.9011 35.9139C25.4036 37.9585 25.9819 39.9611 26.6171 41.9323C38.5071 79.7505 73.8306 105.257 82.964 144.524C101.119 135.047 119.27 125.574 137.43 116.102C133.34 97.595 123.475 82.1179 112.946 66.9886Z" stroke="#121212" stroke-width="1.75" stroke-miterlimit="10" stroke-linecap="round"/>
<path d="M73.0419 95.9027C77.7029 95.0047 87.6124 92.6508 92.2494 90.2507C104.484 83.9012 104.848 73.587 98.4816 64.8926C98.6105 65.0763 98.7445 65.2647 98.8734 65.4484C92.4842 56.7889 81.9875 52.2917 70.0663 58.9482C65.5078 61.4856 58.6566 67.9835 55.6012 71.2145" fill="#5AC1FF"/>
<path d="M73.0419 95.9027C77.7029 95.0047 87.6124 92.6508 92.2494 90.2507C104.484 83.9012 104.848 73.587 98.4816 64.8926C98.6156 65.081 98.7445 65.2647 98.8734 65.4484C92.4842 56.7889 81.9875 52.2917 70.0663 58.9482C65.5078 61.4856 58.6566 67.9835 55.6012 71.2145" stroke="#121212" stroke-width="1.75" stroke-linecap="round" stroke-linejoin="round"/>
<path d="M70.3077 19.8518C59.4985 25.623 48.6898 31.4038 37.8857 37.1796" stroke="#121212" stroke-width="1.75" stroke-miterlimit="10" stroke-linecap="round"/>
<path d="M48.545 69.5653C50.0639 68.3186 51.5828 67.072 53.1017 65.8254C60.6944 77.4069 69.4303 88.383 77.1367 99.9016C75.2771 100.537 73.4128 101.177 71.5582 101.817" fill="#5AC1FF"/>
<path d="M48.545 69.5653C50.0639 68.3186 51.5828 67.072 53.1017 65.8254C60.6944 77.4069 69.4303 88.383 77.1367 99.9016C75.2771 100.537 73.4128 101.177 71.5582 101.817" stroke="#121212" stroke-width="1.75" stroke-linecap="round" stroke-linejoin="round"/>
<path d="M107.05 108.853C109.35 105.886 108.864 101.668 105.844 99.4867C102.828 97.2999 98.5535 97.9199 96.4001 100.808C94.2422 103.701 94.9235 107.818 97.7964 110.078C100.669 112.339 104.75 111.829 107.055 108.857L107.05 108.853Z" fill="#5AC1FF" stroke="#121212" stroke-width="1.75" stroke-linecap="round" stroke-linejoin="round"/>
<path d="M67.5647 47.4787C69.737 44.5804 69.1029 40.4321 66.2872 38.1496C63.4666 35.8626 59.4047 36.3621 57.0808 39.3444C54.7518 42.322 55.1866 46.5756 58.159 48.7787C61.1313 50.9819 65.3924 50.377 67.5647 47.4787Z" fill="#5AC1FF" stroke="#121212" stroke-width="1.75" stroke-linecap="round" stroke-linejoin="round"/>
<path d="M83.1385 19.4024C82.6164 19.7879 82.1171 20.1385 81.5375 20.4246C75.8937 23.4438 69.2414 21.1327 67.6022 14.7475C67.4537 14.2106 67.5367 13.6447 67.4686 13.0608" stroke="#121212" stroke-width="1.75" stroke-miterlimit="10" stroke-linecap="round"/>
<path d="M77.3403 22.1033C84.2586 39.5898 95.974 54.5628 107.015 69.8841C114.337 80.7884 121.337 91.871 126.149 104.097" stroke="#121212" stroke-width="1.75" stroke-miterlimit="10" stroke-linecap="round"/>
<path d="M85.7102 128.33C73.557 98.0147 47.0752 75.2319 34.9316 44.9157" stroke="#121212" stroke-width="1.75" stroke-miterlimit="10" stroke-linecap="round"/>
<path d="M79.5495 131.051C80.0716 130.666 80.5709 130.315 81.1505 130.029C86.7944 127.01 93.4753 129.31 95.1617 135.664C95.3199 136.201 95.4178 136.803 95.4699 137.353" stroke="#121212" stroke-width="1.75" stroke-miterlimit="10" stroke-linecap="round"/>
<path d="M29.0958 48.4472C29.6752 48.2727 30.2548 47.9866 30.8045 47.6824C36.4816 44.6472 38.981 37.3956 37.3132 31.0212C37.1596 30.4797 37.0985 30.2932 36.9268 29.7815" stroke="#121212" stroke-width="1.75" stroke-miterlimit="10" stroke-linecap="round"/>
<path d="M132.022 99.483C131.681 99.6621 118.961 106.003 125.338 122.043" stroke="#121212" stroke-width="1.75" stroke-miterlimit="10" stroke-linecap="round"/>
<path d="M91.9321 130.088C102.481 125.045 113.035 120.007 123.578 114.96" stroke="#121212" stroke-width="1.75" stroke-miterlimit="10" stroke-linecap="round"/>
<path d="M92.9263 61.0529C77.0505 44.0915 60.2097 27.8074 51.8115 5.59263C35.0847 17.5741 18.3522 29.5517 1.62379 41.5237C2.38429 43.487 3.21461 45.3989 4.0973 47.2723C20.7382 83.2539 59.0405 104.021 73.1333 141.793C89.9236 130.066 106.71 118.344 123.506 106.621C117.076 88.7918 105.308 74.7073 92.9263 61.0529Z" fill="#5AC1FF"/>
<path d="M43.3791 20.2126C34.4247 26.7966 25.4702 33.3806 16.5253 39.963C16.5253 39.963 15.1992 40.5697 14.591 42.4636C13.9828 44.3576 13.663 46.4133 13.663 46.4133C13.5015 46.9032 13.34 47.393 13.1824 47.8773C13.1824 47.8773 12.043 47.626 13.1491 49.7412C13.117 51.2116 26.6011 70.7867 43.5227 87.5976C60.6402 104.262 73.5938 123.496 73.0899 123.853C73.0899 123.853 73.3449 125.249 75.0213 125.536C76.7017 125.817 79.0354 125.981 79.0354 125.981C79.0354 125.981 79.8019 126.808 81.6455 125.551C83.4931 124.29 108.993 107.845 108.993 107.845C108.993 107.845 109.926 107.748 109.56 105.82C109.201 103.881 109.921 99.6331 110.42 97.9053C110.957 96.1957 110.854 95.5448 110.256 94.8366C110.501 94.1209 97.1921 75.1057 80.8585 58.341C64.2885 41.7449 51.9735 22.3079 52.4678 21.9525C52.4678 21.9525 52.4042 20.4395 50.7143 20.7892C49.0149 21.1406 46.9481 20.5277 46.0185 20.0388C45.0411 19.558 43.3656 20.2198 43.3656 20.2198L43.3791 20.2126Z" fill="#C4ECFF"/>
<path d="M92.9263 61.0529C77.0505 44.0915 60.2097 27.8074 51.8115 5.59263C35.0847 17.5741 18.3522 29.5517 1.62379 41.5237C2.38429 43.487 3.21461 45.3989 4.0973 47.2723C20.7382 83.2539 59.0405 104.021 73.1333 141.793C89.9236 130.066 106.71 118.344 123.506 106.621C117.076 88.7918 105.308 74.7073 92.9263 61.0529Z" stroke="#121212" stroke-width="1.75" stroke-miterlimit="10" stroke-linecap="round"/>
<path d="M57.0589 94.8448C61.5662 93.3566 71.0921 89.7516 75.3831 86.7767C86.7027 78.9108 85.7411 68.6352 78.3125 60.8288C78.4639 60.9945 78.6209 61.1641 78.7723 61.3298C71.3255 53.561 60.3389 50.4468 49.3695 58.5769C45.174 61.6778 39.2125 69.0005 36.5965 72.5966" fill="#5AC1FF"/>
<path d="M57.0589 94.8448C61.5662 93.3566 71.0921 89.7516 75.3831 86.7767C86.7027 78.9108 85.7411 68.6352 78.3125 60.8288C78.4695 60.9985 78.6209 61.1641 78.7723 61.3298C71.3255 53.561 60.3389 50.4468 49.3695 58.5769C45.174 61.6778 39.2125 69.0005 36.5965 72.5966" stroke="#121212" stroke-width="1.75" stroke-linecap="round" stroke-linejoin="round"/>
<path d="M44.5962 19.7721C34.6163 26.8816 24.638 34.0006 14.6636 41.114" stroke="#121212" stroke-width="1.75" stroke-miterlimit="10" stroke-linecap="round"/>
<path d="M29.3873 71.8657C30.7338 70.4346 32.0804 69.0036 33.4269 67.5725C42.4418 78.0849 52.513 87.8503 61.6327 98.2857C59.8699 99.1542 58.1031 100.028 56.3459 100.901" fill="#5AC1FF"/>
<path d="M29.3873 71.8657C30.7338 70.4346 32.0804 69.0036 33.4269 67.5725C42.4418 78.0849 52.513 87.8503 61.6327 98.2857C59.8699 99.1542 58.1031 100.028 56.3459 100.901" stroke="#121212" stroke-width="1.75" stroke-linecap="round" stroke-linejoin="round"/>
<path d="M92.4466 103.327C94.3476 100.09 93.3241 95.9699 90.0494 94.1934C86.7786 92.4112 82.6184 93.5743 80.8531 96.7143C79.0839 99.86 80.2874 103.856 83.4265 105.73C86.5655 107.603 90.5472 106.574 92.4522 103.331L92.4466 103.327Z" fill="#5AC1FF" stroke="#121212" stroke-width="1.75" stroke-linecap="round" stroke-linejoin="round"/>
<path d="M45.4179 47.5227C47.2007 44.3698 46.0399 40.3371 42.9549 38.4345C39.8642 36.528 35.9 37.5442 33.9776 40.7998C32.0496 44.0514 33.0263 48.2142 36.2566 50.018C39.4868 51.8219 43.6352 50.6757 45.4179 47.5227Z" fill="#5AC1FF" stroke="#121212" stroke-width="1.75" stroke-linecap="round" stroke-linejoin="round"/>
<path d="M57.2632 17.6814C56.7949 18.1306 56.3446 18.5424 55.8065 18.9004C50.5964 22.6183 43.7027 21.1793 41.2583 15.0569C41.0422 14.5435 41.0519 13.9716 40.9096 13.4013" stroke="#121212" stroke-width="1.75" stroke-miterlimit="10" stroke-linecap="round"/>
<path d="M51.8594 21.1034C60.9627 37.5585 74.5012 50.9058 87.4159 64.6848C96.0755 74.5603 104.438 84.654 110.778 96.1624" stroke="#121212" stroke-width="1.75" stroke-miterlimit="10" stroke-linecap="round"/>
<path d="M73.7804 125.381C57.8404 96.8733 28.6561 77.674 12.7256 49.1651" stroke="#121212" stroke-width="1.75" stroke-miterlimit="10" stroke-linecap="round"/>
<path d="M68.0195 128.869C68.4879 128.42 68.9381 128.008 69.4762 127.65C74.6864 123.932 81.6071 125.357 84.0943 131.442C84.3199 131.954 84.4942 132.538 84.6165 133.078" stroke="#121212" stroke-width="1.75" stroke-miterlimit="10" stroke-linecap="round"/>
<path d="M7.39061 53.4158C7.94286 53.1684 8.48099 52.8104 8.98719 52.4382C14.2283 48.7001 15.7772 41.1879 13.3058 35.08C13.0841 34.5626 12.9996 34.3855 12.7637 33.9001" stroke="#121212" stroke-width="1.75" stroke-miterlimit="10" stroke-linecap="round"/>
<path d="M116.012 90.8331C115.696 91.0545 103.894 98.9739 112.276 114.064" stroke="#121212" stroke-width="1.75" stroke-miterlimit="10" stroke-linecap="round"/>
<path d="M80.1763 126.325C89.9914 119.972 99.812 113.622 109.621 107.265" stroke="#121212" stroke-width="1.75" stroke-miterlimit="10" stroke-linecap="round"/>
<circle cx="127.784" cy="77.6658" r="63.4473" fill="#08527F" stroke="#00001F" stroke-width="2"/>
<circle cx="119.737" cy="73.0357" r="63.4473" fill="#C4ECFF" stroke="#00001F" stroke-width="2"/>
<circle cx="119.738" cy="73.0358" r="54.1092" fill="#F9F9F9" stroke="#00001F" stroke-width="2"/>
<path d="M95.09 102.426C94.8288 102.426 94.6982 102.296 94.6982 102.035V96.5483C89.7344 96.483 83.8562 95.1767 79.219 92.2377C78.9578 92.107 78.9578 91.8458 79.0231 91.6498L82.55 83.2898C82.6153 83.0939 82.8766 82.9632 83.2031 83.1592C87.8403 85.7064 91.3019 86.3595 94.6982 86.4248V78.2607L92.6082 77.8689C84.8359 76.3667 79.8069 71.8601 79.8069 64.6757C79.8069 56.8381 85.2278 51.1559 94.6982 49.7844V44.0368C94.6982 43.7756 94.8288 43.645 95.09 43.645H99.1394C99.4007 43.645 99.5313 43.7756 99.5313 44.0368V49.5231C103.777 49.5884 108.74 50.5681 112.92 53.2459C113.116 53.4419 113.116 53.5725 113.051 53.7684L110.177 62.2591C110.112 62.455 109.916 62.5857 109.655 62.455C106.324 60.561 102.666 59.7119 99.5313 59.5813V67.876L102.732 68.5291C110.243 70.0966 114.553 74.9951 114.553 81.5917C114.553 89.1026 109.198 94.9155 99.5313 96.2871V102.035C99.5313 102.296 99.4007 102.426 99.1394 102.426H95.09ZM91.2366 63.5654C91.2366 65.2635 92.151 66.1779 94.6982 66.831V60.0385C91.955 60.6916 91.2366 62.1938 91.2366 63.5654ZM99.5313 85.9676C101.687 85.4451 102.928 84.2695 102.928 82.3754C102.928 80.8732 102.209 79.7629 99.5313 79.2404V85.9676Z" fill="#5AC1FF"/>
<path d="M140.437 96.5483C128.158 96.5483 120.321 87.7311 120.321 73.0357C120.321 58.3403 128.158 49.5231 140.437 49.5231C152.128 49.5231 160.488 58.9281 160.488 73.0357C160.488 87.1433 152.128 96.5483 140.437 96.5483ZM140.437 86.1636C145.923 86.1636 149.058 81.1345 149.058 73.0357C149.058 65.0022 145.923 59.9078 140.437 59.9078C134.755 59.9078 131.751 64.9369 131.751 73.0357C131.751 81.1345 134.755 86.1636 140.437 86.1636Z" fill="#5AC1FF"/>
<path d="M95.09 102.426C94.8288 102.426 94.6982 102.296 94.6982 102.035V96.5483C89.7344 96.483 83.8562 95.1767 79.219 92.2377C78.9578 92.107 78.9578 91.8458 79.0231 91.6498L82.55 83.2898C82.6153 83.0939 82.8766 82.9632 83.2031 83.1592C87.8403 85.7064 91.3019 86.3595 94.6982 86.4248V78.2607L92.6082 77.8689C84.8359 76.3667 79.8069 71.8601 79.8069 64.6757C79.8069 56.8381 85.2278 51.1559 94.6982 49.7844V44.0368C94.6982 43.7756 94.8288 43.645 95.09 43.645H99.1394C99.4007 43.645 99.5313 43.7756 99.5313 44.0368V49.5231C103.777 49.5884 108.74 50.5681 112.92 53.2459C113.116 53.4419 113.116 53.5725 113.051 53.7684L110.177 62.2591C110.112 62.455 109.916 62.5857 109.655 62.455C106.324 60.561 102.666 59.7119 99.5313 59.5813V67.876L102.732 68.5291C110.243 70.0966 114.553 74.9951 114.553 81.5917C114.553 89.1026 109.198 94.9155 99.5313 96.2871V102.035C99.5313 102.296 99.4007 102.426 99.1394 102.426H95.09ZM91.2366 63.5654C91.2366 65.2635 92.151 66.1779 94.6982 66.831V60.0385C91.955 60.6916 91.2366 62.1938 91.2366 63.5654ZM99.5313 85.9676C101.687 85.4451 102.928 84.2695 102.928 82.3754C102.928 80.8732 102.209 79.7629 99.5313 79.2404V85.9676Z" stroke="#00001F" stroke-width="2"/>
<path d="M140.437 96.5483C128.158 96.5483 120.321 87.7311 120.321 73.0357C120.321 58.3403 128.158 49.5231 140.437 49.5231C152.128 49.5231 160.488 58.9281 160.488 73.0357C160.488 87.1433 152.128 96.5483 140.437 96.5483ZM140.437 86.1636C145.923 86.1636 149.058 81.1345 149.058 73.0357C149.058 65.0022 145.923 59.9078 140.437 59.9078C134.755 59.9078 131.751 64.9369 131.751 73.0357C131.751 81.1345 134.755 86.1636 140.437 86.1636Z" stroke="#00001F" stroke-width="2"/>
<path d="M209.82 52.3696L211.771 42.0389C211.842 41.6648 212.127 41.3709 212.492 41.2908L225.37 38.4053C226.358 38.1826 226.358 36.7755 225.37 36.5529L213.409 33.8455C213.053 33.7653 212.777 33.4804 212.697 33.1241L209.811 20.2463C209.589 19.2577 208.181 19.2577 207.959 20.2463L205.073 33.1241C204.993 33.4804 204.717 33.7653 204.361 33.8455L192.4 36.5529C191.412 36.7755 191.412 38.1826 192.4 38.4053L205.278 41.2908C205.652 41.3709 205.937 41.6648 206 42.0389L207.95 52.3696C208.146 53.4027 209.624 53.4027 209.82 52.3696Z" fill="#F9F9F9" stroke="black" stroke-width="1.75" stroke-linecap="round" stroke-linejoin="round"/>
<path d="M182.189 23.972L183.532 16.845L191.433 15.0833L183.959 13.3838L182.189 5.4917L180.418 13.3838L172.944 15.0833L180.845 16.845L182.189 23.972Z" fill="#F9F9F9" stroke="black" stroke-width="1.75" stroke-linecap="round" stroke-linejoin="round"/>
<path d="M206.415 79.4076C208.258 79.4076 209.752 77.9137 209.752 76.071C209.752 74.2282 208.258 72.7344 206.415 72.7344C204.573 72.7344 203.079 74.2282 203.079 76.071C203.079 77.9137 204.573 79.4076 206.415 79.4076Z" fill="#F9F9F9" stroke="black" stroke-width="1.75" stroke-linecap="round" stroke-linejoin="round"/>
</g>
<defs>
<clipPath id="clip0_4084_5853">
<rect width="228" height="150" fill="white"/>
</clipPath>
</defs>
</svg>
