<svg width="428" height="340" viewBox="0 0 428 340" fill="none" xmlns="http://www.w3.org/2000/svg">
<g clip-path="url(#clip0_3381_3138)">
<path d="M236.956 326.828C236.956 284.429 227.486 252.977 227.486 252.977L221.834 228.841C221.834 228.841 230.97 251.787 231.236 252.977C231.236 252.977 235.51 263.669 243.337 263.725C255.203 263.806 256.871 255.095 256.612 250.74C256.612 250.74 255.624 245.462 253.258 238.214C250.824 230.959 244.844 214.542 238.593 209.264C232.348 203.992 223.811 201.873 212.957 204.513C202.11 207.152 197.57 206.427 193.956 220.403C190.342 234.385 205.266 286.015 205.266 286.015L218.023 301.181L223.279 308.633L227.881 315.888L236.956 326.834V326.828Z" fill="#C4ECFF" stroke="#00001F" stroke-width="2.29876"/>
<path d="M274.693 182.489C278.263 185.271 284.619 183.672 287.134 180.34C291.285 174.832 289.944 166.178 286.003 160.955C283.211 157.257 279.43 154.165 275.551 151.669L261.553 142.649L260.695 171.592C260.695 171.592 274.686 182.489 274.693 182.495V182.489Z" fill="#C4ECFF" stroke="#00001F" stroke-width="2.29876"/>
<path d="M272.982 212.139C276.392 213.861 280.512 213.737 283.668 211.581C287.764 208.794 290.192 203.701 289.314 198.807C287.986 191.354 275.706 183.437 275.706 183.437L260.85 171.673L262.258 206.731L272.982 212.139Z" fill="#C4ECFF" stroke="#00001F" stroke-width="2.29876"/>
<path d="M231.303 269.592L212.759 294.911C212.759 294.911 207.496 293.065 205.266 286.009C203.029 278.953 195.271 242.755 195.271 242.755C195.271 242.755 190.601 234.974 193.232 225.675C195.796 216.376 197.902 210.181 197.902 210.181C197.902 210.181 217.565 213.873 221.901 228.841C226.176 243.808 230.778 267.021 231.303 269.592Z" fill="#00001F"/>
<path d="M146.564 159.766L157.985 146.329C157.985 146.329 177.401 125.637 191.336 122.273V212.38L160.5 244.991L148.775 226.741C148.775 226.741 138.193 175.879 140.627 168.854C143.061 161.829 146.564 159.766 146.564 159.766Z" fill="#C4ECFF" stroke="#00263E" stroke-width="2.29876"/>
<path d="M159.172 148.119C159.172 148.119 147.998 172.385 147.535 178.45C147.071 184.515 150.364 209.444 160.223 243.003C160.223 243.003 162.656 252.172 176.067 252.172H197.039C197.039 252.172 235.369 309.606 238.594 338.884H130.442C130.442 338.884 107.098 226.456 107.098 189.663C107.098 170.081 129.454 134.998 137.342 122.998C148.06 106.711 159.172 96.4211 159.172 96.4211C159.172 96.4211 165.547 91.081 181.923 88.51V119.9C181.923 119.832 170.551 130.909 159.172 148.125V148.119Z" fill="#C4ECFF" stroke="#00263E" stroke-width="2.29876"/>
<path d="M159.172 96.421L148.776 107.876L159.172 152.679V96.421Z" fill="#00001F"/>
<path d="M159.172 148.119C159.172 148.119 147.998 172.385 147.535 178.45C147.071 184.515 150.364 209.444 160.223 243.003C160.223 243.003 162.656 252.172 176.067 252.172H197.039C197.039 252.172 235.369 309.606 238.594 338.884H130.442C130.442 338.884 107.098 226.456 107.098 189.663C107.098 170.081 129.454 134.998 137.342 122.998C148.06 106.711 159.172 96.4211 159.172 96.4211C159.172 96.4211 165.547 91.081 181.923 88.51V119.9C181.923 119.832 170.551 130.909 159.172 148.125V148.119Z" stroke="#00001F" stroke-width="2.29876" stroke-linecap="round" stroke-linejoin="round"/>
<path d="M167.276 75.5251C167.276 73.0274 165.257 71.0027 162.766 71.0027C160.276 71.0027 158.257 73.0274 158.257 75.5251V106.482C158.257 108.98 160.276 111.004 162.766 111.004C165.257 111.004 167.276 108.98 167.276 106.482V75.5251Z" fill="#5AC1FF" stroke="#00001F" stroke-width="2.29876" stroke-linecap="round" stroke-linejoin="round"/>
<path d="M264.865 29.9293H171.718C164.233 29.9293 158.165 36.0147 158.165 43.5213V239.298C158.165 246.805 164.233 252.89 171.718 252.89H264.865C272.35 252.89 278.418 246.805 278.418 239.298V43.5213C278.418 36.0147 272.35 29.9293 264.865 29.9293Z" fill="#00263E" stroke="#00001F" stroke-width="2.29876"/>
<path d="M263.154 34.1791H173.423C167.538 34.1791 162.768 38.9636 162.768 44.8656V237.954C162.768 243.856 167.538 248.64 173.423 248.64H263.154C269.039 248.64 273.81 243.856 273.81 237.954V44.8656C273.81 38.9636 269.039 34.1791 263.154 34.1791Z" fill="#5AC1FF" stroke="#00001F" stroke-width="2.29876" stroke-linecap="round" stroke-linejoin="round"/>
<path d="M253.079 179.962C259.404 179.962 264.531 174.82 264.531 168.476C264.531 162.132 259.404 156.99 253.079 156.99C246.753 156.99 241.626 162.132 241.626 168.476C241.626 174.82 246.753 179.962 253.079 179.962Z" fill="#BCFEE6" stroke="#00263E" stroke-width="2.29876"/>
<path d="M259.935 43.0876H176.005C173.313 43.0876 171.131 45.276 171.131 47.9756V132.148C171.131 134.848 173.313 137.036 176.005 137.036H259.935C262.627 137.036 264.809 134.848 264.809 132.148V47.9756C264.809 45.276 262.627 43.0876 259.935 43.0876Z" fill="#F9F9F9" stroke="#00263E" stroke-width="2.29876"/>
<path d="M195.655 69.7451H188.613V110.366H195.655V69.7451Z" fill="#00263E"/>
<path d="M225.33 69.7451H218.288V110.366H225.33V69.7451Z" fill="#00263E"/>
<path d="M241.082 69.7451H234.04V110.366H241.082V69.7451Z" fill="#00263E"/>
<path d="M212.679 69.7451H208.583V110.366H212.679V69.7451Z" fill="#00263E"/>
<path d="M199.435 69.7451H197.366V110.366H199.435V69.7451Z" fill="#00263E"/>
<path d="M232.236 69.7451H230.167V110.366H232.236V69.7451Z" fill="#00263E"/>
<path d="M184.856 69.7451H182.787V110.366H184.856V69.7451Z" fill="#00263E"/>
<path d="M248.315 69.7451H246.246V110.366H248.315V69.7451Z" fill="#00263E"/>
<path d="M206.427 69.7451H204.358V110.366H206.427V69.7451Z" fill="#00263E"/>
<path d="M253.789 69.7451H250.558V110.366H253.789V69.7451Z" fill="#00263E"/>
<path d="M261.079 214.995H174.881C172.91 214.995 171.329 213.415 171.329 211.433V192.903C171.329 190.927 172.904 189.341 174.881 189.341H261.079C263.049 189.341 264.63 190.921 264.63 192.903V211.433C264.63 213.347 263.055 214.995 261.079 214.995Z" fill="#C4ECFF" stroke="#00263E" stroke-width="2.29876" stroke-linecap="round" stroke-linejoin="round"/>
<path d="M264.228 202.896H171.254" stroke="#00263E" stroke-width="2.29876" stroke-linecap="round" stroke-linejoin="round"/>
<path d="M257.069 193.095L260.157 195.796L257.267 198.633" stroke="#00263E" stroke-width="2.29876" stroke-linecap="round" stroke-linejoin="round"/>
<path d="M257.069 206.148L260.157 208.849L257.267 211.687" stroke="#00263E" stroke-width="2.29876" stroke-linecap="round" stroke-linejoin="round"/>
<path d="M248.075 170.062L251.411 173.079L258.076 164.691" stroke="#00263E" stroke-width="2.29876" stroke-linecap="round" stroke-linejoin="round"/>
<path d="M230.328 161.426H173.238C172.184 161.426 171.329 162.283 171.329 163.34V173.606C171.329 174.663 172.184 175.52 173.238 175.52H230.328C231.382 175.52 232.237 174.663 232.237 173.606V163.34C232.237 162.283 231.382 161.426 230.328 161.426Z" fill="#C4ECFF" stroke="#00263E" stroke-width="2.29876" stroke-linecap="round" stroke-linejoin="round"/>
<path d="M203.629 209.264H183.837V212.102H203.629V209.264Z" stroke="#00263E" stroke-width="2.29876" stroke-linecap="round" stroke-linejoin="round"/>
<path d="M203.629 222.045H183.837V224.882H203.629V222.045Z" stroke="#00263E" stroke-width="2.29876" stroke-linecap="round" stroke-linejoin="round"/>
<path d="M203.629 182.873H183.837V185.711H203.629V182.873Z" stroke="#00263E" stroke-width="2.29876" stroke-linecap="round" stroke-linejoin="round"/>
<path d="M238.667 338.816C240.576 296.943 208.621 267.535 209.671 245.314C209.936 240.172 217.497 193.287 219.863 180.296C221.834 169.281 216.836 156.755 205.199 155.572C195.599 154.58 191.454 162.888 191.454 162.888C184.35 178.382 180.014 188.145 172.521 205.157C165.028 222.169 146.811 282.044 146.811 282.044" fill="#C4ECFF"/>
<path d="M238.667 338.816C240.576 296.943 208.621 267.535 209.671 245.314C209.936 240.172 217.497 193.287 219.863 180.296C221.834 169.281 216.836 156.755 205.199 155.572C195.599 154.58 191.454 162.888 191.454 162.888C184.35 178.382 180.014 188.145 172.521 205.157C165.028 222.169 146.811 282.044 146.811 282.044" stroke="#00263E" stroke-width="2.29876"/>
<path d="M238.667 338.816C240.576 296.943 208.621 267.535 209.671 245.314C209.936 240.172 217.497 193.287 219.863 180.296C221.834 169.281 216.836 156.755 205.199 155.572C195.599 154.58 191.454 162.888 191.454 162.888C184.35 178.382 180.014 188.145 172.521 205.157C165.028 222.169 146.811 282.044 146.811 282.044" stroke="#00001F" stroke-width="2.29876" stroke-linecap="round" stroke-linejoin="round"/>
<path d="M190.139 165.719C194.809 155.039 205.199 156.749 208.547 161.959C212.099 167.435 209.467 175.476 206.706 181.678C204.47 186.758 202.036 192.823 196.711 190.512C192.962 188.864 187.044 187.012 181.454 185.166L190.139 165.713V165.719Z" stroke="#00001F" stroke-width="2.29876" stroke-linecap="round" stroke-linejoin="round"/>
<path d="M237.888 261.836L244.343 251.019H230.543L233.045 256.428L237.888 261.836Z" fill="#00001F"/>
</g>
<line x1="1" y1="339" x2="419" y2="339" stroke="#00001F" stroke-width="2" stroke-linecap="round" stroke-linejoin="round"/>
<defs>
<clipPath id="clip0_3381_3138">
<rect width="184.428" height="310.813" fill="white" transform="translate(106.171 29)"/>
</clipPath>
</defs>
</svg>
