<svg width="139" height="150" viewBox="0 0 139 150" fill="none" xmlns="http://www.w3.org/2000/svg">
<g clip-path="url(#clip0_4084_5813)">
<path d="M77.1548 59.7745C53.0564 64.1668 29.0091 69.8023 4.50905 64.5584C5.61154 86.2453 6.70732 107.935 7.8004 129.618C9.97607 130.065 12.146 130.421 14.3115 130.708C55.7257 136.507 95.9798 114.392 137.531 123.474C136.69 101.876 135.853 80.2852 135.019 58.6847C115.532 54.2004 96.3277 56.5921 77.1548 59.7745Z" fill="#08527F"/>
<path d="M12.6769 80.3941C13.4179 92.1018 14.1589 103.809 14.9039 115.508C14.9039 115.508 14.6866 117.031 16.021 118.653C17.3554 120.275 18.9976 121.734 18.9976 121.734C19.3403 122.157 19.6831 122.58 20.0231 122.997C20.0231 122.997 19.1508 123.864 21.6583 124.091C22.945 124.96 48.0015 124.183 72.5636 118.777C97.1071 113.113 121.558 112.612 121.588 113.263C121.588 113.263 122.973 113.835 124.182 112.511C125.39 111.181 126.865 109.204 126.865 109.204C126.865 109.204 128.035 108.996 127.971 106.643C127.904 104.282 127.839 72.2584 127.839 72.2584C127.839 72.2584 128.285 71.3762 126.365 70.5993C124.44 69.8089 121.08 66.7429 119.831 65.3126C118.619 63.8594 117.983 63.578 117.014 63.7045C116.518 63.0776 92.0584 64.0192 67.8725 68.9304C43.7015 74.1476 19.4336 73.9661 19.3999 73.3244C19.3999 73.3244 18.0209 72.5162 17.3683 74.2154C16.7118 75.924 14.9902 77.4076 14.0265 77.953C13.0429 78.5454 12.6756 80.4102 12.6756 80.4102L12.6769 80.3941Z" fill="#C1E9FF"/>
<path d="M77.1548 59.7745C53.0564 64.1668 29.0091 69.8023 4.50905 64.5584C5.61154 86.2453 6.70732 107.935 7.8004 129.618C9.97607 130.065 12.146 130.421 14.3115 130.708C55.7257 136.507 95.9798 114.392 137.531 123.474C136.69 101.876 135.853 80.2852 135.019 58.6847C115.532 54.2004 96.3277 56.5921 77.1548 59.7745Z" stroke="#121212" stroke-width="2" stroke-miterlimit="10" stroke-linecap="round"/>
<path d="M86.7043 110.905C87.9517 106.056 90.1798 95.5463 89.9846 90.0402C89.4537 75.5044 79.7877 70.4861 68.6285 72.6155C68.8617 72.5759 69.1017 72.5336 69.3349 72.4939C58.1987 74.6608 49.176 82.6274 50.1408 97.0034C50.5023 102.497 53.6037 111.969 55.3044 116.344" fill="#C1E9FF"/>
<path d="M86.7043 110.905C87.9517 106.056 90.1798 95.5463 89.9846 90.0402C89.4537 75.5044 79.7877 70.4861 68.6285 72.6155C68.8684 72.5732 69.1017 72.5336 69.3349 72.4939C58.1987 74.6608 49.176 82.6274 50.1408 97.0034C50.5023 102.497 53.6037 111.969 55.3044 116.344" stroke="#121212" stroke-width="2" stroke-linecap="round" stroke-linejoin="round"/>
<path d="M12.9687 79.1125C13.5913 92.023 14.2232 104.937 14.8524 117.845" stroke="#121212" stroke-width="2" stroke-miterlimit="10" stroke-linecap="round"/>
<path d="M50.5269 122.318C50.024 120.305 49.5211 118.292 49.0181 116.279C63.4874 114.287 77.8955 110.931 92.3561 108.803C92.1224 110.864 91.8915 112.932 91.6645 114.99" fill="#59BAFF"/>
<path d="M50.5269 122.318C50.024 120.305 49.5211 118.292 49.0181 116.279C63.4874 114.287 77.8955 110.931 92.3561 108.803C92.1224 110.864 91.8915 112.932 91.6645 114.99" stroke="#121212" stroke-width="2" stroke-linecap="round" stroke-linejoin="round"/>
<path d="M114.41 84.3345C112.62 80.7986 108.381 79.3522 104.939 81.2421C101.494 83.1252 100.156 87.4801 101.936 90.8402C103.72 94.207 107.951 95.4225 111.402 93.7085C114.853 91.9944 116.208 87.8744 114.416 84.3318L114.41 84.3345Z" fill="#C1E9FF" stroke="#121212" stroke-width="2" stroke-linecap="round" stroke-linejoin="round"/>
<path d="M38.0671 94.2198C36.2851 90.8369 32.0453 89.5624 28.5995 91.212C25.147 92.8642 23.7903 96.9614 25.5839 100.527C27.3708 104.095 31.6211 105.607 35.062 103.772C38.503 101.937 39.8492 97.6027 38.0671 94.2198Z" fill="#C1E9FF" stroke="#121212" stroke-width="2" stroke-linecap="round" stroke-linejoin="round"/>
<path d="M18.3487 66.6813C18.4805 67.3537 18.5894 67.9885 18.6005 68.6706C18.9314 75.4186 13.7259 80.713 6.89905 79.3829C6.32024 79.2812 5.81821 78.9457 5.23091 78.7461" stroke="#121212" stroke-width="2" stroke-miterlimit="10" stroke-linecap="round"/>
<path d="M18.3071 73.3952C38.1024 74.7228 57.6666 70.3369 77.2585 66.7514C90.9602 64.7111 104.687 63.0589 118.516 64.011" stroke="#121212" stroke-width="2" stroke-miterlimit="10" stroke-linecap="round"/>
<path d="M123.33 113.507C88.9392 111.357 55.263 126.285 20.8765 124.126" stroke="#121212" stroke-width="2" stroke-miterlimit="10" stroke-linecap="round"/>
<path d="M123.143 120.575C123.011 119.903 122.903 119.268 122.891 118.586C122.561 111.838 127.769 106.511 134.587 107.782C135.17 107.875 135.788 108.054 136.336 108.254" stroke="#121212" stroke-width="2" stroke-miterlimit="10" stroke-linecap="round"/>
<path d="M21.6053 131.321C21.7004 130.69 21.6893 130.009 21.6474 129.347C21.3165 122.564 15.5353 116.899 8.7103 115.602C8.12516 115.503 7.91986 115.477 7.35498 115.409" stroke="#121212" stroke-width="2" stroke-miterlimit="10" stroke-linecap="round"/>
<path d="M116.773 56.2884C116.789 56.695 117.093 71.6855 135.252 72.8719" stroke="#121212" stroke-width="2" stroke-miterlimit="10" stroke-linecap="round"/>
<path d="M127.83 108.339C127.784 96.0057 127.745 83.6701 127.692 71.3398" stroke="#121212" stroke-width="2" stroke-miterlimit="10" stroke-linecap="round"/>
<path d="M76.1723 47.9628C51.8017 50.4475 27.3845 54.1754 3.37061 47.0227C2.76594 68.7279 2.15437 90.4352 1.54063 112.136C3.67458 112.752 5.80994 113.278 7.94636 113.735C48.7796 122.769 90.6492 103.888 131.361 116.206C132.22 94.6105 133.081 73.0216 133.947 51.4238C114.872 45.4221 95.5372 46.2971 76.1723 47.9628Z" fill="#59BAFF"/>
<path d="M10.2698 63.4501C10.0887 75.1791 9.90768 86.9081 9.73136 98.6281C9.73136 98.6281 9.3951 100.13 10.598 101.851C11.8009 103.573 13.3236 105.156 13.3236 105.156C13.632 105.605 13.9404 106.054 14.2467 106.496C14.2467 106.496 13.3089 107.292 15.791 107.716C17.0055 108.683 42.0472 109.878 66.9596 106.418C91.8737 102.701 116.29 104.123 116.269 104.774C116.269 104.774 117.604 105.453 118.914 104.229C120.222 102.998 121.848 101.143 121.848 101.143C121.848 101.143 123.032 101.028 123.152 98.6766C123.271 96.3185 125.722 64.3904 125.722 64.3904C125.722 64.3904 126.236 63.546 124.383 62.6206C122.526 61.6814 119.417 58.3609 118.284 56.8371C117.19 55.2932 116.578 54.9628 115.602 55.0126C115.157 54.3488 90.6973 53.3651 66.1988 56.3601C41.6911 59.6614 17.511 57.5733 17.5278 56.931C17.5278 56.931 16.2165 56.017 15.4324 57.6595C14.6436 59.3111 12.8107 60.6547 11.8071 61.1227C10.7799 61.6359 10.2672 63.466 10.2672 63.466L10.2698 63.4501Z" fill="#F9F9F9"/>
<path d="M76.1723 47.9628C51.8017 50.4475 27.3845 54.1754 3.37061 47.0227C2.76594 68.7279 2.15437 90.4352 1.54063 112.136C3.67458 112.752 5.80994 113.278 7.94635 113.735C48.7796 122.769 90.6492 103.888 131.361 116.206C132.22 94.6105 133.081 73.0216 133.947 51.4238C114.872 45.4221 95.5372 46.2971 76.1723 47.9628Z" stroke="#121212" stroke-width="2" stroke-miterlimit="10" stroke-linecap="round"/>
<path d="M81.6762 99.6825C83.3008 94.9472 86.3479 84.6454 86.5859 79.1413C87.1986 64.6097 77.9562 58.8477 66.6634 60.0934C66.8991 60.0722 67.1416 60.0489 67.3773 60.0277C56.1045 61.3126 46.4832 68.545 46.3157 82.9515C46.2444 88.4561 48.5923 98.1422 49.9441 102.637" fill="#C1E9FF"/>
<path d="M81.6762 99.6825C83.3008 94.9472 86.3479 84.6454 86.5859 79.1413C87.1986 64.6097 77.9562 58.8477 66.6634 60.0934C66.9059 60.0701 67.1416 60.0489 67.3773 60.0277C56.1045 61.3126 46.4832 68.545 46.3157 82.9515C46.2444 88.4561 48.5923 98.1422 49.9441 102.637" stroke="#121212" stroke-width="2" stroke-linecap="round" stroke-linejoin="round"/>
<path d="M10.6645 62.1964C10.271 75.1152 9.88662 88.0387 9.50004 100.955" stroke="#121212" stroke-width="2" stroke-miterlimit="10" stroke-linecap="round"/>
<path d="M44.7111 108.218C44.3679 106.171 44.0246 104.125 43.6813 102.079C58.2631 101.231 72.891 99.0176 87.4749 98.0324C87.08 100.069 86.6874 102.112 86.2994 104.146" fill="#C1E9FF"/>
<path d="M44.7111 108.218C44.3679 106.171 44.0246 104.125 43.6813 102.079C58.2631 101.231 72.891 99.0176 87.4749 98.0324C87.08 100.069 86.6874 102.112 86.2994 104.146" stroke="#121212" stroke-width="2" stroke-linecap="round" stroke-linejoin="round"/>
<path d="M111.382 75.3723C109.876 71.7069 105.763 69.9319 102.183 71.5453C98.6004 73.1518 96.9242 77.3878 98.4355 80.8772C99.9489 84.3735 104.072 85.9177 107.647 84.4803C111.222 83.0429 112.897 79.0424 111.389 75.3701L111.382 75.3723Z" fill="#C1E9FF" stroke="#121212" stroke-width="2" stroke-linecap="round" stroke-linejoin="round"/>
<path d="M34.499 79.2284C32.9881 75.7161 28.8613 74.1125 25.2964 75.486C21.7245 76.8617 20.05 80.8394 21.5581 84.5345C23.0593 88.2318 27.1778 90.0731 30.7525 88.5145C34.3272 86.9559 36.0099 82.7406 34.499 79.2284Z" fill="#C1E9FF" stroke="#121212" stroke-width="2" stroke-linecap="round" stroke-linejoin="round"/>
<path d="M17.0052 50.2258C17.0839 50.9064 17.1425 51.5478 17.1 52.2287C16.8998 58.9815 11.2941 63.8501 4.59249 61.9876C4.02342 61.8408 3.54927 61.4669 2.97943 61.2217" stroke="#121212" stroke-width="2" stroke-miterlimit="10" stroke-linecap="round"/>
<path d="M16.4341 56.9137C36.0649 59.7931 55.9142 56.9587 75.7282 54.9244C89.5486 53.9675 103.363 53.3994 117.075 55.4356" stroke="#121212" stroke-width="2" stroke-miterlimit="10" stroke-linecap="round"/>
<path d="M117.985 105.157C83.8676 100.31 49.1212 112.544 15.0088 107.689" stroke="#121212" stroke-width="2" stroke-miterlimit="10" stroke-linecap="round"/>
<path d="M117.241 112.186C117.162 111.506 117.104 110.864 117.146 110.184C117.346 103.431 122.957 98.5302 129.655 100.333C130.229 100.471 130.831 100.698 131.362 100.941" stroke="#121212" stroke-width="2" stroke-miterlimit="10" stroke-linecap="round"/>
<path d="M15.1732 114.921C15.3175 114.299 15.36 113.619 15.3702 112.956C15.5732 106.169 10.2546 100.067 3.55232 98.238C2.97673 98.0934 2.77412 98.0512 2.21631 97.9389" stroke="#121212" stroke-width="2" stroke-miterlimit="10" stroke-linecap="round"/>
<path d="M115.941 47.5986C115.925 48.0053 115.05 62.9724 133.061 65.5822" stroke="#121212" stroke-width="2" stroke-miterlimit="10" stroke-linecap="round"/>
<path d="M122.876 100.355C123.798 88.0577 124.728 75.7578 125.644 63.4622" stroke="#121212" stroke-width="2" stroke-miterlimit="10" stroke-linecap="round"/>
<path d="M78.1922 45.7541L78.8508 17.9299L61.5106 17.5159L60.852 45.3401L48.8445 45.0589C47.3709 45.02 46.533 46.7424 47.4689 47.8786L56.9568 59.4243L67.5721 72.3373C68.2423 73.1559 69.4748 73.1765 70.1882 72.4012L81.4034 60.0058L91.4307 48.9292C92.4189 47.8303 91.6738 46.0842 90.1902 46.0457L78.1827 45.7646L78.1922 45.7541Z" fill="#F9F9F9" stroke="#02283F" stroke-width="2" stroke-linecap="round" stroke-linejoin="round"/>
</g>
<defs>
<clipPath id="clip0_4084_5813">
<rect width="139" height="150" fill="white"/>
</clipPath>
</defs>
</svg>
