<svg width="156" height="150" viewBox="0 0 156 150" fill="none" xmlns="http://www.w3.org/2000/svg">
<g clip-path="url(#clip0_4098_5971)">
<path d="M1.56095 31.2076C1.56097 26.2846 5.55182 22.2938 10.4748 22.2938L126.53 22.2938C131.453 22.2938 135.444 26.2847 135.444 31.2076L135.444 105.557C135.444 110.48 131.453 114.47 126.53 114.47L10.4746 114.47C5.55161 114.47 1.56075 110.48 1.56076 105.557L1.56095 31.2076Z" fill="#00001F" stroke="#00001F" stroke-width="1.98085"/>
<rect x="4.40839" y="21.494" width="133.883" height="89.652" rx="8.91383" fill="#F9F9F9" stroke="#00001F" stroke-width="1.98085"/>
<circle cx="28.848" cy="47.8468" r="9.86187" transform="rotate(0.734458 28.848 47.8468)" fill="#5AC1FF" stroke="#00001F" stroke-width="1.98085"/>
<circle cx="28.4838" cy="82.1703" r="9.86187" transform="rotate(0.734458 28.4838 82.1703)" fill="#C4ECFF" stroke="#00001F" stroke-width="1.98085"/>
<circle cx="57.6459" cy="48.2162" r="9.86187" transform="rotate(0.734458 57.6459 48.2162)" fill="#5AC1FF" stroke="#00001F" stroke-width="1.98085"/>
<path d="M52.3087 48.6061L55.8286 51.8739C56.2537 52.2685 56.9253 52.2151 57.2826 51.7582L62.3826 45.2381" stroke="#00001F" stroke-width="1.98085" stroke-linecap="round"/>
<path d="M24.0538 48.0646L27.5738 51.3324C27.9988 51.727 28.6704 51.6736 29.0277 51.2167L34.1277 44.6966" stroke="#00001F" stroke-width="1.98085" stroke-linecap="round"/>
<circle cx="57.2816" cy="82.5398" r="9.86187" transform="rotate(0.734458 57.2816 82.5398)" fill="#C4ECFF" stroke="#00001F" stroke-width="1.98085"/>
<circle cx="86.4428" cy="48.5854" r="9.86187" transform="rotate(0.734458 86.4428 48.5854)" fill="#5AC1FF" stroke="#00001F" stroke-width="1.98085"/>
<path d="M81.7306 48.9906L85.2505 52.2584C85.6756 52.653 86.3472 52.5996 86.7045 52.1428L91.8044 45.6226" stroke="#00001F" stroke-width="1.98085" stroke-linecap="round"/>
<circle cx="86.0795" cy="82.9089" r="9.86187" transform="rotate(0.734458 86.0795 82.9089)" fill="#C4ECFF" stroke="#00001F" stroke-width="1.98085"/>
<circle cx="115.241" cy="48.9545" r="9.86187" transform="rotate(0.734458 115.241 48.9545)" fill="#C4ECFF" stroke="#00001F" stroke-width="1.98085"/>
<circle cx="114.877" cy="83.2778" r="9.86187" transform="rotate(0.734458 114.877 83.2778)" fill="#C4ECFF" stroke="#00001F" stroke-width="1.98085"/>
<circle cx="124.044" cy="96.8062" r="30.691" fill="#5AC1FF" stroke="#00001F" stroke-width="2.23961"/>
<path d="M122.849 112.667L122.817 112.665H122.784C120.947 112.665 118.152 112.06 115.842 110.264C113.589 108.512 111.706 105.559 111.697 100.636C111.833 98.53 112.702 94.2219 114.981 90.8874C115.048 91.5045 115.223 92.2088 115.67 92.7945C116.22 93.5145 117.054 93.8926 118.089 93.8926C119.475 93.8926 121.14 92.9365 122.031 90.8875C122.884 88.9246 123.023 86.0177 121.796 81.9016C123.934 82.9231 127.245 84.8773 130.106 87.7897C133.225 90.9636 135.749 95.2102 135.749 100.601C135.749 105.833 133.587 108.843 130.972 110.563C128.288 112.327 125.022 112.794 122.849 112.667ZM121.626 81.3266C121.626 81.3267 121.626 81.3295 121.626 81.3347C121.626 81.329 121.626 81.3265 121.626 81.3266Z" fill="#C4ECFF" stroke="#00001F" stroke-width="2.23961"/>
<path d="M118.089 103.61C118.089 98.8056 122.724 96.095 124.589 95.2864C124.939 95.1345 125.183 95.4109 125.065 95.7739C123.924 99.2936 125.384 100.348 126.138 100.348C126.77 100.348 126.961 99.9241 126.999 99.4444C127.036 98.9834 127.464 98.7602 127.743 99.1295C128.884 100.642 129.297 102.652 129.357 103.61C129.357 108.004 125.87 109.103 124.126 109.103C122.114 109.217 118.089 108.279 118.089 103.61Z" fill="#08527F"/>
</g>
<defs>
<clipPath id="clip0_4098_5971">
<rect width="156" height="150" fill="white"/>
</clipPath>
</defs>
</svg>
