<svg width="165" height="150" viewBox="0 0 165 150" fill="none" xmlns="http://www.w3.org/2000/svg">
<g clip-path="url(#clip0_4084_5774)">
<path d="M117.917 91.403C123.569 85.3161 137.755 88.7107 149.576 98.9905C161.419 109.281 166.411 122.551 160.748 128.659C160.671 128.755 160.561 128.84 160.484 128.936C156.668 132.692 149.367 132.49 141.504 129.064C137.37 127.265 133.081 124.562 129.078 121.072C117.642 111.122 112.573 98.3839 117.367 92.0415C117.532 91.8181 117.719 91.6159 117.895 91.403H117.917Z" fill="#59BAFF"/>
<path d="M122.327 128.372C126.56 132.075 131.113 134.884 135.467 136.662C143.231 139.865 150.356 139.865 153.985 135.959L160.528 128.957H160.484C156.668 132.682 149.366 132.479 141.515 129.064C137.381 127.265 133.092 124.562 129.089 121.072C117.653 111.122 112.584 98.3839 117.378 92.0416L111.132 98.7032C105.48 104.79 110.473 118.071 122.305 128.372H122.327ZM141.504 129.138H141.471H141.515H141.504Z" fill="#08527F"/>
<path d="M160.549 128.968L154.007 135.959C150.378 139.865 143.252 139.865 135.489 136.662C131.134 134.852 126.571 132.064 122.348 128.372C110.505 118.081 105.513 104.811 111.176 98.7031L117.4 92.0308" stroke="#02283F" stroke-width="2" stroke-linecap="round" stroke-linejoin="round"/>
<path d="M160.506 128.936C160.594 128.861 160.693 128.755 160.77 128.659C166.422 122.572 161.418 109.291 149.597 98.9904C137.765 88.7 123.58 85.3054 117.939 91.3923C117.752 91.5945 117.587 91.8073 117.411 92.0415C112.628 98.3732 117.675 111.122 129.122 121.072C133.136 124.573 137.413 127.254 141.548 129.063C149.399 132.49 156.701 132.692 160.528 128.936H160.517H160.506Z" stroke="#02283F" stroke-width="2" stroke-linecap="round" stroke-linejoin="round"/>
<path d="M133.961 125.68L127.671 131.873" stroke="#02283F" stroke-width="2" stroke-linecap="round" stroke-linejoin="round"/>
<path d="M130.266 123.009L123.976 129.202" stroke="#02283F" stroke-width="2" stroke-linecap="round" stroke-linejoin="round"/>
<path d="M127.462 92.8504C126.373 92.9781 125.405 93.2761 124.581 93.7656C124.097 94.0423 123.679 94.3828 123.305 94.7765C119.292 99.1077 123.503 109.143 132.74 117.166C141.977 125.19 152.72 128.191 156.745 123.849C158.24 122.232 158.592 119.848 157.976 117.049C157.691 115.74 157.163 114.325 156.47 112.878" stroke="#02283F" stroke-width="2" stroke-linecap="round" stroke-linejoin="round"/>
<path d="M86.8119 45.8017L44.8915 45.2781C30.8118 45.1059 19.3705 56.0917 19.3356 69.8197L19.2158 126.008C19.1998 133.108 39.9901 139.128 65.6511 139.444C91.312 139.76 112.123 134.272 112.139 127.171L112.259 70.9831C112.285 57.2568 100.893 45.9831 86.8119 45.8017Z" fill="#F9F9F9" stroke="#02283F" stroke-width="2" stroke-linecap="round" stroke-linejoin="round"/>
<path d="M35.6968 115.932C42.9727 114.721 56.2727 113.45 65.5619 113.566C81.6519 113.766 95.8412 116.213 104.204 119.767" fill="#59BAFF"/>
<path d="M35.6968 115.932C42.9727 114.721 56.2727 113.45 65.5619 113.566C81.6519 113.766 95.8412 116.213 104.204 119.767" stroke="#02283F" stroke-width="2" stroke-linecap="round" stroke-linejoin="round"/>
<path d="M28.2887 34.3972L28.2989 44.0053C28.3018 49.9355 45.5507 55.0162 66.8045 55.3567C88.066 55.6864 105.294 51.1514 105.281 45.2228L105.271 35.6147L28.2905 34.4065L28.2887 34.3972Z" fill="#59BAFF" stroke="#02283F" stroke-width="2" stroke-linecap="round" stroke-linejoin="round"/>
<path d="M105.498 35.7081C105.49 30.0238 88.1938 25.1546 66.865 24.8325C45.5362 24.5104 28.2518 28.8573 28.2593 34.5416C28.2669 40.2259 45.5634 45.0951 66.8922 45.4172C88.2211 45.7394 105.505 41.3925 105.498 35.7081Z" fill="#84CCFF" stroke="#02283F" stroke-width="2" stroke-linecap="round" stroke-linejoin="round"/>
<path d="M1.82619 17.3089L41.9133 39.0669C41.9133 39.0669 56.6486 24.634 79.9883 35.4577C79.9883 35.4577 72.4894 23.4276 49.6346 16.8942C26.7798 10.3608 1.82619 17.3089 1.82619 17.3089Z" fill="#59BAFF" stroke="#02283F" stroke-width="2" stroke-linecap="round" stroke-linejoin="round"/>
<path d="M21.6143 14.7528C22.4044 19.0064 20.7717 23.2334 17.5389 26.0535L21.6143 14.7528Z" fill="#0E80C6"/>
<path d="M21.6143 14.7528C22.4044 19.0064 20.7717 23.2334 17.5389 26.0535" stroke="#02283F" stroke-width="2" stroke-linecap="round" stroke-linejoin="round"/>
<path d="M29.5678 31.9074C32.5063 29.7979 38.0994 29.5694 41.7256 30.1826C45.3518 30.7958 46.695 31.9207 49.6509 34.1056" fill="#59BAFF"/>
<path d="M29.5678 31.9074C32.5063 29.7979 38.0994 29.5694 41.7256 30.1826C45.3518 30.7958 46.695 31.9207 49.6509 34.1056" stroke="#02283F" stroke-width="2" stroke-linecap="round" stroke-linejoin="round"/>
<path d="M64.3533 24.1006C47.9468 16.9005 36.4023 17.3611 21.6858 18.4442C21.4563 19.5732 20.9975 21.0758 20.465 22.0935C24.6285 24.3541 30.6348 27.6132 35.1661 30.0698C37.4804 29.7836 39.9147 29.8692 41.8097 30.1799C43.3954 30.4473 44.6115 30.8633 45.7191 31.4219C46.5519 30.9559 47.2468 30.5801 47.4636 30.4956C50.3954 29.3304 53.4924 28.5196 56.6379 28.112C63.2467 27.2334 73.4025 29.0447 78.5608 33.4993C75.3021 30.5405 68.3194 25.8399 64.3533 24.1006Z" fill="#C1E9FF" stroke="#02283F" stroke-width="2" stroke-linecap="round" stroke-linejoin="round"/>
<path d="M48.243 25.0938C48.6059 23.7452 46.9899 22.1517 44.6336 21.5345C42.2774 20.9173 40.0731 21.5101 39.7102 22.8587C39.3474 24.2072 40.9633 25.8008 43.3196 26.418C45.6759 27.0352 47.8801 26.4423 48.243 25.0938Z" fill="#0E80C6" stroke="#02283F" stroke-width="2" stroke-linecap="round" stroke-linejoin="round"/>
<path d="M47.6694 34.877L86.0164 35.3578" stroke="#02283F" stroke-width="2" stroke-linecap="round" stroke-linejoin="round"/>
<path d="M48.6733 53.5641C46.413 57.7916 43.0533 62.9587 43.0533 62.9587L79.3705 72.0698C79.3705 72.0698 82.7194 63.3735 83.2636 54.3681C78.3004 54.9386 72.7568 55.2157 66.9 55.1259C60.3025 55.0179 54.1036 54.4608 48.6733 53.5641Z" fill="#59BAFF" stroke="#02283F" stroke-width="2" stroke-linecap="round" stroke-linejoin="round"/>
<path d="M48.0337 55.7703C50.357 56.4481 52.7031 57.444 53.9617 59.4855C55.2203 61.527 55.7337 63.6943 55.2562 66.0102" stroke="#02283F" stroke-width="2" stroke-linecap="round" stroke-linejoin="round"/>
<path d="M69.3538 69.4106C70.492 67.0425 72.4245 65.067 74.7946 63.8513C77.1646 62.6356 79.3761 62.4147 82.0336 62.8466" stroke="#02283F" stroke-width="2" stroke-linecap="round" stroke-linejoin="round"/>
<path d="M53.8558 59.0975C54.1918 59.633 54.5888 60.0817 54.7971 60.8107L73.2066 64.9993C73.717 64.6266 74.2552 64.2969 74.821 64.0103C75.5283 63.6521 76.2704 63.374 77.0233 63.1513C77.3552 61.7008 78.5513 57.5827 78.9005 54.8111C75.1787 55.0862 71.2145 55.2112 67.0872 55.144C62.639 55.0737 58.3731 54.7911 54.3942 54.3359C54.1724 54.7459 52.8965 57.4925 52.7015 57.8406C53.1714 58.3152 53.5569 58.6036 53.854 59.0883L53.8558 59.0975Z" fill="#C1E9FF" stroke="#02283F" stroke-width="2" stroke-linecap="round" stroke-linejoin="round"/>
<path d="M74.7653 130.346C79.2842 124.568 81.4899 116.835 81.5377 112.039C76.8872 111.62 69.8717 109.738 63.6948 104.716C59.3556 101.192 56.3266 96.4951 56.3266 96.4951L38.9976 124.445C38.9976 124.445 49.8338 133.704 64.4596 134.476C68.1755 134.676 72.5164 133.214 74.7653 130.346Z" fill="#59BAFF" stroke="#02283F" stroke-width="2" stroke-linecap="round" stroke-linejoin="round"/>
<path d="M51.3105 105.067C52.6437 105.68 54.1008 106.177 55.5651 106.145C57.8255 106.101 60.3139 105.357 61.9437 103.832" stroke="#02283F" stroke-width="2" stroke-linecap="round" stroke-linejoin="round"/>
<path d="M43.7515 117.449C45.2807 118.933 46.9717 121.475 47.3092 123.513C47.5453 124.964 47.2226 127.777 46.1037 128.97" stroke="#02283F" stroke-width="2" stroke-linecap="round" stroke-linejoin="round"/>
<path d="M59.3566 108.046C58.7702 107.567 58.2121 107.084 57.671 106.588C56.9367 106.761 56.2295 106.872 55.5724 106.89C55.456 106.891 55.3362 106.873 55.2087 106.866L46.6048 120.749C47.0947 121.69 47.4606 122.643 47.5986 123.521C47.6679 123.936 47.6965 124.443 47.6833 124.986C52.3172 127.392 59.0024 130.065 65.8065 130.658C71.7409 131.171 77.7038 129.64 78.4162 128.74C81.0107 125.431 82.1793 120.6 83.1693 116.873C77.6737 116.113 65.2153 112.805 59.3678 108.054L59.3566 108.046Z" fill="#C1E9FF" stroke="#02283F" stroke-width="2" stroke-linecap="round" stroke-linejoin="round"/>
<path d="M78.2691 101.733C78.2691 101.733 82.5374 111.058 79.4556 121.061C78.0521 125.612 74.9967 132.493 67.6531 134.174C67.6531 134.174 85.1384 133.688 96.5083 116.214C106.699 100.543 106.573 86.2267 107.292 78.6933L78.2691 101.733Z" fill="#59BAFF" stroke="#02283F" stroke-width="2" stroke-linecap="round" stroke-linejoin="round"/>
<path d="M105.151 91.5669C101.2 91.0387 99.605 89.7388 97.9561 86.2218" stroke="#02283F" stroke-width="2" stroke-linecap="round" stroke-linejoin="round"/>
<path d="M86.9944 94.8481C88.0769 97.8903 87.4653 101.241 86.0052 104.103C84.5451 106.964 83.1436 107.895 80.3381 109.538" stroke="#02283F" stroke-width="2" stroke-linecap="round" stroke-linejoin="round"/>
<path d="M85.4928 124.679C98.995 110.287 99.5635 103.641 102.396 90.9965C101.706 90.7353 100.703 90.1578 100.19 89.7052L87.3495 99.7752C87.0811 101.423 86.6004 102.822 85.9644 104.068C85.3207 105.325 84.6483 106.227 83.8744 107.004C84.5517 111.428 84.4718 113.811 83.7001 117.402C82.0385 125.136 74.8982 132.479 68.865 133.813C72.7203 132.965 81.1291 129.329 85.4834 124.68L85.4928 124.679Z" fill="#C1E9FF" stroke="#02283F" stroke-width="2" stroke-linecap="round" stroke-linejoin="round"/>
<path d="M67.5593 122.119C67.9498 120.397 66.5366 118.622 64.403 118.154C62.2693 117.686 60.223 118.703 59.8325 120.425C59.442 122.148 60.8552 123.923 62.9889 124.391C65.1225 124.859 67.1688 123.842 67.5593 122.119Z" fill="#0E80C6" stroke="#02283F" stroke-width="2" stroke-linecap="round" stroke-linejoin="round"/>
</g>
<defs>
<clipPath id="clip0_4084_5774">
<rect width="165" height="150" fill="white"/>
</clipPath>
</defs>
</svg>
