<svg width="129" height="150" viewBox="0 0 129 150" fill="none" xmlns="http://www.w3.org/2000/svg">
<g clip-path="url(#clip0_4098_6005)">
<path d="M77.2485 21.6239C77.0039 21.3712 76.644 21.2239 76.2169 21.226L2.73401 21.5896C2.39243 21.5912 2.03759 21.8157 1.82098 22.2663C1.6027 22.7204 1.62498 23.2101 1.8431 23.5402C6.45439 30.5193 14.2612 47.5634 6.5699 75.6742C-2.42915 108.565 15.3482 129.307 19.224 133.342C19.4945 133.623 19.8778 133.78 20.3312 133.778L102.379 133.266C102.729 133.263 103.15 132.982 103.382 132.35C103.613 131.719 103.5 131.133 103.212 130.833C96.4285 123.768 85.515 107.372 89.321 77.5065C93.9466 41.2099 80.4229 24.9031 77.2485 21.6239Z" fill="#00001F" stroke="#00001F" stroke-width="2"/>
<path d="M83.6192 16.7379C83.373 16.4834 83.01 16.3355 82.5806 16.3394L6.02449 17.0339C5.68318 17.037 5.3587 17.2468 5.16651 17.6325C4.97238 18.0221 4.98511 18.4561 5.19142 18.7731C10.0268 26.2025 19.589 45.6962 11.5962 74.9093C2.59797 107.797 19.5796 125.858 23.2441 129.293C23.4986 129.532 23.8468 129.664 24.263 129.661L108.676 129.175C109.026 129.173 109.43 128.904 109.652 128.312C109.875 127.72 109.774 127.156 109.492 126.852C102.87 119.717 91.8306 102.878 95.6871 72.6157C100.31 36.3368 86.8022 20.0283 83.6192 16.7379Z" fill="#F9F9F9"/>
<path d="M83.6192 16.7379C83.373 16.4834 83.01 16.3355 82.5806 16.3394L6.02449 17.0339C5.68318 17.037 5.3587 17.2468 5.16651 17.6325C4.97238 18.0221 4.98511 18.4561 5.19142 18.7731C10.0268 26.2025 19.589 45.6962 11.5962 74.9093C2.59797 107.797 19.5796 125.858 23.2441 129.293C23.4986 129.532 23.8468 129.664 24.263 129.661L108.676 129.175C109.026 129.173 109.43 128.904 109.652 128.312C109.875 127.72 109.774 127.156 109.492 126.852C102.87 119.717 91.8306 102.878 95.6871 72.6157C100.31 36.3368 86.8022 20.0283 83.6192 16.7379Z" stroke="#00001F" stroke-width="2"/>
<path d="M83.6192 16.7379C83.373 16.4834 83.01 16.3355 82.5806 16.3394L6.02449 17.0339C5.68318 17.037 5.3587 17.2468 5.16651 17.6325C4.97238 18.0221 4.98511 18.4561 5.19142 18.7731C10.0268 26.2025 19.589 45.6962 11.5962 74.9093C2.59797 107.797 19.5796 125.858 23.2441 129.293C23.4986 129.532 23.8468 129.664 24.263 129.661L108.676 129.175C109.026 129.173 109.43 128.904 109.652 128.312C109.875 127.72 109.774 127.156 109.492 126.852C102.87 119.717 91.8306 102.878 95.6871 72.6157C100.31 36.3368 86.8022 20.0283 83.6192 16.7379Z" stroke="#00001F" stroke-width="2"/>
<rect x="73.5408" y="95.9224" width="13.5168" height="51.9706" rx="1.74925" transform="rotate(-67.5707 73.5408 95.9224)" fill="#5AC1FF"/>
<rect x="73.5408" y="95.9224" width="13.5168" height="51.9706" rx="1.74925" transform="rotate(-67.5707 73.5408 95.9224)" stroke="#00001F" stroke-width="2"/>
<rect x="73.5408" y="95.9224" width="13.5168" height="51.9706" rx="1.74925" transform="rotate(-67.5707 73.5408 95.9224)" stroke="#00001F" stroke-width="2"/>
<path d="M98.2924 109.129C97.3314 108.733 96.874 107.632 97.2706 106.671L103.041 92.6914C103.438 91.7305 104.538 91.273 105.499 91.6697L126.641 100.396C127.534 100.765 127.96 101.788 127.591 102.681L121.719 116.907C121.35 117.8 120.328 118.225 119.435 117.856L98.2924 109.129Z" fill="#08527F"/>
<path d="M98.2924 109.129C97.3314 108.733 96.874 107.632 97.2706 106.671L103.041 92.6914C103.438 91.7305 104.538 91.273 105.499 91.6697L126.641 100.396C127.534 100.765 127.96 101.788 127.591 102.681L121.719 116.907C121.35 117.8 120.328 118.225 119.435 117.856L98.2924 109.129Z" stroke="#00001F" stroke-width="2"/>
<path d="M98.2924 109.129C97.3314 108.733 96.874 107.632 97.2706 106.671L103.041 92.6914C103.438 91.7305 104.538 91.273 105.499 91.6697L126.641 100.396C127.534 100.765 127.96 101.788 127.591 102.681L121.719 116.907C121.35 117.8 120.328 118.225 119.435 117.856L98.2924 109.129Z" stroke="#00001F" stroke-width="2"/>
<circle cx="58.3981" cy="81.7791" r="27.4704" transform="rotate(-67.5707 58.3981 81.7791)" fill="#5AC1FF"/>
<circle cx="58.3981" cy="81.7791" r="27.4704" transform="rotate(-67.5707 58.3981 81.7791)" stroke="#00001F" stroke-width="2"/>
<circle cx="58.3981" cy="81.7791" r="27.4704" transform="rotate(-67.5707 58.3981 81.7791)" stroke="#00001F" stroke-width="2"/>
<circle cx="58.3987" cy="81.7793" r="20.5312" transform="rotate(-67.5707 58.3987 81.7793)" fill="#C4ECFF"/>
<circle cx="58.3987" cy="81.7793" r="20.5312" transform="rotate(-67.5707 58.3987 81.7793)" stroke="#00001F" stroke-width="2"/>
<circle cx="58.3987" cy="81.7793" r="20.5312" transform="rotate(-67.5707 58.3987 81.7793)" stroke="#00001F" stroke-width="2"/>
<path d="M50.0843 82.3937L57.3866 89.5248L67.7222 76.9048" stroke="#00001F" stroke-width="2" stroke-linecap="round" stroke-linejoin="round"/>
<path d="M50.0843 82.3937L57.3866 89.5248L67.7222 76.9048" stroke="#00001F" stroke-width="2" stroke-linecap="round" stroke-linejoin="round"/>
<path d="M26.6456 37.5797C28.7621 34.9456 33.6968 30.3897 36.5044 33.2388C40.0137 36.8002 41.9624 36.7293 43.7565 36.1225C46.9227 35.0515 49.7413 30.6413 53.026 33.1949C55.5045 35.1216 56.8487 38.9815 60.5647 36.3499C64.2806 33.7183 68.9949 29.3823 73.8611 36.1238" stroke="#00001F" stroke-width="2" stroke-linecap="round"/>
<path d="M26.6456 37.5797C28.7621 34.9456 33.6968 30.3897 36.5044 33.2388C40.0137 36.8002 41.9624 36.7293 43.7565 36.1225C46.9227 35.0515 49.7413 30.6413 53.026 33.1949C55.5045 35.1216 56.8487 38.9815 60.5647 36.3499C64.2806 33.7183 68.9949 29.3823 73.8611 36.1238" stroke="#00001F" stroke-width="2" stroke-linecap="round"/>
<path d="M25.8934 48.93C28.0098 46.2959 32.9446 41.74 35.7521 44.5891C39.2615 48.1505 41.2102 48.0796 43.0043 47.4727C46.1705 46.4018 50.1965 42.2906 53.4813 44.8441C55.9597 46.7708 59.1472 48.8249 62.8631 46.1933" stroke="#00001F" stroke-width="2" stroke-linecap="round"/>
<path d="M25.8934 48.93C28.0098 46.2959 32.9446 41.74 35.7521 44.5891C39.2615 48.1505 41.2102 48.0796 43.0043 47.4727C46.1705 46.4018 50.1965 42.2906 53.4813 44.8441C55.9597 46.7708 59.1472 48.8249 62.8631 46.1933" stroke="#00001F" stroke-width="2" stroke-linecap="round"/>
</g>
<defs>
<clipPath id="clip0_4098_6005">
<rect width="129" height="120" fill="white" transform="translate(0 15)"/>
</clipPath>
</defs>
</svg>
