<svg width="125" height="25px" xmlns="http://www.w3.org/2000/svg">
  <!-- First star -->
  <path d="M11.2143 1.11311C11.4773 0.661559 12.1296 0.661559 12.3926 1.11311L15.8149 6.98883C15.9113 7.15424 16.0727 7.27153 16.2598 7.31204L22.9054 8.75114C23.4161 8.86174 23.6177 9.48213 23.2695 9.8718L18.739 14.9423C18.6114 15.085 18.5498 15.2748 18.5691 15.4653L19.254 22.2304C19.3067 22.7503 18.7789 23.1337 18.3007 22.923L12.0784 20.181C11.9033 20.1038 11.7037 20.1038 11.5285 20.181L5.30623 22.923C4.82805 23.1337 4.3003 22.7503 4.35294 22.2304L5.0379 15.4653C5.05718 15.2748 4.99552 15.085 4.86798 14.9423L0.337409 9.8718C-0.0107605 9.48213 0.19082 8.86174 0.701534 8.75114L7.34718 7.31204C7.53426 7.27153 7.6957 7.15424 7.79204 6.98883L11.2143 1.11311Z" fill="#FFCB47"></path>
  <!-- Second star -->
  <path d="M36.2143 1.11311C36.4773 0.661559 37.1296 0.661559 37.3926 1.11311L40.8149 6.98883C40.9113 7.15424 41.0727 7.27153 41.2598 7.31204L47.9054 8.75114C48.4161 8.86174 48.6177 9.48213 48.2695 9.8718L43.739 14.9423C43.6114 15.085 43.5498 15.2748 43.5691 15.4653L44.254 22.2304C44.3067 22.7503 43.7789 23.1337 43.3007 22.923L37.0784 20.181C36.9033 20.1038 36.7037 20.1038 36.5285 20.181L30.3062 22.923C29.828 23.1337 29.3003 22.7503 29.3529 22.2304L30.0379 15.4653C30.0572 15.2748 29.9955 15.085 29.868 14.9423L25.3374 9.8718C24.9892 9.48213 25.1908 8.86174 25.7015 8.75114L32.3472 7.31204C32.5343 7.27153 32.6957 7.15424 32.792 6.98883L36.2143 1.11311Z" fill="#FFCB47"></path>
  <!-- Third star -->
  <path d="M61.2143 1.11311C61.4773 0.661559 62.1296 0.661559 62.3926 1.11311L65.8149 6.98883C65.9113 7.15424 66.0727 7.27153 66.2598 7.31204L72.9054 8.75114C73.4161 8.86174 73.6177 9.48213 73.2695 9.8718L68.739 14.9423C68.6114 15.085 68.5498 15.2748 68.5691 15.4653L69.254 22.2304C69.3067 22.7503 68.7789 23.1337 68.3007 22.923L62.0784 20.181C61.9033 20.1038 61.7037 20.1038 61.5285 20.181L55.3062 22.923C54.828 23.1337 54.3003 22.7503 54.3529 22.2304L55.0379 15.4653C55.0572 15.2748 54.9955 15.085 54.868 14.9423L50.3374 9.8718C49.9892 9.48213 50.1908 8.86174 50.7015 8.75114L57.3472 7.31204C57.5343 7.27153 57.6957 7.15424 57.792 6.98883L61.2143 1.11311Z" fill="#FFCB47"></path>
  <!-- Fourth star -->
  <path d="M86.2143 1.11311C86.4773 0.661559 87.1296 0.661559 87.3926 1.11311L90.8149 6.98883C90.9113 7.15424 91.0727 7.27153 91.2598 7.31204L97.9054 8.75114C98.4161 8.86174 98.6177 9.48213 98.2695 9.8718L93.739 14.9423C93.6114 15.085 93.5498 15.2748 93.5691 15.4653L94.254 22.2304C94.3067 22.7503 93.7789 23.1337 93.3007 22.923L87.0784 20.181C86.9033 20.1038 86.7037 20.1038 86.5285 20.181L80.3062 22.923C79.828 23.1337 79.3003 22.7503 79.3529 22.2304L80.0379 15.4653C80.0572 15.2748 79.9955 15.085 79.868 14.9423L75.3374 9.8718C74.9892 9.48213 75.1908 8.86174 75.7015 8.75114L82.3472 7.31204C82.5343 7.27153 82.6957 7.15424 82.792 6.98883L86.2143 1.11311Z" fill="#FFCB47"></path>
  <!-- Fifth star -->
  <path d="M111.214 1.11311C111.477 0.661559 112.13 0.661559 112.393 1.11311L115.815 6.98883C115.911 7.15424 116.073 7.27153 116.26 7.31204L122.905 8.75114C123.416 8.86174 123.618 9.48213 123.269 9.8718L118.739 14.9423C118.611 15.085 118.55 15.2748 118.569 15.4653L119.254 22.2304C119.307 22.7503 118.779 23.1337 118.301 22.923L112.078 20.181C111.903 20.1038 111.704 20.1038 111.528 20.181L105.306 22.923C104.828 23.1337 104.3 22.7503 104.353 22.2304L105.038 15.4653C105.057 15.2748 104.996 15.085 104.868 14.9423L100.337 9.8718C99.9892 9.48213 100.191 8.86174 100.701 8.75114L107.347 7.31204C107.534 7.27153 107.696 7.15424 107.792 6.98883L111.214 1.11311Z" fill="#FFCB47"></path>
</svg>
