<svg width="146" height="122" viewBox="0 0 146 122" fill="none" xmlns="http://www.w3.org/2000/svg">
<path d="M41.2962 46.0901L2.33103 113.532C0.328509 116.944 3.39941 121.089 7.24782 120.166L83.254 102.726L41.3018 46.0845L41.2962 46.0901Z" fill="#5AC1FF" stroke="#121212" stroke-width="2" stroke-linecap="round" stroke-linejoin="round"/>
<path d="M83.0019 94.7773C34.7289 113.052 7.63337 118.97 7.63337 118.97C6.5538 119.233 5.01555 119.708 3.16406 119.093C4.1877 120.049 5.64763 120.547 7.24741 120.167L85.9217 101.355L83.0019 94.7773Z" fill="#121212" stroke="#121212" stroke-width="2" stroke-linecap="round" stroke-linejoin="round"/>
<path d="M85.9164 101.397C93.517 95.7501 90.1335 78.3248 78.3592 62.4764C66.5848 46.628 50.8783 38.3579 43.2777 44.0047C35.6771 49.6514 39.0606 67.0767 50.835 82.9251C62.6093 98.7735 78.3158 107.044 85.9164 101.397Z" fill="#CCECFF" stroke="#121212" stroke-width="2" stroke-linecap="round" stroke-linejoin="round"/>
<path d="M80.0658 99.8171C72.7045 99.8171 61.797 92.0476 53.5296 80.9218C42.1466 65.6009 40.049 50.5876 45.279 46.7C46.2747 45.9617 47.5668 45.5869 49.1274 45.5869C56.4886 45.5869 67.4018 53.3565 75.6636 64.4822C81.067 71.7539 84.7756 79.5402 86.1069 86.4036C87.2591 92.3272 86.4593 96.8133 83.9142 98.704C82.9185 99.4423 81.6264 99.8171 80.0658 99.8171Z" fill="#08527F" stroke="#121212" stroke-width="2" stroke-linecap="round" stroke-linejoin="round"/>
<path d="M114.343 59.241C115.755 59.241 116.9 58.0965 116.9 56.6847C116.9 55.2729 115.755 54.1284 114.343 54.1284C112.932 54.1284 111.787 55.2729 111.787 56.6847C111.787 58.0965 112.932 59.241 114.343 59.241Z" fill="#121212" stroke="#121212" stroke-width="2" stroke-linecap="round" stroke-linejoin="round"/>
<path d="M92.7072 54.7382C93.6927 54.7382 94.4916 53.9393 94.4916 52.9538C94.4916 51.9683 93.6927 51.1694 92.7072 51.1694C91.7217 51.1694 90.9229 51.9683 90.9229 52.9538C90.9229 53.9393 91.7217 54.7382 92.7072 54.7382Z" stroke="#121212" stroke-width="2" stroke-linecap="round" stroke-linejoin="round"/>
<path d="M101.83 33.292L101.287 28.7388L104.772 32.0614L108.497 30.8364L106.953 34.3827L109.722 36.9782L104.828 36.7321L103.004 40.5301L102.098 36.5475L98.0371 35.5686L101.83 33.292Z" fill="#CCECFF" stroke="#121212" stroke-width="2" stroke-linecap="round" stroke-linejoin="round"/>
<path d="M55.9512 4.54078L64.5933 1.69922C64.5933 1.69922 69.2137 13.2053 61.3043 19.5988C61.3043 19.5988 65.7568 10.7889 55.9512 4.54078Z" fill="#CCECFF" stroke="#121212" stroke-width="2" stroke-linecap="round" stroke-linejoin="round"/>
<path d="M61.2985 19.5986C61.2985 19.5986 51.5544 24.7056 58.6639 37.0731L63.0493 32.8108C63.0493 32.8108 54.7148 28.5484 61.2985 19.5986Z" fill="#121212" stroke="#121212" stroke-width="2" stroke-linecap="round" stroke-linejoin="round"/>
<path d="M91.9568 71.5467C91.6716 71.7201 94.4852 77.9235 94.4852 77.9235C94.4852 77.9235 101.908 71.3174 110.298 71.5467C117.917 71.7593 121.704 76.3572 121.704 76.3572C121.704 76.3572 120.333 73.3926 119.718 72.548C114.88 65.9028 104.403 65.6399 97.4386 68.6548C95.5424 69.4771 93.7244 70.4783 91.9568 71.5467Z" fill="#5AC1FF" stroke="#121212" stroke-width="2" stroke-linecap="round" stroke-linejoin="round"/>
<path d="M121.709 76.3516C121.709 76.3516 125.239 82.5661 131.409 82.9464C140.666 83.5226 144.403 77.9178 144.403 77.9178L141.46 70.5342C141.46 70.5342 135.47 84.0372 121.704 76.3516H121.709Z" fill="#08527F" stroke="#121212" stroke-width="2" stroke-linecap="round" stroke-linejoin="round"/>
<path d="M68.0613 44.1605C68.7158 46.3476 71.479 49.4744 75.5065 50.3302C81.7713 51.6559 87.8236 44.6919 88.6962 38.1641C89.5688 31.6363 88.3326 25.4722 86.6098 21.014C84.887 16.5559 83.7459 15.3589 83.7459 15.3589L76.5636 19.3304C76.5636 19.3304 84.4618 30.7078 83.4774 37.0174C82.4929 43.327 80.5966 45.5812 76.1777 45.4358C69.0346 45.2009 69.3255 38.0914 69.3255 38.0914C69.3255 38.0914 66.758 39.803 68.0557 44.1605H68.0613Z" fill="#08527F" stroke="#121212" stroke-width="2" stroke-linecap="round" stroke-linejoin="round"/>
<path d="M58.877 61.1426V68.515C58.877 68.515 76.4577 68.157 83.1421 56.3657C86.7835 49.9442 86.9793 40.8434 80.2054 36.1335C76.9779 33.8905 73.1854 33.2976 70.0866 35.6413C66.8087 38.1249 67.7652 42.8235 67.7652 42.8235C67.7652 42.8235 67.2059 39.2324 72.0052 38.5276C76.3235 37.8899 81.9227 43.4108 80.5299 48.6968C79.1371 53.9828 74.1811 61.9761 58.877 61.137V61.1426Z" fill="#5AC1FF" stroke="#121212" stroke-width="2" stroke-linecap="round" stroke-linejoin="round"/>
<path d="M93.742 85.8101C93.742 85.8101 83.9364 82.9797 76.1221 85.0885L77.1625 91.689C77.1625 91.689 80.6249 88.5342 93.742 85.8045V85.8101Z" fill="#121212" stroke="#121212" stroke-width="2" stroke-linecap="round" stroke-linejoin="round"/>
<path d="M86.0786 84.4624C93.3 85.0609 99.425 86.946 105.953 91.9075L98.5636 97.4452C98.5636 97.4452 95.5486 89.7931 86.0786 84.4624Z" fill="#CCECFF" stroke="#121212" stroke-width="2" stroke-linecap="round" stroke-linejoin="round"/>
<path d="M60.7399 75.5744C55.426 68.4202 49.0157 62.6588 43.1592 59.4536C44.4401 65.6234 47.8131 73.2307 53.5298 80.9275C58.8381 88.0706 65.2316 93.8264 71.0825 97.0316C69.673 90.2801 66.0203 82.6839 60.7399 75.5744Z" fill="#121212" stroke="#121212" stroke-width="2" stroke-linecap="round" stroke-linejoin="round"/>
</svg>
