<svg width="73" height="73" viewBox="0 0 73 73" fill="none" xmlns="http://www.w3.org/2000/svg">
<rect x="0.5" y="0.5" width="72" height="72" rx="36" fill="#FF8616"/>
<path fill-rule="evenodd" clip-rule="evenodd" d="M33.532 20.6594L34.0792 28.0876L34.2027 29.2775V29.7195C34.2027 31.9462 32.9672 33.867 31.1316 34.9549C30.1785 35.5159 29.7019 36.5868 29.7725 37.6576L30.5491 50.6953C30.6374 52.2081 29.3842 53.5 27.7957 53.5C26.2072 53.5 24.954 52.2251 25.0423 50.6953L25.8189 37.6576C25.8895 36.5868 25.4129 35.5159 24.4598 34.9549C22.6242 33.884 21.3887 31.9462 21.3887 29.7195V29.2775L21.5122 28.0876L22.077 20.6594C22.1123 19.9625 22.7301 19.4525 23.4361 19.5035C24.1421 19.5545 24.6716 20.1494 24.6363 20.8294L24.1245 27.3907L24.0539 28.4616C24.0009 29.1415 24.5128 29.6345 25.2188 29.6345C25.9248 29.6345 26.5072 29.0735 26.5072 28.3936V20.7444C26.5072 20.0645 27.072 19.5035 27.7957 19.5035C28.5194 19.5035 29.0842 20.0645 29.0665 20.7444V28.3936C29.0665 29.0735 29.649 29.6345 30.355 29.6345C31.061 29.6345 31.5728 29.1415 31.5199 28.4616L31.4493 27.3907L30.9727 20.8464C30.9198 20.1664 31.4493 19.5715 32.1553 19.5205C32.8613 19.4695 33.4791 19.9795 33.532 20.6594ZM38.0566 26.7957C38.0566 22.5291 41.0925 19.5034 44.8343 19.5034C48.5762 19.5034 51.612 22.5461 51.612 26.7957C51.612 28.5635 51.3825 31.1812 50.5 32.5751L50.4647 32.6091C49.9352 33.561 49.141 34.3769 48.1702 34.9378C47.2171 35.4988 46.7405 36.5697 46.8111 37.6405L47.5878 50.6782C47.676 52.191 46.4228 53.4829 44.8343 53.4829C43.2458 53.4829 41.9926 52.208 42.0809 50.6782L42.8575 37.6405C42.9281 36.5697 42.4515 35.4988 41.4984 34.9378C40.5277 34.3769 39.7511 33.561 39.2039 32.6091L39.1686 32.5751C38.2861 31.1982 38.0566 28.5635 38.0566 26.7957Z" fill="#482606"/>
</svg>
