<svg width="72" height="73" viewBox="0 0 72 73" fill="none" xmlns="http://www.w3.org/2000/svg">
<rect y="0.5" width="72" height="72" rx="36" fill="#FFCB47"/>
<path fill-rule="evenodd" clip-rule="evenodd" d="M31.5 24C31.5 23.24 31.7403 22.0667 32.4173 21.1265C33.0392 20.2627 34.0889 19.5 36 19.5C37.9111 19.5 38.9608 20.2627 39.5827 21.1265C40.2597 22.0667 40.5 23.24 40.5 24V25.5H31.5V24ZM28.5 25.5V24C28.5 22.76 28.8597 20.9333 29.9827 19.3735C31.1608 17.7373 33.1111 16.5 36 16.5C38.8889 16.5 40.8392 17.7373 42.0173 19.3735C43.1403 20.9333 43.5 22.76 43.5 24V25.5H46.4679C48.5787 25.5 50.3261 27.1401 50.4599 29.2465L51.5947 47.1198C51.8141 50.5761 49.07 53.5 45.6068 53.5H35.9998H26.3928C22.9295 53.5 20.1854 50.5761 20.4049 47.1198L21.5397 29.2465C21.6734 27.1401 23.4209 25.5 25.5317 25.5H28.5ZM32.4171 34.3735C31.7401 33.4333 31.4998 32.26 31.4998 31.5C31.4998 30.6716 30.8282 30 29.9998 30C29.1714 30 28.4998 30.6716 28.4998 31.5C28.4998 32.74 28.8595 34.5667 29.9825 36.1265C31.1606 37.7627 33.1109 39 35.9998 39C38.8887 39 40.839 37.7627 42.0171 36.1265C43.1401 34.5667 43.4998 32.74 43.4998 31.5C43.4998 30.6716 42.8282 30 41.9998 30C41.1714 30 40.4998 30.6716 40.4998 31.5C40.4998 32.26 40.2595 33.4333 39.5825 34.3735C38.9606 35.2373 37.9109 36 35.9998 36C34.0887 36 33.039 35.2373 32.4171 34.3735Z" fill="#443715"/>
</svg>
