<svg width="73" height="73" viewBox="0 0 73 73" fill="none" xmlns="http://www.w3.org/2000/svg">
<rect x="0.5" y="0.5" width="72" height="72" rx="36" fill="#9251FB"/>
<path fill-rule="evenodd" clip-rule="evenodd" d="M54.4907 28.3386C54.6554 26.9642 53.0774 26.4534 52.1141 27.4325L49.0917 30.5041C48.6535 30.9494 48.0155 31.1246 47.4163 30.9641L44.3012 30.1297C43.6946 29.9672 43.2209 29.4857 43.061 28.8692L42.24 25.7034C42.082 25.0944 42.2544 24.446 42.6926 24.0007L45.715 20.929C46.6783 19.95 46.1757 18.3462 44.8234 18.5136C42.9355 18.7472 41.1029 19.6038 39.6485 21.082C37.2527 23.5168 36.5162 26.9945 37.4458 30.0483C37.5622 30.4306 37.429 30.8472 37.1506 31.1301L35.3418 32.9684L35.3408 32.9675L32.0296 36.3326L32.0306 36.3336L20.943 47.6019C19.5827 48.9844 19.5827 51.2258 20.943 52.6083C22.3033 53.9907 24.5087 53.9907 25.869 52.6083L42.0766 36.1365C42.355 35.8535 42.7649 35.7181 43.1411 35.8364C46.1459 36.7811 49.5678 36.0326 51.9636 33.5978C53.418 32.1197 54.2609 30.2572 54.4907 28.3386ZM22.1978 48.8298C21.5112 49.5276 21.506 50.6536 22.1861 51.3448C22.8663 52.0361 23.9742 52.0308 24.6608 51.333C25.3474 50.6352 25.3526 49.5092 24.6724 48.818C23.9923 48.1268 22.8843 48.1321 22.1978 48.8298ZM43.7458 38.3722L52.7174 47.49C53.0729 47.8513 53.2529 48.3538 53.2093 48.8628L52.8894 52.5957C52.8178 53.4322 52.1651 54.0955 51.342 54.1683L47.669 54.4934C47.1682 54.5377 46.6737 54.3547 46.3183 53.9935L37.0264 44.5501L43.2152 38.2605C43.3913 38.3022 43.5682 38.3394 43.7458 38.3722ZM30.4144 34.6911L24.8807 29.0672C24.5993 29.0721 24.3146 29.0229 24.042 28.9164L21.0739 27.7568C20.4842 27.5264 20.0183 27.0529 19.7916 26.4537L18.6506 23.4371C18.3342 22.6007 18.5321 21.6533 19.1556 21.0197L19.6714 20.4955C19.6854 20.4805 19.6996 20.4657 19.714 20.4511C19.7284 20.4364 19.743 20.422 19.7577 20.4078L20.3355 19.8206C20.959 19.1869 21.8911 18.9858 22.7142 19.3073L25.6823 20.4669C26.272 20.6973 26.7379 21.1708 26.9646 21.7701L28.1056 24.7866C28.2251 25.1028 28.2713 25.4348 28.2487 25.7597L33.7256 31.3259L30.4144 34.6911ZM41.4389 44.5607L48.4389 51.5607C49.0246 52.1465 49.9744 52.1465 50.5602 51.5607C51.146 50.975 51.146 50.0252 50.5602 49.4394L43.5602 42.4394L41.4389 44.5607Z" fill="#23133E"/>
</svg>
