<svg width="72" height="73" viewBox="0 0 72 73" fill="none" xmlns="http://www.w3.org/2000/svg">
<rect y="0.5" width="72" height="72" rx="36" fill="#F268B2"/>
<path fill-rule="evenodd" clip-rule="evenodd" d="M18.9313 31.9832C20.1892 33.083 20.9837 34.6988 20.9837 36.5C20.9837 38.3012 20.1892 39.917 18.9313 41.0168L18.9313 41.0168C17.9553 41.8702 17.4673 42.2968 17.3169 42.5266C17.1357 42.8036 17.1076 42.8706 17.0368 43.1939C16.978 43.4622 16.9965 43.7847 17.0336 44.4297C17.1033 45.6435 17.2639 46.4973 17.6341 47.2239C18.2094 48.3529 19.1272 49.2708 20.2562 49.846C21.5397 50.5 23.2198 50.5 26.5802 50.5H47.4179C50.7782 50.5 52.4584 50.5 53.7418 49.846C54.8708 49.2708 55.7887 48.3529 56.3639 47.2239C56.7342 46.4972 56.8949 45.6432 56.9645 44.429V44.4289C57.0015 43.784 57.02 43.4616 56.9613 43.1934C56.8905 42.87 56.8624 42.8031 56.6812 42.5261C56.5308 42.2964 56.043 41.8697 55.0673 41.0165L55.0673 41.0165L55.0672 41.0164C53.8096 39.9166 53.0153 38.301 53.0153 36.5C53.0153 34.699 53.8096 33.0834 55.0672 31.9836L55.0672 31.9835C56.043 31.1303 56.5308 30.7036 56.6812 30.4739C56.8624 30.1969 56.8905 30.13 56.9613 29.8066C57.02 29.5384 57.0015 29.216 56.9645 28.5711V28.571C56.8949 27.3568 56.7342 26.5028 56.3639 25.7761C55.7887 24.6471 54.8708 23.7292 53.7418 23.154C52.4584 22.5 50.7782 22.5 47.4179 22.5H26.5802C23.2198 22.5 21.5397 22.5 20.2562 23.154C19.1272 23.7292 18.2094 24.6471 17.6341 25.7761C17.2639 26.5027 17.1033 27.3565 17.0336 28.5703C16.9965 29.2153 16.978 29.5378 17.0368 29.8061C17.1076 30.1294 17.1357 30.1964 17.3169 30.4734C17.4673 30.7032 17.9553 31.1298 18.9313 31.9832ZM45.025 32.5C46.1306 32.5 47.0269 31.6046 47.0269 30.5C47.0269 29.3954 46.1306 28.5 45.025 28.5C43.9194 28.5 43.0231 29.3954 43.0231 30.5C43.0231 31.6046 43.9194 32.5 45.025 32.5ZM47.0269 42.5C47.0269 43.6046 46.1306 44.5 45.025 44.5C43.9194 44.5 43.0231 43.6046 43.0231 42.5C43.0231 41.3954 43.9194 40.5 45.025 40.5C46.1306 40.5 47.0269 41.3954 47.0269 42.5ZM45.025 38.5C46.1306 38.5 47.0269 37.6046 47.0269 36.5C47.0269 35.3954 46.1306 34.5 45.025 34.5C43.9194 34.5 43.0231 35.3954 43.0231 36.5C43.0231 37.6046 43.9194 38.5 45.025 38.5Z" fill="#401A2F"/>
</svg>
